<svg xmlns="http://www.w3.org/2000/svg" xmlns:xlink="http://www.w3.org/1999/xlink" contentStyleType="text/css" data-diagram-type="DESCRIPTION" height="882px" preserveAspectRatio="none" style="width:1426px;height:882px;background:#FFFFFF;" version="1.1" viewBox="0 0 1426 882" width="1426px" zoomAndPan="magnify"><?plantuml 1.2026.3beta6?><defs/><g><!--cluster NetLogo UI--><g class="cluster" data-qualified-name="NetLogo UI" data-source-line="5" id="ent0003"><path d="M625.99,6 L714.5242,6 A3.75,3.75 0 0 1 717.0242,8.5 L724.0242,28.2969 L1409.28,28.2969 A2.5,2.5 0 0 1 1411.78,30.7969 L1411.78,404.5 A2.5,2.5 0 0 1 1409.28,407 L625.99,407 A2.5,2.5 0 0 1 623.49,404.5 L623.49,8.5 A2.5,2.5 0 0 1 625.99,6" fill="none" style="stroke:#000000;stroke-width:1.5;"/><line style="stroke:#000000;stroke-width:1.5;" x1="623.49" x2="724.0242" y1="28.2969" y2="28.2969"/><text fill="#000000" font-family="sans-serif" font-size="14" font-weight="700" lengthAdjust="spacing" textLength="87.5342" x="627.49" y="20.9951">NetLogo UI</text></g><!--cluster BehaviorSpace--><g class="cluster" data-qualified-name="BehaviorSpace" data-source-line="19" id="ent0012"><path d="M8.5,639 L126.873,639 A3.75,3.75 0 0 1 129.373,641.5 L136.373,661.2969 L850.86,661.2969 A2.5,2.5 0 0 1 853.36,663.7969 L853.36,864.5 A2.5,2.5 0 0 1 850.86,867 L8.5,867 A2.5,2.5 0 0 1 6,864.5 L6,641.5 A2.5,2.5 0 0 1 8.5,639" fill="none" style="stroke:#000000;stroke-width:1.5;"/><line style="stroke:#000000;stroke-width:1.5;" x1="6" x2="136.373" y1="661.2969" y2="661.2969"/><text fill="#000000" font-family="sans-serif" font-size="14" font-weight="700" lengthAdjust="spacing" textLength="117.373" x="10" y="653.9951">BehaviorSpace</text></g><!--entity reset--><g class="entity" data-qualified-name="NetLogo UI.reset" data-source-line="7" id="ent0004"><ellipse cx="747.3327" cy="64.9965" fill="#F1F1F1" rx="107.8327" ry="23.9665" style="stroke:#181818;stroke-width:0.5;"/><text fill="#000000" font-family="sans-serif" font-size="14" lengthAdjust="spacing" textLength="193.1836" x="650.7409" y="69.645">Paraméterek alaphelyzetbe</text></g><!--entity configure--><g class="entity" data-qualified-name="NetLogo UI.configure" data-source-line="8" id="ent0005"><ellipse cx="747.3259" cy="147.9992" fill="#F1F1F1" rx="107.4959" ry="23.8992" style="stroke:#181818;stroke-width:0.5;"/><text fill="#000000" font-family="sans-serif" font-size="14" lengthAdjust="spacing" textLength="192.4521" x="651.0998" y="152.6476">Paraméterek testreszabása</text></g><!--entity setup--><g class="entity" data-qualified-name="NetLogo UI.setup" data-source-line="9" id="ent0006"><ellipse cx="747.3322" cy="228.9984" fill="#F1F1F1" rx="100.8422" ry="22.5684" style="stroke:#181818;stroke-width:0.5;"/><text fill="#000000" font-family="sans-serif" font-size="14" lengthAdjust="spacing" textLength="177.9121" x="658.3762" y="233.6469">Szimulátor alaphelyzetbe</text></g><!--entity step--><g class="entity" data-qualified-name="NetLogo UI.step" data-source-line="11" id="ent0007"><ellipse cx="1044.8646" cy="356.0036" fill="#F1F1F1" rx="28.3046" ry="14.5236" style="stroke:#181818;stroke-width:0.5;"/><text fill="#000000" font-family="sans-serif" font-size="14" lengthAdjust="spacing" textLength="35.7861" x="1026.9716" y="360.6521">1 kör</text></g><!--entity 500_step--><g class="entity" data-qualified-name="NetLogo UI.500_step" data-source-line="12" id="ent0008"><ellipse cx="747.3313" cy="301.0036" fill="#F1F1F1" rx="40.9013" ry="14.5236" style="stroke:#181818;stroke-width:0.5;"/><text fill="#000000" font-family="sans-serif" font-size="14" lengthAdjust="spacing" textLength="53.6006" x="720.531" y="305.6521">500 kör</text></g><!--entity go--><g class="entity" data-qualified-name="NetLogo UI.go" data-source-line="13" id="ent0009"><ellipse cx="747.3295" cy="371.0019" fill="#F1F1F1" rx="88.5595" ry="20.1119" style="stroke:#181818;stroke-width:0.5;"/><text fill="#000000" font-family="sans-serif" font-size="14" lengthAdjust="spacing" textLength="150.4727" x="672.0932" y="375.6503">Folymatos szimuláció</text></g><!--entity halt--><g class="entity" data-qualified-name="NetLogo UI.halt" data-source-line="14" id="ent0010"><ellipse cx="1044.8605" cy="292.0036" fill="#F1F1F1" rx="52.7005" ry="14.5236" style="stroke:#181818;stroke-width:0.5;"/><text fill="#000000" font-family="sans-serif" font-size="14" lengthAdjust="spacing" textLength="70.2871" x="1009.7169" y="296.6521">Megszakít</text></g><!--entity update_plots--><g class="entity" data-qualified-name="NetLogo UI.update_plots" data-source-line="16" id="ent0011"><ellipse cx="1310.1716" cy="356.0023" fill="#F1F1F1" rx="85.6116" ry="19.5223" style="stroke:#181818;stroke-width:0.5;"/><text fill="#000000" font-family="sans-serif" font-size="14" lengthAdjust="spacing" textLength="143.7324" x="1238.3054" y="360.6508">Grafikonok frissítése</text></g><!--entity create_experiment--><g class="entity" data-qualified-name="BehaviorSpace.create_experiment" data-source-line="21" id="ent0013"><ellipse cx="105.4652" cy="731.003" fill="#F1F1F1" rx="83.4652" ry="19.093" style="stroke:#181818;stroke-width:0.5;"/><text fill="#000000" font-family="sans-serif" font-size="14" lengthAdjust="spacing" textLength="138.7764" x="36.077" y="735.6515">Kísérlet létrehozása</text></g><!--entity edit_experiment--><g class="entity" data-qualified-name="BehaviorSpace.edit_experiment" data-source-line="22" id="ent0014"><ellipse cx="413.212" cy="763.9964" fill="#F1F1F1" rx="87.282" ry="19.8564" style="stroke:#181818;stroke-width:0.5;"/><text fill="#000000" font-family="sans-serif" font-size="14" lengthAdjust="spacing" textLength="147.5605" x="339.4317" y="768.6448">Kísérlet szerkesztése</text></g><!--entity delete_experiment--><g class="entity" data-qualified-name="BehaviorSpace.delete_experiment" data-source-line="23" id="ent0015"><ellipse cx="413.211" cy="835.0022" fill="#F1F1F1" rx="69.611" ry="16.3222" style="stroke:#181818;stroke-width:0.5;"/><text fill="#000000" font-family="sans-serif" font-size="14" lengthAdjust="spacing" textLength="105.3965" x="360.5128" y="839.6506">Kísérlet törlése</text></g><!--entity run_experiment--><g class="entity" data-qualified-name="BehaviorSpace.run_experiment" data-source-line="25" id="ent0016"><ellipse cx="413.2126" cy="692.0045" fill="#F1F1F1" rx="75.7226" ry="17.5445" style="stroke:#181818;stroke-width:0.5;"/><text fill="#000000" font-family="sans-serif" font-size="14" lengthAdjust="spacing" textLength="120.4766" x="352.9743" y="696.653">Kísérlet futtatása</text></g><!--entity abort_experiment--><g class="entity" data-qualified-name="BehaviorSpace.abort_experiment" data-source-line="28" id="ent0017"><ellipse cx="747.3319" cy="693.9964" fill="#F1F1F1" rx="89.8819" ry="20.3764" style="stroke:#181818;stroke-width:0.5;"/><text fill="#000000" font-family="sans-serif" font-size="14" lengthAdjust="spacing" textLength="153.4736" x="670.5951" y="698.6448">Kísérlet megszakítása</text></g><!--entity export_results--><g class="entity" data-qualified-name="BehaviorSpace.export_results" data-source-line="29" id="ent0018"><ellipse cx="747.3329" cy="769.9966" fill="#F1F1F1" rx="90.0329" ry="20.4066" style="stroke:#181818;stroke-width:0.5;"/><text fill="#000000" font-family="sans-serif" font-size="14" lengthAdjust="spacing" textLength="153.8154" x="670.4252" y="774.645">Eredmények mentése</text></g><!--entity user--><g class="entity" data-qualified-name="user" data-source-line="3" id="ent0002"><ellipse cx="105.4688" cy="440.35" fill="#F1F1F1" rx="8" ry="8" style="stroke:#181818;stroke-width:0.5;"/><path d="M105.4688,448.35 L105.4688,475.35 M92.4688,456.35 L118.4688,456.35 M105.4688,475.35 L92.4688,490.35 M105.4688,475.35 L118.4688,490.35" fill="none" style="stroke:#181818;stroke-width:0.5;"/><text fill="#000000" font-family="sans-serif" font-size="14" lengthAdjust="spacing" textLength="82.5576" x="64.19" y="504.8451">Felhasználó</text></g><!--link user to reset--><g class="link" data-entity-1="ent0002" data-entity-2="ent0004" data-link-type="association" data-source-line="34" id="lnk19"><path d="M118.7,431.74 C135.46,383.79 169.26,300.99 218.93,244 C326.14,121 521.17,82.38 641.66,70.34" fill="none" id="user-reset" style="stroke:#181818;stroke-width:1;"/></g><!--link user to setup--><g class="link" data-entity-1="ent0002" data-entity-2="ent0006" data-link-type="association" data-source-line="35" id="lnk20"><path d="M132.62,431.4 C153.27,403.39 184.31,366.3 218.93,342 C347.12,252.03 532.92,231.39 646.34,227.89" fill="none" id="user-setup" style="stroke:#181818;stroke-width:1;"/></g><!--link user to configure--><g class="link" data-entity-1="ent0002" data-entity-2="ent0005" data-link-type="association" data-source-line="36" id="lnk21"><path d="M124.23,431.44 C143.32,393.29 176.7,335.1 218.93,296 C334.86,188.68 522.42,158.32 639.83,150.23" fill="none" id="user-configure" style="stroke:#181818;stroke-width:1;"/></g><!--link user to step--><g class="link" data-entity-1="ent0002" data-entity-2="ent0007" data-link-type="association" data-source-line="37" id="lnk22"><path d="M146.97,476.13 C222.28,487.17 389.03,510.02 530.49,518 C723.22,528.87 796.77,569.53 962.16,470 C1001.59,446.27 1027.33,395.44 1038.1,370.46" fill="none" id="user-step" style="stroke:#181818;stroke-width:1;"/></g><!--link user to 500_step--><g class="link" data-entity-1="ent0002" data-entity-2="ent0008" data-link-type="association" data-source-line="38" id="lnk23"><path d="M146.48,431.55 C166.75,414.03 192.6,394.47 218.93,382 C386.79,302.5 615.22,297.84 706.38,299.56" fill="none" id="user-500_step" style="stroke:#181818;stroke-width:1;"/></g><!--link user to go--><g class="link" data-entity-1="ent0002" data-entity-2="ent0009" data-link-type="association" data-source-line="39" id="lnk24"><path d="M146.99,446.13 C167.8,435.03 193.96,422.81 218.93,416 C369.64,374.88 552.76,368.53 658.78,368.9" fill="none" id="user-go" style="stroke:#181818;stroke-width:1;"/></g><!--link user to halt--><g class="link" data-entity-1="ent0002" data-entity-2="ent0010" data-link-type="association" data-source-line="40" id="lnk25"><path d="M146.78,468.19 C282.64,461.84 722.98,439.39 861.36,409 C907.97,398.76 925.11,402.08 962.16,372 C981.69,356.14 974.33,341.75 992.16,324 C999.64,316.55 1009.17,310.04 1018,304.87" fill="none" id="user-halt" style="stroke:#181818;stroke-width:1;"/></g><!--link user to create_experiment--><g class="link" data-entity-1="ent0002" data-entity-2="ent0013" data-link-type="association" data-source-line="42" id="lnk26"><path d="M105.47,508.23 C105.47,576.03 105.47,643.83 105.47,711.63" fill="none" id="user-create_experiment" style="stroke:#181818;stroke-width:1;"/></g><!--link user to edit_experiment--><g class="link" data-entity-1="ent0002" data-entity-2="ent0014" data-link-type="association" data-source-line="43" id="lnk27"><path d="M134.54,508.63 C155.7,536.01 186.53,572.45 218.93,599 C249.42,623.98 270.62,612.79 295.93,643 C321.39,673.39 298.78,698.11 325.93,727 C334.52,736.15 345.76,743.14 357.26,748.44" fill="none" id="user-edit_experiment" style="stroke:#181818;stroke-width:1;"/></g><!--link user to delete_experiment--><g class="link" data-entity-1="ent0002" data-entity-2="ent0015" data-link-type="association" data-source-line="44" id="lnk28"><path d="M125.17,508.51 C144.64,545.62 178,601.65 218.93,640 C247.7,666.95 272.04,652.65 295.93,684 C328.47,726.69 290.4,760.76 325.93,801 C335.2,811.5 348.13,818.79 361.17,823.84" fill="none" id="user-delete_experiment" style="stroke:#181818;stroke-width:1;"/></g><!--link user to run_experiment--><g class="link" data-entity-1="ent0002" data-entity-2="ent0016" data-link-type="association" data-source-line="45" id="lnk29"><path d="M147.05,504.07 C167.98,521.04 194.24,541.41 218.93,558 C251.65,579.98 263.15,580.11 295.93,602 C330.96,625.4 369.14,656.02 391.86,674.84" fill="none" id="user-run_experiment" style="stroke:#181818;stroke-width:1;"/></g><!--link user to abort_experiment--><g class="link" data-entity-1="ent0002" data-entity-2="ent0017" data-link-type="association" data-source-line="48" id="lnk30"><path d="M147.05,487.79 C168.31,496.9 194.87,507.95 218.93,517 C390.23,581.44 596.91,647.47 692.73,677.42" fill="none" id="user-abort_experiment" style="stroke:#181818;stroke-width:1;"/></g><!--link 500_step to step--><g class="link" data-entity-1="ent0008" data-entity-2="ent0007" data-link-type="dependency" data-source-line="50" id="lnk31"><path d="M782.77,293.29 C835.11,282.31 931.83,265.18 962.16,281 C982.82,291.78 975.24,307.98 992.16,324 C1001.51,332.85 1008.4339,337.6463 1018.6239,343.2563" fill="none" id="500_step-to-step" style="stroke:#181818;stroke-width:1;stroke-dasharray:7,7;"/><polygon fill="#181818" points="1023.88,346.15,1017.925,338.3054,1019.4999,343.7386,1014.0667,345.3135,1023.88,346.15" style="stroke:#181818;stroke-width:1;"/><text fill="#000000" font-family="sans-serif" font-size="13" lengthAdjust="spacing" textLength="69.7798" x="889.16" y="271.0669">«includes»</text></g><!--link go to step--><g class="link" data-entity-1="ent0009" data-entity-2="ent0007" data-link-type="dependency" data-source-line="51" id="lnk32"><path d="M834.2,366.64 C895.9,363.51 969.1677,359.7943 1010.3177,357.7043" fill="none" id="go-to-step" style="stroke:#181818;stroke-width:1;stroke-dasharray:7,7;"/><polygon fill="#181818" points="1016.31,357.4,1007.1187,353.8617,1011.3164,357.6536,1007.5245,361.8514,1016.31,357.4" style="stroke:#181818;stroke-width:1;"/><text fill="#000000" font-family="sans-serif" font-size="13" lengthAdjust="spacing" textLength="69.7798" x="889.16" y="357.0669">«includes»</text></g><!--link step to update_plots--><g class="link" data-entity-1="ent0007" data-entity-2="ent0011" data-link-type="dependency" data-source-line="52" id="lnk33"><path d="M1073.54,356 C1109.06,356 1166.3,356 1218.33,356" fill="none" id="step-to-update_plots" style="stroke:#181818;stroke-width:1;stroke-dasharray:7,7;"/><polygon fill="#181818" points="1224.33,356,1215.33,352,1219.33,356,1215.33,360,1224.33,356" style="stroke:#181818;stroke-width:1;"/><text fill="#000000" font-family="sans-serif" font-size="13" lengthAdjust="spacing" textLength="65.7046" x="1128.56" y="352.0669">«invokes»</text></g><!--link 500_step to halt--><g class="link" data-entity-1="ent0008" data-entity-2="ent0010" data-link-type="dependency" data-source-line="54" id="lnk34"><path d="M787.46,297.67 C811.03,293.91 840.43,285.93 861.36,269 C878.95,254.77 865.78,235.67 885.16,224 C914.47,206.34 929.98,212.36 962.16,224 C991.49,234.61 1013.7637,256.3217 1028.1937,272.9217" fill="none" id="500_step-to-halt" style="stroke:#181818;stroke-width:1;stroke-dasharray:7,7;"/><polygon fill="#181818" points="1032.13,277.45,1029.2444,268.0334,1028.8497,273.6764,1023.2067,273.2818,1032.13,277.45" style="stroke:#181818;stroke-width:1;"/><text fill="#000000" font-family="sans-serif" font-size="13" lengthAdjust="spacing" textLength="75.6704" x="886.16" y="209.0669">«precedes»</text></g><!--link go to halt--><g class="link" data-entity-1="ent0009" data-entity-2="ent0010" data-link-type="dependency" data-source-line="55" id="lnk35"><path d="M806.01,355.58 C865.14,339.77 949.5934,317.199 1000.2234,303.669" fill="none" id="go-to-halt" style="stroke:#181818;stroke-width:1;stroke-dasharray:7,7;"/><polygon fill="#181818" points="1006.02,302.12,996.2924,300.5792,1001.1895,303.4109,998.3578,308.308,1006.02,302.12" style="stroke:#181818;stroke-width:1;"/><text fill="#000000" font-family="sans-serif" font-size="13" lengthAdjust="spacing" textLength="75.6704" x="886.16" y="312.0669">«precedes»</text></g><!--link create_experiment to edit_experiment--><g class="link" data-entity-1="ent0013" data-entity-2="ent0014" data-link-type="dependency" data-source-line="57" id="lnk36"><path d="M153.78,746.97 C173.65,752.91 197.17,758.94 218.93,762 C254.16,766.95 287.3503,768.205 321.1803,767.895" fill="none" id="create_experiment-to-edit_experiment" style="stroke:#181818;stroke-width:1;stroke-dasharray:7,7;"/><polygon fill="#181818" points="327.18,767.84,318.1437,763.9226,322.1802,767.8858,318.217,771.9223,327.18,767.84" style="stroke:#181818;stroke-width:1;"/><text fill="#000000" font-family="sans-serif" font-size="13" lengthAdjust="spacing" textLength="75.6704" x="219.93" y="758.0669">«precedes»</text></g><!--link create_experiment to delete_experiment--><g class="link" data-entity-1="ent0013" data-entity-2="ent0015" data-link-type="dependency" data-source-line="58" id="lnk37"><path d="M134.55,749.1 C156.69,762.64 188.76,780.72 218.93,792 C262.72,808.38 308.6199,818.4552 347.5699,825.2752" fill="none" id="create_experiment-to-delete_experiment" style="stroke:#181818;stroke-width:1;stroke-dasharray:7,7;"/><polygon fill="#181818" points="353.48,826.31,345.3048,820.8177,348.5549,825.4476,343.925,828.6978,353.48,826.31" style="stroke:#181818;stroke-width:1;"/><text fill="#000000" font-family="sans-serif" font-size="13" lengthAdjust="spacing" textLength="75.6704" x="219.93" y="788.0669">«precedes»</text></g><!--link create_experiment to run_experiment--><g class="link" data-entity-1="ent0013" data-entity-2="ent0016" data-link-type="dependency" data-source-line="59" id="lnk38"><path d="M179.31,721.71 C229.91,715.25 290.8582,707.4787 339.9682,701.2187" fill="none" id="create_experiment-to-run_experiment" style="stroke:#181818;stroke-width:1;stroke-dasharray:7,7;"/><polygon fill="#181818" points="345.92,700.46,336.4865,697.6301,340.9601,701.0922,337.498,705.5659,345.92,700.46" style="stroke:#181818;stroke-width:1;"/><text fill="#000000" font-family="sans-serif" font-size="13" lengthAdjust="spacing" textLength="75.6704" x="219.93" y="702.0669">«precedes»</text></g><!--link run_experiment to export_results--><g class="link" data-entity-1="ent0016" data-entity-2="ent0018" data-link-type="dependency" data-source-line="60" id="lnk39"><path d="M467.57,704.53 C526.43,718.36 615.219,739.208 677.629,753.868" fill="none" id="run_experiment-to-export_results" style="stroke:#181818;stroke-width:1;stroke-dasharray:7,7;"/><polygon fill="#181818" points="683.47,755.24,675.6232,749.2879,678.6025,754.0966,673.7938,757.0759,683.47,755.24" style="stroke:#181818;stroke-width:1;"/><text fill="#000000" font-family="sans-serif" font-size="13" lengthAdjust="spacing" textLength="65.7046" x="536.49" y="715.0669">«invokes»</text></g><!--link run_experiment to go--><g class="link" data-entity-1="ent0016" data-entity-2="ent0009" data-link-type="dependency" data-source-line="61" id="lnk40"><path d="M432.07,674.74 C488.93,619.79 661.2258,453.2498 721.5658,394.9298" fill="none" id="run_experiment-to-go" style="stroke:#181818;stroke-width:1;stroke-dasharray:7,7;"/><polygon fill="#181818" points="725.88,390.76,716.6288,394.1386,722.2848,394.2348,722.1885,399.8909,725.88,390.76" style="stroke:#181818;stroke-width:1;"/><text fill="#000000" font-family="sans-serif" font-size="13" lengthAdjust="spacing" textLength="69.7798" x="534.49" y="509.0669">«includes»</text></g><!--link run_experiment to abort_experiment--><g class="link" data-entity-1="ent0016" data-entity-2="ent0017" data-link-type="dependency" data-source-line="63" id="lnk41"><path d="M489.16,692.45 C539,692.75 598.6901,693.1146 651.2101,693.4246" fill="none" id="run_experiment-to-abort_experiment" style="stroke:#181818;stroke-width:1;stroke-dasharray:7,7;"/><polygon fill="#181818" points="657.21,693.46,648.2338,689.4069,652.2101,693.4305,648.1865,697.4068,657.21,693.46" style="stroke:#181818;stroke-width:1;"/><text fill="#000000" font-family="sans-serif" font-size="13" lengthAdjust="spacing" textLength="75.6704" x="531.49" y="688.0669">«precedes»</text></g><?plantuml-src ZLGzRzim4DtrAuWiReS4wT2b23mKI8gY7oWGT0vewIGHeaI1F0MnYluOZnuo1UZKZN-i9zgIGb8kh44GUU_nxjuxIaAE31NJeYYHPK93Ya8rIS9JL9hTWIovwHkxa_Q5SSCw0pf9MfvMl01syHtmgoeK-_dvWlrA63tkHQYK6s1lVd3DQxj7q50nBdbRWjpsW1juEvocmG3-Xu5Wa30ztzYTuOwIgYONHQV1fzttekwatGr5ntaeIzSkbFUELVQFFa0GMZ_u_lfw3jFY8ORSARcjEIgY7_EdmhuuGg5yw3Seg8_AFgCBbrpYGa6VDCz5fHfLiLmBOmXkz-RGHDTc7E6XbGhDWVfxCk8ZbFnHA7rF6x3en1VxREnUIq0cILuDfUfdKJKCHyDJ2rhKqE19hkb1L-J8N1Pa0izX8aaf9rO6j1TbF4dEEqIEKxswQqBgQf46ChT_Yy8hkEK4FOzEzdffmNJrMJBLaziJcM-KFYtKhOQCnhxPqjGFqLdUftRW3Qdbx7kI31UHNLuUhz2uEWpwk9hloXGVHdXSJ3CzRj3CZfzkFkU3elaO8w7xutxixrImxzrgt8ziMRrgCP1zZ4IQ9cDFxEfgxRfb7zZDZMXIsMLWrkk4VbQdGXFlzKqxWXvLvJ1-Wa4b1sZflmbUWgLG4kdee8668MkP50by7irNF-G4KLUSDt-16WjuQZ-GTGaL6XSMibhWX0CISIA0QpWSde3s3m00?></g><script xmlns=""/></svg>