<?plantuml 1.2026.2?><svg xmlns="http://www.w3.org/2000/svg" xmlns:xlink="http://www.w3.org/1999/xlink" contentStyleType="text/css" data-diagram-type="CLASS" height="1293px" preserveAspectRatio="none" style="width:1294px;height:1293px;background:#FFFFFF;" version="1.1" viewBox="0 0 1294 1293" width="1294px" zoomAndPan="magnify"><defs/><g><!--class RunParameters--><g class="entity" data-qualified-name="RunParameters" data-source-line="2" id="ent0002"><rect fill="#F1F1F1" height="67.0679" rx="2.5" ry="2.5" style="stroke:#181818;stroke-width:0.5;" width="134.3956" x="505.86" y="665.09"/><ellipse cx="520.86" cy="681.09" fill="#F1F1F1" rx="11" ry="11" style="stroke:#181818;stroke-width:1;"/><path d="M520.5319,687.7619 Q519.61,687.7619 518.7194,687.59 Q517.8288,687.4025 517.0475,687.0275 L517.0475,684.7775 Q518.0006,685.2619 518.8756,685.4963 Q519.7663,685.715 520.61,685.715 Q521.485,685.715 522.0475,685.4181 Q522.61,685.1213 522.61,684.34 Q522.61,683.7931 522.3131,683.4963 Q522.0163,683.1838 521.4538,682.9025 Q520.8913,682.6213 520.11,682.215 Q519.3288,681.7931 518.6725,681.3088 Q518.0319,680.8088 517.6569,680.1369 Q517.2819,679.465 517.2819,678.5119 Q517.2819,676.8869 518.3756,676.09 Q519.485,675.2775 521.2663,675.2775 Q521.985,675.2775 522.9694,675.4494 Q523.9538,675.6056 524.9069,676.0588 L524.1256,677.9806 Q523.2819,677.6213 522.5944,677.4806 Q521.9225,677.3244 521.4069,677.3244 Q520.5631,677.3244 520.1725,677.6681 Q519.7975,677.9963 519.7975,678.6369 Q519.7975,679.1213 520.0319,679.4338 Q520.2819,679.7306 520.7506,679.9806 Q521.235,680.2306 521.9694,680.6056 Q522.9694,681.09 523.6725,681.5588 Q524.3756,682.0275 524.7506,682.6525 Q525.1256,683.2619 525.1256,684.1994 Q525.1256,685.3869 524.5475,686.1838 Q523.985,686.965 522.9381,687.3713 Q521.9069,687.7619 520.5319,687.7619 Z " fill="#000000"/><text fill="#000000" font-family="sans-serif" font-size="14" lengthAdjust="spacing" textLength="102.3956" x="534.86" y="686.522">RunParameters</text><line style="stroke:#181818;stroke-width:0.5;" x1="506.86" x2="639.2556" y1="697.09" y2="697.09"/><text fill="#000000" font-family="sans-serif" font-size="14" lengthAdjust="spacing" textLength="11.256" x="511.86" y="716.0559">...</text><line style="stroke:#181818;stroke-width:0.5;" x1="506.86" x2="639.2556" y1="724.1579" y2="724.1579"/></g><g class="entity" data-qualified-name="GMN3" data-source-line="5" id="ent0004"><path d="M468.58,821.31 L468.58,849.016 A0,0 0 0 0 468.58,849.016 L677.5472,849.016 A0,0 0 0 0 677.5472,849.016 L677.5472,831.31 L667.5472,821.31 L577.06,821.31 L573.06,732.54 L569.06,821.31 L468.58,821.31 A0,0 0 0 0 468.58,821.31" fill="#FEFFDD" style="stroke:#181818;stroke-width:0.5;"/><path d="M667.5472,821.31 L667.5472,831.31 L677.5472,831.31 L667.5472,821.31" fill="#FEFFDD" style="stroke:#181818;stroke-width:0.5;"/><text fill="#000000" font-family="sans-serif" font-size="13" lengthAdjust="spacing" textLength="187.9672" x="474.58" y="840.207">L&#225;sd Simulator oszt&#225;lydiagram</text></g><!--class ExperimentParameters--><g class="entity" data-qualified-name="ExperimentParameters" data-source-line="7" id="ent0006"><rect fill="#F1F1F1" height="105.2038" rx="2.5" ry="2.5" style="stroke:#181818;stroke-width:0.5;" width="246.5132" x="553.8" y="498.89"/><ellipse cx="596.8565" cy="514.89" fill="#F1F1F1" rx="11" ry="11" style="stroke:#181818;stroke-width:1;"/><path d="M596.5283,521.5619 Q595.6065,521.5619 594.7158,521.39 Q593.8252,521.2025 593.044,520.8275 L593.044,518.5775 Q593.9971,519.0619 594.8721,519.2963 Q595.7627,519.515 596.6065,519.515 Q597.4815,519.515 598.044,519.2181 Q598.6065,518.9213 598.6065,518.14 Q598.6065,517.5931 598.3096,517.2963 Q598.0127,516.9838 597.4502,516.7025 Q596.8877,516.4213 596.1065,516.015 Q595.3252,515.5931 594.669,515.1088 Q594.0283,514.6088 593.6533,513.9369 Q593.2783,513.265 593.2783,512.3119 Q593.2783,510.6869 594.3721,509.89 Q595.4815,509.0775 597.2627,509.0775 Q597.9815,509.0775 598.9658,509.2494 Q599.9502,509.4056 600.9033,509.8588 L600.1221,511.7806 Q599.2783,511.4213 598.5908,511.2806 Q597.919,511.1244 597.4033,511.1244 Q596.5596,511.1244 596.169,511.4681 Q595.794,511.7963 595.794,512.4369 Q595.794,512.9213 596.0283,513.2338 Q596.2783,513.5306 596.7471,513.7806 Q597.2315,514.0306 597.9658,514.4056 Q598.9658,514.89 599.669,515.3588 Q600.3721,515.8275 600.7471,516.4525 Q601.1221,517.0619 601.1221,517.9994 Q601.1221,519.1869 600.544,519.9838 Q599.9815,520.765 598.9346,521.1713 Q597.9033,521.5619 596.5283,521.5619 Z " fill="#000000"/><text fill="#000000" font-family="sans-serif" font-size="14" lengthAdjust="spacing" textLength="152.1654" x="617.0912" y="520.322">ExperimentParameters</text><line style="stroke:#181818;stroke-width:0.5;" x1="554.8" x2="799.3132" y1="530.89" y2="530.89"/><g data-visibility-modifier="PUBLIC_FIELD"><ellipse cx="564.8" cy="545.924" fill="none" rx="3" ry="3" style="stroke:#038048;stroke-width:1;"/></g><text fill="#000000" font-family="sans-serif" font-size="14" lengthAdjust="spacing" textLength="211.8612" x="573.8" y="549.8559">RunParameters run_parameters</text><g data-visibility-modifier="PUBLIC_FIELD"><ellipse cx="564.8" cy="564.9919" fill="none" rx="3" ry="3" style="stroke:#038048;stroke-width:1;"/></g><text fill="#000000" font-family="sans-serif" font-size="14" lengthAdjust="spacing" textLength="50.7498" x="573.8" y="568.9239">int runs</text><line style="stroke:#181818;stroke-width:0.5;" x1="554.8" x2="799.3132" y1="577.0258" y2="577.0258"/><g data-visibility-modifier="PUBLIC_METHOD"><ellipse cx="564.8" cy="592.0598" fill="#84BE84" rx="3" ry="3" style="stroke:#038048;stroke-width:1;"/></g><text fill="#000000" font-family="sans-serif" font-size="14" lengthAdjust="spacing" textLength="220.5132" x="573.8" y="595.9918">vector&lt;RunParameters&gt; expand()</text></g><!--class ExperimentSweepParameters--><g class="entity" data-qualified-name="ExperimentSweepParameters" data-source-line="14" id="ent0008"><rect fill="#F1F1F1" height="105.2038" rx="2.5" ry="2.5" style="stroke:#181818;stroke-width:0.5;" width="307.973" x="511.07" y="314.69"/><ellipse cx="563.1778" cy="330.69" fill="#F1F1F1" rx="11" ry="11" style="stroke:#181818;stroke-width:1;"/><path d="M562.8497,337.3619 Q561.9278,337.3619 561.0372,337.19 Q560.1466,337.0025 559.3653,336.6275 L559.3653,334.3775 Q560.3185,334.8619 561.1935,335.0963 Q562.0841,335.315 562.9278,335.315 Q563.8028,335.315 564.3653,335.0181 Q564.9278,334.7213 564.9278,333.94 Q564.9278,333.3931 564.631,333.0963 Q564.3341,332.7838 563.7716,332.5025 Q563.2091,332.2213 562.4278,331.815 Q561.6466,331.3931 560.9903,330.9088 Q560.3497,330.4088 559.9747,329.7369 Q559.5997,329.065 559.5997,328.1119 Q559.5997,326.4869 560.6935,325.69 Q561.8028,324.8775 563.5841,324.8775 Q564.3028,324.8775 565.2872,325.0494 Q566.2716,325.2056 567.2247,325.6588 L566.4435,327.5806 Q565.5997,327.2213 564.9122,327.0806 Q564.2403,326.9244 563.7247,326.9244 Q562.881,326.9244 562.4903,327.2681 Q562.1153,327.5963 562.1153,328.2369 Q562.1153,328.7213 562.3497,329.0338 Q562.5997,329.3306 563.0685,329.5806 Q563.5528,329.8306 564.2872,330.2056 Q565.2872,330.69 565.9903,331.1588 Q566.6935,331.6275 567.0685,332.2525 Q567.4435,332.8619 567.4435,333.7994 Q567.4435,334.9869 566.8653,335.7838 Q566.3028,336.565 565.256,336.9713 Q564.2247,337.3619 562.8497,337.3619 Z " fill="#000000"/><text fill="#000000" font-family="sans-serif" font-size="14" lengthAdjust="spacing" textLength="195.2573" x="583.6778" y="336.122">ExperimentSweepParameters</text><line style="stroke:#181818;stroke-width:0.5;" x1="512.07" x2="818.043" y1="346.69" y2="346.69"/><g data-visibility-modifier="PUBLIC_FIELD"><ellipse cx="522.07" cy="361.724" fill="none" rx="3" ry="3" style="stroke:#038048;stroke-width:1;"/></g><text fill="#000000" font-family="sans-serif" font-size="14" lengthAdjust="spacing" textLength="281.973" x="531.07" y="365.6559">ExperimentParamteres starting_paramters</text><g data-visibility-modifier="PUBLIC_FIELD"><ellipse cx="522.07" cy="380.7919" fill="none" rx="3" ry="3" style="stroke:#038048;stroke-width:1;"/></g><text fill="#000000" font-family="sans-serif" font-size="14" lengthAdjust="spacing" textLength="139.0615" x="531.07" y="384.7239">RunParameters delta</text><line style="stroke:#181818;stroke-width:0.5;" x1="512.07" x2="818.043" y1="392.8258" y2="392.8258"/><g data-visibility-modifier="PUBLIC_METHOD"><ellipse cx="522.07" cy="407.8598" fill="#84BE84" rx="3" ry="3" style="stroke:#038048;stroke-width:1;"/></g><text fill="#000000" font-family="sans-serif" font-size="14" lengthAdjust="spacing" textLength="220.5132" x="531.07" y="411.7918">vector&lt;RunParameters&gt; expand()</text></g><!--class RunStates--><g class="entity" data-qualified-name="RunStates" data-source-line="22" id="ent0011"><rect fill="#F1F1F1" height="67.0679" rx="2.5" ry="2.5" style="stroke:#181818;stroke-width:0.5;" width="98.2617" x="269.93" y="967.83"/><ellipse cx="284.93" cy="983.83" fill="#ADD1B2" rx="11" ry="11" style="stroke:#181818;stroke-width:1;"/><path d="M284.3988,990.7519 Q282.6488,990.7519 281.5081,990.0175 Q280.3831,989.2675 279.8206,987.9238 Q279.2738,986.5644 279.2738,984.7675 Q279.2738,982.7363 279.93,981.2831 Q280.5863,979.83 281.8675,979.0488 Q283.1488,978.2675 285.0238,978.2675 Q285.9144,978.2675 286.5863,978.455 Q287.2581,978.6269 287.9456,978.9706 L287.1331,980.9863 Q286.5081,980.6738 285.9613,980.5488 Q285.43,980.4238 284.9456,980.4238 Q283.7738,980.4238 283.0706,980.955 Q282.3675,981.4863 282.0706,982.4394 Q281.7738,983.3925 281.7738,984.6581 Q281.7738,986.6738 282.4925,987.6425 Q283.2113,988.5956 284.805,988.5956 Q285.3988,988.5956 286.0238,988.4394 Q286.6488,988.2831 287.4769,987.9081 L287.4769,990.1269 Q286.7425,990.4394 285.9456,990.5956 Q285.1644,990.7519 284.3988,990.7519 Z " fill="#000000"/><text fill="#000000" font-family="sans-serif" font-size="14" lengthAdjust="spacing" textLength="66.2617" x="298.93" y="989.262">RunStates</text><line style="stroke:#181818;stroke-width:0.5;" x1="270.93" x2="367.1917" y1="999.83" y2="999.83"/><text fill="#000000" font-family="sans-serif" font-size="14" lengthAdjust="spacing" textLength="11.256" x="275.93" y="1018.7959">...</text><line style="stroke:#181818;stroke-width:0.5;" x1="270.93" x2="367.1917" y1="1026.8979" y2="1026.8979"/></g><g class="entity" data-qualified-name="GMN12" data-source-line="25" id="ent0013"><path d="M214.58,1201.39 L214.58,1229.096 A0,0 0 0 0 214.58,1229.096 L423.5472,1229.096 A0,0 0 0 0 423.5472,1229.096 L423.5472,1211.39 L413.5472,1201.39 L323.06,1201.39 L319.06,1035.01 L315.06,1201.39 L214.58,1201.39 A0,0 0 0 0 214.58,1201.39" fill="#FEFFDD" style="stroke:#181818;stroke-width:0.5;"/><path d="M413.5472,1201.39 L413.5472,1211.39 L423.5472,1211.39 L413.5472,1201.39" fill="#FEFFDD" style="stroke:#181818;stroke-width:0.5;"/><text fill="#000000" font-family="sans-serif" font-size="13" lengthAdjust="spacing" textLength="187.9672" x="220.58" y="1220.287">L&#225;sd Simulator oszt&#225;lydiagram</text></g><!--class vector<RunStates>--><g class="entity" data-qualified-name="vector.RunStates." data-source-line="27" id="ent0015"><rect fill="#F1F1F1" height="48" rx="2.5" ry="2.5" style="stroke:#181818;stroke-width:0.5;" width="155.3115" x="241.4" y="811.16"/><ellipse cx="256.4" cy="827.16" fill="#ADD1B2" rx="11" ry="11" style="stroke:#181818;stroke-width:1;"/><path d="M255.8687,834.0819 Q254.1187,834.0819 252.9781,833.3475 Q251.8531,832.5975 251.2906,831.2538 Q250.7437,829.8944 250.7437,828.0975 Q250.7437,826.0663 251.4,824.6131 Q252.0562,823.16 253.3375,822.3788 Q254.6187,821.5975 256.4938,821.5975 Q257.3844,821.5975 258.0563,821.785 Q258.7281,821.9569 259.4156,822.3006 L258.6031,824.3163 Q257.9781,824.0038 257.4313,823.8788 Q256.9,823.7538 256.4156,823.7538 Q255.2437,823.7538 254.5406,824.285 Q253.8375,824.8163 253.5406,825.7694 Q253.2437,826.7225 253.2437,827.9881 Q253.2437,830.0038 253.9625,830.9725 Q254.6812,831.9256 256.275,831.9256 Q256.8688,831.9256 257.4938,831.7694 Q258.1188,831.6131 258.9469,831.2381 L258.9469,833.4569 Q258.2125,833.7694 257.4156,833.9256 Q256.6344,834.0819 255.8687,834.0819 Z " fill="#000000"/><text fill="#000000" font-family="sans-serif" font-size="14" lengthAdjust="spacing" textLength="123.3115" x="270.4" y="832.592">vector&lt;RunStates&gt;</text><line style="stroke:#181818;stroke-width:0.5;" x1="242.4" x2="395.7115" y1="843.16" y2="843.16"/><line style="stroke:#181818;stroke-width:0.5;" x1="242.4" x2="395.7115" y1="851.16" y2="851.16"/></g><!--class ExperimentStates--><g class="entity" data-qualified-name="ExperimentStates" data-source-line="29" id="ent0017"><rect fill="#F1F1F1" height="48" rx="2.5" ry="2.5" style="stroke:#181818;stroke-width:0.5;" width="148.0316" x="245.04" y="674.63"/><ellipse cx="260.04" cy="690.63" fill="#ADD1B2" rx="11" ry="11" style="stroke:#181818;stroke-width:1;"/><path d="M259.5087,697.5519 Q257.7587,697.5519 256.6181,696.8175 Q255.4931,696.0675 254.9306,694.7238 Q254.3837,693.3644 254.3837,691.5675 Q254.3837,689.5363 255.04,688.0831 Q255.6962,686.63 256.9775,685.8488 Q258.2587,685.0675 260.1337,685.0675 Q261.0244,685.0675 261.6962,685.255 Q262.3681,685.4269 263.0556,685.7706 L262.2431,687.7863 Q261.6181,687.4738 261.0712,687.3488 Q260.54,687.2238 260.0556,687.2238 Q258.8837,687.2238 258.1806,687.755 Q257.4775,688.2863 257.1806,689.2394 Q256.8837,690.1925 256.8837,691.4581 Q256.8837,693.4738 257.6025,694.4425 Q258.3212,695.3956 259.915,695.3956 Q260.5087,695.3956 261.1337,695.2394 Q261.7587,695.0831 262.5869,694.7081 L262.5869,696.9269 Q261.8525,697.2394 261.0556,697.3956 Q260.2744,697.5519 259.5087,697.5519 Z " fill="#000000"/><text fill="#000000" font-family="sans-serif" font-size="14" lengthAdjust="spacing" textLength="116.0316" x="274.04" y="696.062">ExperimentStates</text><line style="stroke:#181818;stroke-width:0.5;" x1="246.04" x2="392.0716" y1="706.63" y2="706.63"/><line style="stroke:#181818;stroke-width:0.5;" x1="246.04" x2="392.0716" y1="714.63" y2="714.63"/></g><!--class vector<ExperimentStates>--><g class="entity" data-qualified-name="vector.ExperimentStates." data-source-line="32" id="ent0019"><rect fill="#F1F1F1" height="48" rx="2.5" ry="2.5" style="stroke:#181818;stroke-width:0.5;" width="205.0813" x="216.52" y="527.49"/><ellipse cx="231.52" cy="543.49" fill="#ADD1B2" rx="11" ry="11" style="stroke:#181818;stroke-width:1;"/><path d="M230.9888,550.4119 Q229.2388,550.4119 228.0981,549.6775 Q226.9731,548.9275 226.4106,547.5838 Q225.8638,546.2244 225.8638,544.4275 Q225.8638,542.3963 226.52,540.9431 Q227.1763,539.49 228.4575,538.7088 Q229.7388,537.9275 231.6138,537.9275 Q232.5044,537.9275 233.1763,538.115 Q233.8481,538.2869 234.5356,538.6306 L233.7231,540.6463 Q233.0981,540.3338 232.5513,540.2088 Q232.02,540.0838 231.5356,540.0838 Q230.3638,540.0838 229.6606,540.615 Q228.9575,541.1463 228.6606,542.0994 Q228.3638,543.0525 228.3638,544.3181 Q228.3638,546.3338 229.0825,547.3025 Q229.8013,548.2556 231.395,548.2556 Q231.9888,548.2556 232.6138,548.0994 Q233.2388,547.9431 234.0669,547.5681 L234.0669,549.7869 Q233.3325,550.0994 232.5356,550.2556 Q231.7544,550.4119 230.9888,550.4119 Z " fill="#000000"/><text fill="#000000" font-family="sans-serif" font-size="14" lengthAdjust="spacing" textLength="173.0813" x="245.52" y="548.922">vector&lt;ExperimentStates&gt;</text><line style="stroke:#181818;stroke-width:0.5;" x1="217.52" x2="420.6013" y1="559.49" y2="559.49"/><line style="stroke:#181818;stroke-width:0.5;" x1="217.52" x2="420.6013" y1="567.49" y2="567.49"/></g><!--class ExperimentSweepStates--><g class="entity" data-qualified-name="ExperimentSweepStates" data-source-line="34" id="ent0021"><rect fill="#F1F1F1" height="48" rx="2.5" ry="2.5" style="stroke:#181818;stroke-width:0.5;" width="191.1234" x="223.5" y="343.29"/><ellipse cx="238.5" cy="359.29" fill="#ADD1B2" rx="11" ry="11" style="stroke:#181818;stroke-width:1;"/><path d="M237.9688,366.2119 Q236.2188,366.2119 235.0781,365.4775 Q233.9531,364.7275 233.3906,363.3838 Q232.8438,362.0244 232.8438,360.2275 Q232.8438,358.1963 233.5,356.7431 Q234.1563,355.29 235.4375,354.5088 Q236.7188,353.7275 238.5938,353.7275 Q239.4844,353.7275 240.1563,353.915 Q240.8281,354.0869 241.5156,354.4306 L240.7031,356.4463 Q240.0781,356.1338 239.5313,356.0088 Q239,355.8838 238.5156,355.8838 Q237.3438,355.8838 236.6406,356.415 Q235.9375,356.9463 235.6406,357.8994 Q235.3438,358.8525 235.3438,360.1181 Q235.3438,362.1338 236.0625,363.1025 Q236.7813,364.0556 238.375,364.0556 Q238.9688,364.0556 239.5938,363.8994 Q240.2188,363.7431 241.0469,363.3681 L241.0469,365.5869 Q240.3125,365.8994 239.5156,366.0556 Q238.7344,366.2119 237.9688,366.2119 Z " fill="#000000"/><text fill="#000000" font-family="sans-serif" font-size="14" lengthAdjust="spacing" textLength="159.1234" x="252.5" y="364.722">ExperimentSweepStates</text><line style="stroke:#181818;stroke-width:0.5;" x1="224.5" x2="413.6234" y1="375.29" y2="375.29"/><line style="stroke:#181818;stroke-width:0.5;" x1="224.5" x2="413.6234" y1="383.29" y2="383.29"/></g><!--class Measurement--><g class="entity" data-qualified-name="Measurement" data-source-line="37" id="ent0023"><rect fill="#F1F1F1" height="143.3396" rx="2.5" ry="2.5" style="stroke:#181818;stroke-width:0.5;" width="124.1756" x="890.97" y="1143.57"/><ellipse cx="905.97" cy="1159.57" fill="#F1F1F1" rx="11" ry="11" style="stroke:#181818;stroke-width:1;"/><path d="M905.6419,1166.2419 Q904.72,1166.2419 903.8294,1166.07 Q902.9388,1165.8825 902.1575,1165.5075 L902.1575,1163.2575 Q903.1106,1163.7419 903.9856,1163.9763 Q904.8763,1164.195 905.72,1164.195 Q906.595,1164.195 907.1575,1163.8981 Q907.72,1163.6013 907.72,1162.82 Q907.72,1162.2731 907.4231,1161.9763 Q907.1263,1161.6638 906.5638,1161.3825 Q906.0013,1161.1013 905.22,1160.695 Q904.4388,1160.2731 903.7825,1159.7888 Q903.1419,1159.2888 902.7669,1158.6169 Q902.3919,1157.945 902.3919,1156.9919 Q902.3919,1155.3669 903.4856,1154.57 Q904.595,1153.7575 906.3763,1153.7575 Q907.095,1153.7575 908.0794,1153.9294 Q909.0638,1154.0856 910.0169,1154.5388 L909.2356,1156.4606 Q908.3919,1156.1013 907.7044,1155.9606 Q907.0325,1155.8044 906.5169,1155.8044 Q905.6731,1155.8044 905.2825,1156.1481 Q904.9075,1156.4763 904.9075,1157.1169 Q904.9075,1157.6013 905.1419,1157.9138 Q905.3919,1158.2106 905.8606,1158.4606 Q906.345,1158.7106 907.0794,1159.0856 Q908.0794,1159.57 908.7825,1160.0388 Q909.4856,1160.5075 909.8606,1161.1325 Q910.2356,1161.7419 910.2356,1162.6794 Q910.2356,1163.8669 909.6575,1164.6638 Q909.095,1165.445 908.0481,1165.8513 Q907.0169,1166.2419 905.6419,1166.2419 Z " fill="#000000"/><text fill="#000000" font-family="sans-serif" font-size="14" lengthAdjust="spacing" textLength="92.1756" x="919.97" y="1165.002">Measurement</text><line style="stroke:#181818;stroke-width:0.5;" x1="891.97" x2="1014.1456" y1="1175.57" y2="1175.57"/><g data-visibility-modifier="PUBLIC_FIELD"><ellipse cx="901.97" cy="1190.604" fill="none" rx="3" ry="3" style="stroke:#038048;stroke-width:1;"/></g><text fill="#000000" font-family="sans-serif" font-size="14" lengthAdjust="spacing" textLength="74.8437" x="910.97" y="1194.5359">double min</text><g data-visibility-modifier="PUBLIC_FIELD"><ellipse cx="901.97" cy="1209.6719" fill="none" rx="3" ry="3" style="stroke:#038048;stroke-width:1;"/></g><text fill="#000000" font-family="sans-serif" font-size="14" lengthAdjust="spacing" textLength="77.8397" x="910.97" y="1213.6039">double max</text><g data-visibility-modifier="PUBLIC_FIELD"><ellipse cx="901.97" cy="1228.7398" fill="none" rx="3" ry="3" style="stroke:#038048;stroke-width:1;"/></g><text fill="#000000" font-family="sans-serif" font-size="14" lengthAdjust="spacing" textLength="73.0657" x="910.97" y="1232.6718">double avg</text><g data-visibility-modifier="PUBLIC_FIELD"><ellipse cx="901.97" cy="1247.8077" fill="none" rx="3" ry="3" style="stroke:#038048;stroke-width:1;"/></g><text fill="#000000" font-family="sans-serif" font-size="14" lengthAdjust="spacing" textLength="69.8597" x="910.97" y="1251.7397">double std</text><g data-visibility-modifier="PUBLIC_FIELD"><ellipse cx="901.97" cy="1266.8756" fill="none" rx="3" ry="3" style="stroke:#038048;stroke-width:1;"/></g><text fill="#000000" font-family="sans-serif" font-size="14" lengthAdjust="spacing" textLength="68.9497" x="910.97" y="1270.8076">double err</text><line style="stroke:#181818;stroke-width:0.5;" x1="891.97" x2="1014.1456" y1="1278.9096" y2="1278.9096"/></g><!--class Statistics--><g class="entity" data-qualified-name="Statistics" data-source-line="44" id="ent0024"><rect fill="#F1F1F1" height="162.4075" rx="2.5" ry="2.5" style="stroke:#181818;stroke-width:0.5;" width="243.9651" x="831.08" y="920.16"/><ellipse cx="919.7837" cy="936.16" fill="#F1F1F1" rx="11" ry="11" style="stroke:#181818;stroke-width:1;"/><path d="M919.4555,942.8319 Q918.5337,942.8319 917.643,942.66 Q916.7524,942.4725 915.9712,942.0975 L915.9712,939.8475 Q916.9243,940.3319 917.7993,940.5663 Q918.6899,940.785 919.5337,940.785 Q920.4087,940.785 920.9712,940.4881 Q921.5337,940.1913 921.5337,939.41 Q921.5337,938.8631 921.2368,938.5663 Q920.9399,938.2538 920.3774,937.9725 Q919.8149,937.6913 919.0337,937.285 Q918.2524,936.8631 917.5962,936.3788 Q916.9555,935.8788 916.5805,935.2069 Q916.2055,934.535 916.2055,933.5819 Q916.2055,931.9569 917.2993,931.16 Q918.4087,930.3475 920.1899,930.3475 Q920.9087,930.3475 921.893,930.5194 Q922.8774,930.6756 923.8305,931.1288 L923.0493,933.0506 Q922.2055,932.6913 921.518,932.5506 Q920.8462,932.3944 920.3305,932.3944 Q919.4868,932.3944 919.0962,932.7381 Q918.7212,933.0663 918.7212,933.7069 Q918.7212,934.1913 918.9555,934.5038 Q919.2055,934.8006 919.6743,935.0506 Q920.1587,935.3006 920.893,935.6756 Q921.893,936.16 922.5962,936.6288 Q923.2993,937.0975 923.6743,937.7225 Q924.0493,938.3319 924.0493,939.2694 Q924.0493,940.4569 923.4712,941.2538 Q922.9087,942.035 921.8618,942.4413 Q920.8305,942.8319 919.4555,942.8319 Z " fill="#000000"/><text fill="#000000" font-family="sans-serif" font-size="14" lengthAdjust="spacing" textLength="58.0578" x="940.2837" y="941.592">Statistics</text><line style="stroke:#181818;stroke-width:0.5;" x1="832.08" x2="1074.0451" y1="952.16" y2="952.16"/><g data-visibility-modifier="PUBLIC_FIELD"><ellipse cx="842.08" cy="967.194" fill="none" rx="3" ry="3" style="stroke:#038048;stroke-width:1;"/></g><text fill="#000000" font-family="sans-serif" font-size="14" lengthAdjust="spacing" textLength="207.2272" x="851.08" y="971.1259">vector&lt;int&gt; entity_count_values</text><g data-visibility-modifier="PUBLIC_FIELD"><ellipse cx="842.08" cy="986.2619" fill="none" rx="3" ry="3" style="stroke:#038048;stroke-width:1;"/></g><text fill="#000000" font-family="sans-serif" font-size="14" lengthAdjust="spacing" textLength="176.9873" x="851.08" y="990.1939">Measurement entity_count</text><g data-visibility-modifier="PUBLIC_FIELD"><ellipse cx="842.08" cy="1005.3298" fill="none" rx="3" ry="3" style="stroke:#038048;stroke-width:1;"/></g><text fill="#000000" font-family="sans-serif" font-size="14" lengthAdjust="spacing" textLength="204.3012" x="851.08" y="1009.2618">vector&lt;int&gt; allele_count_values</text><g data-visibility-modifier="PUBLIC_FIELD"><ellipse cx="842.08" cy="1024.3977" fill="none" rx="3" ry="3" style="stroke:#038048;stroke-width:1;"/></g><text fill="#000000" font-family="sans-serif" font-size="14" lengthAdjust="spacing" textLength="174.0613" x="851.08" y="1028.3297">Measurement allele_count</text><g data-visibility-modifier="PUBLIC_FIELD"><ellipse cx="842.08" cy="1043.4656" fill="none" rx="3" ry="3" style="stroke:#038048;stroke-width:1;"/></g><text fill="#000000" font-family="sans-serif" font-size="14" lengthAdjust="spacing" textLength="217.9651" x="851.08" y="1047.3976">vector&lt;int&gt; species_count_values</text><g data-visibility-modifier="PUBLIC_FIELD"><ellipse cx="842.08" cy="1062.5335" fill="none" rx="3" ry="3" style="stroke:#038048;stroke-width:1;"/></g><text fill="#000000" font-family="sans-serif" font-size="14" lengthAdjust="spacing" textLength="187.7253" x="851.08" y="1066.4655">Measurement species_count</text><line style="stroke:#181818;stroke-width:0.5;" x1="832.08" x2="1074.0451" y1="1074.5675" y2="1074.5675"/></g><!--class vector<Statistics>--><g class="entity" data-qualified-name="vector.Statistics." data-source-line="54" id="ent0026"><rect fill="#F1F1F1" height="48" rx="2.5" ry="2.5" style="stroke:#181818;stroke-width:0.5;" width="147.1076" x="879.51" y="811.16"/><ellipse cx="894.51" cy="827.16" fill="#ADD1B2" rx="11" ry="11" style="stroke:#181818;stroke-width:1;"/><path d="M893.9788,834.0819 Q892.2288,834.0819 891.0881,833.3475 Q889.9631,832.5975 889.4006,831.2538 Q888.8538,829.8944 888.8538,828.0975 Q888.8538,826.0663 889.51,824.6131 Q890.1663,823.16 891.4475,822.3788 Q892.7288,821.5975 894.6038,821.5975 Q895.4944,821.5975 896.1663,821.785 Q896.8381,821.9569 897.5256,822.3006 L896.7131,824.3163 Q896.0881,824.0038 895.5413,823.8788 Q895.01,823.7538 894.5256,823.7538 Q893.3538,823.7538 892.6506,824.285 Q891.9475,824.8163 891.6506,825.7694 Q891.3538,826.7225 891.3538,827.9881 Q891.3538,830.0038 892.0725,830.9725 Q892.7913,831.9256 894.385,831.9256 Q894.9788,831.9256 895.6038,831.7694 Q896.2288,831.6131 897.0569,831.2381 L897.0569,833.4569 Q896.3225,833.7694 895.5256,833.9256 Q894.7444,834.0819 893.9788,834.0819 Z " fill="#000000"/><text fill="#000000" font-family="sans-serif" font-size="14" lengthAdjust="spacing" textLength="115.1076" x="908.51" y="832.592">vector&lt;Statistics&gt;</text><line style="stroke:#181818;stroke-width:0.5;" x1="880.51" x2="1025.6176" y1="843.16" y2="843.16"/><line style="stroke:#181818;stroke-width:0.5;" x1="880.51" x2="1025.6176" y1="851.16" y2="851.16"/></g><!--class ExperimentResults--><g class="entity" data-qualified-name="ExperimentResults" data-source-line="56" id="ent0028"><rect fill="#F1F1F1" height="48" rx="2.5" ry="2.5" style="stroke:#181818;stroke-width:0.5;" width="155.1155" x="875.5" y="674.63"/><ellipse cx="890.5" cy="690.63" fill="#ADD1B2" rx="11" ry="11" style="stroke:#181818;stroke-width:1;"/><path d="M889.9688,697.5519 Q888.2188,697.5519 887.0781,696.8175 Q885.9531,696.0675 885.3906,694.7238 Q884.8438,693.3644 884.8438,691.5675 Q884.8438,689.5363 885.5,688.0831 Q886.1563,686.63 887.4375,685.8488 Q888.7188,685.0675 890.5938,685.0675 Q891.4844,685.0675 892.1563,685.255 Q892.8281,685.4269 893.5156,685.7706 L892.7031,687.7863 Q892.0781,687.4738 891.5313,687.3488 Q891,687.2238 890.5156,687.2238 Q889.3438,687.2238 888.6406,687.755 Q887.9375,688.2863 887.6406,689.2394 Q887.3438,690.1925 887.3438,691.4581 Q887.3438,693.4738 888.0625,694.4425 Q888.7813,695.3956 890.375,695.3956 Q890.9688,695.3956 891.5938,695.2394 Q892.2188,695.0831 893.0469,694.7081 L893.0469,696.9269 Q892.3125,697.2394 891.5156,697.3956 Q890.7344,697.5519 889.9688,697.5519 Z " fill="#000000"/><text fill="#000000" font-family="sans-serif" font-size="14" lengthAdjust="spacing" textLength="123.1155" x="904.5" y="696.062">ExperimentResults</text><line style="stroke:#181818;stroke-width:0.5;" x1="876.5" x2="1029.6155" y1="706.63" y2="706.63"/><line style="stroke:#181818;stroke-width:0.5;" x1="876.5" x2="1029.6155" y1="714.63" y2="714.63"/></g><!--class vector<ExperimentResults>--><g class="entity" data-qualified-name="vector.ExperimentResults." data-source-line="59" id="ent0030"><rect fill="#F1F1F1" height="48" rx="2.5" ry="2.5" style="stroke:#181818;stroke-width:0.5;" width="212.1653" x="846.98" y="527.49"/><ellipse cx="861.98" cy="543.49" fill="#ADD1B2" rx="11" ry="11" style="stroke:#181818;stroke-width:1;"/><path d="M861.4488,550.4119 Q859.6988,550.4119 858.5581,549.6775 Q857.4331,548.9275 856.8706,547.5838 Q856.3238,546.2244 856.3238,544.4275 Q856.3238,542.3963 856.98,540.9431 Q857.6363,539.49 858.9175,538.7088 Q860.1988,537.9275 862.0738,537.9275 Q862.9644,537.9275 863.6363,538.115 Q864.3081,538.2869 864.9956,538.6306 L864.1831,540.6463 Q863.5581,540.3338 863.0113,540.2088 Q862.48,540.0838 861.9956,540.0838 Q860.8238,540.0838 860.1206,540.615 Q859.4175,541.1463 859.1206,542.0994 Q858.8238,543.0525 858.8238,544.3181 Q858.8238,546.3338 859.5425,547.3025 Q860.2613,548.2556 861.855,548.2556 Q862.4488,548.2556 863.0738,548.0994 Q863.6988,547.9431 864.5269,547.5681 L864.5269,549.7869 Q863.7925,550.0994 862.9956,550.2556 Q862.2144,550.4119 861.4488,550.4119 Z " fill="#000000"/><text fill="#000000" font-family="sans-serif" font-size="14" lengthAdjust="spacing" textLength="180.1653" x="875.98" y="548.922">vector&lt;ExperimentResults&gt;</text><line style="stroke:#181818;stroke-width:0.5;" x1="847.98" x2="1058.1453" y1="559.49" y2="559.49"/><line style="stroke:#181818;stroke-width:0.5;" x1="847.98" x2="1058.1453" y1="567.49" y2="567.49"/></g><!--class ExperimentSweepResults--><g class="entity" data-qualified-name="ExperimentSweepResults" data-source-line="61" id="ent0032"><rect fill="#F1F1F1" height="48" rx="2.5" ry="2.5" style="stroke:#181818;stroke-width:0.5;" width="198.2074" x="853.96" y="343.29"/><ellipse cx="868.96" cy="359.29" fill="#ADD1B2" rx="11" ry="11" style="stroke:#181818;stroke-width:1;"/><path d="M868.4288,366.2119 Q866.6788,366.2119 865.5381,365.4775 Q864.4131,364.7275 863.8506,363.3838 Q863.3038,362.0244 863.3038,360.2275 Q863.3038,358.1963 863.96,356.7431 Q864.6163,355.29 865.8975,354.5088 Q867.1788,353.7275 869.0538,353.7275 Q869.9444,353.7275 870.6163,353.915 Q871.2881,354.0869 871.9756,354.4306 L871.1631,356.4463 Q870.5381,356.1338 869.9913,356.0088 Q869.46,355.8838 868.9756,355.8838 Q867.8038,355.8838 867.1006,356.415 Q866.3975,356.9463 866.1006,357.8994 Q865.8038,358.8525 865.8038,360.1181 Q865.8038,362.1338 866.5225,363.1025 Q867.2413,364.0556 868.835,364.0556 Q869.4288,364.0556 870.0538,363.8994 Q870.6788,363.7431 871.5069,363.3681 L871.5069,365.5869 Q870.7725,365.8994 869.9756,366.0556 Q869.1944,366.2119 868.4288,366.2119 Z " fill="#000000"/><text fill="#000000" font-family="sans-serif" font-size="14" lengthAdjust="spacing" textLength="166.2074" x="882.96" y="364.722">ExperimentSweepResults</text><line style="stroke:#181818;stroke-width:0.5;" x1="854.96" x2="1051.1674" y1="375.29" y2="375.29"/><line style="stroke:#181818;stroke-width:0.5;" x1="854.96" x2="1051.1674" y1="383.29" y2="383.29"/></g><!--class math--><g class="entity" data-qualified-name="math" data-source-line="64" id="ent0034"><rect fill="#F1F1F1" height="118.6158" rx="2.5" ry="2.5" style="stroke:#181818;stroke-width:0.5;" width="624.1199" x="7" y="135.07"/><ellipse cx="280.7737" cy="157.776" fill="#ADD1B2" rx="11" ry="11" style="stroke:#181818;stroke-width:1;"/><path d="M280.2424,164.6979 Q278.4924,164.6979 277.3518,163.9635 Q276.2268,163.2135 275.6643,161.8698 Q275.1174,160.5104 275.1174,158.7135 Q275.1174,156.6823 275.7737,155.2291 Q276.4299,153.776 277.7112,152.9948 Q278.9924,152.2135 280.8674,152.2135 Q281.7581,152.2135 282.4299,152.401 Q283.1018,152.5729 283.7893,152.9166 L282.9768,154.9323 Q282.3518,154.6198 281.8049,154.4948 Q281.2737,154.3698 280.7893,154.3698 Q279.6174,154.3698 278.9143,154.901 Q278.2112,155.4323 277.9143,156.3854 Q277.6174,157.3385 277.6174,158.6041 Q277.6174,160.6198 278.3362,161.5885 Q279.0549,162.5416 280.6487,162.5416 Q281.2424,162.5416 281.8674,162.3854 Q282.4924,162.2291 283.3206,161.8541 L283.3206,164.0729 Q282.5862,164.3854 281.7893,164.5416 Q281.0081,164.6979 280.2424,164.6979 Z " fill="#000000"/><text fill="#000000" font-family="sans-serif" font-size="12" font-style="italic" lengthAdjust="spacing" textLength="72.0725" x="299.2737" y="152.8981">&#171;namespace&#187;</text><text fill="#000000" font-family="sans-serif" font-size="14" lengthAdjust="spacing" textLength="34.6499" x="317.985" y="171.38">math</text><line style="stroke:#181818;stroke-width:0.5;" x1="8" x2="630.1199" y1="180.482" y2="180.482"/><line style="stroke:#181818;stroke-width:0.5;" x1="8" x2="630.1199" y1="188.482" y2="188.482"/><g data-visibility-modifier="PUBLIC_METHOD"><ellipse cx="18" cy="203.516" fill="#84BE84" rx="3" ry="3" style="stroke:#038048;stroke-width:1;"/></g><text fill="#000000" font-family="sans-serif" font-size="14" lengthAdjust="spacing" textLength="203.9232" x="27" y="207.448">Measurement measure(values)</text><g data-visibility-modifier="PUBLIC_METHOD"><ellipse cx="18" cy="222.5839" fill="#84BE84" rx="3" ry="3" style="stroke:#038048;stroke-width:1;"/></g><text fill="#000000" font-family="sans-serif" font-size="14" lengthAdjust="spacing" textLength="468.8442" x="27" y="226.5159">ExperimentResults measure(experimentParameters, experimentStates)</text><g data-visibility-modifier="PUBLIC_METHOD"><ellipse cx="18" cy="241.6518" fill="#84BE84" rx="3" ry="3" style="stroke:#038048;stroke-width:1;"/></g><text fill="#000000" font-family="sans-serif" font-size="14" lengthAdjust="spacing" textLength="598.1199" x="27" y="245.5838">ExperimentSweepResults measure(experimentSweepParameters, experimentSweepStates)</text></g><!--class IOOutputWriter--><g class="entity" data-qualified-name="IOOutputWriter" data-source-line="73" id="ent0038"><rect fill="#F1F1F1" height="67.0679" rx="2.5" ry="2.5" style="stroke:#181818;stroke-width:0.5;" width="293.301" x="829.41" y="7"/><ellipse cx="923.4547" cy="23" fill="#B4A7E5" rx="11" ry="11" style="stroke:#181818;stroke-width:1;"/><path d="M919.4859,29.5 L919.4859,27.7969 L921.8453,27.5313 L921.8453,19.3281 L919.4859,19.0625 L919.4859,17.3594 L926.6266,17.3594 L926.6266,19.0625 L924.2047,19.3281 L924.2047,27.5313 L926.6266,27.7969 L926.6266,29.5 L919.4859,29.5 Z " fill="#000000"/><text fill="#000000" font-family="sans-serif" font-size="14" font-style="italic" lengthAdjust="spacing" textLength="96.7116" x="943.9547" y="28.432">IOOutputWriter</text><line style="stroke:#181818;stroke-width:0.5;" x1="830.41" x2="1121.711" y1="39" y2="39"/><line style="stroke:#181818;stroke-width:0.5;" x1="830.41" x2="1121.711" y1="47" y2="47"/><g data-visibility-modifier="PUBLIC_METHOD"><ellipse cx="840.41" cy="62.034" fill="#84BE84" rx="3" ry="3" style="stroke:#038048;stroke-width:1;"/></g><text fill="#000000" font-family="sans-serif" font-size="14" lengthAdjust="spacing" textLength="267.301" x="849.41" y="65.9659">void write(params, results, &amp;out_stream)</text></g><!--class CSVWriter--><g class="entity" data-qualified-name="CSVWriter" data-source-line="76" id="ent0039"><rect fill="#F1F1F1" height="67.0679" rx="2.5" ry="2.5" style="stroke:#181818;stroke-width:0.5;" width="293.301" x="666.41" y="160.85"/><ellipse cx="775.7706" cy="176.85" fill="#ADD1B2" rx="11" ry="11" style="stroke:#181818;stroke-width:1;"/><path d="M775.2394,183.7719 Q773.4894,183.7719 772.3488,183.0375 Q771.2238,182.2875 770.6613,180.9438 Q770.1144,179.5844 770.1144,177.7875 Q770.1144,175.7563 770.7706,174.3031 Q771.4269,172.85 772.7081,172.0688 Q773.9894,171.2875 775.8644,171.2875 Q776.755,171.2875 777.4269,171.475 Q778.0988,171.6469 778.7863,171.9906 L777.9738,174.0063 Q777.3488,173.6938 776.8019,173.5688 Q776.2706,173.4438 775.7863,173.4438 Q774.6144,173.4438 773.9113,173.975 Q773.2081,174.5063 772.9113,175.4594 Q772.6144,176.4125 772.6144,177.6781 Q772.6144,179.6938 773.3331,180.6625 Q774.0519,181.6156 775.6456,181.6156 Q776.2394,181.6156 776.8644,181.4594 Q777.4894,181.3031 778.3175,180.9281 L778.3175,183.1469 Q777.5831,183.4594 776.7863,183.6156 Q776.005,183.7719 775.2394,183.7719 Z " fill="#000000"/><text fill="#000000" font-family="sans-serif" font-size="14" lengthAdjust="spacing" textLength="66.0797" x="796.2706" y="182.282">CSVWriter</text><line style="stroke:#181818;stroke-width:0.5;" x1="667.41" x2="958.711" y1="192.85" y2="192.85"/><line style="stroke:#181818;stroke-width:0.5;" x1="667.41" x2="958.711" y1="200.85" y2="200.85"/><g data-visibility-modifier="PUBLIC_METHOD"><ellipse cx="677.41" cy="215.884" fill="#84BE84" rx="3" ry="3" style="stroke:#038048;stroke-width:1;"/></g><text fill="#000000" font-family="sans-serif" font-size="14" lengthAdjust="spacing" textLength="267.301" x="686.41" y="219.8159">void write(params, results, &amp;out_stream)</text></g><!--class SVGWriter--><g class="entity" data-qualified-name="SVGWriter" data-source-line="79" id="ent0040"><rect fill="#F1F1F1" height="67.0679" rx="2.5" ry="2.5" style="stroke:#181818;stroke-width:0.5;" width="293.301" x="994.41" y="160.85"/><ellipse cx="1103.0986" cy="176.85" fill="#ADD1B2" rx="11" ry="11" style="stroke:#181818;stroke-width:1;"/><path d="M1102.5674,183.7719 Q1100.8174,183.7719 1099.6768,183.0375 Q1098.5518,182.2875 1097.9893,180.9438 Q1097.4424,179.5844 1097.4424,177.7875 Q1097.4424,175.7563 1098.0986,174.3031 Q1098.7549,172.85 1100.0361,172.0688 Q1101.3174,171.2875 1103.1924,171.2875 Q1104.083,171.2875 1104.7549,171.475 Q1105.4268,171.6469 1106.1143,171.9906 L1105.3018,174.0063 Q1104.6768,173.6938 1104.1299,173.5688 Q1103.5986,173.4438 1103.1143,173.4438 Q1101.9424,173.4438 1101.2393,173.975 Q1100.5361,174.5063 1100.2393,175.4594 Q1099.9424,176.4125 1099.9424,177.6781 Q1099.9424,179.6938 1100.6611,180.6625 Q1101.3799,181.6156 1102.9736,181.6156 Q1103.5674,181.6156 1104.1924,181.4594 Q1104.8174,181.3031 1105.6455,180.9281 L1105.6455,183.1469 Q1104.9111,183.4594 1104.1143,183.6156 Q1103.333,183.7719 1102.5674,183.7719 Z " fill="#000000"/><text fill="#000000" font-family="sans-serif" font-size="14" lengthAdjust="spacing" textLength="67.4237" x="1123.5986" y="182.282">SVGWriter</text><line style="stroke:#181818;stroke-width:0.5;" x1="995.41" x2="1286.711" y1="192.85" y2="192.85"/><line style="stroke:#181818;stroke-width:0.5;" x1="995.41" x2="1286.711" y1="200.85" y2="200.85"/><g data-visibility-modifier="PUBLIC_METHOD"><ellipse cx="1005.41" cy="215.884" fill="#84BE84" rx="3" ry="3" style="stroke:#038048;stroke-width:1;"/></g><text fill="#000000" font-family="sans-serif" font-size="14" lengthAdjust="spacing" textLength="267.301" x="1014.41" y="219.8159">void write(params, results, &amp;out_stream)</text></g><!--reverse link ExperimentParameters to RunParameters--><g class="link" data-entity-1="ent0006" data-entity-2="ent0002" data-link-type="aggregation" data-source-line="12" id="lnk7"><path codeLine="12" d="M632.8182,614.2327 C618.3582,634.4027 609.24,647.14 596.47,664.96" fill="none" id="ExperimentParameters-backto-RunParameters" style="stroke:#181818;stroke-width:1;"/><polygon fill="none" points="639.81,604.48,633.0632,607.0258,632.8182,614.2327,639.565,611.6869,639.81,604.48" style="stroke:#181818;stroke-width:1;"/></g><!--reverse link ExperimentSweepParameters to ExperimentParameters--><g class="link" data-entity-1="ent0008" data-entity-2="ent0006" data-link-type="aggregation" data-source-line="19" id="lnk9"><path codeLine="19" d="M669.2579,431.9841 C670.8779,456.6041 672.02,474 673.64,498.64" fill="none" id="ExperimentSweepParameters-backto-ExperimentParameters" style="stroke:#181818;stroke-width:1;"/><polygon fill="none" points="668.47,420.01,664.8726,426.2597,669.2579,431.9841,672.8553,425.7344,668.47,420.01" style="stroke:#181818;stroke-width:1;"/></g><!--reverse link ExperimentSweepParameters to RunParameters--><g class="link" data-entity-1="ent0008" data-entity-2="ent0002" data-link-type="aggregation" data-source-line="20" id="lnk10"><path codeLine="20" d="M586.0952,428.3817 C562.7952,449.8517 548.47,468.67 536.06,498.89 C513.26,554.41 537.43,624.43 555.99,664.81" fill="none" id="ExperimentSweepParameters-backto-RunParameters" style="stroke:#181818;stroke-width:1;"/><polygon fill="none" points="594.92,420.25,587.7971,421.3742,586.0952,428.3817,593.2182,427.2574,594.92,420.25" style="stroke:#181818;stroke-width:1;"/></g><!--reverse link vector<RunStates> to RunStates--><g class="link" data-entity-1="ent0015" data-entity-2="ent0011" data-link-type="aggregation" data-source-line="28" id="lnk16"><path codeLine="28" d="M319.06,871.34 C319.06,899.54 319.06,935.35 319.06,967.38" fill="none" id="vector&lt;RunStates&gt;-backto-RunStates" style="stroke:#181818;stroke-width:1;"/><polygon fill="none" points="319.06,859.34,315.06,865.34,319.06,871.34,323.06,865.34,319.06,859.34" style="stroke:#181818;stroke-width:1;"/></g><!--link ExperimentStates to vector<RunStates>--><g class="link" data-entity-1="ent0017" data-entity-2="ent0015" data-link-type="extension" data-source-line="30" id="lnk18"><path codeLine="30" d="M319.06,723.06 C319.06,747.76 319.06,768.41 319.06,793" fill="none" id="ExperimentStates-to-vector&lt;RunStates&gt;" style="stroke:#181818;stroke-width:1;"/><polygon fill="none" points="319.06,811,325.06,793,313.06,793,319.06,811" style="stroke:#181818;stroke-width:1;"/><text fill="#000000" font-family="sans-serif" font-size="13" lengthAdjust="spacing" textLength="59.683" x="320.06" y="777.057">&#171;typedef&#187;</text></g><!--reverse link vector<ExperimentStates> to ExperimentStates--><g class="link" data-entity-1="ent0019" data-entity-2="ent0017" data-link-type="aggregation" data-source-line="33" id="lnk20"><path codeLine="33" d="M319.06,587.81 C319.06,614.9 319.06,647.31 319.06,674.37" fill="none" id="vector&lt;ExperimentStates&gt;-backto-ExperimentStates" style="stroke:#181818;stroke-width:1;"/><polygon fill="none" points="319.06,575.81,315.06,581.81,319.06,587.81,323.06,581.81,319.06,575.81" style="stroke:#181818;stroke-width:1;"/></g><!--link ExperimentSweepStates to vector<ExperimentStates>--><g class="link" data-entity-1="ent0021" data-entity-2="ent0019" data-link-type="extension" data-source-line="35" id="lnk22"><path codeLine="35" d="M319.06,391.74 C319.06,426.72 319.06,474.2 319.06,509.14" fill="none" id="ExperimentSweepStates-to-vector&lt;ExperimentStates&gt;" style="stroke:#181818;stroke-width:1;"/><polygon fill="none" points="319.06,527.14,325.06,509.14,313.06,509.14,319.06,527.14" style="stroke:#181818;stroke-width:1;"/><text fill="#000000" font-family="sans-serif" font-size="13" lengthAdjust="spacing" textLength="59.683" x="320.06" y="464.787">&#171;typedef&#187;</text></g><!--reverse link Statistics to Measurement--><g class="link" data-entity-1="ent0024" data-entity-2="ent0023" data-link-type="aggregation" data-source-line="52" id="lnk25"><path codeLine="52" d="M953.06,1094.77 C953.06,1114.67 953.06,1123.85 953.06,1143.26" fill="none" id="Statistics-backto-Measurement" style="stroke:#181818;stroke-width:1;"/><polygon fill="none" points="953.06,1082.77,949.06,1088.77,953.06,1094.77,957.06,1088.77,953.06,1082.77" style="stroke:#181818;stroke-width:1;"/></g><!--reverse link vector<Statistics> to Statistics--><g class="link" data-entity-1="ent0026" data-entity-2="ent0024" data-link-type="aggregation" data-source-line="55" id="lnk27"><path codeLine="55" d="M953.06,871.34 C953.06,887.34 953.06,897.65 953.06,919.82" fill="none" id="vector&lt;Statistics&gt;-backto-Statistics" style="stroke:#181818;stroke-width:1;"/><polygon fill="none" points="953.06,859.34,949.06,865.34,953.06,871.34,957.06,865.34,953.06,859.34" style="stroke:#181818;stroke-width:1;"/></g><!--link ExperimentResults to vector<Statistics>--><g class="link" data-entity-1="ent0028" data-entity-2="ent0026" data-link-type="extension" data-source-line="57" id="lnk29"><path codeLine="57" d="M953.06,723.06 C953.06,747.76 953.06,768.41 953.06,793" fill="none" id="ExperimentResults-to-vector&lt;Statistics&gt;" style="stroke:#181818;stroke-width:1;"/><polygon fill="none" points="953.06,811,959.06,793,947.06,793,953.06,811" style="stroke:#181818;stroke-width:1;"/><text fill="#000000" font-family="sans-serif" font-size="13" lengthAdjust="spacing" textLength="59.683" x="954.06" y="777.057">&#171;typedef&#187;</text></g><!--reverse link vector<ExperimentResults> to ExperimentResults--><g class="link" data-entity-1="ent0030" data-entity-2="ent0028" data-link-type="aggregation" data-source-line="60" id="lnk31"><path codeLine="60" d="M953.06,587.81 C953.06,614.9 953.06,647.31 953.06,674.37" fill="none" id="vector&lt;ExperimentResults&gt;-backto-ExperimentResults" style="stroke:#181818;stroke-width:1;"/><polygon fill="none" points="953.06,575.81,949.06,581.81,953.06,587.81,957.06,581.81,953.06,575.81" style="stroke:#181818;stroke-width:1;"/></g><!--link ExperimentSweepResults to vector<ExperimentResults>--><g class="link" data-entity-1="ent0032" data-entity-2="ent0030" data-link-type="extension" data-source-line="62" id="lnk33"><path codeLine="62" d="M953.06,391.74 C953.06,426.72 953.06,474.2 953.06,509.14" fill="none" id="ExperimentSweepResults-to-vector&lt;ExperimentResults&gt;" style="stroke:#181818;stroke-width:1;"/><polygon fill="none" points="953.06,527.14,959.06,509.14,947.06,509.14,953.06,527.14" style="stroke:#181818;stroke-width:1;"/><text fill="#000000" font-family="sans-serif" font-size="13" lengthAdjust="spacing" textLength="59.683" x="954.06" y="464.787">&#171;typedef&#187;</text></g><!--link math to ExperimentSweepParameters--><g class="link" data-entity-1="ent0034" data-entity-2="ent0008" data-link-type="dependency" data-source-line="69" id="lnk35"><path codeLine="69" d="M437.65,253.96 C477.26,273.53 515.7401,292.5336 554.2801,311.5636" fill="none" id="math-to-ExperimentSweepParameters" style="stroke:#181818;stroke-width:1;"/><polygon fill="#181818" points="559.66,314.22,553.3611,306.6487,555.1768,312.0063,549.8192,313.8219,559.66,314.22" style="stroke:#181818;stroke-width:1;"/></g><!--link math to ExperimentSweepStates--><g class="link" data-entity-1="ent0034" data-entity-2="ent0021" data-link-type="dependency" data-source-line="70" id="lnk36"><path codeLine="70" d="M319.06,253.72 C319.06,284.28 319.06,314 319.06,336.86" fill="none" id="math-to-ExperimentSweepStates" style="stroke:#181818;stroke-width:1;"/><polygon fill="#181818" points="319.06,342.86,323.06,333.86,319.06,337.86,315.06,333.86,319.06,342.86" style="stroke:#181818;stroke-width:1;"/></g><!--link math to ExperimentSweepResults--><g class="link" data-entity-1="ent0034" data-entity-2="ent0032" data-link-type="dependency" data-source-line="71" id="lnk37"><path codeLine="71" d="M617.34,254.12 C689.66,271.12 766.24,291.47 836.06,314.69 C859.44,322.46 879.0918,330.6866 900.0318,340.3466" fill="none" id="math-to-ExperimentSweepResults" style="stroke:#181818;stroke-width:1;"/><polygon fill="#181818" points="905.48,342.86,898.9833,335.4578,900.9398,340.7655,895.6321,342.7221,905.48,342.86" style="stroke:#181818;stroke-width:1;"/></g><!--reverse link IOOutputWriter to CSVWriter--><g class="link" data-entity-1="ent0038" data-entity-2="ent0039" data-link-type="extension" data-source-line="83" id="lnk41"><path codeLine="83" d="M927.5172,86.757 C900.1772,112.217 875.68,135.04 848.36,160.5" fill="none" id="IOOutputWriter-backto-CSVWriter" style="stroke:#181818;stroke-width:1;"/><polygon fill="none" points="940.69,74.49,923.4282,82.366,931.6062,91.1479,940.69,74.49" style="stroke:#181818;stroke-width:1;"/></g><!--reverse link IOOutputWriter to SVGWriter--><g class="link" data-entity-1="ent0038" data-entity-2="ent0040" data-link-type="extension" data-source-line="84" id="lnk42"><path codeLine="84" d="M1025.1081,86.6756 C1052.7881,112.1356 1077.67,135.04 1105.33,160.5" fill="none" id="IOOutputWriter-backto-SVGWriter" style="stroke:#181818;stroke-width:1;"/><polygon fill="none" points="1011.86,74.49,1021.0462,91.0916,1029.1699,82.2595,1011.86,74.49" style="stroke:#181818;stroke-width:1;"/></g><!--link CSVWriter to ExperimentSweepParameters--><g class="link" data-entity-1="ent0039" data-entity-2="ent0008" data-link-type="dependency" data-source-line="86" id="lnk43"><path codeLine="86" d="M784.52,228.33 C763.44,252.68 738.2475,281.7741 714.0375,309.7341" fill="none" id="CSVWriter-to-ExperimentSweepParameters" style="stroke:#181818;stroke-width:1;"/><polygon fill="#181818" points="710.11,314.27,719.0253,310.0845,713.383,310.4901,712.9774,304.8478,710.11,314.27" style="stroke:#181818;stroke-width:1;"/></g><!--link CSVWriter to ExperimentSweepResults--><g class="link" data-entity-1="ent0039" data-entity-2="ent0032" data-link-type="dependency" data-source-line="87" id="lnk44"><path codeLine="87" d="M840.05,228.33 C867.63,261.99 905.9278,308.7485 930.2078,338.3885" fill="none" id="CSVWriter-to-ExperimentSweepResults" style="stroke:#181818;stroke-width:1;"/><polygon fill="#181818" points="934.01,343.03,931.4011,333.533,930.8415,339.1621,925.2124,338.6025,934.01,343.03" style="stroke:#181818;stroke-width:1;"/></g><!--link SVGWriter to ExperimentSweepParameters--><g class="link" data-entity-1="ent0040" data-entity-2="ent0008" data-link-type="dependency" data-source-line="89" id="lnk45"><path codeLine="89" d="M1049.28,228.33 C981.47,252.68 893.457,284.2824 815.587,312.2424" fill="none" id="SVGWriter-to-ExperimentSweepParameters" style="stroke:#181818;stroke-width:1;"/><polygon fill="#181818" points="809.94,314.27,819.7623,314.9933,814.6458,312.5803,817.0588,307.4639,809.94,314.27" style="stroke:#181818;stroke-width:1;"/></g><!--link SVGWriter to ExperimentSweepResults--><g class="link" data-entity-1="ent0040" data-entity-2="ent0032" data-link-type="dependency" data-source-line="90" id="lnk46"><path codeLine="90" d="M1104.81,228.33 C1067.79,261.99 1015.6788,309.353 983.0888,338.993" fill="none" id="SVGWriter-to-ExperimentSweepResults" style="stroke:#181818;stroke-width:1;"/><polygon fill="#181818" points="978.65,343.03,987.9995,339.9337,982.349,339.6658,982.6168,334.0153,978.65,343.03" style="stroke:#181818;stroke-width:1;"/></g><?plantuml-src fLLBRjim4Dth54GMXOD6Fa1WQ5CKGO4KAM8WNHgCD749I9H03XsxIGwJi-HY9KtA8YbARPETviCtRsOUAOb2bKXk5Vz11Mq0GKZob16oN2wpbuot2EI-HMoRItBzzYehicQDgYcsWhJoDxwzreUAqQq-csNIWdtTTo1O0nmZpCzH7Q7ufZkPnmJ6qRYjiODIrra5Xme2-uxoQd6kwIKhjNaUraaGMpy2T2Ds4PoEW2GIgK36jvRfYMZOIGKrql_b79Cmn5CT_UL8r6jPKocDSuqKuVtBj3XdGpyMhpWZJ-GbI_aT6MkxynvrHuS48x3EF7ykagKkoMg5XmugU2YAc5CC4r5BXCC9Jn4rCqwpzI81vKIfYBbJu7UWKWamcKvpLQlkQo0Duu59zxv9TrlVb5Zv9WYXj-ig609C8YjxKJkA-c9f6N9aUDYKhUAusT5QWHMpJylF6G7GkeOQvW7yd160xA1a8ESHWYJTcjUJsQ2N6ajYo8p440GCoE0O2U0MfAenNdxl3HOVmFwZM1tGf5g7U2XNvq_hDSqv24qeTYYNvDzG_ANzNByligCb58NJbR-mndulx3xFeyUq9z1dGUADko0GtQ4O9UXb31MzZ07US6tD0tpiAC-BwT_1P8fxCQR2_OOoBNKG3tfQvDlDZS9EuK_1jAk_aYshoAFnB8u_5SrMsACNv5EhSAFlCj36aBLB-BA--nZ0-kxglG1PrCBgMQloH2WPFLNBie7v_CHdyqvp7TgOHvlDwz7-0000?></g></svg>