<?plantuml 1.2026.2?><svg xmlns="http://www.w3.org/2000/svg" xmlns:xlink="http://www.w3.org/1999/xlink" contentStyleType="text/css" data-diagram-type="DESCRIPTION" height="684px" preserveAspectRatio="none" style="width:624px;height:684px;background:#FFFFFF;" version="1.1" viewBox="0 0 624 684" width="624px" zoomAndPan="magnify"><defs/><g><!--entity user--><g class="entity" data-qualified-name="user" data-source-line="1" id="ent0002"><ellipse cx="298.7969" cy="14" fill="#F1F1F1" rx="8" ry="8" style="stroke:#181818;stroke-width:0.5;"/><path d="M298.7969,22 L298.7969,49 M285.7969,30 L311.7969,30 M298.7969,49 L285.7969,64 M298.7969,49 L311.7969,64" fill="none" style="stroke:#181818;stroke-width:0.5;"/><text fill="#000000" font-family="sans-serif" font-size="14" lengthAdjust="spacing" textLength="77.1537" x="260.22" y="80.4659">Felhaszn&#225;l&#243;</text></g><!--entity configure--><g class="entity" data-qualified-name="configure" data-source-line="3" id="ent0003"><ellipse cx="298.8003" cy="166.9521" fill="#F1F1F1" rx="94.9103" ry="21.3821" style="stroke:#181818;stroke-width:0.5;"/><text fill="#000000" font-family="sans-serif" font-size="14" lengthAdjust="spacing" textLength="157.1634" x="220.2185" y="172.986">Param&#233;terek megad&#225;sa</text></g><!--entity run_experiment--><g class="entity" data-qualified-name="run_experiment" data-source-line="4" id="ent0004"><ellipse cx="238.8012" cy="402.7002" fill="#F1F1F1" rx="76.4512" ry="17.6902" style="stroke:#181818;stroke-width:0.5;"/><text fill="#000000" font-family="sans-serif" font-size="14" lengthAdjust="spacing" textLength="111.7616" x="182.9204" y="408.7342">K&#237;s&#233;rlet futtat&#225;sa</text></g><!--entity run_experiment_sweep--><g class="entity" data-qualified-name="run_experiment_sweep" data-source-line="5" id="ent0005"><ellipse cx="429.797" cy="286.6714" fill="#F1F1F1" rx="84.707" ry="19.3414" style="stroke:#181818;stroke-width:0.5;"/><text fill="#000000" font-family="sans-serif" font-size="14" lengthAdjust="spacing" textLength="132.7195" x="363.4372" y="292.7054">K&#237;s&#233;rletsor futtat&#225;sa</text></g><!--entity collect_results--><g class="entity" data-qualified-name="collect_results" data-source-line="6" id="ent0006"><ellipse cx="238.8042" cy="521.0228" fill="#F1F1F1" rx="96.1642" ry="21.6328" style="stroke:#181818;stroke-width:0.5;"/><text fill="#000000" font-family="sans-serif" font-size="14" lengthAdjust="spacing" textLength="160.0894" x="158.7595" y="527.0568">Eredm&#233;nyek &#246;sszes&#237;t&#233;se</text></g><!--entity export_table--><g class="entity" data-qualified-name="export_table" data-source-line="7" id="ent0007"><ellipse cx="119.8013" cy="649.8403" fill="#F1F1F1" rx="113.8013" ry="25.1603" style="stroke:#181818;stroke-width:0.5;"/><text fill="#000000" font-family="sans-serif" font-size="14" lengthAdjust="spacing" textLength="200.0452" x="19.7787" y="655.8742">Eredm&#233;nyek t&#225;bl&#225;zatos ki&#237;r&#225;sa</text></g><!--entity export_plot--><g class="entity" data-qualified-name="export_plot" data-source-line="8" id="ent0008"><ellipse cx="489.7985" cy="649.8417" fill="#F1F1F1" rx="128.9085" ry="28.1817" style="stroke:#181818;stroke-width:0.5;"/><text fill="#000000" font-family="sans-serif" font-size="14" lengthAdjust="spacing" textLength="233.0711" x="373.2629" y="655.8757">Eredm&#233;nyek &#225;br&#225;zol&#225;sa grafikonon</text></g><!--link user to configure--><g class="link" data-entity-1="ent0002" data-entity-2="ent0003" data-link-type="association" data-source-line="10" id="lnk9"><path d="M298.8,84.96 C298.8,105.07 298.8,128.79 298.8,145.34" fill="none" id="user-configure" style="stroke:#181818;stroke-width:1;"/></g><!--link user to run_experiment--><g class="link" data-entity-1="ent0002" data-entity-2="ent0004" data-link-type="association" data-source-line="11" id="lnk10"><path d="M259.84,68.36 C233.82,85.69 201.72,112.34 186.8,145.56 C148.88,230 204.41,342.52 228.54,384.74" fill="none" id="user-run_experiment" style="stroke:#181818;stroke-width:1;"/></g><!--link user to run_experiment_sweep--><g class="link" data-entity-1="ent0002" data-entity-2="ent0005" data-link-type="association" data-source-line="12" id="lnk11"><path d="M337.76,70.67 C362.57,88.45 393.25,114.7 410.8,145.56 C432.89,184.4 433.17,238.83 431.49,267.05" fill="none" id="user-run_experiment_sweep" style="stroke:#181818;stroke-width:1;"/></g><!--link user to export_table--><g class="link" data-entity-1="ent0002" data-entity-2="ent0007" data-link-type="association" data-source-line="13" id="lnk12"><path d="M259.9,49.77 C196.97,58.19 79.8,84.78 79.8,165.95 C79.8,165.95 79.8,165.95 79.8,522.02 C79.8,559.19 95.62,599.77 107.36,624.76" fill="none" id="user-export_table" style="stroke:#181818;stroke-width:1;"/></g><!--link user to export_plot--><g class="link" data-entity-1="ent0002" data-entity-2="ent0008" data-link-type="association" data-source-line="14" id="lnk13"><path d="M337.63,46.24 C412.12,48.9 567.8,66.37 567.8,165.95 C567.8,165.95 567.8,165.95 567.8,522.02 C567.8,561.05 540.66,598.16 518.4,622.04" fill="none" id="user-export_plot" style="stroke:#181818;stroke-width:1;"/></g><!--link configure to run_experiment--><g class="link" data-entity-1="ent0003" data-entity-2="ent0004" data-link-type="dependency" data-source-line="16" id="lnk14"><path d="M288.1,188.69 C278.41,208.4 264.5,239.14 256.8,267.33 C245.52,308.65 241.5431,353.151 239.9831,378.881" fill="none" id="configure-to-run_experiment" style="stroke:#181818;stroke-width:1;stroke-dasharray:7,7;"/><polygon fill="#181818" points="239.62,384.87,244.1573,376.1286,239.9226,379.8792,236.172,375.6444,239.62,384.87" style="stroke:#181818;stroke-width:1;"/><text fill="#000000" font-family="sans-serif" font-size="13" lengthAdjust="spacing" textLength="69.056" x="257.8" y="292.067">&#171;preceeds&#187;</text></g><!--link configure to run_experiment_sweep--><g class="link" data-entity-1="ent0003" data-entity-2="ent0005" data-link-type="dependency" data-source-line="17" id="lnk15"><path d="M310.81,188.45 C320.15,203.23 334.13,223.01 349.8,237.33 C363.22,249.59 374.9649,257.4564 389.8349,265.7164" fill="none" id="configure-to-run_experiment_sweep" style="stroke:#181818;stroke-width:1;stroke-dasharray:7,7;"/><polygon fill="#181818" points="395.08,268.63,389.1547,260.7629,390.7091,266.202,385.27,267.7564,395.08,268.63" style="stroke:#181818;stroke-width:1;"/><text fill="#000000" font-family="sans-serif" font-size="13" lengthAdjust="spacing" textLength="69.056" x="350.8" y="233.227">&#171;preceeds&#187;</text></g><!--link run_experiment_sweep to run_experiment--><g class="link" data-entity-1="ent0005" data-entity-2="ent0004" data-link-type="dependency" data-source-line="18" id="lnk16"><path d="M400.38,305.24 C363.54,327.23 306.1424,361.5054 270.6324,382.6954" fill="none" id="run_experiment_sweep-to-run_experiment" style="stroke:#181818;stroke-width:1;stroke-dasharray:7,7;"/><polygon fill="#181818" points="265.48,385.77,275.2583,384.593,269.7736,383.2078,271.1588,377.7232,265.48,385.77" style="stroke:#181818;stroke-width:1;"/><text fill="#000000" font-family="sans-serif" font-size="13" lengthAdjust="spacing" textLength="63.8041" x="346.74" y="350.907">&#171;includes&#187;</text></g><!--link run_experiment to collect_results--><g class="link" data-entity-1="ent0004" data-entity-2="ent0006" data-link-type="dependency" data-source-line="19" id="lnk17"><path d="M238.8,420.86 C238.8,441.72 238.8,470.88 238.8,493.25" fill="none" id="run_experiment-to-collect_results" style="stroke:#181818;stroke-width:1;stroke-dasharray:7,7;"/><polygon fill="#181818" points="238.8,499.25,242.8,490.25,238.8,494.25,234.8,490.25,238.8,499.25" style="stroke:#181818;stroke-width:1;"/><text fill="#000000" font-family="sans-serif" font-size="13" lengthAdjust="spacing" textLength="59.592" x="239.8" y="465.287">&#171;invokes&#187;</text></g><!--link collect_results to export_table--><g class="link" data-entity-1="ent0006" data-entity-2="ent0007" data-link-type="dependency" data-source-line="20" id="lnk18"><path d="M219.42,542.68 C198.34,565.14 168.8059,596.6149 146.5359,620.3449" fill="none" id="collect_results-to-export_table" style="stroke:#181818;stroke-width:1;stroke-dasharray:7,7;"/><polygon fill="#181818" points="142.43,624.72,151.5056,620.8946,145.8516,621.0741,145.6721,615.4201,142.43,624.72" style="stroke:#181818;stroke-width:1;"/><text fill="#000000" font-family="sans-serif" font-size="13" lengthAdjust="spacing" textLength="69.056" x="190.96" y="587.557">&#171;preceeds&#187;</text></g><!--link collect_results to export_plot--><g class="link" data-entity-1="ent0006" data-entity-2="ent0008" data-link-type="dependency" data-source-line="21" id="lnk19"><path d="M276.92,541.28 C320.4,563.25 386.2851,596.5335 434.2451,620.7735" fill="none" id="collect_results-to-export_plot" style="stroke:#181818;stroke-width:1;stroke-dasharray:7,7;"/><polygon fill="#181818" points="439.6,623.48,433.372,615.8503,435.1376,621.2246,429.7633,622.9902,439.6,623.48" style="stroke:#181818;stroke-width:1;"/><text fill="#000000" font-family="sans-serif" font-size="13" lengthAdjust="spacing" textLength="69.056" x="372.83" y="587.557">&#171;preceeds&#187;</text></g><?plantuml-src VP4zReGm48NxFOL5ltk0Q4MND6bo0sHW80XZevbXat0RIWggIBc0BnO3As3vsSR5-7r-Rvvbn0Q5zmRgKrAjRQFihoSaYOe0JoTtHf90U1yIPM5R1eHS593As3Oa1sLaT9Ab5SAiVhSTsHOLi4WgPicJ62iTm7S9c1MWUOyWb-Sf5D0NG3cZhmYnYwP_N3BxHrG3sOvjIt2FfnH4721GfPZsEUSLAjlKaWs9FBCTJkREs207B4C51wPDwEIrKJqZKfH9bXjjz18lbU6XJXJdysDbmsJRoyvutdouN2TR3aU_oKTSBlxgCV4YhjSI8GA8oVUVQaVZDR6hEJ3ATAIg6BRO0Ap-w4xSJ0vZiiVRdbZkljtaKD_NifB_0m00?></g></svg>