<?plantuml 1.2026.2?><svg xmlns="http://www.w3.org/2000/svg" xmlns:xlink="http://www.w3.org/1999/xlink" contentStyleType="text/css" data-diagram-type="CLASS" height="640px" preserveAspectRatio="none" style="width:1176px;height:640px;background:#FFFFFF;" version="1.1" viewBox="0 0 1176 640" width="1176px" zoomAndPan="magnify"><defs/><g><!--class Simulator--><g class="entity" data-qualified-name="Simulator" data-source-line="1" id="ent0002"><rect fill="#F1F1F1" height="181.4754" rx="2.5" ry="2.5" style="stroke:#181818;stroke-width:0.5;" width="281.695" x="434.47" y="7"/><ellipse cx="539.1616" cy="23" fill="#ADD1B2" rx="11" ry="11" style="stroke:#181818;stroke-width:1;"/><path d="M538.6304,29.9219 Q536.8804,29.9219 535.7397,29.1875 Q534.6147,28.4375 534.0522,27.0938 Q533.5054,25.7344 533.5054,23.9375 Q533.5054,21.9063 534.1616,20.4531 Q534.8179,19 536.0991,18.2188 Q537.3804,17.4375 539.2554,17.4375 Q540.146,17.4375 540.8179,17.625 Q541.4897,17.7969 542.1772,18.1406 L541.3647,20.1563 Q540.7397,19.8438 540.1929,19.7188 Q539.6616,19.5938 539.1772,19.5938 Q538.0054,19.5938 537.3022,20.125 Q536.5991,20.6563 536.3022,21.6094 Q536.0054,22.5625 536.0054,23.8281 Q536.0054,25.8438 536.7241,26.8125 Q537.4429,27.7656 539.0366,27.7656 Q539.6304,27.7656 540.2554,27.6094 Q540.8804,27.4531 541.7085,27.0781 L541.7085,29.2969 Q540.9741,29.6094 540.1772,29.7656 Q539.396,29.9219 538.6304,29.9219 Z " fill="#000000"/><text fill="#000000" font-family="sans-serif" font-size="14" lengthAdjust="spacing" textLength="63.8118" x="559.6616" y="28.432">Simulator</text><line style="stroke:#181818;stroke-width:0.5;" x1="435.47" x2="715.165" y1="39" y2="39"/><g data-visibility-modifier="PRIVATE_FIELD"><rect fill="none" height="6" style="stroke:#C82930;stroke-width:1;" width="6" x="442.47" y="51.034"/></g><text fill="#000000" font-family="sans-serif" font-size="14" lengthAdjust="spacing" textLength="168.7554" x="454.47" y="57.9659">const ISimilarity similarity</text><g data-visibility-modifier="PRIVATE_FIELD"><rect fill="none" height="6" style="stroke:#C82930;stroke-width:1;" width="6" x="442.47" y="70.1019"/></g><text fill="#000000" font-family="sans-serif" font-size="14" lengthAdjust="spacing" textLength="165.8434" x="454.47" y="77.0339">const ISelection selection</text><g data-visibility-modifier="PRIVATE_FIELD"><rect fill="none" height="6" style="stroke:#C82930;stroke-width:1;" width="6" x="442.47" y="89.1698"/></g><text fill="#000000" font-family="sans-serif" font-size="14" lengthAdjust="spacing" textLength="223.1732" x="454.47" y="96.1018">const IReproduction reproduction</text><g data-visibility-modifier="PRIVATE_FIELD"><rect fill="none" height="6" style="stroke:#C82930;stroke-width:1;" width="6" x="442.47" y="108.2377"/></g><text fill="#000000" font-family="sans-serif" font-size="14" lengthAdjust="spacing" textLength="200.1292" x="454.47" y="115.1697">const IGeneAdder gene_adder</text><g data-visibility-modifier="PRIVATE_FIELD"><rect fill="none" height="6" style="stroke:#C82930;stroke-width:1;" width="6" x="442.47" y="127.3056"/></g><text fill="#000000" font-family="sans-serif" font-size="14" lengthAdjust="spacing" textLength="255.695" x="454.47" y="134.2376">const ISpeciesCounter species_counter</text><g data-visibility-modifier="PRIVATE_FIELD"><rect fill="none" height="6" style="stroke:#C82930;stroke-width:1;" width="6" x="442.47" y="146.3735"/></g><text fill="#000000" font-family="sans-serif" font-size="14" lengthAdjust="spacing" textLength="221.8012" x="454.47" y="153.3055">const RunParameters parameters</text><line style="stroke:#181818;stroke-width:0.5;" x1="435.47" x2="715.165" y1="161.4075" y2="161.4075"/><g data-visibility-modifier="PUBLIC_METHOD"><ellipse cx="445.47" cy="176.4415" fill="#84BE84" rx="3" ry="3" style="stroke:#038048;stroke-width:1;"/></g><text fill="#000000" font-family="sans-serif" font-size="14" lengthAdjust="spacing" textLength="134.6795" x="454.47" y="180.3734">RunStates run(&amp;rng)</text></g><!--class RunParameters--><g class="entity" data-qualified-name="RunParameters" data-source-line="11" id="ent0003"><rect fill="#F1F1F1" height="200.5433" rx="2.5" ry="2.5" style="stroke:#181818;stroke-width:0.5;" width="257.1532" x="446.74" y="248.48"/><ellipse cx="519.8688" cy="264.48" fill="#F1F1F1" rx="11" ry="11" style="stroke:#181818;stroke-width:1;"/><path d="M519.5406,271.1519 Q518.6188,271.1519 517.7281,270.98 Q516.8375,270.7925 516.0563,270.4175 L516.0563,268.1675 Q517.0094,268.6519 517.8844,268.8862 Q518.775,269.105 519.6188,269.105 Q520.4938,269.105 521.0563,268.8081 Q521.6188,268.5112 521.6188,267.73 Q521.6188,267.1831 521.3219,266.8862 Q521.025,266.5737 520.4625,266.2925 Q519.9,266.0112 519.1188,265.605 Q518.3375,265.1831 517.6813,264.6987 Q517.0406,264.1987 516.6656,263.5269 Q516.2906,262.855 516.2906,261.9019 Q516.2906,260.2769 517.3844,259.48 Q518.4938,258.6675 520.275,258.6675 Q520.9938,258.6675 521.9781,258.8394 Q522.9625,258.9956 523.9156,259.4487 L523.1344,261.3706 Q522.2906,261.0112 521.6031,260.8706 Q520.9313,260.7144 520.4156,260.7144 Q519.5719,260.7144 519.1813,261.0581 Q518.8063,261.3862 518.8063,262.0269 Q518.8063,262.5112 519.0406,262.8237 Q519.2906,263.1206 519.7594,263.3706 Q520.2438,263.6206 520.9781,263.9956 Q521.9781,264.48 522.6813,264.9487 Q523.3844,265.4175 523.7594,266.0425 Q524.1344,266.6519 524.1344,267.5894 Q524.1344,268.7769 523.5563,269.5737 Q522.9938,270.355 521.9469,270.7612 Q520.9156,271.1519 519.5406,271.1519 Z " fill="#000000"/><text fill="#000000" font-family="sans-serif" font-size="14" lengthAdjust="spacing" textLength="102.3956" x="540.3688" y="269.912">RunParameters</text><line style="stroke:#181818;stroke-width:0.5;" x1="447.74" x2="702.8932" y1="280.48" y2="280.48"/><g data-visibility-modifier="PUBLIC_FIELD"><ellipse cx="457.74" cy="295.514" fill="none" rx="3" ry="3" style="stroke:#038048;stroke-width:1;"/></g><text fill="#000000" font-family="sans-serif" font-size="14" lengthAdjust="spacing" textLength="52.0658" x="466.74" y="299.4459">int seed</text><g data-visibility-modifier="PUBLIC_FIELD"><ellipse cx="457.74" cy="314.5819" fill="none" rx="3" ry="3" style="stroke:#038048;stroke-width:1;"/></g><text fill="#000000" font-family="sans-serif" font-size="14" lengthAdjust="spacing" textLength="55.9298" x="466.74" y="318.5139">int steps</text><g data-visibility-modifier="PUBLIC_FIELD"><ellipse cx="457.74" cy="333.6498" fill="none" rx="3" ry="3" style="stroke:#038048;stroke-width:1;"/></g><text fill="#000000" font-family="sans-serif" font-size="14" lengthAdjust="spacing" textLength="78.7357" x="466.74" y="337.5818">Limits limits</text><g data-visibility-modifier="PUBLIC_FIELD"><ellipse cx="457.74" cy="352.7177" fill="none" rx="3" ry="3" style="stroke:#038048;stroke-width:1;"/></g><text fill="#000000" font-family="sans-serif" font-size="14" lengthAdjust="spacing" textLength="224.9512" x="466.74" y="356.6497">ReproductionProbabilities r_probs</text><g data-visibility-modifier="PUBLIC_FIELD"><ellipse cx="457.74" cy="371.7856" fill="none" rx="3" ry="3" style="stroke:#038048;stroke-width:1;"/></g><text fill="#000000" font-family="sans-serif" font-size="14" lengthAdjust="spacing" textLength="231.1532" x="466.74" y="375.7176">ReproductionParameters r_params</text><g data-visibility-modifier="PUBLIC_FIELD"><ellipse cx="457.74" cy="390.8535" fill="none" rx="3" ry="3" style="stroke:#038048;stroke-width:1;"/></g><text fill="#000000" font-family="sans-serif" font-size="14" lengthAdjust="spacing" textLength="188.5653" x="466.74" y="394.7855">GeneticProbabilities g_probs</text><g data-visibility-modifier="PUBLIC_FIELD"><ellipse cx="457.74" cy="409.9215" fill="none" rx="3" ry="3" style="stroke:#038048;stroke-width:1;"/></g><text fill="#000000" font-family="sans-serif" font-size="14" lengthAdjust="spacing" textLength="194.7673" x="466.74" y="413.8534">GeneticParameters g_params</text><g data-visibility-modifier="PUBLIC_FIELD"><ellipse cx="457.74" cy="428.9894" fill="none" rx="3" ry="3" style="stroke:#038048;stroke-width:1;"/></g><text fill="#000000" font-family="sans-serif" font-size="14" lengthAdjust="spacing" textLength="189.8953" x="466.74" y="432.9214">EnergyParameters e_params</text><line style="stroke:#181818;stroke-width:0.5;" x1="447.74" x2="702.8932" y1="441.0233" y2="441.0233"/></g><!--class Limits--><g class="entity" data-qualified-name="Limits" data-source-line="21" id="ent0004"><rect fill="#F1F1F1" height="86.1358" rx="2.5" ry="2.5" style="stroke:#181818;stroke-width:0.5;" width="88.6358" x="7" y="528.09"/><ellipse cx="29.7517" cy="544.09" fill="#F1F1F1" rx="11" ry="11" style="stroke:#181818;stroke-width:1;"/><path d="M29.4235,550.7619 Q28.5017,550.7619 27.611,550.59 Q26.7204,550.4025 25.9392,550.0275 L25.9392,547.7775 Q26.8923,548.2619 27.7673,548.4962 Q28.6579,548.715 29.5017,548.715 Q30.3767,548.715 30.9392,548.4181 Q31.5017,548.1212 31.5017,547.34 Q31.5017,546.7931 31.2048,546.4962 Q30.9079,546.1837 30.3454,545.9025 Q29.7829,545.6212 29.0017,545.215 Q28.2204,544.7931 27.5642,544.3087 Q26.9235,543.8087 26.5485,543.1369 Q26.1735,542.465 26.1735,541.5119 Q26.1735,539.8869 27.2673,539.09 Q28.3767,538.2775 30.1579,538.2775 Q30.8767,538.2775 31.861,538.4494 Q32.8454,538.6056 33.7985,539.0587 L33.0173,540.9806 Q32.1735,540.6212 31.486,540.4806 Q30.8142,540.3244 30.2985,540.3244 Q29.4548,540.3244 29.0642,540.6681 Q28.6892,540.9962 28.6892,541.6369 Q28.6892,542.1212 28.9235,542.4337 Q29.1735,542.7306 29.6423,542.9806 Q30.1267,543.2306 30.861,543.6056 Q31.861,544.09 32.5642,544.5587 Q33.2673,545.0275 33.6423,545.6525 Q34.0173,546.2619 34.0173,547.1994 Q34.0173,548.3869 33.4392,549.1837 Q32.8767,549.965 31.8298,550.3712 Q30.7985,550.7619 29.4235,550.7619 Z " fill="#000000"/><text fill="#000000" font-family="sans-serif" font-size="14" lengthAdjust="spacing" textLength="39.4099" x="45.4742" y="549.522">Limits</text><line style="stroke:#181818;stroke-width:0.5;" x1="8" x2="94.6358" y1="560.09" y2="560.09"/><g data-visibility-modifier="PUBLIC_FIELD"><ellipse cx="18" cy="575.124" fill="none" rx="3" ry="3" style="stroke:#038048;stroke-width:1;"/></g><text fill="#000000" font-family="sans-serif" font-size="14" lengthAdjust="spacing" textLength="59.6398" x="27" y="579.0559">int v_min</text><g data-visibility-modifier="PUBLIC_FIELD"><ellipse cx="18" cy="594.1919" fill="none" rx="3" ry="3" style="stroke:#038048;stroke-width:1;"/></g><text fill="#000000" font-family="sans-serif" font-size="14" lengthAdjust="spacing" textLength="62.6358" x="27" y="598.1239">int v_max</text><line style="stroke:#181818;stroke-width:0.5;" x1="8" x2="94.6358" y1="606.2258" y2="606.2258"/></g><!--class ReproductionProbabilities--><g class="entity" data-qualified-name="ReproductionProbabilities" data-source-line="25" id="ent0005"><rect fill="#F1F1F1" height="86.1358" rx="2.5" ry="2.5" style="stroke:#181818;stroke-width:0.5;" width="203.1354" x="130.75" y="528.09"/><ellipse cx="145.75" cy="544.09" fill="#F1F1F1" rx="11" ry="11" style="stroke:#181818;stroke-width:1;"/><path d="M145.4219,550.7619 Q144.5,550.7619 143.6094,550.59 Q142.7188,550.4025 141.9375,550.0275 L141.9375,547.7775 Q142.8906,548.2619 143.7656,548.4962 Q144.6563,548.715 145.5,548.715 Q146.375,548.715 146.9375,548.4181 Q147.5,548.1212 147.5,547.34 Q147.5,546.7931 147.2031,546.4962 Q146.9063,546.1837 146.3438,545.9025 Q145.7813,545.6212 145,545.215 Q144.2188,544.7931 143.5625,544.3087 Q142.9219,543.8087 142.5469,543.1369 Q142.1719,542.465 142.1719,541.5119 Q142.1719,539.8869 143.2656,539.09 Q144.375,538.2775 146.1563,538.2775 Q146.875,538.2775 147.8594,538.4494 Q148.8438,538.6056 149.7969,539.0587 L149.0156,540.9806 Q148.1719,540.6212 147.4844,540.4806 Q146.8125,540.3244 146.2969,540.3244 Q145.4531,540.3244 145.0625,540.6681 Q144.6875,540.9962 144.6875,541.6369 Q144.6875,542.1212 144.9219,542.4337 Q145.1719,542.7306 145.6406,542.9806 Q146.125,543.2306 146.8594,543.6056 Q147.8594,544.09 148.5625,544.5587 Q149.2656,545.0275 149.6406,545.6525 Q150.0156,546.2619 150.0156,547.1994 Q150.0156,548.3869 149.4375,549.1837 Q148.875,549.965 147.8281,550.3712 Q146.7969,550.7619 145.4219,550.7619 Z " fill="#000000"/><text fill="#000000" font-family="sans-serif" font-size="14" lengthAdjust="spacing" textLength="171.1354" x="159.75" y="549.522">ReproductionProbabilities</text><line style="stroke:#181818;stroke-width:0.5;" x1="131.75" x2="332.8854" y1="560.09" y2="560.09"/><g data-visibility-modifier="PUBLIC_FIELD"><ellipse cx="141.75" cy="575.124" fill="none" rx="3" ry="3" style="stroke:#038048;stroke-width:1;"/></g><text fill="#000000" font-family="sans-serif" font-size="14" lengthAdjust="spacing" textLength="132.0895" x="150.75" y="579.0559">double p_encounter</text><g data-visibility-modifier="PUBLIC_FIELD"><ellipse cx="141.75" cy="594.1919" fill="none" rx="3" ry="3" style="stroke:#038048;stroke-width:1;"/></g><text fill="#000000" font-family="sans-serif" font-size="14" lengthAdjust="spacing" textLength="112.6996" x="150.75" y="598.1239">double p_change</text><line style="stroke:#181818;stroke-width:0.5;" x1="131.75" x2="332.8854" y1="606.2258" y2="606.2258"/></g><!--class ReproductionParameters--><g class="entity" data-qualified-name="ReproductionParameters" data-source-line="29" id="ent0006"><rect fill="#F1F1F1" height="124.2717" rx="2.5" ry="2.5" style="stroke:#181818;stroke-width:0.5;" width="197.6194" x="368.51" y="509.02"/><ellipse cx="383.51" cy="525.02" fill="#F1F1F1" rx="11" ry="11" style="stroke:#181818;stroke-width:1;"/><path d="M383.1819,531.6919 Q382.26,531.6919 381.3694,531.52 Q380.4788,531.3325 379.6975,530.9575 L379.6975,528.7075 Q380.6506,529.1919 381.5256,529.4263 Q382.4163,529.645 383.26,529.645 Q384.135,529.645 384.6975,529.3481 Q385.26,529.0513 385.26,528.27 Q385.26,527.7231 384.9631,527.4263 Q384.6663,527.1138 384.1038,526.8325 Q383.5413,526.5513 382.76,526.145 Q381.9788,525.7231 381.3225,525.2388 Q380.6819,524.7388 380.3069,524.0669 Q379.9319,523.395 379.9319,522.4419 Q379.9319,520.8169 381.0256,520.02 Q382.135,519.2075 383.9163,519.2075 Q384.635,519.2075 385.6194,519.3794 Q386.6038,519.5356 387.5569,519.9888 L386.7756,521.9106 Q385.9319,521.5513 385.2444,521.4106 Q384.5725,521.2544 384.0569,521.2544 Q383.2131,521.2544 382.8225,521.5981 Q382.4475,521.9263 382.4475,522.5669 Q382.4475,523.0513 382.6819,523.3638 Q382.9319,523.6606 383.4006,523.9106 Q383.885,524.1606 384.6194,524.5356 Q385.6194,525.02 386.3225,525.4888 Q387.0256,525.9575 387.4006,526.5825 Q387.7756,527.1919 387.7756,528.1294 Q387.7756,529.3169 387.1975,530.1138 Q386.635,530.895 385.5881,531.3013 Q384.5569,531.6919 383.1819,531.6919 Z " fill="#000000"/><text fill="#000000" font-family="sans-serif" font-size="14" lengthAdjust="spacing" textLength="165.6194" x="397.51" y="530.452">ReproductionParameters</text><line style="stroke:#181818;stroke-width:0.5;" x1="369.51" x2="565.1294" y1="541.02" y2="541.02"/><g data-visibility-modifier="PUBLIC_FIELD"><ellipse cx="379.51" cy="556.054" fill="none" rx="3" ry="3" style="stroke:#038048;stroke-width:1;"/></g><text fill="#000000" font-family="sans-serif" font-size="14" lengthAdjust="spacing" textLength="61.1938" x="388.51" y="559.9859">int m_init</text><g data-visibility-modifier="PUBLIC_FIELD"><ellipse cx="379.51" cy="575.1219" fill="none" rx="3" ry="3" style="stroke:#038048;stroke-width:1;"/></g><text fill="#000000" font-family="sans-serif" font-size="14" lengthAdjust="spacing" textLength="75.8657" x="388.51" y="579.0539">int m_const</text><g data-visibility-modifier="PUBLIC_FIELD"><ellipse cx="379.51" cy="594.1898" fill="none" rx="3" ry="3" style="stroke:#038048;stroke-width:1;"/></g><text fill="#000000" font-family="sans-serif" font-size="14" lengthAdjust="spacing" textLength="104.0896" x="388.51" y="598.1218">double m_slope</text><g data-visibility-modifier="PUBLIC_FIELD"><ellipse cx="379.51" cy="613.2577" fill="none" rx="3" ry="3" style="stroke:#038048;stroke-width:1;"/></g><text fill="#000000" font-family="sans-serif" font-size="14" lengthAdjust="spacing" textLength="69.2437" x="388.51" y="617.1897">int m_limit</text><line style="stroke:#181818;stroke-width:0.5;" x1="369.51" x2="565.1294" y1="625.2917" y2="625.2917"/></g><!--class GeneticProbabilities--><g class="entity" data-qualified-name="GeneticProbabilities" data-source-line="35" id="ent0007"><rect fill="#F1F1F1" height="86.1358" rx="2.5" ry="2.5" style="stroke:#181818;stroke-width:0.5;" width="163.9215" x="601.36" y="528.09"/><ellipse cx="616.36" cy="544.09" fill="#F1F1F1" rx="11" ry="11" style="stroke:#181818;stroke-width:1;"/><path d="M616.0319,550.7619 Q615.11,550.7619 614.2194,550.59 Q613.3288,550.4025 612.5475,550.0275 L612.5475,547.7775 Q613.5006,548.2619 614.3756,548.4962 Q615.2663,548.715 616.11,548.715 Q616.985,548.715 617.5475,548.4181 Q618.11,548.1212 618.11,547.34 Q618.11,546.7931 617.8131,546.4962 Q617.5163,546.1837 616.9538,545.9025 Q616.3913,545.6212 615.61,545.215 Q614.8288,544.7931 614.1725,544.3087 Q613.5319,543.8087 613.1569,543.1369 Q612.7819,542.465 612.7819,541.5119 Q612.7819,539.8869 613.8756,539.09 Q614.985,538.2775 616.7663,538.2775 Q617.485,538.2775 618.4694,538.4494 Q619.4538,538.6056 620.4069,539.0587 L619.6256,540.9806 Q618.7819,540.6212 618.0944,540.4806 Q617.4225,540.3244 616.9069,540.3244 Q616.0631,540.3244 615.6725,540.6681 Q615.2975,540.9962 615.2975,541.6369 Q615.2975,542.1212 615.5319,542.4337 Q615.7819,542.7306 616.2506,542.9806 Q616.735,543.2306 617.4694,543.6056 Q618.4694,544.09 619.1725,544.5587 Q619.8756,545.0275 620.2506,545.6525 Q620.6256,546.2619 620.6256,547.1994 Q620.6256,548.3869 620.0475,549.1837 Q619.485,549.965 618.4381,550.3712 Q617.4069,550.7619 616.0319,550.7619 Z " fill="#000000"/><text fill="#000000" font-family="sans-serif" font-size="14" lengthAdjust="spacing" textLength="131.9215" x="630.36" y="549.522">GeneticProbabilities</text><line style="stroke:#181818;stroke-width:0.5;" x1="602.36" x2="764.2815" y1="560.09" y2="560.09"/><g data-visibility-modifier="PUBLIC_FIELD"><ellipse cx="612.36" cy="575.124" fill="none" rx="3" ry="3" style="stroke:#038048;stroke-width:1;"/></g><text fill="#000000" font-family="sans-serif" font-size="14" lengthAdjust="spacing" textLength="119.5735" x="621.36" y="579.0559">double p_crossing</text><g data-visibility-modifier="PUBLIC_FIELD"><ellipse cx="612.36" cy="594.1919" fill="none" rx="3" ry="3" style="stroke:#038048;stroke-width:1;"/></g><text fill="#000000" font-family="sans-serif" font-size="14" lengthAdjust="spacing" textLength="124.7535" x="621.36" y="598.1239">double p_mutation</text><line style="stroke:#181818;stroke-width:0.5;" x1="602.36" x2="764.2815" y1="606.2258" y2="606.2258"/></g><!--class GeneticParameters--><g class="entity" data-qualified-name="GeneticParameters" data-source-line="39" id="ent0008"><rect fill="#F1F1F1" height="105.2038" rx="2.5" ry="2.5" style="stroke:#181818;stroke-width:0.5;" width="158.4055" x="800.12" y="518.55"/><ellipse cx="815.12" cy="534.55" fill="#F1F1F1" rx="11" ry="11" style="stroke:#181818;stroke-width:1;"/><path d="M814.7919,541.2219 Q813.87,541.2219 812.9794,541.05 Q812.0888,540.8625 811.3075,540.4875 L811.3075,538.2375 Q812.2606,538.7219 813.1356,538.9563 Q814.0263,539.175 814.87,539.175 Q815.745,539.175 816.3075,538.8781 Q816.87,538.5813 816.87,537.8 Q816.87,537.2531 816.5731,536.9563 Q816.2763,536.6438 815.7138,536.3625 Q815.1513,536.0813 814.37,535.675 Q813.5888,535.2531 812.9325,534.7688 Q812.2919,534.2688 811.9169,533.5969 Q811.5419,532.925 811.5419,531.9719 Q811.5419,530.3469 812.6356,529.55 Q813.745,528.7375 815.5263,528.7375 Q816.245,528.7375 817.2294,528.9094 Q818.2138,529.0656 819.1669,529.5188 L818.3856,531.4406 Q817.5419,531.0813 816.8544,530.9406 Q816.1825,530.7844 815.6669,530.7844 Q814.8231,530.7844 814.4325,531.1281 Q814.0575,531.4563 814.0575,532.0969 Q814.0575,532.5813 814.2919,532.8938 Q814.5419,533.1906 815.0106,533.4406 Q815.495,533.6906 816.2294,534.0656 Q817.2294,534.55 817.9325,535.0188 Q818.6356,535.4875 819.0106,536.1125 Q819.3856,536.7219 819.3856,537.6594 Q819.3856,538.8469 818.8075,539.6438 Q818.245,540.425 817.1981,540.8313 Q816.1669,541.2219 814.7919,541.2219 Z " fill="#000000"/><text fill="#000000" font-family="sans-serif" font-size="14" lengthAdjust="spacing" textLength="126.4055" x="829.12" y="539.982">GeneticParameters</text><line style="stroke:#181818;stroke-width:0.5;" x1="801.12" x2="957.5255" y1="550.55" y2="550.55"/><g data-visibility-modifier="PUBLIC_FIELD"><ellipse cx="811.12" cy="565.584" fill="none" rx="3" ry="3" style="stroke:#038048;stroke-width:1;"/></g><text fill="#000000" font-family="sans-serif" font-size="14" lengthAdjust="spacing" textLength="56.7558" x="820.12" y="569.5159">int n_init</text><g data-visibility-modifier="PUBLIC_FIELD"><ellipse cx="811.12" cy="584.6519" fill="none" rx="3" ry="3" style="stroke:#038048;stroke-width:1;"/></g><text fill="#000000" font-family="sans-serif" font-size="14" lengthAdjust="spacing" textLength="94.7236" x="820.12" y="588.5839">int v_mutation</text><g data-visibility-modifier="PUBLIC_FIELD"><ellipse cx="811.12" cy="603.7198" fill="none" rx="3" ry="3" style="stroke:#038048;stroke-width:1;"/></g><text fill="#000000" font-family="sans-serif" font-size="14" lengthAdjust="spacing" textLength="108.6816" x="820.12" y="607.6518">double v_stretch</text><line style="stroke:#181818;stroke-width:0.5;" x1="801.12" x2="957.5255" y1="615.7538" y2="615.7538"/></g><!--class EnergyParameters--><g class="entity" data-qualified-name="EnergyParameters" data-source-line="44" id="ent0009"><rect fill="#F1F1F1" height="124.2717" rx="2.5" ry="2.5" style="stroke:#181818;stroke-width:0.5;" width="176.2894" x="993.17" y="509.02"/><ellipse cx="1018.0888" cy="525.02" fill="#F1F1F1" rx="11" ry="11" style="stroke:#181818;stroke-width:1;"/><path d="M1017.7607,531.6919 Q1016.8388,531.6919 1015.9482,531.52 Q1015.0576,531.3325 1014.2763,530.9575 L1014.2763,528.7075 Q1015.2295,529.1919 1016.1045,529.4263 Q1016.9951,529.645 1017.8388,529.645 Q1018.7138,529.645 1019.2763,529.3481 Q1019.8388,529.0513 1019.8388,528.27 Q1019.8388,527.7231 1019.542,527.4263 Q1019.2451,527.1138 1018.6826,526.8325 Q1018.1201,526.5513 1017.3388,526.145 Q1016.5576,525.7231 1015.9013,525.2388 Q1015.2607,524.7388 1014.8857,524.0669 Q1014.5107,523.395 1014.5107,522.4419 Q1014.5107,520.8169 1015.6045,520.02 Q1016.7138,519.2075 1018.4951,519.2075 Q1019.2138,519.2075 1020.1982,519.3794 Q1021.1826,519.5356 1022.1357,519.9888 L1021.3545,521.9106 Q1020.5107,521.5513 1019.8232,521.4106 Q1019.1513,521.2544 1018.6357,521.2544 Q1017.792,521.2544 1017.4013,521.5981 Q1017.0263,521.9263 1017.0263,522.5669 Q1017.0263,523.0513 1017.2607,523.3638 Q1017.5107,523.6606 1017.9795,523.9106 Q1018.4638,524.1606 1019.1982,524.5356 Q1020.1982,525.02 1020.9013,525.4888 Q1021.6045,525.9575 1021.9795,526.5825 Q1022.3545,527.1919 1022.3545,528.1294 Q1022.3545,529.3169 1021.7763,530.1138 Q1021.2138,530.895 1020.167,531.3013 Q1019.1357,531.6919 1017.7607,531.6919 Z " fill="#000000"/><text fill="#000000" font-family="sans-serif" font-size="14" lengthAdjust="spacing" textLength="122.2475" x="1034.293" y="530.452">EnergyParameters</text><line style="stroke:#181818;stroke-width:0.5;" x1="994.17" x2="1168.4594" y1="541.02" y2="541.02"/><g data-visibility-modifier="PUBLIC_FIELD"><ellipse cx="1004.17" cy="556.054" fill="none" rx="3" ry="3" style="stroke:#038048;stroke-width:1;"/></g><text fill="#000000" font-family="sans-serif" font-size="14" lengthAdjust="spacing" textLength="118.7195" x="1013.17" y="559.9859">double e_increase</text><g data-visibility-modifier="PUBLIC_FIELD"><ellipse cx="1004.17" cy="575.1219" fill="none" rx="3" ry="3" style="stroke:#038048;stroke-width:1;"/></g><text fill="#000000" font-family="sans-serif" font-size="14" lengthAdjust="spacing" textLength="150.2894" x="1013.17" y="579.0539">double e_consumption</text><g data-visibility-modifier="PUBLIC_FIELD"><ellipse cx="1004.17" cy="594.1898" fill="none" rx="3" ry="3" style="stroke:#038048;stroke-width:1;"/></g><text fill="#000000" font-family="sans-serif" font-size="14" lengthAdjust="spacing" textLength="104.1456" x="1013.17" y="598.1218">double e_intake</text><g data-visibility-modifier="PUBLIC_FIELD"><ellipse cx="1004.17" cy="613.2577" fill="none" rx="3" ry="3" style="stroke:#038048;stroke-width:1;"/></g><text fill="#000000" font-family="sans-serif" font-size="14" lengthAdjust="spacing" textLength="120.0775" x="1013.17" y="617.1897">double e_discount</text><line style="stroke:#181818;stroke-width:0.5;" x1="994.17" x2="1168.4594" y1="625.2917" y2="625.2917"/></g><!--reverse link RunParameters to Limits--><g class="link" data-entity-1="ent0003" data-entity-2="ent0004" data-link-type="composition" data-source-line="51" id="lnk10"><path codeLine="51" d="M434.6357,380.7192 C338.0257,405.4792 216.87,444.79 113.32,509.02 C104.84,514.28 96.61,520.89 89.07,527.8" fill="none" id="RunParameters-backto-Limits" style="stroke:#181818;stroke-width:1;"/><polygon fill="#181818" points="446.26,377.74,439.4548,375.3548,434.6357,380.7192,441.4409,383.1044,446.26,377.74" style="stroke:#181818;stroke-width:1;"/></g><!--reverse link RunParameters to ReproductionParameters--><g class="link" data-entity-1="ent0003" data-entity-2="ent0006" data-link-type="composition" data-source-line="52" id="lnk11"><path codeLine="52" d="M521.2512,460.0865 C511.3612,480.2765 506.51,490.18 497.49,508.59" fill="none" id="RunParameters-backto-ReproductionParameters" style="stroke:#181818;stroke-width:1;"/><polygon fill="#181818" points="526.53,449.31,520.2984,452.9387,521.2512,460.0865,527.4828,456.4579,526.53,449.31" style="stroke:#181818;stroke-width:1;"/></g><!--reverse link RunParameters to ReproductionProbabilities--><g class="link" data-entity-1="ent0003" data-entity-2="ent0005" data-link-type="composition" data-source-line="53" id="lnk12"><path codeLine="53" d="M436.5247,438.9373 C385.9647,471.4273 340.19,500.84 298.18,527.83" fill="none" id="RunParameters-backto-ReproductionProbabilities" style="stroke:#181818;stroke-width:1;"/><polygon fill="#181818" points="446.62,432.45,439.4099,432.3285,436.5247,438.9373,443.7348,439.0587,446.62,432.45" style="stroke:#181818;stroke-width:1;"/></g><!--reverse link RunParameters to GeneticParameters--><g class="link" data-entity-1="ent0003" data-entity-2="ent0008" data-link-type="composition" data-source-line="54" id="lnk13"><path codeLine="54" d="M713.9558,450.2629 C749.3958,475.9529 776.83,495.85 807.75,518.27" fill="none" id="RunParameters-backto-GeneticParameters" style="stroke:#181818;stroke-width:1;"/><polygon fill="#181818" points="704.24,443.22,706.7503,449.9801,713.9558,450.2629,711.4456,443.5028,704.24,443.22" style="stroke:#181818;stroke-width:1;"/></g><!--reverse link RunParameters to GeneticProbabilities--><g class="link" data-entity-1="ent0003" data-entity-2="ent0007" data-link-type="composition" data-source-line="55" id="lnk14"><path codeLine="55" d="M629.3805,460.0857 C642.9105,487.6957 651.6,505.43 662.57,527.81" fill="none" id="RunParameters-backto-GeneticProbabilities" style="stroke:#181818;stroke-width:1;"/><polygon fill="#181818" points="624.1,449.31,623.1484,456.458,629.3805,460.0857,630.3322,452.9377,624.1,449.31" style="stroke:#181818;stroke-width:1;"/></g><!--reverse link RunParameters to EnergyParameters--><g class="link" data-entity-1="ent0003" data-entity-2="ent0009" data-link-type="composition" data-source-line="56" id="lnk15"><path codeLine="56" d="M715.541,399.5531 C795.211,429.1031 887.57,465.85 976.32,509.02 C981.72,511.65 987.23,514.45 992.74,517.35" fill="none" id="RunParameters-backto-EnergyParameters" style="stroke:#181818;stroke-width:1;"/><polygon fill="#181818" points="704.29,395.38,708.5245,401.2169,715.541,399.5531,711.3065,393.7162,704.29,395.38" style="stroke:#181818;stroke-width:1;"/></g><!--reverse link Simulator to RunParameters--><g class="link" data-entity-1="ent0002" data-entity-2="ent0003" data-link-type="composition" data-source-line="58" id="lnk16"><path codeLine="58" d="M575.32,200.64 C575.32,220 575.32,228.58 575.32,248.28" fill="none" id="Simulator-backto-RunParameters" style="stroke:#181818;stroke-width:1;"/><polygon fill="#181818" points="575.32,188.64,571.32,194.64,575.32,200.64,579.32,194.64,575.32,188.64" style="stroke:#181818;stroke-width:1;"/></g><?plantuml-src XLJRQiCm37tFL_Xfx48_Oemn1diOxGSOnn6fMM87IouhfVy-EsbhEKtNf-XoT2mTYUXE8OgDwKEdo7bng8HO2UqialYCOTCfRsWly68M0EX0at5MuDdYwJKCtZLXGdZcSD07M7Xj6l2YZPPKoIpU640Rm3SNB4KGJgxKay-Gws2_bLSzn32AuM96o4jARaWHeF31FZvuspvLnwf2yh6ZMUbXh32MubJGP8TWcCY-eXY4eXi_4pqRxjkxMjMcCsJISp9cwWLKVYz2aZDXaXnaT4dICf8p8DUtlFxTWc_tB0ldxF4yxQdzFEPEziPoJ_rczEtH9eB6XRe3CKYmUISihBVAjd23RqdqNXfhYBdZUZbfBx5p0p38k8hyngA8itQrTuZ6jcMq3_5AqeLUSIsrQijMTxcSaUvaP0BIsynvjQIYDuYiseD2AAD9Xz0FS_u49_Kp0pS6ntMaAo_F-tcrEft0Gc9vE_U0NES5x9M4_s3kKCsLgwhyxnhRuXL_?></g></svg>