<?plantuml 1.2026.2?><svg xmlns="http://www.w3.org/2000/svg" xmlns:xlink="http://www.w3.org/1999/xlink" contentStyleType="text/css" data-diagram-type="CLASS" height="1293px" preserveAspectRatio="none" style="width:1330px;height:1293px;background:#FFFFFF;" version="1.1" viewBox="0 0 1330 1293" width="1330px" zoomAndPan="magnify"><defs/><g><!--class RunParameters--><g class="entity" data-qualified-name="RunParameters" data-source-line="2" id="ent0002"><rect fill="#F1F1F1" height="67.0679" rx="2.5" ry="2.5" style="stroke:#181818;stroke-width:0.5;" width="134.3956" x="512.22" y="665.09"/><ellipse cx="527.22" cy="681.09" fill="#F1F1F1" rx="11" ry="11" style="stroke:#181818;stroke-width:1;"/><path d="M526.8919,687.7619 Q525.97,687.7619 525.0794,687.59 Q524.1888,687.4025 523.4075,687.0275 L523.4075,684.7775 Q524.3606,685.2619 525.2356,685.4963 Q526.1263,685.715 526.97,685.715 Q527.845,685.715 528.4075,685.4181 Q528.97,685.1213 528.97,684.34 Q528.97,683.7931 528.6731,683.4963 Q528.3763,683.1838 527.8138,682.9025 Q527.2513,682.6213 526.47,682.215 Q525.6888,681.7931 525.0325,681.3088 Q524.3919,680.8088 524.0169,680.1369 Q523.6419,679.465 523.6419,678.5119 Q523.6419,676.8869 524.7356,676.09 Q525.845,675.2775 527.6263,675.2775 Q528.345,675.2775 529.3294,675.4494 Q530.3138,675.6056 531.2669,676.0588 L530.4856,677.9806 Q529.6419,677.6213 528.9544,677.4806 Q528.2825,677.3244 527.7669,677.3244 Q526.9231,677.3244 526.5325,677.6681 Q526.1575,677.9963 526.1575,678.6369 Q526.1575,679.1213 526.3919,679.4338 Q526.6419,679.7306 527.1106,679.9806 Q527.595,680.2306 528.3294,680.6056 Q529.3294,681.09 530.0325,681.5588 Q530.7356,682.0275 531.1106,682.6525 Q531.4856,683.2619 531.4856,684.1994 Q531.4856,685.3869 530.9075,686.1838 Q530.345,686.965 529.2981,687.3713 Q528.2669,687.7619 526.8919,687.7619 Z " fill="#000000"/><text fill="#000000" font-family="sans-serif" font-size="14" lengthAdjust="spacing" textLength="102.3956" x="541.22" y="686.522">RunParameters</text><line style="stroke:#181818;stroke-width:0.5;" x1="513.22" x2="645.6156" y1="697.09" y2="697.09"/><text fill="#000000" font-family="sans-serif" font-size="14" lengthAdjust="spacing" textLength="11.256" x="518.22" y="716.0559">...</text><line style="stroke:#181818;stroke-width:0.5;" x1="513.22" x2="645.6156" y1="724.1579" y2="724.1579"/></g><g class="entity" data-qualified-name="GMN3" data-source-line="5" id="ent0004"><path d="M474.94,821.31 L474.94,849.016 A0,0 0 0 0 474.94,849.016 L683.9072,849.016 A0,0 0 0 0 683.9072,849.016 L683.9072,831.31 L673.9072,821.31 L583.42,821.31 L579.42,732.54 L575.42,821.31 L474.94,821.31 A0,0 0 0 0 474.94,821.31" fill="#FEFFDD" style="stroke:#181818;stroke-width:0.5;"/><path d="M673.9072,821.31 L673.9072,831.31 L683.9072,831.31 L673.9072,821.31" fill="#FEFFDD" style="stroke:#181818;stroke-width:0.5;"/><text fill="#000000" font-family="sans-serif" font-size="13" lengthAdjust="spacing" textLength="187.9672" x="480.94" y="840.207">L&#225;sd Simulator oszt&#225;lydiagram</text></g><!--class ExperimentParameters--><g class="entity" data-qualified-name="ExperimentParameters" data-source-line="7" id="ent0006"><rect fill="#F1F1F1" height="105.2038" rx="2.5" ry="2.5" style="stroke:#181818;stroke-width:0.5;" width="246.5132" x="561.17" y="498.89"/><ellipse cx="604.2265" cy="514.89" fill="#F1F1F1" rx="11" ry="11" style="stroke:#181818;stroke-width:1;"/><path d="M603.8983,521.5619 Q602.9765,521.5619 602.0858,521.39 Q601.1952,521.2025 600.414,520.8275 L600.414,518.5775 Q601.3671,519.0619 602.2421,519.2963 Q603.1327,519.515 603.9765,519.515 Q604.8515,519.515 605.414,519.2181 Q605.9765,518.9213 605.9765,518.14 Q605.9765,517.5931 605.6796,517.2963 Q605.3827,516.9838 604.8202,516.7025 Q604.2577,516.4213 603.4765,516.015 Q602.6952,515.5931 602.039,515.1088 Q601.3983,514.6088 601.0233,513.9369 Q600.6483,513.265 600.6483,512.3119 Q600.6483,510.6869 601.7421,509.89 Q602.8515,509.0775 604.6327,509.0775 Q605.3515,509.0775 606.3358,509.2494 Q607.3202,509.4056 608.2733,509.8588 L607.4921,511.7806 Q606.6483,511.4213 605.9608,511.2806 Q605.289,511.1244 604.7733,511.1244 Q603.9296,511.1244 603.539,511.4681 Q603.164,511.7963 603.164,512.4369 Q603.164,512.9213 603.3983,513.2338 Q603.6483,513.5306 604.1171,513.7806 Q604.6015,514.0306 605.3358,514.4056 Q606.3358,514.89 607.039,515.3588 Q607.7421,515.8275 608.1171,516.4525 Q608.4921,517.0619 608.4921,517.9994 Q608.4921,519.1869 607.914,519.9838 Q607.3515,520.765 606.3046,521.1713 Q605.2733,521.5619 603.8983,521.5619 Z " fill="#000000"/><text fill="#000000" font-family="sans-serif" font-size="14" lengthAdjust="spacing" textLength="152.1654" x="624.4612" y="520.322">ExperimentParameters</text><line style="stroke:#181818;stroke-width:0.5;" x1="562.17" x2="806.6832" y1="530.89" y2="530.89"/><g data-visibility-modifier="PUBLIC_FIELD"><ellipse cx="572.17" cy="545.924" fill="none" rx="3" ry="3" style="stroke:#038048;stroke-width:1;"/></g><text fill="#000000" font-family="sans-serif" font-size="14" lengthAdjust="spacing" textLength="211.8612" x="581.17" y="549.8559">RunParameters run_parameters</text><g data-visibility-modifier="PUBLIC_FIELD"><ellipse cx="572.17" cy="564.9919" fill="none" rx="3" ry="3" style="stroke:#038048;stroke-width:1;"/></g><text fill="#000000" font-family="sans-serif" font-size="14" lengthAdjust="spacing" textLength="50.7498" x="581.17" y="568.9239">int runs</text><line style="stroke:#181818;stroke-width:0.5;" x1="562.17" x2="806.6832" y1="577.0258" y2="577.0258"/><g data-visibility-modifier="PUBLIC_METHOD"><ellipse cx="572.17" cy="592.0598" fill="#84BE84" rx="3" ry="3" style="stroke:#038048;stroke-width:1;"/></g><text fill="#000000" font-family="sans-serif" font-size="14" lengthAdjust="spacing" textLength="220.5132" x="581.17" y="595.9918">vector&lt;RunParameters&gt; expand()</text></g><!--class ExperimentSweepParameters--><g class="entity" data-qualified-name="ExperimentSweepParameters" data-source-line="14" id="ent0008"><rect fill="#F1F1F1" height="105.2038" rx="2.5" ry="2.5" style="stroke:#181818;stroke-width:0.5;" width="307.973" x="518.44" y="314.69"/><ellipse cx="570.5478" cy="330.69" fill="#F1F1F1" rx="11" ry="11" style="stroke:#181818;stroke-width:1;"/><path d="M570.2197,337.3619 Q569.2978,337.3619 568.4072,337.19 Q567.5166,337.0025 566.7353,336.6275 L566.7353,334.3775 Q567.6885,334.8619 568.5635,335.0963 Q569.4541,335.315 570.2978,335.315 Q571.1728,335.315 571.7353,335.0181 Q572.2978,334.7213 572.2978,333.94 Q572.2978,333.3931 572.001,333.0963 Q571.7041,332.7838 571.1416,332.5025 Q570.5791,332.2213 569.7978,331.815 Q569.0166,331.3931 568.3603,330.9088 Q567.7197,330.4088 567.3447,329.7369 Q566.9697,329.065 566.9697,328.1119 Q566.9697,326.4869 568.0635,325.69 Q569.1728,324.8775 570.9541,324.8775 Q571.6728,324.8775 572.6572,325.0494 Q573.6416,325.2056 574.5947,325.6588 L573.8135,327.5806 Q572.9697,327.2213 572.2822,327.0806 Q571.6103,326.9244 571.0947,326.9244 Q570.251,326.9244 569.8603,327.2681 Q569.4853,327.5963 569.4853,328.2369 Q569.4853,328.7213 569.7197,329.0338 Q569.9697,329.3306 570.4385,329.5806 Q570.9228,329.8306 571.6572,330.2056 Q572.6572,330.69 573.3603,331.1588 Q574.0635,331.6275 574.4385,332.2525 Q574.8135,332.8619 574.8135,333.7994 Q574.8135,334.9869 574.2353,335.7838 Q573.6728,336.565 572.626,336.9713 Q571.5947,337.3619 570.2197,337.3619 Z " fill="#000000"/><text fill="#000000" font-family="sans-serif" font-size="14" lengthAdjust="spacing" textLength="195.2573" x="591.0478" y="336.122">ExperimentSweepParameters</text><line style="stroke:#181818;stroke-width:0.5;" x1="519.44" x2="825.413" y1="346.69" y2="346.69"/><g data-visibility-modifier="PUBLIC_FIELD"><ellipse cx="529.44" cy="361.724" fill="none" rx="3" ry="3" style="stroke:#038048;stroke-width:1;"/></g><text fill="#000000" font-family="sans-serif" font-size="14" lengthAdjust="spacing" textLength="281.973" x="538.44" y="365.6559">ExperimentParamteres starting_paramters</text><g data-visibility-modifier="PUBLIC_FIELD"><ellipse cx="529.44" cy="380.7919" fill="none" rx="3" ry="3" style="stroke:#038048;stroke-width:1;"/></g><text fill="#000000" font-family="sans-serif" font-size="14" lengthAdjust="spacing" textLength="139.0615" x="538.44" y="384.7239">RunParameters delta</text><line style="stroke:#181818;stroke-width:0.5;" x1="519.44" x2="825.413" y1="392.8258" y2="392.8258"/><g data-visibility-modifier="PUBLIC_METHOD"><ellipse cx="529.44" cy="407.8598" fill="#84BE84" rx="3" ry="3" style="stroke:#038048;stroke-width:1;"/></g><text fill="#000000" font-family="sans-serif" font-size="14" lengthAdjust="spacing" textLength="220.5132" x="538.44" y="411.7918">vector&lt;RunParameters&gt; expand()</text></g><!--class RunStates--><g class="entity" data-qualified-name="RunStates" data-source-line="22" id="ent0011"><rect fill="#F1F1F1" height="67.0679" rx="2.5" ry="2.5" style="stroke:#181818;stroke-width:0.5;" width="98.2617" x="275.29" y="967.83"/><ellipse cx="290.29" cy="983.83" fill="#ADD1B2" rx="11" ry="11" style="stroke:#181818;stroke-width:1;"/><path d="M289.7588,990.7519 Q288.0088,990.7519 286.8681,990.0175 Q285.7431,989.2675 285.1806,987.9238 Q284.6338,986.5644 284.6338,984.7675 Q284.6338,982.7363 285.29,981.2831 Q285.9463,979.83 287.2275,979.0488 Q288.5088,978.2675 290.3838,978.2675 Q291.2744,978.2675 291.9463,978.455 Q292.6181,978.6269 293.3056,978.9706 L292.4931,980.9863 Q291.8681,980.6738 291.3213,980.5488 Q290.79,980.4238 290.3056,980.4238 Q289.1338,980.4238 288.4306,980.955 Q287.7275,981.4863 287.4306,982.4394 Q287.1338,983.3925 287.1338,984.6581 Q287.1338,986.6738 287.8525,987.6425 Q288.5713,988.5956 290.165,988.5956 Q290.7588,988.5956 291.3838,988.4394 Q292.0088,988.2831 292.8369,987.9081 L292.8369,990.1269 Q292.1025,990.4394 291.3056,990.5956 Q290.5244,990.7519 289.7588,990.7519 Z " fill="#000000"/><text fill="#000000" font-family="sans-serif" font-size="14" lengthAdjust="spacing" textLength="66.2617" x="304.29" y="989.262">RunStates</text><line style="stroke:#181818;stroke-width:0.5;" x1="276.29" x2="372.5517" y1="999.83" y2="999.83"/><text fill="#000000" font-family="sans-serif" font-size="14" lengthAdjust="spacing" textLength="11.256" x="281.29" y="1018.7959">...</text><line style="stroke:#181818;stroke-width:0.5;" x1="276.29" x2="372.5517" y1="1026.8979" y2="1026.8979"/></g><g class="entity" data-qualified-name="GMN12" data-source-line="25" id="ent0013"><path d="M219.94,1201.39 L219.94,1229.096 A0,0 0 0 0 219.94,1229.096 L428.9072,1229.096 A0,0 0 0 0 428.9072,1229.096 L428.9072,1211.39 L418.9072,1201.39 L328.42,1201.39 L324.42,1035.01 L320.42,1201.39 L219.94,1201.39 A0,0 0 0 0 219.94,1201.39" fill="#FEFFDD" style="stroke:#181818;stroke-width:0.5;"/><path d="M418.9072,1201.39 L418.9072,1211.39 L428.9072,1211.39 L418.9072,1201.39" fill="#FEFFDD" style="stroke:#181818;stroke-width:0.5;"/><text fill="#000000" font-family="sans-serif" font-size="13" lengthAdjust="spacing" textLength="187.9672" x="225.94" y="1220.287">L&#225;sd Simulator oszt&#225;lydiagram</text></g><!--class vector<RunStates>--><g class="entity" data-qualified-name="vector.RunStates." data-source-line="27" id="ent0015"><rect fill="#F1F1F1" height="48" rx="2.5" ry="2.5" style="stroke:#181818;stroke-width:0.5;" width="155.3115" x="246.77" y="811.16"/><ellipse cx="261.77" cy="827.16" fill="#ADD1B2" rx="11" ry="11" style="stroke:#181818;stroke-width:1;"/><path d="M261.2388,834.0819 Q259.4888,834.0819 258.3481,833.3475 Q257.2231,832.5975 256.6606,831.2538 Q256.1138,829.8944 256.1138,828.0975 Q256.1138,826.0663 256.77,824.6131 Q257.4263,823.16 258.7075,822.3788 Q259.9888,821.5975 261.8638,821.5975 Q262.7544,821.5975 263.4263,821.785 Q264.0981,821.9569 264.7856,822.3006 L263.9731,824.3163 Q263.3481,824.0038 262.8013,823.8788 Q262.27,823.7538 261.7856,823.7538 Q260.6138,823.7538 259.9106,824.285 Q259.2075,824.8163 258.9106,825.7694 Q258.6138,826.7225 258.6138,827.9881 Q258.6138,830.0038 259.3325,830.9725 Q260.0513,831.9256 261.645,831.9256 Q262.2388,831.9256 262.8638,831.7694 Q263.4888,831.6131 264.3169,831.2381 L264.3169,833.4569 Q263.5825,833.7694 262.7856,833.9256 Q262.0044,834.0819 261.2388,834.0819 Z " fill="#000000"/><text fill="#000000" font-family="sans-serif" font-size="14" lengthAdjust="spacing" textLength="123.3115" x="275.77" y="832.592">vector&lt;RunStates&gt;</text><line style="stroke:#181818;stroke-width:0.5;" x1="247.77" x2="401.0815" y1="843.16" y2="843.16"/><line style="stroke:#181818;stroke-width:0.5;" x1="247.77" x2="401.0815" y1="851.16" y2="851.16"/></g><!--class ExperimentStates--><g class="entity" data-qualified-name="ExperimentStates" data-source-line="29" id="ent0017"><rect fill="#F1F1F1" height="48" rx="2.5" ry="2.5" style="stroke:#181818;stroke-width:0.5;" width="148.0316" x="250.41" y="674.63"/><ellipse cx="265.41" cy="690.63" fill="#ADD1B2" rx="11" ry="11" style="stroke:#181818;stroke-width:1;"/><path d="M264.8787,697.5519 Q263.1287,697.5519 261.9881,696.8175 Q260.8631,696.0675 260.3006,694.7238 Q259.7537,693.3644 259.7537,691.5675 Q259.7537,689.5363 260.41,688.0831 Q261.0662,686.63 262.3475,685.8488 Q263.6287,685.0675 265.5037,685.0675 Q266.3944,685.0675 267.0662,685.255 Q267.7381,685.4269 268.4256,685.7706 L267.6131,687.7863 Q266.9881,687.4738 266.4412,687.3488 Q265.91,687.2238 265.4256,687.2238 Q264.2537,687.2238 263.5506,687.755 Q262.8475,688.2863 262.5506,689.2394 Q262.2537,690.1925 262.2537,691.4581 Q262.2537,693.4738 262.9725,694.4425 Q263.6912,695.3956 265.285,695.3956 Q265.8787,695.3956 266.5037,695.2394 Q267.1287,695.0831 267.9569,694.7081 L267.9569,696.9269 Q267.2225,697.2394 266.4256,697.3956 Q265.6444,697.5519 264.8787,697.5519 Z " fill="#000000"/><text fill="#000000" font-family="sans-serif" font-size="14" lengthAdjust="spacing" textLength="116.0316" x="279.41" y="696.062">ExperimentStates</text><line style="stroke:#181818;stroke-width:0.5;" x1="251.41" x2="397.4416" y1="706.63" y2="706.63"/><line style="stroke:#181818;stroke-width:0.5;" x1="251.41" x2="397.4416" y1="714.63" y2="714.63"/></g><!--class vector<ExperimentStates>--><g class="entity" data-qualified-name="vector.ExperimentStates." data-source-line="32" id="ent0019"><rect fill="#F1F1F1" height="48" rx="2.5" ry="2.5" style="stroke:#181818;stroke-width:0.5;" width="205.0813" x="221.88" y="527.49"/><ellipse cx="236.88" cy="543.49" fill="#ADD1B2" rx="11" ry="11" style="stroke:#181818;stroke-width:1;"/><path d="M236.3488,550.4119 Q234.5988,550.4119 233.4581,549.6775 Q232.3331,548.9275 231.7706,547.5838 Q231.2238,546.2244 231.2238,544.4275 Q231.2238,542.3963 231.88,540.9431 Q232.5363,539.49 233.8175,538.7088 Q235.0988,537.9275 236.9738,537.9275 Q237.8644,537.9275 238.5363,538.115 Q239.2081,538.2869 239.8956,538.6306 L239.0831,540.6463 Q238.4581,540.3338 237.9113,540.2088 Q237.38,540.0838 236.8956,540.0838 Q235.7238,540.0838 235.0206,540.615 Q234.3175,541.1463 234.0206,542.0994 Q233.7238,543.0525 233.7238,544.3181 Q233.7238,546.3338 234.4425,547.3025 Q235.1613,548.2556 236.755,548.2556 Q237.3488,548.2556 237.9738,548.0994 Q238.5988,547.9431 239.4269,547.5681 L239.4269,549.7869 Q238.6925,550.0994 237.8956,550.2556 Q237.1144,550.4119 236.3488,550.4119 Z " fill="#000000"/><text fill="#000000" font-family="sans-serif" font-size="14" lengthAdjust="spacing" textLength="173.0813" x="250.88" y="548.922">vector&lt;ExperimentStates&gt;</text><line style="stroke:#181818;stroke-width:0.5;" x1="222.88" x2="425.9613" y1="559.49" y2="559.49"/><line style="stroke:#181818;stroke-width:0.5;" x1="222.88" x2="425.9613" y1="567.49" y2="567.49"/></g><!--class ExperimentSweepStates--><g class="entity" data-qualified-name="ExperimentSweepStates" data-source-line="34" id="ent0021"><rect fill="#F1F1F1" height="48" rx="2.5" ry="2.5" style="stroke:#181818;stroke-width:0.5;" width="191.1234" x="228.86" y="343.29"/><ellipse cx="243.86" cy="359.29" fill="#ADD1B2" rx="11" ry="11" style="stroke:#181818;stroke-width:1;"/><path d="M243.3288,366.2119 Q241.5788,366.2119 240.4381,365.4775 Q239.3131,364.7275 238.7506,363.3838 Q238.2038,362.0244 238.2038,360.2275 Q238.2038,358.1963 238.86,356.7431 Q239.5163,355.29 240.7975,354.5088 Q242.0788,353.7275 243.9538,353.7275 Q244.8444,353.7275 245.5163,353.915 Q246.1881,354.0869 246.8756,354.4306 L246.0631,356.4463 Q245.4381,356.1338 244.8913,356.0088 Q244.36,355.8838 243.8756,355.8838 Q242.7038,355.8838 242.0006,356.415 Q241.2975,356.9463 241.0006,357.8994 Q240.7038,358.8525 240.7038,360.1181 Q240.7038,362.1338 241.4225,363.1025 Q242.1413,364.0556 243.735,364.0556 Q244.3288,364.0556 244.9538,363.8994 Q245.5788,363.7431 246.4069,363.3681 L246.4069,365.5869 Q245.6725,365.8994 244.8756,366.0556 Q244.0944,366.2119 243.3288,366.2119 Z " fill="#000000"/><text fill="#000000" font-family="sans-serif" font-size="14" lengthAdjust="spacing" textLength="159.1234" x="257.86" y="364.722">ExperimentSweepStates</text><line style="stroke:#181818;stroke-width:0.5;" x1="229.86" x2="418.9834" y1="375.29" y2="375.29"/><line style="stroke:#181818;stroke-width:0.5;" x1="229.86" x2="418.9834" y1="383.29" y2="383.29"/></g><!--class Measurement--><g class="entity" data-qualified-name="Measurement" data-source-line="37" id="ent0023"><rect fill="#F1F1F1" height="143.3396" rx="2.5" ry="2.5" style="stroke:#181818;stroke-width:0.5;" width="124.1756" x="903.33" y="1143.57"/><ellipse cx="918.33" cy="1159.57" fill="#F1F1F1" rx="11" ry="11" style="stroke:#181818;stroke-width:1;"/><path d="M918.0019,1166.2419 Q917.08,1166.2419 916.1894,1166.07 Q915.2988,1165.8825 914.5175,1165.5075 L914.5175,1163.2575 Q915.4706,1163.7419 916.3456,1163.9763 Q917.2363,1164.195 918.08,1164.195 Q918.955,1164.195 919.5175,1163.8981 Q920.08,1163.6013 920.08,1162.82 Q920.08,1162.2731 919.7831,1161.9763 Q919.4863,1161.6638 918.9238,1161.3825 Q918.3613,1161.1013 917.58,1160.695 Q916.7988,1160.2731 916.1425,1159.7888 Q915.5019,1159.2888 915.1269,1158.6169 Q914.7519,1157.945 914.7519,1156.9919 Q914.7519,1155.3669 915.8456,1154.57 Q916.955,1153.7575 918.7363,1153.7575 Q919.455,1153.7575 920.4394,1153.9294 Q921.4238,1154.0856 922.3769,1154.5388 L921.5956,1156.4606 Q920.7519,1156.1013 920.0644,1155.9606 Q919.3925,1155.8044 918.8769,1155.8044 Q918.0331,1155.8044 917.6425,1156.1481 Q917.2675,1156.4763 917.2675,1157.1169 Q917.2675,1157.6013 917.5019,1157.9138 Q917.7519,1158.2106 918.2206,1158.4606 Q918.705,1158.7106 919.4394,1159.0856 Q920.4394,1159.57 921.1425,1160.0388 Q921.8456,1160.5075 922.2206,1161.1325 Q922.5956,1161.7419 922.5956,1162.6794 Q922.5956,1163.8669 922.0175,1164.6638 Q921.455,1165.445 920.4081,1165.8513 Q919.3769,1166.2419 918.0019,1166.2419 Z " fill="#000000"/><text fill="#000000" font-family="sans-serif" font-size="14" lengthAdjust="spacing" textLength="92.1756" x="932.33" y="1165.002">Measurement</text><line style="stroke:#181818;stroke-width:0.5;" x1="904.33" x2="1026.5056" y1="1175.57" y2="1175.57"/><g data-visibility-modifier="PUBLIC_FIELD"><ellipse cx="914.33" cy="1190.604" fill="none" rx="3" ry="3" style="stroke:#038048;stroke-width:1;"/></g><text fill="#000000" font-family="sans-serif" font-size="14" lengthAdjust="spacing" textLength="74.8437" x="923.33" y="1194.5359">double min</text><g data-visibility-modifier="PUBLIC_FIELD"><ellipse cx="914.33" cy="1209.6719" fill="none" rx="3" ry="3" style="stroke:#038048;stroke-width:1;"/></g><text fill="#000000" font-family="sans-serif" font-size="14" lengthAdjust="spacing" textLength="77.8397" x="923.33" y="1213.6039">double max</text><g data-visibility-modifier="PUBLIC_FIELD"><ellipse cx="914.33" cy="1228.7398" fill="none" rx="3" ry="3" style="stroke:#038048;stroke-width:1;"/></g><text fill="#000000" font-family="sans-serif" font-size="14" lengthAdjust="spacing" textLength="73.0657" x="923.33" y="1232.6718">double avg</text><g data-visibility-modifier="PUBLIC_FIELD"><ellipse cx="914.33" cy="1247.8077" fill="none" rx="3" ry="3" style="stroke:#038048;stroke-width:1;"/></g><text fill="#000000" font-family="sans-serif" font-size="14" lengthAdjust="spacing" textLength="69.8597" x="923.33" y="1251.7397">double std</text><g data-visibility-modifier="PUBLIC_FIELD"><ellipse cx="914.33" cy="1266.8756" fill="none" rx="3" ry="3" style="stroke:#038048;stroke-width:1;"/></g><text fill="#000000" font-family="sans-serif" font-size="14" lengthAdjust="spacing" textLength="68.9497" x="923.33" y="1270.8076">double err</text><line style="stroke:#181818;stroke-width:0.5;" x1="904.33" x2="1026.5056" y1="1278.9096" y2="1278.9096"/></g><!--class Statistics--><g class="entity" data-qualified-name="Statistics" data-source-line="44" id="ent0024"><rect fill="#F1F1F1" height="162.4075" rx="2.5" ry="2.5" style="stroke:#181818;stroke-width:0.5;" width="243.9651" x="843.44" y="920.16"/><ellipse cx="932.1437" cy="936.16" fill="#F1F1F1" rx="11" ry="11" style="stroke:#181818;stroke-width:1;"/><path d="M931.8155,942.8319 Q930.8937,942.8319 930.003,942.66 Q929.1124,942.4725 928.3312,942.0975 L928.3312,939.8475 Q929.2843,940.3319 930.1593,940.5663 Q931.0499,940.785 931.8937,940.785 Q932.7687,940.785 933.3312,940.4881 Q933.8937,940.1913 933.8937,939.41 Q933.8937,938.8631 933.5968,938.5663 Q933.2999,938.2538 932.7374,937.9725 Q932.1749,937.6913 931.3937,937.285 Q930.6124,936.8631 929.9562,936.3788 Q929.3155,935.8788 928.9405,935.2069 Q928.5655,934.535 928.5655,933.5819 Q928.5655,931.9569 929.6593,931.16 Q930.7687,930.3475 932.5499,930.3475 Q933.2687,930.3475 934.253,930.5194 Q935.2374,930.6756 936.1905,931.1288 L935.4093,933.0506 Q934.5655,932.6913 933.878,932.5506 Q933.2062,932.3944 932.6905,932.3944 Q931.8468,932.3944 931.4562,932.7381 Q931.0812,933.0663 931.0812,933.7069 Q931.0812,934.1913 931.3155,934.5038 Q931.5655,934.8006 932.0343,935.0506 Q932.5187,935.3006 933.253,935.6756 Q934.253,936.16 934.9562,936.6288 Q935.6593,937.0975 936.0343,937.7225 Q936.4093,938.3319 936.4093,939.2694 Q936.4093,940.4569 935.8312,941.2538 Q935.2687,942.035 934.2218,942.4413 Q933.1905,942.8319 931.8155,942.8319 Z " fill="#000000"/><text fill="#000000" font-family="sans-serif" font-size="14" lengthAdjust="spacing" textLength="58.0578" x="952.6437" y="941.592">Statistics</text><line style="stroke:#181818;stroke-width:0.5;" x1="844.44" x2="1086.4051" y1="952.16" y2="952.16"/><g data-visibility-modifier="PUBLIC_FIELD"><ellipse cx="854.44" cy="967.194" fill="none" rx="3" ry="3" style="stroke:#038048;stroke-width:1;"/></g><text fill="#000000" font-family="sans-serif" font-size="14" lengthAdjust="spacing" textLength="207.2272" x="863.44" y="971.1259">vector&lt;int&gt; entity_count_values</text><g data-visibility-modifier="PUBLIC_FIELD"><ellipse cx="854.44" cy="986.2619" fill="none" rx="3" ry="3" style="stroke:#038048;stroke-width:1;"/></g><text fill="#000000" font-family="sans-serif" font-size="14" lengthAdjust="spacing" textLength="176.9873" x="863.44" y="990.1939">Measurement entity_count</text><g data-visibility-modifier="PUBLIC_FIELD"><ellipse cx="854.44" cy="1005.3298" fill="none" rx="3" ry="3" style="stroke:#038048;stroke-width:1;"/></g><text fill="#000000" font-family="sans-serif" font-size="14" lengthAdjust="spacing" textLength="204.3012" x="863.44" y="1009.2618">vector&lt;int&gt; allele_count_values</text><g data-visibility-modifier="PUBLIC_FIELD"><ellipse cx="854.44" cy="1024.3977" fill="none" rx="3" ry="3" style="stroke:#038048;stroke-width:1;"/></g><text fill="#000000" font-family="sans-serif" font-size="14" lengthAdjust="spacing" textLength="174.0613" x="863.44" y="1028.3297">Measurement allele_count</text><g data-visibility-modifier="PUBLIC_FIELD"><ellipse cx="854.44" cy="1043.4656" fill="none" rx="3" ry="3" style="stroke:#038048;stroke-width:1;"/></g><text fill="#000000" font-family="sans-serif" font-size="14" lengthAdjust="spacing" textLength="217.9651" x="863.44" y="1047.3976">vector&lt;int&gt; species_count_values</text><g data-visibility-modifier="PUBLIC_FIELD"><ellipse cx="854.44" cy="1062.5335" fill="none" rx="3" ry="3" style="stroke:#038048;stroke-width:1;"/></g><text fill="#000000" font-family="sans-serif" font-size="14" lengthAdjust="spacing" textLength="187.7253" x="863.44" y="1066.4655">Measurement species_count</text><line style="stroke:#181818;stroke-width:0.5;" x1="844.44" x2="1086.4051" y1="1074.5675" y2="1074.5675"/></g><!--class vector<Statistics>--><g class="entity" data-qualified-name="vector.Statistics." data-source-line="54" id="ent0026"><rect fill="#F1F1F1" height="48" rx="2.5" ry="2.5" style="stroke:#181818;stroke-width:0.5;" width="147.1076" x="891.87" y="811.16"/><ellipse cx="906.87" cy="827.16" fill="#ADD1B2" rx="11" ry="11" style="stroke:#181818;stroke-width:1;"/><path d="M906.3388,834.0819 Q904.5888,834.0819 903.4481,833.3475 Q902.3231,832.5975 901.7606,831.2538 Q901.2138,829.8944 901.2138,828.0975 Q901.2138,826.0663 901.87,824.6131 Q902.5263,823.16 903.8075,822.3788 Q905.0888,821.5975 906.9638,821.5975 Q907.8544,821.5975 908.5263,821.785 Q909.1981,821.9569 909.8856,822.3006 L909.0731,824.3163 Q908.4481,824.0038 907.9013,823.8788 Q907.37,823.7538 906.8856,823.7538 Q905.7138,823.7538 905.0106,824.285 Q904.3075,824.8163 904.0106,825.7694 Q903.7138,826.7225 903.7138,827.9881 Q903.7138,830.0038 904.4325,830.9725 Q905.1513,831.9256 906.745,831.9256 Q907.3388,831.9256 907.9638,831.7694 Q908.5888,831.6131 909.4169,831.2381 L909.4169,833.4569 Q908.6825,833.7694 907.8856,833.9256 Q907.1044,834.0819 906.3388,834.0819 Z " fill="#000000"/><text fill="#000000" font-family="sans-serif" font-size="14" lengthAdjust="spacing" textLength="115.1076" x="920.87" y="832.592">vector&lt;Statistics&gt;</text><line style="stroke:#181818;stroke-width:0.5;" x1="892.87" x2="1037.9776" y1="843.16" y2="843.16"/><line style="stroke:#181818;stroke-width:0.5;" x1="892.87" x2="1037.9776" y1="851.16" y2="851.16"/></g><!--class ExperimentStatistics--><g class="entity" data-qualified-name="ExperimentStatistics" data-source-line="56" id="ent0028"><rect fill="#F1F1F1" height="48" rx="2.5" ry="2.5" style="stroke:#181818;stroke-width:0.5;" width="165.8395" x="882.5" y="674.63"/><ellipse cx="897.5" cy="690.63" fill="#ADD1B2" rx="11" ry="11" style="stroke:#181818;stroke-width:1;"/><path d="M896.9688,697.5519 Q895.2188,697.5519 894.0781,696.8175 Q892.9531,696.0675 892.3906,694.7238 Q891.8438,693.3644 891.8438,691.5675 Q891.8438,689.5363 892.5,688.0831 Q893.1563,686.63 894.4375,685.8488 Q895.7188,685.0675 897.5938,685.0675 Q898.4844,685.0675 899.1563,685.255 Q899.8281,685.4269 900.5156,685.7706 L899.7031,687.7863 Q899.0781,687.4738 898.5313,687.3488 Q898,687.2238 897.5156,687.2238 Q896.3438,687.2238 895.6406,687.755 Q894.9375,688.2863 894.6406,689.2394 Q894.3438,690.1925 894.3438,691.4581 Q894.3438,693.4738 895.0625,694.4425 Q895.7813,695.3956 897.375,695.3956 Q897.9688,695.3956 898.5938,695.2394 Q899.2188,695.0831 900.0469,694.7081 L900.0469,696.9269 Q899.3125,697.2394 898.5156,697.3956 Q897.7344,697.5519 896.9688,697.5519 Z " fill="#000000"/><text fill="#000000" font-family="sans-serif" font-size="14" lengthAdjust="spacing" textLength="133.8395" x="911.5" y="696.062">ExperimentStatistics</text><line style="stroke:#181818;stroke-width:0.5;" x1="883.5" x2="1047.3395" y1="706.63" y2="706.63"/><line style="stroke:#181818;stroke-width:0.5;" x1="883.5" x2="1047.3395" y1="714.63" y2="714.63"/></g><!--class vector<ExperimentStatistics>--><g class="entity" data-qualified-name="vector.ExperimentStatistics." data-source-line="59" id="ent0030"><rect fill="#F1F1F1" height="48" rx="2.5" ry="2.5" style="stroke:#181818;stroke-width:0.5;" width="222.8893" x="853.98" y="527.49"/><ellipse cx="868.98" cy="543.49" fill="#ADD1B2" rx="11" ry="11" style="stroke:#181818;stroke-width:1;"/><path d="M868.4488,550.4119 Q866.6988,550.4119 865.5581,549.6775 Q864.4331,548.9275 863.8706,547.5838 Q863.3238,546.2244 863.3238,544.4275 Q863.3238,542.3963 863.98,540.9431 Q864.6363,539.49 865.9175,538.7088 Q867.1988,537.9275 869.0738,537.9275 Q869.9644,537.9275 870.6363,538.115 Q871.3081,538.2869 871.9956,538.6306 L871.1831,540.6463 Q870.5581,540.3338 870.0113,540.2088 Q869.48,540.0838 868.9956,540.0838 Q867.8238,540.0838 867.1206,540.615 Q866.4175,541.1463 866.1206,542.0994 Q865.8238,543.0525 865.8238,544.3181 Q865.8238,546.3338 866.5425,547.3025 Q867.2613,548.2556 868.855,548.2556 Q869.4488,548.2556 870.0738,548.0994 Q870.6988,547.9431 871.5269,547.5681 L871.5269,549.7869 Q870.7925,550.0994 869.9956,550.2556 Q869.2144,550.4119 868.4488,550.4119 Z " fill="#000000"/><text fill="#000000" font-family="sans-serif" font-size="14" lengthAdjust="spacing" textLength="190.8893" x="882.98" y="548.922">vector&lt;ExperimentStatistics&gt;</text><line style="stroke:#181818;stroke-width:0.5;" x1="854.98" x2="1075.8693" y1="559.49" y2="559.49"/><line style="stroke:#181818;stroke-width:0.5;" x1="854.98" x2="1075.8693" y1="567.49" y2="567.49"/></g><!--class ExperimentSweepStatistics--><g class="entity" data-qualified-name="ExperimentSweepStatistics" data-source-line="61" id="ent0032"><rect fill="#F1F1F1" height="48" rx="2.5" ry="2.5" style="stroke:#181818;stroke-width:0.5;" width="208.9313" x="860.96" y="343.29"/><ellipse cx="875.96" cy="359.29" fill="#ADD1B2" rx="11" ry="11" style="stroke:#181818;stroke-width:1;"/><path d="M875.4288,366.2119 Q873.6788,366.2119 872.5381,365.4775 Q871.4131,364.7275 870.8506,363.3838 Q870.3038,362.0244 870.3038,360.2275 Q870.3038,358.1963 870.96,356.7431 Q871.6163,355.29 872.8975,354.5088 Q874.1788,353.7275 876.0538,353.7275 Q876.9444,353.7275 877.6163,353.915 Q878.2881,354.0869 878.9756,354.4306 L878.1631,356.4463 Q877.5381,356.1338 876.9913,356.0088 Q876.46,355.8838 875.9756,355.8838 Q874.8038,355.8838 874.1006,356.415 Q873.3975,356.9463 873.1006,357.8994 Q872.8038,358.8525 872.8038,360.1181 Q872.8038,362.1338 873.5225,363.1025 Q874.2413,364.0556 875.835,364.0556 Q876.4288,364.0556 877.0538,363.8994 Q877.6788,363.7431 878.5069,363.3681 L878.5069,365.5869 Q877.7725,365.8994 876.9756,366.0556 Q876.1944,366.2119 875.4288,366.2119 Z " fill="#000000"/><text fill="#000000" font-family="sans-serif" font-size="14" lengthAdjust="spacing" textLength="176.9313" x="889.96" y="364.722">ExperimentSweepStatistics</text><line style="stroke:#181818;stroke-width:0.5;" x1="861.96" x2="1068.8913" y1="375.29" y2="375.29"/><line style="stroke:#181818;stroke-width:0.5;" x1="861.96" x2="1068.8913" y1="383.29" y2="383.29"/></g><!--class math--><g class="entity" data-qualified-name="math" data-source-line="64" id="ent0034"><rect fill="#F1F1F1" height="118.6158" rx="2.5" ry="2.5" style="stroke:#181818;stroke-width:0.5;" width="634.8439" x="7" y="135.07"/><ellipse cx="286.1357" cy="157.776" fill="#ADD1B2" rx="11" ry="11" style="stroke:#181818;stroke-width:1;"/><path d="M285.6044,164.6979 Q283.8544,164.6979 282.7138,163.9635 Q281.5888,163.2135 281.0263,161.8698 Q280.4794,160.5104 280.4794,158.7135 Q280.4794,156.6823 281.1357,155.2291 Q281.7919,153.776 283.0732,152.9948 Q284.3544,152.2135 286.2294,152.2135 Q287.1201,152.2135 287.7919,152.401 Q288.4638,152.5729 289.1513,152.9166 L288.3388,154.9323 Q287.7138,154.6198 287.1669,154.4948 Q286.6357,154.3698 286.1513,154.3698 Q284.9794,154.3698 284.2763,154.901 Q283.5732,155.4323 283.2763,156.3854 Q282.9794,157.3385 282.9794,158.6041 Q282.9794,160.6198 283.6982,161.5885 Q284.4169,162.5416 286.0107,162.5416 Q286.6044,162.5416 287.2294,162.3854 Q287.8544,162.2291 288.6826,161.8541 L288.6826,164.0729 Q287.9482,164.3854 287.1513,164.5416 Q286.3701,164.6979 285.6044,164.6979 Z " fill="#000000"/><text fill="#000000" font-family="sans-serif" font-size="12" font-style="italic" lengthAdjust="spacing" textLength="72.0725" x="304.6357" y="152.8981">&#171;namespace&#187;</text><text fill="#000000" font-family="sans-serif" font-size="14" lengthAdjust="spacing" textLength="34.6499" x="323.347" y="171.38">math</text><line style="stroke:#181818;stroke-width:0.5;" x1="8" x2="640.8439" y1="180.482" y2="180.482"/><line style="stroke:#181818;stroke-width:0.5;" x1="8" x2="640.8439" y1="188.482" y2="188.482"/><g data-visibility-modifier="PUBLIC_METHOD"><ellipse cx="18" cy="203.516" fill="#84BE84" rx="3" ry="3" style="stroke:#038048;stroke-width:1;"/></g><text fill="#000000" font-family="sans-serif" font-size="14" lengthAdjust="spacing" textLength="203.9232" x="27" y="207.448">Measurement measure(values)</text><g data-visibility-modifier="PUBLIC_METHOD"><ellipse cx="18" cy="222.5839" fill="#84BE84" rx="3" ry="3" style="stroke:#038048;stroke-width:1;"/></g><text fill="#000000" font-family="sans-serif" font-size="14" lengthAdjust="spacing" textLength="479.5681" x="27" y="226.5159">ExperimentStatistics measure(experimentParameters, experimentStates)</text><g data-visibility-modifier="PUBLIC_METHOD"><ellipse cx="18" cy="241.6518" fill="#84BE84" rx="3" ry="3" style="stroke:#038048;stroke-width:1;"/></g><text fill="#000000" font-family="sans-serif" font-size="14" lengthAdjust="spacing" textLength="608.8439" x="27" y="245.5838">ExperimentSweepStatistics measure(experimentSweepParameters, experimentSweepStates)</text></g><!--class IOOutputWriter--><g class="entity" data-qualified-name="IOOutputWriter" data-source-line="73" id="ent0038"><rect fill="#F1F1F1" height="67.0679" rx="2.5" ry="2.5" style="stroke:#181818;stroke-width:0.5;" width="305.971" x="846.44" y="7"/><ellipse cx="946.8197" cy="23" fill="#B4A7E5" rx="11" ry="11" style="stroke:#181818;stroke-width:1;"/><path d="M942.8509,29.5 L942.8509,27.7969 L945.2103,27.5313 L945.2103,19.3281 L942.8509,19.0625 L942.8509,17.3594 L949.9916,17.3594 L949.9916,19.0625 L947.5697,19.3281 L947.5697,27.5313 L949.9916,27.7969 L949.9916,29.5 L942.8509,29.5 Z " fill="#000000"/><text fill="#000000" font-family="sans-serif" font-size="14" font-style="italic" lengthAdjust="spacing" textLength="96.7116" x="967.3197" y="28.432">IOOutputWriter</text><line style="stroke:#181818;stroke-width:0.5;" x1="847.44" x2="1151.411" y1="39" y2="39"/><line style="stroke:#181818;stroke-width:0.5;" x1="847.44" x2="1151.411" y1="47" y2="47"/><g data-visibility-modifier="PUBLIC_METHOD"><ellipse cx="857.44" cy="62.034" fill="#84BE84" rx="3" ry="3" style="stroke:#038048;stroke-width:1;"/></g><text fill="#000000" font-family="sans-serif" font-size="14" lengthAdjust="spacing" textLength="279.971" x="866.44" y="65.9659">void write(params, statistics, &amp;out_stream)</text></g><!--class CSVWriter--><g class="entity" data-qualified-name="CSVWriter" data-source-line="76" id="ent0039"><rect fill="#F1F1F1" height="67.0679" rx="2.5" ry="2.5" style="stroke:#181818;stroke-width:0.5;" width="305.971" x="676.44" y="160.85"/><ellipse cx="792.1356" cy="176.85" fill="#ADD1B2" rx="11" ry="11" style="stroke:#181818;stroke-width:1;"/><path d="M791.6044,183.7719 Q789.8544,183.7719 788.7137,183.0375 Q787.5887,182.2875 787.0262,180.9438 Q786.4794,179.5844 786.4794,177.7875 Q786.4794,175.7563 787.1356,174.3031 Q787.7919,172.85 789.0731,172.0688 Q790.3544,171.2875 792.2294,171.2875 Q793.12,171.2875 793.7919,171.475 Q794.4637,171.6469 795.1512,171.9906 L794.3387,174.0063 Q793.7137,173.6938 793.1669,173.5688 Q792.6356,173.4438 792.1512,173.4438 Q790.9794,173.4438 790.2762,173.975 Q789.5731,174.5063 789.2762,175.4594 Q788.9794,176.4125 788.9794,177.6781 Q788.9794,179.6938 789.6981,180.6625 Q790.4169,181.6156 792.0106,181.6156 Q792.6044,181.6156 793.2294,181.4594 Q793.8544,181.3031 794.6825,180.9281 L794.6825,183.1469 Q793.9481,183.4594 793.1512,183.6156 Q792.37,183.7719 791.6044,183.7719 Z " fill="#000000"/><text fill="#000000" font-family="sans-serif" font-size="14" lengthAdjust="spacing" textLength="66.0797" x="812.6356" y="182.282">CSVWriter</text><line style="stroke:#181818;stroke-width:0.5;" x1="677.44" x2="981.411" y1="192.85" y2="192.85"/><line style="stroke:#181818;stroke-width:0.5;" x1="677.44" x2="981.411" y1="200.85" y2="200.85"/><g data-visibility-modifier="PUBLIC_METHOD"><ellipse cx="687.44" cy="215.884" fill="#84BE84" rx="3" ry="3" style="stroke:#038048;stroke-width:1;"/></g><text fill="#000000" font-family="sans-serif" font-size="14" lengthAdjust="spacing" textLength="279.971" x="696.44" y="219.8159">void write(params, statistics, &amp;out_stream)</text></g><!--class SVGWriter--><g class="entity" data-qualified-name="SVGWriter" data-source-line="79" id="ent0040"><rect fill="#F1F1F1" height="67.0679" rx="2.5" ry="2.5" style="stroke:#181818;stroke-width:0.5;" width="305.971" x="1017.44" y="160.85"/><ellipse cx="1132.4636" cy="176.85" fill="#ADD1B2" rx="11" ry="11" style="stroke:#181818;stroke-width:1;"/><path d="M1131.9324,183.7719 Q1130.1824,183.7719 1129.0417,183.0375 Q1127.9167,182.2875 1127.3542,180.9438 Q1126.8074,179.5844 1126.8074,177.7875 Q1126.8074,175.7563 1127.4636,174.3031 Q1128.1199,172.85 1129.4011,172.0688 Q1130.6824,171.2875 1132.5574,171.2875 Q1133.448,171.2875 1134.1199,171.475 Q1134.7917,171.6469 1135.4792,171.9906 L1134.6667,174.0063 Q1134.0417,173.6938 1133.4949,173.5688 Q1132.9636,173.4438 1132.4792,173.4438 Q1131.3074,173.4438 1130.6042,173.975 Q1129.9011,174.5063 1129.6042,175.4594 Q1129.3074,176.4125 1129.3074,177.6781 Q1129.3074,179.6938 1130.0261,180.6625 Q1130.7449,181.6156 1132.3386,181.6156 Q1132.9324,181.6156 1133.5574,181.4594 Q1134.1824,181.3031 1135.0105,180.9281 L1135.0105,183.1469 Q1134.2761,183.4594 1133.4792,183.6156 Q1132.698,183.7719 1131.9324,183.7719 Z " fill="#000000"/><text fill="#000000" font-family="sans-serif" font-size="14" lengthAdjust="spacing" textLength="67.4237" x="1152.9636" y="182.282">SVGWriter</text><line style="stroke:#181818;stroke-width:0.5;" x1="1018.44" x2="1322.411" y1="192.85" y2="192.85"/><line style="stroke:#181818;stroke-width:0.5;" x1="1018.44" x2="1322.411" y1="200.85" y2="200.85"/><g data-visibility-modifier="PUBLIC_METHOD"><ellipse cx="1028.44" cy="215.884" fill="#84BE84" rx="3" ry="3" style="stroke:#038048;stroke-width:1;"/></g><text fill="#000000" font-family="sans-serif" font-size="14" lengthAdjust="spacing" textLength="279.971" x="1037.44" y="219.8159">void write(params, statistics, &amp;out_stream)</text></g><!--reverse link ExperimentParameters to RunParameters--><g class="link" data-entity-1="ent0006" data-entity-2="ent0002" data-link-type="aggregation" data-source-line="12" id="lnk7"><path codeLine="12" d="M639.7769,614.2029 C625.1869,634.3729 615.95,647.14 603.06,664.96" fill="none" id="ExperimentParameters-backto-RunParameters" style="stroke:#181818;stroke-width:1;"/><polygon fill="none" points="646.81,604.48,640.0525,606.9971,639.7769,614.2029,646.5344,611.6858,646.81,604.48" style="stroke:#181818;stroke-width:1;"/></g><!--reverse link ExperimentSweepParameters to ExperimentParameters--><g class="link" data-entity-1="ent0008" data-entity-2="ent0006" data-link-type="aggregation" data-source-line="19" id="lnk9"><path codeLine="19" d="M676.6179,431.9841 C678.2379,456.6041 679.38,474 681.01,498.64" fill="none" id="ExperimentSweepParameters-backto-ExperimentParameters" style="stroke:#181818;stroke-width:1;"/><polygon fill="none" points="675.83,420.01,672.2326,426.2597,676.6179,431.9841,680.2153,425.7344,675.83,420.01" style="stroke:#181818;stroke-width:1;"/></g><!--reverse link ExperimentSweepParameters to RunParameters--><g class="link" data-entity-1="ent0008" data-entity-2="ent0002" data-link-type="aggregation" data-source-line="20" id="lnk10"><path codeLine="20" d="M593.4635,428.3798 C570.1535,449.8498 555.83,468.67 543.42,498.89 C520.65,554.36 544.36,624.4 562.62,664.79" fill="none" id="ExperimentSweepParameters-backto-RunParameters" style="stroke:#181818;stroke-width:1;"/><polygon fill="none" points="602.29,420.25,595.1668,421.3727,593.4635,428.3798,600.5867,427.257,602.29,420.25" style="stroke:#181818;stroke-width:1;"/></g><!--reverse link vector<RunStates> to RunStates--><g class="link" data-entity-1="ent0015" data-entity-2="ent0011" data-link-type="aggregation" data-source-line="28" id="lnk16"><path codeLine="28" d="M324.42,871.34 C324.42,899.54 324.42,935.35 324.42,967.38" fill="none" id="vector&lt;RunStates&gt;-backto-RunStates" style="stroke:#181818;stroke-width:1;"/><polygon fill="none" points="324.42,859.34,320.42,865.34,324.42,871.34,328.42,865.34,324.42,859.34" style="stroke:#181818;stroke-width:1;"/></g><!--link ExperimentStates to vector<RunStates>--><g class="link" data-entity-1="ent0017" data-entity-2="ent0015" data-link-type="extension" data-source-line="30" id="lnk18"><path codeLine="30" d="M324.42,723.06 C324.42,747.76 324.42,768.41 324.42,793" fill="none" id="ExperimentStates-to-vector&lt;RunStates&gt;" style="stroke:#181818;stroke-width:1;"/><polygon fill="none" points="324.42,811,330.42,793,318.42,793,324.42,811" style="stroke:#181818;stroke-width:1;"/><text fill="#000000" font-family="sans-serif" font-size="13" lengthAdjust="spacing" textLength="59.683" x="325.42" y="777.057">&#171;typedef&#187;</text></g><!--reverse link vector<ExperimentStates> to ExperimentStates--><g class="link" data-entity-1="ent0019" data-entity-2="ent0017" data-link-type="aggregation" data-source-line="33" id="lnk20"><path codeLine="33" d="M324.42,587.81 C324.42,614.9 324.42,647.31 324.42,674.37" fill="none" id="vector&lt;ExperimentStates&gt;-backto-ExperimentStates" style="stroke:#181818;stroke-width:1;"/><polygon fill="none" points="324.42,575.81,320.42,581.81,324.42,587.81,328.42,581.81,324.42,575.81" style="stroke:#181818;stroke-width:1;"/></g><!--link ExperimentSweepStates to vector<ExperimentStates>--><g class="link" data-entity-1="ent0021" data-entity-2="ent0019" data-link-type="extension" data-source-line="35" id="lnk22"><path codeLine="35" d="M324.42,391.74 C324.42,426.72 324.42,474.2 324.42,509.14" fill="none" id="ExperimentSweepStates-to-vector&lt;ExperimentStates&gt;" style="stroke:#181818;stroke-width:1;"/><polygon fill="none" points="324.42,527.14,330.42,509.14,318.42,509.14,324.42,527.14" style="stroke:#181818;stroke-width:1;"/><text fill="#000000" font-family="sans-serif" font-size="13" lengthAdjust="spacing" textLength="59.683" x="325.42" y="464.787">&#171;typedef&#187;</text></g><!--reverse link Statistics to Measurement--><g class="link" data-entity-1="ent0024" data-entity-2="ent0023" data-link-type="aggregation" data-source-line="52" id="lnk25"><path codeLine="52" d="M965.42,1094.77 C965.42,1114.67 965.42,1123.85 965.42,1143.26" fill="none" id="Statistics-backto-Measurement" style="stroke:#181818;stroke-width:1;"/><polygon fill="none" points="965.42,1082.77,961.42,1088.77,965.42,1094.77,969.42,1088.77,965.42,1082.77" style="stroke:#181818;stroke-width:1;"/></g><!--reverse link vector<Statistics> to Statistics--><g class="link" data-entity-1="ent0026" data-entity-2="ent0024" data-link-type="aggregation" data-source-line="55" id="lnk27"><path codeLine="55" d="M965.42,871.34 C965.42,887.34 965.42,897.65 965.42,919.82" fill="none" id="vector&lt;Statistics&gt;-backto-Statistics" style="stroke:#181818;stroke-width:1;"/><polygon fill="none" points="965.42,859.34,961.42,865.34,965.42,871.34,969.42,865.34,965.42,859.34" style="stroke:#181818;stroke-width:1;"/></g><!--link ExperimentStatistics to vector<Statistics>--><g class="link" data-entity-1="ent0028" data-entity-2="ent0026" data-link-type="extension" data-source-line="57" id="lnk29"><path codeLine="57" d="M965.42,723.06 C965.42,747.76 965.42,768.41 965.42,793" fill="none" id="ExperimentStatistics-to-vector&lt;Statistics&gt;" style="stroke:#181818;stroke-width:1;"/><polygon fill="none" points="965.42,811,971.42,793,959.42,793,965.42,811" style="stroke:#181818;stroke-width:1;"/><text fill="#000000" font-family="sans-serif" font-size="13" lengthAdjust="spacing" textLength="59.683" x="966.42" y="777.057">&#171;typedef&#187;</text></g><!--reverse link vector<ExperimentStatistics> to ExperimentStatistics--><g class="link" data-entity-1="ent0030" data-entity-2="ent0028" data-link-type="aggregation" data-source-line="60" id="lnk31"><path codeLine="60" d="M965.42,587.81 C965.42,614.9 965.42,647.31 965.42,674.37" fill="none" id="vector&lt;ExperimentStatistics&gt;-backto-ExperimentStatistics" style="stroke:#181818;stroke-width:1;"/><polygon fill="none" points="965.42,575.81,961.42,581.81,965.42,587.81,969.42,581.81,965.42,575.81" style="stroke:#181818;stroke-width:1;"/></g><!--link ExperimentSweepStatistics to vector<ExperimentStatistics>--><g class="link" data-entity-1="ent0032" data-entity-2="ent0030" data-link-type="extension" data-source-line="62" id="lnk33"><path codeLine="62" d="M965.42,391.74 C965.42,426.72 965.42,474.2 965.42,509.14" fill="none" id="ExperimentSweepStatistics-to-vector&lt;ExperimentStatistics&gt;" style="stroke:#181818;stroke-width:1;"/><polygon fill="none" points="965.42,527.14,971.42,509.14,959.42,509.14,965.42,527.14" style="stroke:#181818;stroke-width:1;"/><text fill="#000000" font-family="sans-serif" font-size="13" lengthAdjust="spacing" textLength="59.683" x="966.42" y="464.787">&#171;typedef&#187;</text></g><!--link math to ExperimentSweepParameters--><g class="link" data-entity-1="ent0034" data-entity-2="ent0008" data-link-type="dependency" data-source-line="69" id="lnk35"><path codeLine="69" d="M443.7,253.96 C483.54,273.53 522.2641,292.5457 561.0241,311.5757" fill="none" id="math-to-ExperimentSweepParameters" style="stroke:#181818;stroke-width:1;"/><polygon fill="#181818" points="566.41,314.22,560.0941,306.663,561.9218,312.0164,556.5683,313.8441,566.41,314.22" style="stroke:#181818;stroke-width:1;"/></g><!--link math to ExperimentSweepStates--><g class="link" data-entity-1="ent0034" data-entity-2="ent0021" data-link-type="dependency" data-source-line="70" id="lnk36"><path codeLine="70" d="M324.42,253.72 C324.42,284.28 324.42,314 324.42,336.86" fill="none" id="math-to-ExperimentSweepStates" style="stroke:#181818;stroke-width:1;"/><polygon fill="#181818" points="324.42,342.86,328.42,333.86,324.42,337.86,320.42,333.86,324.42,342.86" style="stroke:#181818;stroke-width:1;"/></g><!--link math to ExperimentSweepStatistics--><g class="link" data-entity-1="ent0034" data-entity-2="ent0032" data-link-type="dependency" data-source-line="71" id="lnk37"><path codeLine="71" d="M620.88,254.16 C694.29,271.28 772.28,291.66 843.42,314.69 C867.6,322.51 888.1402,330.7788 909.9302,340.3888" fill="none" id="math-to-ExperimentSweepStatistics" style="stroke:#181818;stroke-width:1;"/><polygon fill="#181818" points="915.42,342.81,908.7994,335.5184,910.8452,340.7924,905.5712,342.8381,915.42,342.81" style="stroke:#181818;stroke-width:1;"/></g><!--reverse link IOOutputWriter to CSVWriter--><g class="link" data-entity-1="ent0038" data-entity-2="ent0039" data-link-type="extension" data-source-line="83" id="lnk41"><path codeLine="83" d="M949.1042,86.4795 C920.5942,111.9395 894.73,135.04 866.24,160.5" fill="none" id="IOOutputWriter-backto-CSVWriter" style="stroke:#181818;stroke-width:1;"/><polygon fill="none" points="962.53,74.49,945.1077,82.0042,953.1007,90.9548,962.53,74.49" style="stroke:#181818;stroke-width:1;"/></g><!--reverse link IOOutputWriter to SVGWriter--><g class="link" data-entity-1="ent0038" data-entity-2="ent0040" data-link-type="extension" data-source-line="84" id="lnk42"><path codeLine="84" d="M1049.9911,86.4398 C1078.6711,111.8998 1104.73,135.04 1133.39,160.5" fill="none" id="IOOutputWriter-backto-SVGWriter" style="stroke:#181818;stroke-width:1;"/><polygon fill="none" points="1036.53,74.49,1046.0079,90.9269,1053.9744,81.9528,1036.53,74.49" style="stroke:#181818;stroke-width:1;"/></g><!--link CSVWriter to ExperimentSweepParameters--><g class="link" data-entity-1="ent0039" data-entity-2="ent0008" data-link-type="dependency" data-source-line="86" id="lnk43"><path codeLine="86" d="M799.15,228.33 C776.79,252.68 749.9486,281.891 724.2686,309.851" fill="none" id="CSVWriter-to-ExperimentSweepParameters" style="stroke:#181818;stroke-width:1;"/><polygon fill="#181818" points="720.21,314.27,729.244,310.3473,723.5922,310.5875,723.352,304.9358,720.21,314.27" style="stroke:#181818;stroke-width:1;"/></g><!--link CSVWriter to ExperimentSweepStatistics--><g class="link" data-entity-1="ent0039" data-entity-2="ent0032" data-link-type="dependency" data-source-line="87" id="lnk44"><path codeLine="87" d="M855.64,228.33 C882.43,261.99 919.5946,308.6946 943.1746,338.3346" fill="none" id="CSVWriter-to-ExperimentSweepStatistics" style="stroke:#181818;stroke-width:1;"/><polygon fill="#181818" points="946.91,343.03,944.4372,333.4966,943.7972,339.1172,938.1766,338.4772,946.91,343.03" style="stroke:#181818;stroke-width:1;"/></g><!--link SVGWriter to ExperimentSweepParameters--><g class="link" data-entity-1="ent0040" data-entity-2="ent0008" data-link-type="dependency" data-source-line="89" id="lnk45"><path codeLine="89" d="M1074.4,228.33 C1003.46,252.68 911.1452,284.3626 829.6652,312.3226" fill="none" id="SVGWriter-to-ExperimentSweepParameters" style="stroke:#181818;stroke-width:1;"/><polygon fill="#181818" points="823.99,314.27,833.801,315.1323,828.7193,312.6471,831.2044,307.5654,823.99,314.27" style="stroke:#181818;stroke-width:1;"/></g><!--link SVGWriter to ExperimentSweepStatistics--><g class="link" data-entity-1="ent0040" data-entity-2="ent0032" data-link-type="dependency" data-source-line="90" id="lnk46"><path codeLine="90" d="M1130.9,228.33 C1090.52,261.99 1033.4784,309.5477 997.9284,339.1877" fill="none" id="SVGWriter-to-ExperimentSweepStatistics" style="stroke:#181818;stroke-width:1;"/><polygon fill="#181818" points="993.32,343.03,1002.7941,340.3389,997.1603,339.8281,997.6711,334.1944,993.32,343.03" style="stroke:#181818;stroke-width:1;"/></g><?plantuml-src fLLBRjim4Dth54GMXOD6Fa1WQ5CKHO4MAIeWNHgCD749I9H03XsxIGwJi-HY9KtA8YbAHPgTviCtRsOUAOb2LKX-Alw32je2Wf3aCIDalLvdpndl4CXTXzYrr-JRwukiISbQrL3i1Eda7tnzQOurepjzDika1Vjyw46m5ZX6c1-ZEaBnRNysJmcCet5ROm-LhhC93XK43ZtbzUfIqqjMwl8yh9CWLZu0z1Ds4PoEW2GIgK36TvRfcMZOIGqDqhToZaaOugcE_d4awhLgg9J6MI95-FzbMfoBiH-BLroGH_ASfVoEZBNTUO-weqE24LXddZyLoLBNPBF1Omyrt1T5p2c6YQWbmk64vuYQ6QVPUf60Sg9KnDmfy3jGgGIOJAUvkbDt3P2MyS2a1z-a-vrlIgnz4uJGstKL304caLM3g1r5VR6q33aoF6whJd7SxccZm8hPf-NdJ01eqq03om1-pWH0zb0naCi8GP9kpUl9RD1BZIKnPaPY2086P7GabJgCSA9M5mZM7u2_GR99fZCfK-dEiHz4ccuXYYx8UBcZbk9lxUVwtP4zhQ0edDxyHRRsUsNtV1aziXwD8H4IpzyLWUXwJO2YfgPeqRiPG8wNsZpFfxxol9Z_MSockFTaAUnsbkcx0E9UZurylRbHs2ly9PXs3NUsOpLvC9xLwQ-Z2SlpwIloeLEurVSTQ6iesuLyAc_VZL7UVda7HXRriddIcZtJIaRF1RDivByy_SKyVyPZCyk0YtaUu5y0?></g></svg>