<?plantuml 1.2026.2?><svg xmlns="http://www.w3.org/2000/svg" xmlns:xlink="http://www.w3.org/1999/xlink" contentStyleType="text/css" data-diagram-type="ACTIVITY" height="396px" preserveAspectRatio="none" style="width:202px;height:396px;background:#FFFFFF;" version="1.1" viewBox="0 0 202 396" width="202px" zoomAndPan="magnify"><defs/><g><rect fill="#F1F1F1" height="36.3441" rx="12.5" ry="12.5" style="stroke:#181818;stroke-width:0.5;" width="86.3725" x="58.1123" y="11"/><text fill="#000000" font-family="sans-serif" font-size="12" lengthAdjust="spacing" textLength="66.3725" x="68.1123" y="33.8281">char **argv</text><rect fill="#F1F1F1" height="36.3441" rx="12.5" ry="12.5" style="stroke:#181818;stroke-width:0.5;" width="180.5971" x="11" y="67.3441"/><text fill="#000000" font-family="sans-serif" font-size="12" lengthAdjust="spacing" textLength="160.5971" x="21" y="90.1722">ExperimentSweepParamters</text><rect fill="#F1F1F1" height="36.3441" rx="12.5" ry="12.5" style="stroke:#181818;stroke-width:0.5;" width="150.4289" x="26.0841" y="123.6882"/><text fill="#000000" font-family="sans-serif" font-size="12" lengthAdjust="spacing" textLength="130.4289" x="36.0841" y="146.5163">ExperimentParameters</text><rect fill="#F1F1F1" height="36.3441" rx="12.5" ry="12.5" style="stroke:#181818;stroke-width:0.5;" width="107.7686" x="47.4143" y="180.0323"/><text fill="#000000" font-family="sans-serif" font-size="12" lengthAdjust="spacing" textLength="87.7686" x="57.4143" y="202.8604">RunParameters</text><rect fill="#F1F1F1" height="36.3441" rx="12.5" ry="12.5" style="stroke:#181818;stroke-width:0.5;" width="76.7964" x="62.9004" y="236.3765"/><text fill="#000000" font-family="sans-serif" font-size="12" lengthAdjust="spacing" textLength="56.7964" x="72.9004" y="259.2045">RunStates</text><rect fill="#F1F1F1" height="36.3441" rx="12.5" ry="12.5" style="stroke:#181818;stroke-width:0.5;" width="125.5287" x="38.5342" y="292.7206"/><text fill="#000000" font-family="sans-serif" font-size="12" lengthAdjust="spacing" textLength="105.5287" x="48.5342" y="315.5487">ExperimentResults</text><rect fill="#F1F1F1" height="36.3441" rx="12.5" ry="12.5" style="stroke:#181818;stroke-width:0.5;" width="162.465" x="20.0661" y="349.0647"/><text fill="#000000" font-family="sans-serif" font-size="12" lengthAdjust="spacing" textLength="142.465" x="30.0661" y="371.8928">ExperimentSweepResults</text><line style="stroke:#181818;stroke-width:1;" x1="101.2986" x2="101.2986" y1="47.3441" y2="67.3441"/><polygon fill="#181818" points="97.2986,57.3441,101.2986,67.3441,105.2986,57.3441,101.2986,61.3441" style="stroke:#181818;stroke-width:1;"/><line style="stroke:#181818;stroke-width:1;" x1="101.2986" x2="101.2986" y1="103.6882" y2="123.6882"/><polygon fill="#181818" points="97.2986,113.6882,101.2986,123.6882,105.2986,113.6882,101.2986,117.6882" style="stroke:#181818;stroke-width:1;"/><line style="stroke:#181818;stroke-width:1;" x1="101.2986" x2="101.2986" y1="160.0323" y2="180.0323"/><polygon fill="#181818" points="97.2986,170.0323,101.2986,180.0323,105.2986,170.0323,101.2986,174.0323" style="stroke:#181818;stroke-width:1;"/><line style="stroke:#181818;stroke-width:1;" x1="101.2986" x2="101.2986" y1="216.3765" y2="236.3765"/><polygon fill="#181818" points="97.2986,226.3765,101.2986,236.3765,105.2986,226.3765,101.2986,230.3765" style="stroke:#181818;stroke-width:1;"/><line style="stroke:#181818;stroke-width:1;" x1="101.2986" x2="101.2986" y1="272.7206" y2="292.7206"/><polygon fill="#181818" points="97.2986,282.7206,101.2986,292.7206,105.2986,282.7206,101.2986,286.7206" style="stroke:#181818;stroke-width:1;"/><line style="stroke:#181818;stroke-width:1;" x1="101.2986" x2="101.2986" y1="329.0647" y2="349.0647"/><polygon fill="#181818" points="97.2986,339.0647,101.2986,349.0647,105.2986,339.0647,101.2986,343.0647" style="stroke:#181818;stroke-width:1;"/><?plantuml-src iqhEI2nIqD9AB4eli-QoSgqeI2tAp4tDAmakJqqj24WiIimjIIqgHf42YwP2XODAyz3vmIM99QceMe9IYqjpIeenRO190000?></g></svg>