<?plantuml 1.2026.2?><svg xmlns="http://www.w3.org/2000/svg" xmlns:xlink="http://www.w3.org/1999/xlink" contentStyleType="text/css" data-diagram-type="CLASS" height="973px" preserveAspectRatio="none" style="width:3360px;height:973px;background:#FFFFFF;" version="1.1" viewBox="0 0 3360 973" width="3360px" zoomAndPan="magnify"><defs/><g><!--class Simulator--><g class="entity" data-qualified-name="Simulator" data-source-line="1" id="ent0002"><rect fill="#F1F1F1" height="181.4754" rx="2.5" ry="2.5" style="stroke:#181818;stroke-width:0.5;" width="281.695" x="1345.77" y="7"/><ellipse cx="1450.4616" cy="23" fill="#ADD1B2" rx="11" ry="11" style="stroke:#181818;stroke-width:1;"/><path d="M1449.9304,29.9219 Q1448.1804,29.9219 1447.0397,29.1875 Q1445.9147,28.4375 1445.3522,27.0938 Q1444.8054,25.7344 1444.8054,23.9375 Q1444.8054,21.9063 1445.4616,20.4531 Q1446.1179,19 1447.3991,18.2188 Q1448.6804,17.4375 1450.5554,17.4375 Q1451.446,17.4375 1452.1179,17.625 Q1452.7897,17.7969 1453.4772,18.1406 L1452.6647,20.1563 Q1452.0397,19.8438 1451.4929,19.7188 Q1450.9616,19.5938 1450.4772,19.5938 Q1449.3054,19.5938 1448.6022,20.125 Q1447.8991,20.6563 1447.6022,21.6094 Q1447.3054,22.5625 1447.3054,23.8281 Q1447.3054,25.8438 1448.0241,26.8125 Q1448.7429,27.7656 1450.3366,27.7656 Q1450.9304,27.7656 1451.5554,27.6094 Q1452.1804,27.4531 1453.0085,27.0781 L1453.0085,29.2969 Q1452.2741,29.6094 1451.4772,29.7656 Q1450.696,29.9219 1449.9304,29.9219 Z " fill="#000000"/><text fill="#000000" font-family="sans-serif" font-size="14" lengthAdjust="spacing" textLength="63.8118" x="1470.9616" y="28.432">Simulator</text><line style="stroke:#181818;stroke-width:0.5;" x1="1346.77" x2="1626.465" y1="39" y2="39"/><g data-visibility-modifier="PRIVATE_FIELD"><rect fill="none" height="6" style="stroke:#C82930;stroke-width:1;" width="6" x="1353.77" y="51.034"/></g><text fill="#000000" font-family="sans-serif" font-size="14" lengthAdjust="spacing" textLength="168.7554" x="1365.77" y="57.9659">const ISimilarity similarity</text><g data-visibility-modifier="PRIVATE_FIELD"><rect fill="none" height="6" style="stroke:#C82930;stroke-width:1;" width="6" x="1353.77" y="70.1019"/></g><text fill="#000000" font-family="sans-serif" font-size="14" lengthAdjust="spacing" textLength="165.8434" x="1365.77" y="77.0339">const ISelection selection</text><g data-visibility-modifier="PRIVATE_FIELD"><rect fill="none" height="6" style="stroke:#C82930;stroke-width:1;" width="6" x="1353.77" y="89.1698"/></g><text fill="#000000" font-family="sans-serif" font-size="14" lengthAdjust="spacing" textLength="223.1732" x="1365.77" y="96.1018">const IReproduction reproduction</text><g data-visibility-modifier="PRIVATE_FIELD"><rect fill="none" height="6" style="stroke:#C82930;stroke-width:1;" width="6" x="1353.77" y="108.2377"/></g><text fill="#000000" font-family="sans-serif" font-size="14" lengthAdjust="spacing" textLength="164.8354" x="1365.77" y="115.1697">const IValidator validator</text><g data-visibility-modifier="PRIVATE_FIELD"><rect fill="none" height="6" style="stroke:#C82930;stroke-width:1;" width="6" x="1353.77" y="127.3056"/></g><text fill="#000000" font-family="sans-serif" font-size="14" lengthAdjust="spacing" textLength="202.4952" x="1365.77" y="134.2376">const IAlleleAdder allele_adder</text><g data-visibility-modifier="PRIVATE_FIELD"><rect fill="none" height="6" style="stroke:#C82930;stroke-width:1;" width="6" x="1353.77" y="146.3735"/></g><text fill="#000000" font-family="sans-serif" font-size="14" lengthAdjust="spacing" textLength="255.695" x="1365.77" y="153.3055">const ISpeciesCounter species_counter</text><line style="stroke:#181818;stroke-width:0.5;" x1="1346.77" x2="1626.465" y1="161.4075" y2="161.4075"/><g data-visibility-modifier="PUBLIC_METHOD"><ellipse cx="1356.77" cy="176.4415" fill="#84BE84" rx="3" ry="3" style="stroke:#038048;stroke-width:1;"/></g><text fill="#000000" font-family="sans-serif" font-size="14" lengthAdjust="spacing" textLength="191.9673" x="1365.77" y="180.3734">RunStates run(&amp;rng, params)</text></g><!--class Entity--><g class="entity" data-qualified-name="Entity" data-source-line="11" id="ent0003"><rect fill="#F1F1F1" height="105.2038" rx="2.5" ry="2.5" style="stroke:#181818;stroke-width:0.5;" width="155.8775" x="269.68" y="297.15"/><ellipse cx="324.7208" cy="313.15" fill="#F1F1F1" rx="11" ry="11" style="stroke:#181818;stroke-width:1;"/><path d="M324.3927,319.8219 Q323.4708,319.8219 322.5802,319.65 Q321.6896,319.4625 320.9083,319.0875 L320.9083,316.8375 Q321.8614,317.3219 322.7364,317.5563 Q323.6271,317.775 324.4708,317.775 Q325.3458,317.775 325.9083,317.4781 Q326.4708,317.1813 326.4708,316.4 Q326.4708,315.8531 326.1739,315.5563 Q325.8771,315.2438 325.3146,314.9625 Q324.7521,314.6813 323.9708,314.275 Q323.1896,313.8531 322.5333,313.3688 Q321.8927,312.8688 321.5177,312.1969 Q321.1427,311.525 321.1427,310.5719 Q321.1427,308.9469 322.2364,308.15 Q323.3458,307.3375 325.1271,307.3375 Q325.8458,307.3375 326.8302,307.5094 Q327.8146,307.6656 328.7677,308.1188 L327.9864,310.0406 Q327.1427,309.6813 326.4552,309.5406 Q325.7833,309.3844 325.2677,309.3844 Q324.4239,309.3844 324.0333,309.7281 Q323.6583,310.0563 323.6583,310.6969 Q323.6583,311.1813 323.8927,311.4938 Q324.1427,311.7906 324.6114,312.0406 Q325.0958,312.2906 325.8302,312.6656 Q326.8302,313.15 327.5333,313.6188 Q328.2364,314.0875 328.6114,314.7125 Q328.9864,315.3219 328.9864,316.2594 Q328.9864,317.4469 328.4083,318.2438 Q327.8458,319.025 326.7989,319.4313 Q325.7677,319.8219 324.3927,319.8219 Z " fill="#000000"/><text fill="#000000" font-family="sans-serif" font-size="14" lengthAdjust="spacing" textLength="37.2959" x="345.2208" y="318.582">Entity</text><line style="stroke:#181818;stroke-width:0.5;" x1="270.68" x2="424.5575" y1="329.15" y2="329.15"/><g data-visibility-modifier="PUBLIC_FIELD"><ellipse cx="280.68" cy="344.184" fill="none" rx="3" ry="3" style="stroke:#038048;stroke-width:1;"/></g><text fill="#000000" font-family="sans-serif" font-size="14" lengthAdjust="spacing" textLength="45.3178" x="289.68" y="348.1159">int age</text><g data-visibility-modifier="PUBLIC_FIELD"><ellipse cx="280.68" cy="363.2519" fill="none" rx="3" ry="3" style="stroke:#038048;stroke-width:1;"/></g><text fill="#000000" font-family="sans-serif" font-size="14" lengthAdjust="spacing" textLength="66.9337" x="289.68" y="367.1839">int energy</text><g data-visibility-modifier="PUBLIC_FIELD"><ellipse cx="280.68" cy="382.3198" fill="none" rx="3" ry="3" style="stroke:#038048;stroke-width:1;"/></g><text fill="#000000" font-family="sans-serif" font-size="14" lengthAdjust="spacing" textLength="129.8775" x="289.68" y="386.2518">Genotype genotype</text><line style="stroke:#181818;stroke-width:0.5;" x1="270.68" x2="424.5575" y1="394.3538" y2="394.3538"/></g><!--class Random--><g class="entity" data-qualified-name="Random" data-source-line="18" id="ent0005"><rect fill="#F1F1F1" height="181.4754" rx="2.5" ry="2.5" style="stroke:#181818;stroke-width:0.5;" width="254.4371" x="460.4" y="259.01"/><ellipse cx="555.6767" cy="275.01" fill="#ADD1B2" rx="11" ry="11" style="stroke:#181818;stroke-width:1;"/><path d="M555.1454,281.9319 Q553.3954,281.9319 552.2548,281.1975 Q551.1298,280.4475 550.5673,279.1038 Q550.0204,277.7444 550.0204,275.9475 Q550.0204,273.9163 550.6767,272.4631 Q551.3329,271.01 552.6142,270.2288 Q553.8954,269.4475 555.7704,269.4475 Q556.661,269.4475 557.3329,269.635 Q558.0048,269.8069 558.6923,270.1506 L557.8798,272.1663 Q557.2548,271.8538 556.7079,271.7288 Q556.1767,271.6038 555.6923,271.6038 Q554.5204,271.6038 553.8173,272.135 Q553.1142,272.6663 552.8173,273.6194 Q552.5204,274.5725 552.5204,275.8381 Q552.5204,277.8538 553.2392,278.8225 Q553.9579,279.7756 555.5517,279.7756 Q556.1454,279.7756 556.7704,279.6194 Q557.3954,279.4631 558.2235,279.0881 L558.2235,281.3069 Q557.4892,281.6194 556.6923,281.7756 Q555.911,281.9319 555.1454,281.9319 Z " fill="#000000"/><text fill="#000000" font-family="sans-serif" font-size="14" lengthAdjust="spacing" textLength="55.3838" x="576.1767" y="280.442">Random</text><line style="stroke:#181818;stroke-width:0.5;" x1="461.4" x2="713.8371" y1="291.01" y2="291.01"/><g data-visibility-modifier="PRIVATE_FIELD"><rect fill="none" height="6" style="stroke:#C82930;stroke-width:1;" width="6" x="468.4" y="303.044"/></g><text fill="#000000" font-family="sans-serif" font-size="14" lengthAdjust="spacing" textLength="37.5339" x="480.4" y="309.9759">pimpl</text><line style="stroke:#181818;stroke-width:0.5;" x1="461.4" x2="713.8371" y1="318.0779" y2="318.0779"/><g data-visibility-modifier="PUBLIC_METHOD"><ellipse cx="471.4" cy="333.1119" fill="#84BE84" rx="3" ry="3" style="stroke:#038048;stroke-width:1;"/></g><text fill="#000000" font-family="sans-serif" font-size="14" lengthAdjust="spacing" textLength="94.8916" x="480.4" y="337.0439">Random(seed)</text><g data-visibility-modifier="PUBLIC_METHOD"><ellipse cx="471.4" cy="352.1798" fill="#84BE84" rx="3" ry="3" style="stroke:#038048;stroke-width:1;"/></g><text fill="#000000" font-family="sans-serif" font-size="14" lengthAdjust="spacing" textLength="77.6577" x="480.4" y="356.1118">void seed(s)</text><g data-visibility-modifier="PUBLIC_METHOD"><ellipse cx="471.4" cy="371.2477" fill="#84BE84" rx="3" ry="3" style="stroke:#038048;stroke-width:1;"/></g><text fill="#000000" font-family="sans-serif" font-size="14" lengthAdjust="spacing" textLength="96.3056" x="480.4" y="375.1797">bool chance(p)</text><g data-visibility-modifier="PUBLIC_METHOD"><ellipse cx="471.4" cy="390.3156" fill="#84BE84" rx="3" ry="3" style="stroke:#038048;stroke-width:1;"/></g><text fill="#000000" font-family="sans-serif" font-size="14" lengthAdjust="spacing" textLength="142.9115" x="480.4" y="394.2476">int random(min, max)</text><g data-visibility-modifier="PUBLIC_METHOD"><ellipse cx="471.4" cy="409.3835" fill="#84BE84" rx="3" ry="3" style="stroke:#038048;stroke-width:1;"/></g><text fill="#000000" font-family="sans-serif" font-size="14" lengthAdjust="spacing" textLength="116.9695" x="480.4" y="413.3155">void shuffle(&amp;vec)</text><g data-visibility-modifier="PUBLIC_METHOD"><ellipse cx="471.4" cy="428.4515" fill="#84BE84" rx="3" ry="3" style="stroke:#038048;stroke-width:1;"/></g><text fill="#000000" font-family="sans-serif" font-size="14" lengthAdjust="spacing" textLength="228.4371" x="480.4" y="432.3834">vector&lt;int&gt; random_indices(count)</text></g><!--class RunParameters--><g class="entity" data-qualified-name="RunParameters" data-source-line="29" id="ent0007"><rect fill="#F1F1F1" height="200.5433" rx="2.5" ry="2.5" style="stroke:#181818;stroke-width:0.5;" width="257.1532" x="750.05" y="249.48"/><ellipse cx="823.1788" cy="265.48" fill="#F1F1F1" rx="11" ry="11" style="stroke:#181818;stroke-width:1;"/><path d="M822.8506,272.1519 Q821.9288,272.1519 821.0381,271.98 Q820.1475,271.7925 819.3663,271.4175 L819.3663,269.1675 Q820.3194,269.6519 821.1944,269.8863 Q822.085,270.105 822.9288,270.105 Q823.8038,270.105 824.3663,269.8081 Q824.9288,269.5113 824.9288,268.73 Q824.9288,268.1831 824.6319,267.8863 Q824.335,267.5738 823.7725,267.2925 Q823.21,267.0113 822.4288,266.605 Q821.6475,266.1831 820.9913,265.6988 Q820.3506,265.1988 819.9756,264.5269 Q819.6006,263.855 819.6006,262.9019 Q819.6006,261.2769 820.6944,260.48 Q821.8038,259.6675 823.585,259.6675 Q824.3038,259.6675 825.2881,259.8394 Q826.2725,259.9956 827.2256,260.4488 L826.4444,262.3706 Q825.6006,262.0113 824.9131,261.8706 Q824.2413,261.7144 823.7256,261.7144 Q822.8819,261.7144 822.4913,262.0581 Q822.1163,262.3863 822.1163,263.0269 Q822.1163,263.5113 822.3506,263.8238 Q822.6006,264.1206 823.0694,264.3706 Q823.5538,264.6206 824.2881,264.9956 Q825.2881,265.48 825.9913,265.9488 Q826.6944,266.4175 827.0694,267.0425 Q827.4444,267.6519 827.4444,268.5894 Q827.4444,269.7769 826.8663,270.5738 Q826.3038,271.355 825.2569,271.7613 Q824.2256,272.1519 822.8506,272.1519 Z " fill="#000000"/><text fill="#000000" font-family="sans-serif" font-size="14" lengthAdjust="spacing" textLength="102.3956" x="843.6788" y="270.912">RunParameters</text><line style="stroke:#181818;stroke-width:0.5;" x1="751.05" x2="1006.2032" y1="281.48" y2="281.48"/><g data-visibility-modifier="PUBLIC_FIELD"><ellipse cx="761.05" cy="296.514" fill="none" rx="3" ry="3" style="stroke:#038048;stroke-width:1;"/></g><text fill="#000000" font-family="sans-serif" font-size="14" lengthAdjust="spacing" textLength="52.0658" x="770.05" y="300.4459">int seed</text><g data-visibility-modifier="PUBLIC_FIELD"><ellipse cx="761.05" cy="315.5819" fill="none" rx="3" ry="3" style="stroke:#038048;stroke-width:1;"/></g><text fill="#000000" font-family="sans-serif" font-size="14" lengthAdjust="spacing" textLength="55.9298" x="770.05" y="319.5139">int steps</text><g data-visibility-modifier="PUBLIC_FIELD"><ellipse cx="761.05" cy="334.6498" fill="none" rx="3" ry="3" style="stroke:#038048;stroke-width:1;"/></g><text fill="#000000" font-family="sans-serif" font-size="14" lengthAdjust="spacing" textLength="78.7357" x="770.05" y="338.5818">Limits limits</text><g data-visibility-modifier="PUBLIC_FIELD"><ellipse cx="761.05" cy="353.7177" fill="none" rx="3" ry="3" style="stroke:#038048;stroke-width:1;"/></g><text fill="#000000" font-family="sans-serif" font-size="14" lengthAdjust="spacing" textLength="224.9512" x="770.05" y="357.6497">ReproductionProbabilities r_probs</text><g data-visibility-modifier="PUBLIC_FIELD"><ellipse cx="761.05" cy="372.7856" fill="none" rx="3" ry="3" style="stroke:#038048;stroke-width:1;"/></g><text fill="#000000" font-family="sans-serif" font-size="14" lengthAdjust="spacing" textLength="231.1532" x="770.05" y="376.7176">ReproductionParameters r_params</text><g data-visibility-modifier="PUBLIC_FIELD"><ellipse cx="761.05" cy="391.8535" fill="none" rx="3" ry="3" style="stroke:#038048;stroke-width:1;"/></g><text fill="#000000" font-family="sans-serif" font-size="14" lengthAdjust="spacing" textLength="188.5653" x="770.05" y="395.7855">GeneticProbabilities g_probs</text><g data-visibility-modifier="PUBLIC_FIELD"><ellipse cx="761.05" cy="410.9215" fill="none" rx="3" ry="3" style="stroke:#038048;stroke-width:1;"/></g><text fill="#000000" font-family="sans-serif" font-size="14" lengthAdjust="spacing" textLength="179.5633" x="770.05" y="414.8534">AlleleParamteres a_params</text><g data-visibility-modifier="PUBLIC_FIELD"><ellipse cx="761.05" cy="429.9894" fill="none" rx="3" ry="3" style="stroke:#038048;stroke-width:1;"/></g><text fill="#000000" font-family="sans-serif" font-size="14" lengthAdjust="spacing" textLength="189.8953" x="770.05" y="433.9214">EnergyParameters e_params</text><line style="stroke:#181818;stroke-width:0.5;" x1="751.05" x2="1006.2032" y1="442.0233" y2="442.0233"/></g><!--class Limits--><g class="entity" data-qualified-name="Limits" data-source-line="39" id="ent0008"><rect fill="#F1F1F1" height="105.2038" rx="2.5" ry="2.5" style="stroke:#181818;stroke-width:0.5;" width="95.2437" x="7" y="538.55"/><ellipse cx="32.7252" cy="554.55" fill="#F1F1F1" rx="11" ry="11" style="stroke:#181818;stroke-width:1;"/><path d="M32.3971,561.2219 Q31.4752,561.2219 30.5846,561.05 Q29.694,560.8625 28.9127,560.4875 L28.9127,558.2375 Q29.8659,558.7219 30.7409,558.9563 Q31.6315,559.175 32.4752,559.175 Q33.3502,559.175 33.9127,558.8781 Q34.4752,558.5813 34.4752,557.8 Q34.4752,557.2531 34.1784,556.9563 Q33.8815,556.6438 33.319,556.3625 Q32.7565,556.0813 31.9752,555.675 Q31.194,555.2531 30.5377,554.7688 Q29.8971,554.2688 29.5221,553.5969 Q29.1471,552.925 29.1471,551.9719 Q29.1471,550.3469 30.2409,549.55 Q31.3502,548.7375 33.1315,548.7375 Q33.8502,548.7375 34.8346,548.9094 Q35.819,549.0656 36.7721,549.5188 L35.9909,551.4406 Q35.1471,551.0813 34.4596,550.9406 Q33.7877,550.7844 33.2721,550.7844 Q32.4284,550.7844 32.0377,551.1281 Q31.6627,551.4563 31.6627,552.0969 Q31.6627,552.5813 31.8971,552.8938 Q32.1471,553.1906 32.6159,553.4406 Q33.1002,553.6906 33.8346,554.0656 Q34.8346,554.55 35.5377,555.0188 Q36.2409,555.4875 36.6159,556.1125 Q36.9909,556.7219 36.9909,557.6594 Q36.9909,558.8469 36.4127,559.6438 Q35.8502,560.425 34.8034,560.8313 Q33.7721,561.2219 32.3971,561.2219 Z " fill="#000000"/><text fill="#000000" font-family="sans-serif" font-size="14" lengthAdjust="spacing" textLength="39.4099" x="49.1086" y="559.982">Limits</text><line style="stroke:#181818;stroke-width:0.5;" x1="8" x2="101.2437" y1="570.55" y2="570.55"/><g data-visibility-modifier="PUBLIC_FIELD"><ellipse cx="18" cy="585.584" fill="none" rx="3" ry="3" style="stroke:#038048;stroke-width:1;"/></g><text fill="#000000" font-family="sans-serif" font-size="14" lengthAdjust="spacing" textLength="59.6398" x="27" y="589.5159">int v_min</text><g data-visibility-modifier="PUBLIC_FIELD"><ellipse cx="18" cy="604.6519" fill="none" rx="3" ry="3" style="stroke:#038048;stroke-width:1;"/></g><text fill="#000000" font-family="sans-serif" font-size="14" lengthAdjust="spacing" textLength="62.6358" x="27" y="608.5839">int v_max</text><g data-visibility-modifier="PUBLIC_FIELD"><ellipse cx="18" cy="623.7198" fill="none" rx="3" ry="3" style="stroke:#038048;stroke-width:1;"/></g><text fill="#000000" font-family="sans-serif" font-size="14" lengthAdjust="spacing" textLength="69.2437" x="27" y="627.6518">int m_limit</text><line style="stroke:#181818;stroke-width:0.5;" x1="8" x2="101.2437" y1="635.7538" y2="635.7538"/></g><!--class ReproductionProbabilities--><g class="entity" data-qualified-name="ReproductionProbabilities" data-source-line="45" id="ent0010"><rect fill="#F1F1F1" height="86.1358" rx="2.5" ry="2.5" style="stroke:#181818;stroke-width:0.5;" width="203.1354" x="137.05" y="548.09"/><ellipse cx="152.05" cy="564.09" fill="#F1F1F1" rx="11" ry="11" style="stroke:#181818;stroke-width:1;"/><path d="M151.7219,570.7619 Q150.8,570.7619 149.9094,570.59 Q149.0188,570.4025 148.2375,570.0275 L148.2375,567.7775 Q149.1906,568.2619 150.0656,568.4963 Q150.9563,568.715 151.8,568.715 Q152.675,568.715 153.2375,568.4181 Q153.8,568.1213 153.8,567.34 Q153.8,566.7931 153.5031,566.4963 Q153.2063,566.1838 152.6438,565.9025 Q152.0813,565.6213 151.3,565.215 Q150.5188,564.7931 149.8625,564.3088 Q149.2219,563.8088 148.8469,563.1369 Q148.4719,562.465 148.4719,561.5119 Q148.4719,559.8869 149.5656,559.09 Q150.675,558.2775 152.4563,558.2775 Q153.175,558.2775 154.1594,558.4494 Q155.1438,558.6056 156.0969,559.0588 L155.3156,560.9806 Q154.4719,560.6213 153.7844,560.4806 Q153.1125,560.3244 152.5969,560.3244 Q151.7531,560.3244 151.3625,560.6681 Q150.9875,560.9963 150.9875,561.6369 Q150.9875,562.1213 151.2219,562.4338 Q151.4719,562.7306 151.9406,562.9806 Q152.425,563.2306 153.1594,563.6056 Q154.1594,564.09 154.8625,564.5588 Q155.5656,565.0275 155.9406,565.6525 Q156.3156,566.2619 156.3156,567.1994 Q156.3156,568.3869 155.7375,569.1838 Q155.175,569.965 154.1281,570.3713 Q153.0969,570.7619 151.7219,570.7619 Z " fill="#000000"/><text fill="#000000" font-family="sans-serif" font-size="14" lengthAdjust="spacing" textLength="171.1354" x="166.05" y="569.522">ReproductionProbabilities</text><line style="stroke:#181818;stroke-width:0.5;" x1="138.05" x2="339.1854" y1="580.09" y2="580.09"/><g data-visibility-modifier="PUBLIC_FIELD"><ellipse cx="148.05" cy="595.124" fill="none" rx="3" ry="3" style="stroke:#038048;stroke-width:1;"/></g><text fill="#000000" font-family="sans-serif" font-size="14" lengthAdjust="spacing" textLength="132.0895" x="157.05" y="599.0559">double p_encounter</text><g data-visibility-modifier="PUBLIC_FIELD"><ellipse cx="148.05" cy="614.1919" fill="none" rx="3" ry="3" style="stroke:#038048;stroke-width:1;"/></g><text fill="#000000" font-family="sans-serif" font-size="14" lengthAdjust="spacing" textLength="112.6996" x="157.05" y="618.1239">double p_change</text><line style="stroke:#181818;stroke-width:0.5;" x1="138.05" x2="339.1854" y1="626.2258" y2="626.2258"/></g><!--class ReproductionParameters--><g class="entity" data-qualified-name="ReproductionParameters" data-source-line="50" id="ent0012"><rect fill="#F1F1F1" height="105.2038" rx="2.5" ry="2.5" style="stroke:#181818;stroke-width:0.5;" width="197.6194" x="374.81" y="538.55"/><ellipse cx="389.81" cy="554.55" fill="#F1F1F1" rx="11" ry="11" style="stroke:#181818;stroke-width:1;"/><path d="M389.4819,561.2219 Q388.56,561.2219 387.6694,561.05 Q386.7788,560.8625 385.9975,560.4875 L385.9975,558.2375 Q386.9506,558.7219 387.8256,558.9563 Q388.7163,559.175 389.56,559.175 Q390.435,559.175 390.9975,558.8781 Q391.56,558.5813 391.56,557.8 Q391.56,557.2531 391.2631,556.9563 Q390.9663,556.6438 390.4038,556.3625 Q389.8413,556.0813 389.06,555.675 Q388.2788,555.2531 387.6225,554.7688 Q386.9819,554.2688 386.6069,553.5969 Q386.2319,552.925 386.2319,551.9719 Q386.2319,550.3469 387.3256,549.55 Q388.435,548.7375 390.2163,548.7375 Q390.935,548.7375 391.9194,548.9094 Q392.9038,549.0656 393.8569,549.5188 L393.0756,551.4406 Q392.2319,551.0813 391.5444,550.9406 Q390.8725,550.7844 390.3569,550.7844 Q389.5131,550.7844 389.1225,551.1281 Q388.7475,551.4563 388.7475,552.0969 Q388.7475,552.5813 388.9819,552.8938 Q389.2319,553.1906 389.7006,553.4406 Q390.185,553.6906 390.9194,554.0656 Q391.9194,554.55 392.6225,555.0188 Q393.3256,555.4875 393.7006,556.1125 Q394.0756,556.7219 394.0756,557.6594 Q394.0756,558.8469 393.4975,559.6438 Q392.935,560.425 391.8881,560.8313 Q390.8569,561.2219 389.4819,561.2219 Z " fill="#000000"/><text fill="#000000" font-family="sans-serif" font-size="14" lengthAdjust="spacing" textLength="165.6194" x="403.81" y="559.982">ReproductionParameters</text><line style="stroke:#181818;stroke-width:0.5;" x1="375.81" x2="571.4294" y1="570.55" y2="570.55"/><g data-visibility-modifier="PUBLIC_FIELD"><ellipse cx="385.81" cy="585.584" fill="none" rx="3" ry="3" style="stroke:#038048;stroke-width:1;"/></g><text fill="#000000" font-family="sans-serif" font-size="14" lengthAdjust="spacing" textLength="61.1938" x="394.81" y="589.5159">int m_init</text><g data-visibility-modifier="PUBLIC_FIELD"><ellipse cx="385.81" cy="604.6519" fill="none" rx="3" ry="3" style="stroke:#038048;stroke-width:1;"/></g><text fill="#000000" font-family="sans-serif" font-size="14" lengthAdjust="spacing" textLength="75.8657" x="394.81" y="608.5839">int m_const</text><g data-visibility-modifier="PUBLIC_FIELD"><ellipse cx="385.81" cy="623.7198" fill="none" rx="3" ry="3" style="stroke:#038048;stroke-width:1;"/></g><text fill="#000000" font-family="sans-serif" font-size="14" lengthAdjust="spacing" textLength="75.5577" x="394.81" y="627.6518">int m_slope</text><line style="stroke:#181818;stroke-width:0.5;" x1="375.81" x2="571.4294" y1="635.7538" y2="635.7538"/></g><!--class GeneticProbabilities--><g class="entity" data-qualified-name="GeneticProbabilities" data-source-line="56" id="ent0014"><rect fill="#F1F1F1" height="86.1358" rx="2.5" ry="2.5" style="stroke:#181818;stroke-width:0.5;" width="163.9215" x="607.66" y="548.09"/><ellipse cx="622.66" cy="564.09" fill="#F1F1F1" rx="11" ry="11" style="stroke:#181818;stroke-width:1;"/><path d="M622.3319,570.7619 Q621.41,570.7619 620.5194,570.59 Q619.6288,570.4025 618.8475,570.0275 L618.8475,567.7775 Q619.8006,568.2619 620.6756,568.4963 Q621.5663,568.715 622.41,568.715 Q623.285,568.715 623.8475,568.4181 Q624.41,568.1213 624.41,567.34 Q624.41,566.7931 624.1131,566.4963 Q623.8163,566.1838 623.2538,565.9025 Q622.6913,565.6213 621.91,565.215 Q621.1288,564.7931 620.4725,564.3088 Q619.8319,563.8088 619.4569,563.1369 Q619.0819,562.465 619.0819,561.5119 Q619.0819,559.8869 620.1756,559.09 Q621.285,558.2775 623.0663,558.2775 Q623.785,558.2775 624.7694,558.4494 Q625.7538,558.6056 626.7069,559.0588 L625.9256,560.9806 Q625.0819,560.6213 624.3944,560.4806 Q623.7225,560.3244 623.2069,560.3244 Q622.3631,560.3244 621.9725,560.6681 Q621.5975,560.9963 621.5975,561.6369 Q621.5975,562.1213 621.8319,562.4338 Q622.0819,562.7306 622.5506,562.9806 Q623.035,563.2306 623.7694,563.6056 Q624.7694,564.09 625.4725,564.5588 Q626.1756,565.0275 626.5506,565.6525 Q626.9256,566.2619 626.9256,567.1994 Q626.9256,568.3869 626.3475,569.1838 Q625.785,569.965 624.7381,570.3713 Q623.7069,570.7619 622.3319,570.7619 Z " fill="#000000"/><text fill="#000000" font-family="sans-serif" font-size="14" lengthAdjust="spacing" textLength="131.9215" x="636.66" y="569.522">GeneticProbabilities</text><line style="stroke:#181818;stroke-width:0.5;" x1="608.66" x2="770.5815" y1="580.09" y2="580.09"/><g data-visibility-modifier="PUBLIC_FIELD"><ellipse cx="618.66" cy="595.124" fill="none" rx="3" ry="3" style="stroke:#038048;stroke-width:1;"/></g><text fill="#000000" font-family="sans-serif" font-size="14" lengthAdjust="spacing" textLength="119.5735" x="627.66" y="599.0559">double p_crossing</text><g data-visibility-modifier="PUBLIC_FIELD"><ellipse cx="618.66" cy="614.1919" fill="none" rx="3" ry="3" style="stroke:#038048;stroke-width:1;"/></g><text fill="#000000" font-family="sans-serif" font-size="14" lengthAdjust="spacing" textLength="124.7535" x="627.66" y="618.1239">double p_mutation</text><line style="stroke:#181818;stroke-width:0.5;" x1="608.66" x2="770.5815" y1="626.2258" y2="626.2258"/></g><!--class AlleleParamteres--><g class="entity" data-qualified-name="AlleleParamteres" data-source-line="61" id="ent0016"><rect fill="#F1F1F1" height="105.2038" rx="2.5" ry="2.5" style="stroke:#181818;stroke-width:0.5;" width="143.9576" x="806.64" y="538.55"/><ellipse cx="821.64" cy="554.55" fill="#F1F1F1" rx="11" ry="11" style="stroke:#181818;stroke-width:1;"/><path d="M821.3119,561.2219 Q820.39,561.2219 819.4994,561.05 Q818.6088,560.8625 817.8275,560.4875 L817.8275,558.2375 Q818.7806,558.7219 819.6556,558.9563 Q820.5463,559.175 821.39,559.175 Q822.265,559.175 822.8275,558.8781 Q823.39,558.5813 823.39,557.8 Q823.39,557.2531 823.0931,556.9563 Q822.7963,556.6438 822.2338,556.3625 Q821.6713,556.0813 820.89,555.675 Q820.1088,555.2531 819.4525,554.7688 Q818.8119,554.2688 818.4369,553.5969 Q818.0619,552.925 818.0619,551.9719 Q818.0619,550.3469 819.1556,549.55 Q820.265,548.7375 822.0463,548.7375 Q822.765,548.7375 823.7494,548.9094 Q824.7338,549.0656 825.6869,549.5188 L824.9056,551.4406 Q824.0619,551.0813 823.3744,550.9406 Q822.7025,550.7844 822.1869,550.7844 Q821.3431,550.7844 820.9525,551.1281 Q820.5775,551.4563 820.5775,552.0969 Q820.5775,552.5813 820.8119,552.8938 Q821.0619,553.1906 821.5306,553.4406 Q822.015,553.6906 822.7494,554.0656 Q823.7494,554.55 824.4525,555.0188 Q825.1556,555.4875 825.5306,556.1125 Q825.9056,556.7219 825.9056,557.6594 Q825.9056,558.8469 825.3275,559.6438 Q824.765,560.425 823.7181,560.8313 Q822.6869,561.2219 821.3119,561.2219 Z " fill="#000000"/><text fill="#000000" font-family="sans-serif" font-size="14" lengthAdjust="spacing" textLength="111.9576" x="835.64" y="559.982">AlleleParamteres</text><line style="stroke:#181818;stroke-width:0.5;" x1="807.64" x2="949.5976" y1="570.55" y2="570.55"/><g data-visibility-modifier="PUBLIC_FIELD"><ellipse cx="817.64" cy="585.584" fill="none" rx="3" ry="3" style="stroke:#038048;stroke-width:1;"/></g><text fill="#000000" font-family="sans-serif" font-size="14" lengthAdjust="spacing" textLength="56.7558" x="826.64" y="589.5159">int n_init</text><g data-visibility-modifier="PUBLIC_FIELD"><ellipse cx="817.64" cy="604.6519" fill="none" rx="3" ry="3" style="stroke:#038048;stroke-width:1;"/></g><text fill="#000000" font-family="sans-serif" font-size="14" lengthAdjust="spacing" textLength="94.7236" x="826.64" y="608.5839">int v_mutation</text><g data-visibility-modifier="PUBLIC_FIELD"><ellipse cx="817.64" cy="623.7198" fill="none" rx="3" ry="3" style="stroke:#038048;stroke-width:1;"/></g><text fill="#000000" font-family="sans-serif" font-size="14" lengthAdjust="spacing" textLength="80.1497" x="826.64" y="627.6518">int v_stretch</text><line style="stroke:#181818;stroke-width:0.5;" x1="807.64" x2="949.5976" y1="635.7538" y2="635.7538"/></g><!--class EnergyParameters--><g class="entity" data-qualified-name="EnergyParameters" data-source-line="67" id="ent0018"><rect fill="#F1F1F1" height="124.2717" rx="2.5" ry="2.5" style="stroke:#181818;stroke-width:0.5;" width="176.2894" x="985.48" y="529.02"/><ellipse cx="1010.3988" cy="545.02" fill="#F1F1F1" rx="11" ry="11" style="stroke:#181818;stroke-width:1;"/><path d="M1010.0707,551.6919 Q1009.1488,551.6919 1008.2582,551.52 Q1007.3676,551.3325 1006.5863,550.9575 L1006.5863,548.7075 Q1007.5395,549.1919 1008.4145,549.4263 Q1009.3051,549.645 1010.1488,549.645 Q1011.0238,549.645 1011.5863,549.3481 Q1012.1488,549.0513 1012.1488,548.27 Q1012.1488,547.7231 1011.852,547.4263 Q1011.5551,547.1138 1010.9926,546.8325 Q1010.4301,546.5513 1009.6488,546.145 Q1008.8676,545.7231 1008.2113,545.2388 Q1007.5707,544.7388 1007.1957,544.0669 Q1006.8207,543.395 1006.8207,542.4419 Q1006.8207,540.8169 1007.9145,540.02 Q1009.0238,539.2075 1010.8051,539.2075 Q1011.5238,539.2075 1012.5082,539.3794 Q1013.4926,539.5356 1014.4457,539.9888 L1013.6645,541.9106 Q1012.8207,541.5513 1012.1332,541.4106 Q1011.4613,541.2544 1010.9457,541.2544 Q1010.102,541.2544 1009.7113,541.5981 Q1009.3363,541.9263 1009.3363,542.5669 Q1009.3363,543.0513 1009.5707,543.3638 Q1009.8207,543.6606 1010.2895,543.9106 Q1010.7738,544.1606 1011.5082,544.5356 Q1012.5082,545.02 1013.2113,545.4888 Q1013.9145,545.9575 1014.2895,546.5825 Q1014.6645,547.1919 1014.6645,548.1294 Q1014.6645,549.3169 1014.0863,550.1138 Q1013.5238,550.895 1012.477,551.3013 Q1011.4457,551.6919 1010.0707,551.6919 Z " fill="#000000"/><text fill="#000000" font-family="sans-serif" font-size="14" lengthAdjust="spacing" textLength="122.2475" x="1026.603" y="550.452">EnergyParameters</text><line style="stroke:#181818;stroke-width:0.5;" x1="986.48" x2="1160.7694" y1="561.02" y2="561.02"/><g data-visibility-modifier="PUBLIC_FIELD"><ellipse cx="996.48" cy="576.054" fill="none" rx="3" ry="3" style="stroke:#038048;stroke-width:1;"/></g><text fill="#000000" font-family="sans-serif" font-size="14" lengthAdjust="spacing" textLength="118.7195" x="1005.48" y="579.9859">double e_increase</text><g data-visibility-modifier="PUBLIC_FIELD"><ellipse cx="996.48" cy="595.1219" fill="none" rx="3" ry="3" style="stroke:#038048;stroke-width:1;"/></g><text fill="#000000" font-family="sans-serif" font-size="14" lengthAdjust="spacing" textLength="150.2894" x="1005.48" y="599.0539">double e_consumption</text><g data-visibility-modifier="PUBLIC_FIELD"><ellipse cx="996.48" cy="614.1898" fill="none" rx="3" ry="3" style="stroke:#038048;stroke-width:1;"/></g><text fill="#000000" font-family="sans-serif" font-size="14" lengthAdjust="spacing" textLength="104.1456" x="1005.48" y="618.1218">double e_intake</text><g data-visibility-modifier="PUBLIC_FIELD"><ellipse cx="996.48" cy="633.2577" fill="none" rx="3" ry="3" style="stroke:#038048;stroke-width:1;"/></g><text fill="#000000" font-family="sans-serif" font-size="14" lengthAdjust="spacing" textLength="120.0775" x="1005.48" y="637.1897">double e_discount</text><line style="stroke:#181818;stroke-width:0.5;" x1="986.48" x2="1160.7694" y1="645.2917" y2="645.2917"/></g><!--class State--><g class="entity" data-qualified-name="State" data-source-line="76" id="ent0021"><rect fill="#F1F1F1" height="105.2038" rx="2.5" ry="2.5" style="stroke:#181818;stroke-width:0.5;" width="138.8676" x="1197.19" y="538.55"/><ellipse cx="1245.6018" cy="554.55" fill="#F1F1F1" rx="11" ry="11" style="stroke:#181818;stroke-width:1;"/><path d="M1245.2737,561.2219 Q1244.3518,561.2219 1243.4612,561.05 Q1242.5706,560.8625 1241.7893,560.4875 L1241.7893,558.2375 Q1242.7425,558.7219 1243.6175,558.9563 Q1244.5081,559.175 1245.3518,559.175 Q1246.2268,559.175 1246.7893,558.8781 Q1247.3518,558.5813 1247.3518,557.8 Q1247.3518,557.2531 1247.055,556.9563 Q1246.7581,556.6438 1246.1956,556.3625 Q1245.6331,556.0813 1244.8518,555.675 Q1244.0706,555.2531 1243.4143,554.7688 Q1242.7737,554.2688 1242.3987,553.5969 Q1242.0237,552.925 1242.0237,551.9719 Q1242.0237,550.3469 1243.1175,549.55 Q1244.2268,548.7375 1246.0081,548.7375 Q1246.7268,548.7375 1247.7112,548.9094 Q1248.6956,549.0656 1249.6487,549.5188 L1248.8675,551.4406 Q1248.0237,551.0813 1247.3362,550.9406 Q1246.6643,550.7844 1246.1487,550.7844 Q1245.305,550.7844 1244.9143,551.1281 Q1244.5393,551.4563 1244.5393,552.0969 Q1244.5393,552.5813 1244.7737,552.8938 Q1245.0237,553.1906 1245.4925,553.4406 Q1245.9768,553.6906 1246.7112,554.0656 Q1247.7112,554.55 1248.4143,555.0188 Q1249.1175,555.4875 1249.4925,556.1125 Q1249.8675,556.7219 1249.8675,557.6594 Q1249.8675,558.8469 1249.2893,559.6438 Q1248.7268,560.425 1247.68,560.8313 Q1246.6487,561.2219 1245.2737,561.2219 Z " fill="#000000"/><text fill="#000000" font-family="sans-serif" font-size="14" lengthAdjust="spacing" textLength="33.5439" x="1266.1018" y="559.982">State</text><line style="stroke:#181818;stroke-width:0.5;" x1="1198.19" x2="1335.0576" y1="570.55" y2="570.55"/><g data-visibility-modifier="PUBLIC_FIELD"><ellipse cx="1208.19" cy="585.584" fill="none" rx="3" ry="3" style="stroke:#038048;stroke-width:1;"/></g><text fill="#000000" font-family="sans-serif" font-size="14" lengthAdjust="spacing" textLength="102.1296" x="1217.19" y="589.5159">int entity_count</text><g data-visibility-modifier="PUBLIC_FIELD"><ellipse cx="1208.19" cy="604.6519" fill="none" rx="3" ry="3" style="stroke:#038048;stroke-width:1;"/></g><text fill="#000000" font-family="sans-serif" font-size="14" lengthAdjust="spacing" textLength="99.2036" x="1217.19" y="608.5839">int allele_count</text><g data-visibility-modifier="PUBLIC_FIELD"><ellipse cx="1208.19" cy="623.7198" fill="none" rx="3" ry="3" style="stroke:#038048;stroke-width:1;"/></g><text fill="#000000" font-family="sans-serif" font-size="14" lengthAdjust="spacing" textLength="112.8676" x="1217.19" y="627.6518">int species_count</text><line style="stroke:#181818;stroke-width:0.5;" x1="1198.19" x2="1335.0576" y1="635.7538" y2="635.7538"/></g><!--class vector<State>--><g class="entity" data-qualified-name="vector.State." data-source-line="81" id="ent0022"><rect fill="#F1F1F1" height="48" rx="2.5" ry="2.5" style="stroke:#181818;stroke-width:0.5;" width="122.5937" x="1371.33" y="567.15"/><ellipse cx="1386.33" cy="583.15" fill="#ADD1B2" rx="11" ry="11" style="stroke:#181818;stroke-width:1;"/><path d="M1385.7988,590.0719 Q1384.0488,590.0719 1382.9081,589.3375 Q1381.7831,588.5875 1381.2206,587.2438 Q1380.6738,585.8844 1380.6738,584.0875 Q1380.6738,582.0563 1381.33,580.6031 Q1381.9863,579.15 1383.2675,578.3688 Q1384.5488,577.5875 1386.4238,577.5875 Q1387.3144,577.5875 1387.9863,577.775 Q1388.6581,577.9469 1389.3456,578.2906 L1388.5331,580.3063 Q1387.9081,579.9938 1387.3613,579.8688 Q1386.83,579.7438 1386.3456,579.7438 Q1385.1738,579.7438 1384.4706,580.275 Q1383.7675,580.8063 1383.4706,581.7594 Q1383.1738,582.7125 1383.1738,583.9781 Q1383.1738,585.9938 1383.8925,586.9625 Q1384.6113,587.9156 1386.205,587.9156 Q1386.7988,587.9156 1387.4238,587.7594 Q1388.0488,587.6031 1388.8769,587.2281 L1388.8769,589.4469 Q1388.1425,589.7594 1387.3456,589.9156 Q1386.5644,590.0719 1385.7988,590.0719 Z " fill="#000000"/><text fill="#000000" font-family="sans-serif" font-size="14" lengthAdjust="spacing" textLength="90.5937" x="1400.33" y="588.582">vector&lt;State&gt;</text><line style="stroke:#181818;stroke-width:0.5;" x1="1372.33" x2="1492.9237" y1="599.15" y2="599.15"/><line style="stroke:#181818;stroke-width:0.5;" x1="1372.33" x2="1492.9237" y1="607.15" y2="607.15"/></g><!--class RunStates--><g class="entity" data-qualified-name="RunStates" data-source-line="82" id="ent0023"><rect fill="#F1F1F1" height="48" rx="2.5" ry="2.5" style="stroke:#181818;stroke-width:0.5;" width="98.2617" x="1315.49" y="325.75"/><ellipse cx="1330.49" cy="341.75" fill="#ADD1B2" rx="11" ry="11" style="stroke:#181818;stroke-width:1;"/><path d="M1329.9588,348.6719 Q1328.2088,348.6719 1327.0681,347.9375 Q1325.9431,347.1875 1325.3806,345.8438 Q1324.8338,344.4844 1324.8338,342.6875 Q1324.8338,340.6563 1325.49,339.2031 Q1326.1463,337.75 1327.4275,336.9688 Q1328.7088,336.1875 1330.5838,336.1875 Q1331.4744,336.1875 1332.1463,336.375 Q1332.8181,336.5469 1333.5056,336.8906 L1332.6931,338.9063 Q1332.0681,338.5938 1331.5213,338.4688 Q1330.99,338.3438 1330.5056,338.3438 Q1329.3338,338.3438 1328.6306,338.875 Q1327.9275,339.4063 1327.6306,340.3594 Q1327.3338,341.3125 1327.3338,342.5781 Q1327.3338,344.5938 1328.0525,345.5625 Q1328.7713,346.5156 1330.365,346.5156 Q1330.9588,346.5156 1331.5838,346.3594 Q1332.2088,346.2031 1333.0369,345.8281 L1333.0369,348.0469 Q1332.3025,348.3594 1331.5056,348.5156 Q1330.7244,348.6719 1329.9588,348.6719 Z " fill="#000000"/><text fill="#000000" font-family="sans-serif" font-size="14" lengthAdjust="spacing" textLength="66.2617" x="1344.49" y="347.182">RunStates</text><line style="stroke:#181818;stroke-width:0.5;" x1="1316.49" x2="1412.7517" y1="357.75" y2="357.75"/><line style="stroke:#181818;stroke-width:0.5;" x1="1316.49" x2="1412.7517" y1="365.75" y2="365.75"/></g><!--class ISimilarity--><g class="entity" data-qualified-name="ISimilarity" data-source-line="87" id="ent0027"><rect fill="#F1F1F1" height="86.1358" rx="2.5" ry="2.5" style="stroke:#181818;stroke-width:0.5;" width="265.3711" x="1685.94" y="548.09"/><ellipse cx="1782.8687" cy="564.09" fill="#B4A7E5" rx="11" ry="11" style="stroke:#181818;stroke-width:1;"/><path d="M1778.8999,570.59 L1778.8999,568.8869 L1781.2593,568.6213 L1781.2593,560.4181 L1778.8999,560.1525 L1778.8999,558.4494 L1786.0405,558.4494 L1786.0405,560.1525 L1783.6187,560.4181 L1783.6187,568.6213 L1786.0405,568.8869 L1786.0405,570.59 L1778.8999,570.59 Z " fill="#000000"/><text fill="#000000" font-family="sans-serif" font-size="14" font-style="italic" lengthAdjust="spacing" textLength="63.0137" x="1803.3687" y="569.522">ISimilarity</text><line style="stroke:#181818;stroke-width:0.5;" x1="1686.94" x2="1950.3111" y1="580.09" y2="580.09"/><line style="stroke:#181818;stroke-width:0.5;" x1="1686.94" x2="1950.3111" y1="588.09" y2="588.09"/><g data-visibility-modifier="PUBLIC_METHOD"><ellipse cx="1696.94" cy="603.124" fill="#84BE84" rx="3" ry="3" style="stroke:#038048;stroke-width:1;"/></g><text fill="#000000" font-family="sans-serif" font-size="14" lengthAdjust="spacing" textLength="220.9052" x="1705.94" y="607.0559">bool compatible(limits, a, b) const</text><g data-visibility-modifier="PUBLIC_METHOD"><ellipse cx="1696.94" cy="622.1919" fill="#84BE84" rx="3" ry="3" style="stroke:#038048;stroke-width:1;"/></g><text fill="#000000" font-family="sans-serif" font-size="14" lengthAdjust="spacing" textLength="239.3711" x="1705.94" y="626.1239">int offspring_count(limits, a, b) const</text></g><!--class ISelection--><g class="entity" data-qualified-name="ISelection" data-source-line="91" id="ent0028"><rect fill="#F1F1F1" height="67.0679" rx="2.5" ry="2.5" style="stroke:#181818;stroke-width:0.5;" width="406.1826" x="1519.53" y="316.21"/><ellipse cx="1688.4814" cy="332.21" fill="#B4A7E5" rx="11" ry="11" style="stroke:#181818;stroke-width:1;"/><path d="M1684.5127,338.71 L1684.5127,337.0069 L1686.8721,336.7413 L1686.8721,328.5381 L1684.5127,328.2725 L1684.5127,326.5694 L1691.6533,326.5694 L1691.6533,328.2725 L1689.2314,328.5381 L1689.2314,336.7413 L1691.6533,337.0069 L1691.6533,338.71 L1684.5127,338.71 Z " fill="#000000"/><text fill="#000000" font-family="sans-serif" font-size="14" font-style="italic" lengthAdjust="spacing" textLength="59.7798" x="1708.9814" y="337.642">ISelection</text><line style="stroke:#181818;stroke-width:0.5;" x1="1520.53" x2="1924.7126" y1="348.21" y2="348.21"/><line style="stroke:#181818;stroke-width:0.5;" x1="1520.53" x2="1924.7126" y1="356.21" y2="356.21"/><g data-visibility-modifier="PUBLIC_METHOD"><ellipse cx="1530.53" cy="371.244" fill="#84BE84" rx="3" ry="3" style="stroke:#038048;stroke-width:1;"/></g><text fill="#000000" font-family="sans-serif" font-size="14" lengthAdjust="spacing" textLength="380.1826" x="1539.53" y="375.1759">int? select(&amp;rng, limits, similarity, entity, population) const</text></g><!--class IReproduction--><g class="entity" data-qualified-name="IReproduction" data-source-line="97" id="ent0030"><rect fill="#F1F1F1" height="67.0679" rx="2.5" ry="2.5" style="stroke:#181818;stroke-width:0.5;" width="249.9291" x="2363.66" y="316.21"/><ellipse cx="2440.4217" cy="332.21" fill="#B4A7E5" rx="11" ry="11" style="stroke:#181818;stroke-width:1;"/><path d="M2436.453,338.71 L2436.453,337.0069 L2438.8124,336.7413 L2438.8124,328.5381 L2436.453,328.2725 L2436.453,326.5694 L2443.5936,326.5694 L2443.5936,328.2725 L2441.1717,328.5381 L2441.1717,336.7413 L2443.5936,337.0069 L2443.5936,338.71 L2436.453,338.71 Z " fill="#000000"/><text fill="#000000" font-family="sans-serif" font-size="14" font-style="italic" lengthAdjust="spacing" textLength="87.9057" x="2460.9217" y="337.642">IReproduction</text><line style="stroke:#181818;stroke-width:0.5;" x1="2364.66" x2="2612.5891" y1="348.21" y2="348.21"/><line style="stroke:#181818;stroke-width:0.5;" x1="2364.66" x2="2612.5891" y1="356.21" y2="356.21"/><g data-visibility-modifier="PUBLIC_METHOD"><ellipse cx="2374.66" cy="371.244" fill="#84BE84" rx="3" ry="3" style="stroke:#038048;stroke-width:1;"/></g><text fill="#000000" font-family="sans-serif" font-size="14" lengthAdjust="spacing" textLength="223.9291" x="2383.66" y="375.1759">Entity reproduce(a, b, limits) const</text></g><!--class IValidator--><g class="entity" data-qualified-name="IValidator" data-source-line="100" id="ent0031"><rect fill="#F1F1F1" height="67.0679" rx="2.5" ry="2.5" style="stroke:#181818;stroke-width:0.5;" width="263.4531" x="2648.9" y="316.21"/><ellipse cx="2745.5767" cy="332.21" fill="#B4A7E5" rx="11" ry="11" style="stroke:#181818;stroke-width:1;"/><path d="M2741.6079,338.71 L2741.6079,337.0069 L2743.9673,336.7413 L2743.9673,328.5381 L2741.6079,328.2725 L2741.6079,326.5694 L2748.7485,326.5694 L2748.7485,328.2725 L2746.3267,328.5381 L2746.3267,336.7413 L2748.7485,337.0069 L2748.7485,338.71 L2741.6079,338.71 Z " fill="#000000"/><text fill="#000000" font-family="sans-serif" font-size="14" font-style="italic" lengthAdjust="spacing" textLength="61.5997" x="2766.0767" y="337.642">IValidator</text><line style="stroke:#181818;stroke-width:0.5;" x1="2649.9" x2="2911.3531" y1="348.21" y2="348.21"/><line style="stroke:#181818;stroke-width:0.5;" x1="2649.9" x2="2911.3531" y1="356.21" y2="356.21"/><g data-visibility-modifier="PUBLIC_METHOD"><ellipse cx="2659.9" cy="371.244" fill="#84BE84" rx="3" ry="3" style="stroke:#038048;stroke-width:1;"/></g><text fill="#000000" font-family="sans-serif" font-size="14" lengthAdjust="spacing" textLength="237.4531" x="2668.9" y="375.1759">bool validate(limits, genotype) const</text></g><!--class IAlleleAdder--><g class="entity" data-qualified-name="IAlleleAdder" data-source-line="103" id="ent0032"><rect fill="#F1F1F1" height="67.0679" rx="2.5" ry="2.5" style="stroke:#181818;stroke-width:0.5;" width="384.4826" x="2947.38" y="316.21"/><ellipse cx="3098.4465" cy="332.21" fill="#B4A7E5" rx="11" ry="11" style="stroke:#181818;stroke-width:1;"/><path d="M3094.4777,338.71 L3094.4777,337.0069 L3096.8371,336.7413 L3096.8371,328.5381 L3094.4777,328.2725 L3094.4777,326.5694 L3101.6183,326.5694 L3101.6183,328.2725 L3099.1965,328.5381 L3099.1965,336.7413 L3101.6183,337.0069 L3101.6183,338.71 L3094.4777,338.71 Z " fill="#000000"/><text fill="#000000" font-family="sans-serif" font-size="14" font-style="italic" lengthAdjust="spacing" textLength="73.8497" x="3118.9465" y="337.642">IAlleleAdder</text><line style="stroke:#181818;stroke-width:0.5;" x1="2948.38" x2="3330.8626" y1="348.21" y2="348.21"/><line style="stroke:#181818;stroke-width:0.5;" x1="2948.38" x2="3330.8626" y1="356.21" y2="356.21"/><g data-visibility-modifier="PUBLIC_METHOD"><ellipse cx="2958.38" cy="371.244" fill="#84BE84" rx="3" ry="3" style="stroke:#038048;stroke-width:1;"/></g><text fill="#000000" font-family="sans-serif" font-size="14" lengthAdjust="spacing" textLength="358.4826" x="2967.38" y="375.1759">void add_allele(&amp;rng, limits, params, &amp;genotype) const</text></g><!--class ISpeciesCounter--><g class="entity" data-qualified-name="ISpeciesCounter" data-source-line="107" id="ent0033"><rect fill="#F1F1F1" height="67.0679" rx="2.5" ry="2.5" style="stroke:#181818;stroke-width:0.5;" width="368.6488" x="1960.3" y="316.21"/><ellipse cx="2090.7726" cy="332.21" fill="#B4A7E5" rx="11" ry="11" style="stroke:#181818;stroke-width:1;"/><path d="M2086.8038,338.71 L2086.8038,337.0069 L2089.1632,336.7413 L2089.1632,328.5381 L2086.8038,328.2725 L2086.8038,326.5694 L2093.9444,326.5694 L2093.9444,328.2725 L2091.5226,328.5381 L2091.5226,336.7413 L2093.9444,337.0069 L2093.9444,338.71 L2086.8038,338.71 Z " fill="#000000"/><text fill="#000000" font-family="sans-serif" font-size="14" font-style="italic" lengthAdjust="spacing" textLength="99.2036" x="2111.2726" y="337.642">ISpeciesCounter</text><line style="stroke:#181818;stroke-width:0.5;" x1="1961.3" x2="2327.9488" y1="348.21" y2="348.21"/><line style="stroke:#181818;stroke-width:0.5;" x1="1961.3" x2="2327.9488" y1="356.21" y2="356.21"/><g data-visibility-modifier="PUBLIC_METHOD"><ellipse cx="1971.3" cy="371.244" fill="#84BE84" rx="3" ry="3" style="stroke:#038048;stroke-width:1;"/></g><text fill="#000000" font-family="sans-serif" font-size="14" lengthAdjust="spacing" textLength="342.6488" x="1980.3" y="375.1759">int count_species(limits, similarity, population) const</text></g><!--class GeneticReproduction--><g class="entity" data-qualified-name="GeneticReproduction" data-source-line="118" id="ent0040"><rect fill="#F1F1F1" height="86.1358" rx="2.5" ry="2.5" style="stroke:#181818;stroke-width:0.5;" width="203.0434" x="2516.1" y="548.09"/><ellipse cx="2545.4037" cy="564.09" fill="#ADD1B2" rx="11" ry="11" style="stroke:#181818;stroke-width:1;"/><path d="M2544.8724,571.0119 Q2543.1224,571.0119 2541.9818,570.2775 Q2540.8568,569.5275 2540.2943,568.1838 Q2539.7474,566.8244 2539.7474,565.0275 Q2539.7474,562.9963 2540.4037,561.5431 Q2541.0599,560.09 2542.3412,559.3088 Q2543.6224,558.5275 2545.4974,558.5275 Q2546.388,558.5275 2547.0599,558.715 Q2547.7318,558.8869 2548.4193,559.2306 L2547.6068,561.2463 Q2546.9818,560.9338 2546.4349,560.8088 Q2545.9037,560.6838 2545.4193,560.6838 Q2544.2474,560.6838 2543.5443,561.215 Q2542.8412,561.7463 2542.5443,562.6994 Q2542.2474,563.6525 2542.2474,564.9181 Q2542.2474,566.9338 2542.9662,567.9025 Q2543.6849,568.8556 2545.2787,568.8556 Q2545.8724,568.8556 2546.4974,568.6994 Q2547.1224,568.5431 2547.9505,568.1681 L2547.9505,570.3869 Q2547.2162,570.6994 2546.4193,570.8556 Q2545.638,571.0119 2544.8724,571.0119 Z " fill="#000000"/><text fill="#000000" font-family="sans-serif" font-size="14" lengthAdjust="spacing" textLength="139.2574" x="2562.5822" y="569.522">GeneticReproduction</text><line style="stroke:#181818;stroke-width:0.5;" x1="2517.1" x2="2718.1434" y1="580.09" y2="580.09"/><g data-visibility-modifier="PRIVATE_FIELD"><rect fill="none" height="6" style="stroke:#C82930;stroke-width:1;" width="6" x="2524.1" y="592.124"/></g><text fill="#000000" font-family="sans-serif" font-size="14" lengthAdjust="spacing" textLength="168.1114" x="2536.1" y="599.0559">const IMutation mutation</text><g data-visibility-modifier="PRIVATE_FIELD"><rect fill="none" height="6" style="stroke:#C82930;stroke-width:1;" width="6" x="2524.1" y="611.1919"/></g><text fill="#000000" font-family="sans-serif" font-size="14" lengthAdjust="spacing" textLength="177.0434" x="2536.1" y="618.1239">const ICrossover crossover</text><line style="stroke:#181818;stroke-width:0.5;" x1="2517.1" x2="2718.1434" y1="626.2258" y2="626.2258"/></g><!--class IMutation--><g class="entity" data-qualified-name="IMutation" data-source-line="124" id="ent0042"><rect fill="#F1F1F1" height="67.0679" rx="2.5" ry="2.5" style="stroke:#181818;stroke-width:0.5;" width="429.7585" x="2285.74" y="752.43"/><ellipse cx="2463.9733" cy="768.43" fill="#ADD1B2" rx="11" ry="11" style="stroke:#181818;stroke-width:1;"/><path d="M2463.4421,775.3519 Q2461.6921,775.3519 2460.5515,774.6175 Q2459.4265,773.8675 2458.864,772.5238 Q2458.3171,771.1644 2458.3171,769.3675 Q2458.3171,767.3363 2458.9733,765.8831 Q2459.6296,764.43 2460.9108,763.6488 Q2462.1921,762.8675 2464.0671,762.8675 Q2464.9577,762.8675 2465.6296,763.055 Q2466.3015,763.2269 2466.989,763.5706 L2466.1765,765.5863 Q2465.5515,765.2738 2465.0046,765.1488 Q2464.4733,765.0238 2463.989,765.0238 Q2462.8171,765.0238 2462.114,765.555 Q2461.4108,766.0863 2461.114,767.0394 Q2460.8171,767.9925 2460.8171,769.2581 Q2460.8171,771.2738 2461.5358,772.2425 Q2462.2546,773.1956 2463.8483,773.1956 Q2464.4421,773.1956 2465.0671,773.0394 Q2465.6921,772.8831 2466.5202,772.5081 L2466.5202,774.7269 Q2465.7858,775.0394 2464.989,775.1956 Q2464.2077,775.3519 2463.4421,775.3519 Z " fill="#000000"/><text fill="#000000" font-family="sans-serif" font-size="14" lengthAdjust="spacing" textLength="64.7918" x="2484.4733" y="773.862">IMutation</text><line style="stroke:#181818;stroke-width:0.5;" x1="2286.74" x2="2714.4985" y1="784.43" y2="784.43"/><line style="stroke:#181818;stroke-width:0.5;" x1="2286.74" x2="2714.4985" y1="792.43" y2="792.43"/><g data-visibility-modifier="PUBLIC_METHOD"><ellipse cx="2296.74" cy="807.464" fill="#84BE84" rx="3" ry="3" style="stroke:#038048;stroke-width:1;"/></g><text fill="#000000" font-family="sans-serif" font-size="14" lengthAdjust="spacing" textLength="403.7585" x="2305.74" y="811.3959">void mutate(&amp;rng, p_mutation, v_mutation, &amp;genotype) const</text></g><!--class ICrossover--><g class="entity" data-qualified-name="ICrossover" data-source-line="130" id="ent0044"><rect fill="#F1F1F1" height="67.0679" rx="2.5" ry="2.5" style="stroke:#181818;stroke-width:0.5;" width="350.5608" x="2750.34" y="752.43"/><ellipse cx="2886.1115" cy="768.43" fill="#ADD1B2" rx="11" ry="11" style="stroke:#181818;stroke-width:1;"/><path d="M2885.5803,775.3519 Q2883.8303,775.3519 2882.6896,774.6175 Q2881.5646,773.8675 2881.0021,772.5238 Q2880.4553,771.1644 2880.4553,769.3675 Q2880.4553,767.3363 2881.1115,765.8831 Q2881.7678,764.43 2883.049,763.6488 Q2884.3303,762.8675 2886.2053,762.8675 Q2887.0959,762.8675 2887.7678,763.055 Q2888.4396,763.2269 2889.1271,763.5706 L2888.3146,765.5863 Q2887.6896,765.2738 2887.1428,765.1488 Q2886.6115,765.0238 2886.1271,765.0238 Q2884.9553,765.0238 2884.2521,765.555 Q2883.549,766.0863 2883.2521,767.0394 Q2882.9553,767.9925 2882.9553,769.2581 Q2882.9553,771.2738 2883.674,772.2425 Q2884.3928,773.1956 2885.9865,773.1956 Q2886.5803,773.1956 2887.2053,773.0394 Q2887.8303,772.8831 2888.6584,772.5081 L2888.6584,774.7269 Q2887.924,775.0394 2887.1271,775.1956 Q2886.3459,775.3519 2885.5803,775.3519 Z " fill="#000000"/><text fill="#000000" font-family="sans-serif" font-size="14" lengthAdjust="spacing" textLength="70.5177" x="2906.6115" y="773.862">ICrossover</text><line style="stroke:#181818;stroke-width:0.5;" x1="2751.34" x2="3099.9008" y1="784.43" y2="784.43"/><line style="stroke:#181818;stroke-width:0.5;" x1="2751.34" x2="3099.9008" y1="792.43" y2="792.43"/><g data-visibility-modifier="PUBLIC_METHOD"><ellipse cx="2761.34" cy="807.464" fill="#84BE84" rx="3" ry="3" style="stroke:#038048;stroke-width:1;"/></g><text fill="#000000" font-family="sans-serif" font-size="14" lengthAdjust="spacing" textLength="324.5608" x="2770.34" y="811.3959">void crossover(&amp;rng, p_crossing, a, b, &amp;out) const</text></g><!--class MutationImpl--><g class="entity" data-qualified-name="MutationImpl" data-source-line="136" id="ent0046"><rect fill="#F1F1F1" height="48" rx="2.5" ry="2.5" style="stroke:#181818;stroke-width:0.5;" width="122.1037" x="2439.57" y="918.63"/><ellipse cx="2454.57" cy="934.63" fill="#ADD1B2" rx="11" ry="11" style="stroke:#181818;stroke-width:1;"/><path d="M2454.0388,941.5519 Q2452.2888,941.5519 2451.1481,940.8175 Q2450.0231,940.0675 2449.4606,938.7238 Q2448.9138,937.3644 2448.9138,935.5675 Q2448.9138,933.5363 2449.57,932.0831 Q2450.2263,930.63 2451.5075,929.8488 Q2452.7888,929.0675 2454.6638,929.0675 Q2455.5544,929.0675 2456.2263,929.255 Q2456.8981,929.4269 2457.5856,929.7706 L2456.7731,931.7863 Q2456.1481,931.4738 2455.6013,931.3488 Q2455.07,931.2238 2454.5856,931.2238 Q2453.4138,931.2238 2452.7106,931.755 Q2452.0075,932.2863 2451.7106,933.2394 Q2451.4138,934.1925 2451.4138,935.4581 Q2451.4138,937.4738 2452.1325,938.4425 Q2452.8513,939.3956 2454.445,939.3956 Q2455.0388,939.3956 2455.6638,939.2394 Q2456.2888,939.0831 2457.1169,938.7081 L2457.1169,940.9269 Q2456.3825,941.2394 2455.5856,941.3956 Q2454.8044,941.5519 2454.0388,941.5519 Z " fill="#000000"/><text fill="#000000" font-family="sans-serif" font-size="14" lengthAdjust="spacing" textLength="90.1037" x="2468.57" y="940.062">MutationImpl</text><line style="stroke:#181818;stroke-width:0.5;" x1="2440.57" x2="2560.6737" y1="950.63" y2="950.63"/><line style="stroke:#181818;stroke-width:0.5;" x1="2440.57" x2="2560.6737" y1="958.63" y2="958.63"/></g><!--class CrossoverImpl--><g class="entity" data-qualified-name="CrossoverImpl" data-source-line="141" id="ent0048"><rect fill="#F1F1F1" height="48" rx="2.5" ry="2.5" style="stroke:#181818;stroke-width:0.5;" width="127.8297" x="2861.71" y="918.63"/><ellipse cx="2876.71" cy="934.63" fill="#ADD1B2" rx="11" ry="11" style="stroke:#181818;stroke-width:1;"/><path d="M2876.1788,941.5519 Q2874.4288,941.5519 2873.2881,940.8175 Q2872.1631,940.0675 2871.6006,938.7238 Q2871.0538,937.3644 2871.0538,935.5675 Q2871.0538,933.5363 2871.71,932.0831 Q2872.3663,930.63 2873.6475,929.8488 Q2874.9288,929.0675 2876.8038,929.0675 Q2877.6944,929.0675 2878.3663,929.255 Q2879.0381,929.4269 2879.7256,929.7706 L2878.9131,931.7863 Q2878.2881,931.4738 2877.7413,931.3488 Q2877.21,931.2238 2876.7256,931.2238 Q2875.5538,931.2238 2874.8506,931.755 Q2874.1475,932.2863 2873.8506,933.2394 Q2873.5538,934.1925 2873.5538,935.4581 Q2873.5538,937.4738 2874.2725,938.4425 Q2874.9913,939.3956 2876.585,939.3956 Q2877.1788,939.3956 2877.8038,939.2394 Q2878.4288,939.0831 2879.2569,938.7081 L2879.2569,940.9269 Q2878.5225,941.2394 2877.7256,941.3956 Q2876.9444,941.5519 2876.1788,941.5519 Z " fill="#000000"/><text fill="#000000" font-family="sans-serif" font-size="14" lengthAdjust="spacing" textLength="95.8297" x="2890.71" y="940.062">CrossoverImpl</text><line style="stroke:#181818;stroke-width:0.5;" x1="2862.71" x2="2988.5397" y1="950.63" y2="950.63"/><line style="stroke:#181818;stroke-width:0.5;" x1="2862.71" x2="2988.5397" y1="958.63" y2="958.63"/></g><!--class SimilarityImpl--><g class="entity" data-qualified-name="SimilarityImpl" data-source-line="146" id="ent0050"><rect fill="#F1F1F1" height="48" rx="2.5" ry="2.5" style="stroke:#181818;stroke-width:0.5;" width="123.1117" x="1757.07" y="761.96"/><ellipse cx="1772.07" cy="777.96" fill="#ADD1B2" rx="11" ry="11" style="stroke:#181818;stroke-width:1;"/><path d="M1771.5388,784.8819 Q1769.7888,784.8819 1768.6481,784.1475 Q1767.5231,783.3975 1766.9606,782.0538 Q1766.4138,780.6944 1766.4138,778.8975 Q1766.4138,776.8663 1767.07,775.4131 Q1767.7263,773.96 1769.0075,773.1788 Q1770.2888,772.3975 1772.1638,772.3975 Q1773.0544,772.3975 1773.7263,772.585 Q1774.3981,772.7569 1775.0856,773.1006 L1774.2731,775.1163 Q1773.6481,774.8038 1773.1013,774.6788 Q1772.57,774.5538 1772.0856,774.5538 Q1770.9138,774.5538 1770.2106,775.085 Q1769.5075,775.6163 1769.2106,776.5694 Q1768.9138,777.5225 1768.9138,778.7881 Q1768.9138,780.8038 1769.6325,781.7725 Q1770.3513,782.7256 1771.945,782.7256 Q1772.5388,782.7256 1773.1638,782.5694 Q1773.7888,782.4131 1774.6169,782.0381 L1774.6169,784.2569 Q1773.8825,784.5694 1773.0856,784.7256 Q1772.3044,784.8819 1771.5388,784.8819 Z " fill="#000000"/><text fill="#000000" font-family="sans-serif" font-size="14" lengthAdjust="spacing" textLength="91.1117" x="1786.07" y="783.392">SimilarityImpl</text><line style="stroke:#181818;stroke-width:0.5;" x1="1758.07" x2="1879.1817" y1="793.96" y2="793.96"/><line style="stroke:#181818;stroke-width:0.5;" x1="1758.07" x2="1879.1817" y1="801.96" y2="801.96"/></g><!--class SelectionImpl--><g class="entity" data-qualified-name="SelectionImpl" data-source-line="151" id="ent0052"><rect fill="#F1F1F1" height="48" rx="2.5" ry="2.5" style="stroke:#181818;stroke-width:0.5;" width="121.6557" x="1528.79" y="567.15"/><ellipse cx="1543.79" cy="583.15" fill="#ADD1B2" rx="11" ry="11" style="stroke:#181818;stroke-width:1;"/><path d="M1543.2588,590.0719 Q1541.5088,590.0719 1540.3681,589.3375 Q1539.2431,588.5875 1538.6806,587.2438 Q1538.1338,585.8844 1538.1338,584.0875 Q1538.1338,582.0563 1538.79,580.6031 Q1539.4463,579.15 1540.7275,578.3688 Q1542.0088,577.5875 1543.8838,577.5875 Q1544.7744,577.5875 1545.4463,577.775 Q1546.1181,577.9469 1546.8056,578.2906 L1545.9931,580.3063 Q1545.3681,579.9938 1544.8213,579.8688 Q1544.29,579.7438 1543.8056,579.7438 Q1542.6338,579.7438 1541.9306,580.275 Q1541.2275,580.8063 1540.9306,581.7594 Q1540.6338,582.7125 1540.6338,583.9781 Q1540.6338,585.9938 1541.3525,586.9625 Q1542.0713,587.9156 1543.665,587.9156 Q1544.2588,587.9156 1544.8838,587.7594 Q1545.5088,587.6031 1546.3369,587.2281 L1546.3369,589.4469 Q1545.6025,589.7594 1544.8056,589.9156 Q1544.0244,590.0719 1543.2588,590.0719 Z " fill="#000000"/><text fill="#000000" font-family="sans-serif" font-size="14" lengthAdjust="spacing" textLength="89.6557" x="1557.79" y="588.582">SelectionImpl</text><line style="stroke:#181818;stroke-width:0.5;" x1="1529.79" x2="1649.4457" y1="599.15" y2="599.15"/><line style="stroke:#181818;stroke-width:0.5;" x1="1529.79" x2="1649.4457" y1="607.15" y2="607.15"/></g><!--class ReservoirSampling--><g class="entity" data-qualified-name="ReservoirSampling" data-source-line="155" id="ent0054"><rect fill="#F1F1F1" height="143.3396" rx="2.5" ry="2.5" style="stroke:#181818;stroke-width:0.5;" width="165.7016" x="1506.77" y="714.29"/><ellipse cx="1521.77" cy="730.29" fill="#ADD1B2" rx="11" ry="11" style="stroke:#181818;stroke-width:1;"/><path d="M1521.2388,737.2119 Q1519.4888,737.2119 1518.3481,736.4775 Q1517.2231,735.7275 1516.6606,734.3838 Q1516.1138,733.0244 1516.1138,731.2275 Q1516.1138,729.1963 1516.77,727.7431 Q1517.4263,726.29 1518.7075,725.5088 Q1519.9888,724.7275 1521.8638,724.7275 Q1522.7544,724.7275 1523.4263,724.915 Q1524.0981,725.0869 1524.7856,725.4306 L1523.9731,727.4463 Q1523.3481,727.1338 1522.8013,727.0088 Q1522.27,726.8838 1521.7856,726.8838 Q1520.6138,726.8838 1519.9106,727.415 Q1519.2075,727.9463 1518.9106,728.8994 Q1518.6138,729.8525 1518.6138,731.1181 Q1518.6138,733.1338 1519.3325,734.1025 Q1520.0513,735.0556 1521.645,735.0556 Q1522.2388,735.0556 1522.8638,734.8994 Q1523.4888,734.7431 1524.3169,734.3681 L1524.3169,736.5869 Q1523.5825,736.8994 1522.7856,737.0556 Q1522.0044,737.2119 1521.2388,737.2119 Z " fill="#000000"/><text fill="#000000" font-family="sans-serif" font-size="14" lengthAdjust="spacing" textLength="123.6895" x="1535.77" y="735.722">ReservoirSampling</text><rect fill="#FFFFFF" height="18.3441" style="stroke:#181818;stroke-width:1;stroke-dasharray:2,2;" width="8.012" x="1667.4595" y="711.29"/><text fill="#000000" font-family="sans-serif" font-size="12" font-style="italic" lengthAdjust="spacing" textLength="6.012" x="1668.4595" y="725.1181">T</text><line style="stroke:#181818;stroke-width:0.5;" x1="1507.77" x2="1671.4716" y1="746.29" y2="746.29"/><g data-visibility-modifier="PRIVATE_FIELD"><rect fill="none" height="6" style="stroke:#C82930;stroke-width:1;" width="6" x="1514.77" y="758.324"/></g><text fill="#000000" font-family="sans-serif" font-size="14" lengthAdjust="spacing" textLength="66.0377" x="1526.77" y="765.2559">T? current</text><g data-visibility-modifier="PRIVATE_FIELD"><rect fill="none" height="6" style="stroke:#C82930;stroke-width:1;" width="6" x="1514.77" y="777.3919"/></g><text fill="#000000" font-family="sans-serif" font-size="14" lengthAdjust="spacing" textLength="29.6099" x="1526.77" y="784.3239">int n</text><line style="stroke:#181818;stroke-width:0.5;" x1="1507.77" x2="1671.4716" y1="792.4258" y2="792.4258"/><g data-visibility-modifier="PUBLIC_METHOD"><ellipse cx="1517.77" cy="807.4598" fill="#84BE84" rx="3" ry="3" style="stroke:#038048;stroke-width:1;"/></g><text fill="#000000" font-family="sans-serif" font-size="14" lengthAdjust="spacing" textLength="41.7338" x="1526.77" y="811.3918">reset()</text><g data-visibility-modifier="PUBLIC_METHOD"><ellipse cx="1517.77" cy="826.5277" fill="#84BE84" rx="3" ry="3" style="stroke:#038048;stroke-width:1;"/></g><text fill="#000000" font-family="sans-serif" font-size="14" lengthAdjust="spacing" textLength="47.4598" x="1526.77" y="830.4597">T? get()</text><g data-visibility-modifier="PUBLIC_METHOD"><ellipse cx="1517.77" cy="845.5956" fill="#84BE84" rx="3" ry="3" style="stroke:#038048;stroke-width:1;"/></g><text fill="#000000" font-family="sans-serif" font-size="14" lengthAdjust="spacing" textLength="110.6556" x="1526.77" y="849.5276">void add(&amp;rng, t)</text></g><!--class ValidatorImpl--><g class="entity" data-qualified-name="ValidatorImpl" data-source-line="165" id="ent0056"><rect fill="#F1F1F1" height="48" rx="2.5" ry="2.5" style="stroke:#181818;stroke-width:0.5;" width="121.3057" x="2753.97" y="567.15"/><ellipse cx="2768.97" cy="583.15" fill="#ADD1B2" rx="11" ry="11" style="stroke:#181818;stroke-width:1;"/><path d="M2768.4388,590.0719 Q2766.6888,590.0719 2765.5481,589.3375 Q2764.4231,588.5875 2763.8606,587.2438 Q2763.3138,585.8844 2763.3138,584.0875 Q2763.3138,582.0563 2763.97,580.6031 Q2764.6263,579.15 2765.9075,578.3688 Q2767.1888,577.5875 2769.0638,577.5875 Q2769.9544,577.5875 2770.6263,577.775 Q2771.2981,577.9469 2771.9856,578.2906 L2771.1731,580.3063 Q2770.5481,579.9938 2770.0013,579.8688 Q2769.47,579.7438 2768.9856,579.7438 Q2767.8138,579.7438 2767.1106,580.275 Q2766.4075,580.8063 2766.1106,581.7594 Q2765.8138,582.7125 2765.8138,583.9781 Q2765.8138,585.9938 2766.5325,586.9625 Q2767.2513,587.9156 2768.845,587.9156 Q2769.4388,587.9156 2770.0638,587.7594 Q2770.6888,587.6031 2771.5169,587.2281 L2771.5169,589.4469 Q2770.7825,589.7594 2769.9856,589.9156 Q2769.2044,590.0719 2768.4388,590.0719 Z " fill="#000000"/><text fill="#000000" font-family="sans-serif" font-size="14" lengthAdjust="spacing" textLength="89.3057" x="2782.97" y="588.582">ValidatorImpl</text><line style="stroke:#181818;stroke-width:0.5;" x1="2754.97" x2="2874.2757" y1="599.15" y2="599.15"/><line style="stroke:#181818;stroke-width:0.5;" x1="2754.97" x2="2874.2757" y1="607.15" y2="607.15"/></g><!--class RandomAlleleAdder--><g class="entity" data-qualified-name="RandomAlleleAdder" data-source-line="170" id="ent0058"><rect fill="#F1F1F1" height="48" rx="2.5" ry="2.5" style="stroke:#181818;stroke-width:0.5;" width="162.8015" x="3001.22" y="567.15"/><ellipse cx="3016.22" cy="583.15" fill="#ADD1B2" rx="11" ry="11" style="stroke:#181818;stroke-width:1;"/><path d="M3015.6888,590.0719 Q3013.9388,590.0719 3012.7981,589.3375 Q3011.6731,588.5875 3011.1106,587.2438 Q3010.5638,585.8844 3010.5638,584.0875 Q3010.5638,582.0563 3011.22,580.6031 Q3011.8763,579.15 3013.1575,578.3688 Q3014.4388,577.5875 3016.3138,577.5875 Q3017.2044,577.5875 3017.8763,577.775 Q3018.5481,577.9469 3019.2356,578.2906 L3018.4231,580.3063 Q3017.7981,579.9938 3017.2513,579.8688 Q3016.72,579.7438 3016.2356,579.7438 Q3015.0638,579.7438 3014.3606,580.275 Q3013.6575,580.8063 3013.3606,581.7594 Q3013.0638,582.7125 3013.0638,583.9781 Q3013.0638,585.9938 3013.7825,586.9625 Q3014.5013,587.9156 3016.095,587.9156 Q3016.6888,587.9156 3017.3138,587.7594 Q3017.9388,587.6031 3018.7669,587.2281 L3018.7669,589.4469 Q3018.0325,589.7594 3017.2356,589.9156 Q3016.4544,590.0719 3015.6888,590.0719 Z " fill="#000000"/><text fill="#000000" font-family="sans-serif" font-size="14" lengthAdjust="spacing" textLength="130.8015" x="3030.22" y="588.582">RandomAlleleAdder</text><line style="stroke:#181818;stroke-width:0.5;" x1="3002.22" x2="3163.0215" y1="599.15" y2="599.15"/><line style="stroke:#181818;stroke-width:0.5;" x1="3002.22" x2="3163.0215" y1="607.15" y2="607.15"/></g><!--class StretchAlleleAdder--><g class="entity" data-qualified-name="StretchAlleleAdder" data-source-line="175" id="ent0060"><rect fill="#F1F1F1" height="48" rx="2.5" ry="2.5" style="stroke:#181818;stroke-width:0.5;" width="154.2615" x="3199.49" y="567.15"/><ellipse cx="3214.49" cy="583.15" fill="#ADD1B2" rx="11" ry="11" style="stroke:#181818;stroke-width:1;"/><path d="M3213.9588,590.0719 Q3212.2088,590.0719 3211.0681,589.3375 Q3209.9431,588.5875 3209.3806,587.2438 Q3208.8338,585.8844 3208.8338,584.0875 Q3208.8338,582.0563 3209.49,580.6031 Q3210.1463,579.15 3211.4275,578.3688 Q3212.7088,577.5875 3214.5838,577.5875 Q3215.4744,577.5875 3216.1463,577.775 Q3216.8181,577.9469 3217.5056,578.2906 L3216.6931,580.3063 Q3216.0681,579.9938 3215.5213,579.8688 Q3214.99,579.7438 3214.5056,579.7438 Q3213.3338,579.7438 3212.6306,580.275 Q3211.9275,580.8063 3211.6306,581.7594 Q3211.3338,582.7125 3211.3338,583.9781 Q3211.3338,585.9938 3212.0525,586.9625 Q3212.7713,587.9156 3214.365,587.9156 Q3214.9588,587.9156 3215.5838,587.7594 Q3216.2088,587.6031 3217.0369,587.2281 L3217.0369,589.4469 Q3216.3025,589.7594 3215.5056,589.9156 Q3214.7244,590.0719 3213.9588,590.0719 Z " fill="#000000"/><text fill="#000000" font-family="sans-serif" font-size="14" lengthAdjust="spacing" textLength="122.2615" x="3228.49" y="588.582">StretchAlleleAdder</text><line style="stroke:#181818;stroke-width:0.5;" x1="3200.49" x2="3352.7515" y1="599.15" y2="599.15"/><line style="stroke:#181818;stroke-width:0.5;" x1="3200.49" x2="3352.7515" y1="607.15" y2="607.15"/></g><!--class DepthFirstSearchSpeciesCounter--><g class="entity" data-qualified-name="DepthFirstSearchSpeciesCounter" data-source-line="180" id="ent0062"><rect fill="#F1F1F1" height="48" rx="2.5" ry="2.5" style="stroke:#181818;stroke-width:0.5;" width="247.9212" x="1986.66" y="567.15"/><ellipse cx="2001.66" cy="583.15" fill="#ADD1B2" rx="11" ry="11" style="stroke:#181818;stroke-width:1;"/><path d="M2001.1288,590.0719 Q1999.3788,590.0719 1998.2381,589.3375 Q1997.1131,588.5875 1996.5506,587.2438 Q1996.0038,585.8844 1996.0038,584.0875 Q1996.0038,582.0563 1996.66,580.6031 Q1997.3163,579.15 1998.5975,578.3688 Q1999.8788,577.5875 2001.7538,577.5875 Q2002.6444,577.5875 2003.3163,577.775 Q2003.9881,577.9469 2004.6756,578.2906 L2003.8631,580.3063 Q2003.2381,579.9938 2002.6913,579.8688 Q2002.16,579.7438 2001.6756,579.7438 Q2000.5038,579.7438 1999.8006,580.275 Q1999.0975,580.8063 1998.8006,581.7594 Q1998.5038,582.7125 1998.5038,583.9781 Q1998.5038,585.9938 1999.2225,586.9625 Q1999.9413,587.9156 2001.535,587.9156 Q2002.1288,587.9156 2002.7538,587.7594 Q2003.3788,587.6031 2004.2069,587.2281 L2004.2069,589.4469 Q2003.4725,589.7594 2002.6756,589.9156 Q2001.8944,590.0719 2001.1288,590.0719 Z " fill="#000000"/><text fill="#000000" font-family="sans-serif" font-size="14" lengthAdjust="spacing" textLength="215.9212" x="2015.66" y="588.582">DepthFirstSearchSpeciesCounter</text><line style="stroke:#181818;stroke-width:0.5;" x1="1987.66" x2="2233.5812" y1="599.15" y2="599.15"/><line style="stroke:#181818;stroke-width:0.5;" x1="1987.66" x2="2233.5812" y1="607.15" y2="607.15"/></g><!--class DisjointSetsSpeciesCounter--><g class="entity" data-qualified-name="DisjointSetsSpeciesCounter" data-source-line="184" id="ent0064"><rect fill="#F1F1F1" height="48" rx="2.5" ry="2.5" style="stroke:#181818;stroke-width:0.5;" width="211.7593" x="2269.74" y="567.15"/><ellipse cx="2284.74" cy="583.15" fill="#ADD1B2" rx="11" ry="11" style="stroke:#181818;stroke-width:1;"/><path d="M2284.2088,590.0719 Q2282.4588,590.0719 2281.3181,589.3375 Q2280.1931,588.5875 2279.6306,587.2438 Q2279.0838,585.8844 2279.0838,584.0875 Q2279.0838,582.0563 2279.74,580.6031 Q2280.3963,579.15 2281.6775,578.3688 Q2282.9588,577.5875 2284.8338,577.5875 Q2285.7244,577.5875 2286.3963,577.775 Q2287.0681,577.9469 2287.7556,578.2906 L2286.9431,580.3063 Q2286.3181,579.9938 2285.7713,579.8688 Q2285.24,579.7438 2284.7556,579.7438 Q2283.5838,579.7438 2282.8806,580.275 Q2282.1775,580.8063 2281.8806,581.7594 Q2281.5838,582.7125 2281.5838,583.9781 Q2281.5838,585.9938 2282.3025,586.9625 Q2283.0213,587.9156 2284.615,587.9156 Q2285.2088,587.9156 2285.8338,587.7594 Q2286.4588,587.6031 2287.2869,587.2281 L2287.2869,589.4469 Q2286.5525,589.7594 2285.7556,589.9156 Q2284.9744,590.0719 2284.2088,590.0719 Z " fill="#000000"/><text fill="#000000" font-family="sans-serif" font-size="14" lengthAdjust="spacing" textLength="179.7593" x="2298.74" y="588.582">DisjointSetsSpeciesCounter</text><line style="stroke:#181818;stroke-width:0.5;" x1="2270.74" x2="2480.4993" y1="599.15" y2="599.15"/><line style="stroke:#181818;stroke-width:0.5;" x1="2270.74" x2="2480.4993" y1="607.15" y2="607.15"/></g><!--link Simulator to Entity--><g class="link" data-entity-1="ent0002" data-entity-2="ent0003" data-link-type="dependency" data-source-line="16" id="lnk4"><path codeLine="16" d="M1345.56,107.72 C1098.12,125.33 597.41,169.8 442.62,249.48 C420.78,260.72 405.0948,274.4866 389.4148,292.2966" fill="none" id="Simulator-to-Entity" style="stroke:#181818;stroke-width:1;"/><polygon fill="#181818" points="385.45,296.8,394.3994,292.6881,388.754,293.0472,388.3949,287.4017,385.45,296.8" style="stroke:#181818;stroke-width:1;"/></g><!--link Simulator to Random--><g class="link" data-entity-1="ent0002" data-entity-2="ent0005" data-link-type="dependency" data-source-line="27" id="lnk6"><path codeLine="27" d="M1345.48,109.91 C1190.15,126.04 935.6,163.94 732.62,249.48 C726.02,252.26 724.7452,252.6445 718.1752,255.9945" fill="none" id="Simulator-to-Random" style="stroke:#181818;stroke-width:1;"/><polygon fill="#181818" points="712.83,258.72,722.6649,258.1952,717.2844,256.4487,719.0309,251.0682,712.83,258.72" style="stroke:#181818;stroke-width:1;"/></g><!--reverse link RunParameters to Limits--><g class="link" data-entity-1="ent0007" data-entity-2="ent0008" data-link-type="aggregation" data-source-line="44" id="lnk9"><path codeLine="44" d="M738.8946,447.8305 C733.2046,450.4705 738.36,447.85 732.62,450.02 C632.47,487.83 599.81,466.4 493.62,480.02 C327.34,501.35 271.12,457.23 119.62,529.02 C113.74,531.8 108.04,535.32 102.62,539.26" fill="none" id="RunParameters-backto-Limits" style="stroke:#181818;stroke-width:1;"/><polygon fill="none" points="749.78,442.78,742.6538,441.6768,738.8946,447.8305,746.0208,448.9337,749.78,442.78" style="stroke:#181818;stroke-width:1;"/></g><!--reverse link RunParameters to ReproductionProbabilities--><g class="link" data-entity-1="ent0007" data-entity-2="ent0010" data-link-type="aggregation" data-source-line="49" id="lnk11"><path codeLine="49" d="M739.2343,447.3415 C733.4743,450.2315 738.4,447.56 732.62,450.02 C654.26,483.37 437.88,500.53 357.62,529.02 C343.18,534.15 328.27,540.69 314.1,547.59" fill="none" id="RunParameters-backto-ReproductionProbabilities" style="stroke:#181818;stroke-width:1;"/><polygon fill="none" points="749.96,441.96,742.8033,441.0755,739.2343,447.3415,746.391,448.2259,749.96,441.96" style="stroke:#181818;stroke-width:1;"/></g><!--reverse link RunParameters to ReproductionParameters--><g class="link" data-entity-1="ent0007" data-entity-2="ent0012" data-link-type="aggregation" data-source-line="55" id="lnk13"><path codeLine="55" d="M739.5679,445.8239 C733.8279,449.4539 738.25,446.59 732.62,450.02 C703.03,468.02 632.2,506.23 572.08,538.2" fill="none" id="RunParameters-backto-ReproductionParameters" style="stroke:#181818;stroke-width:1;"/><polygon fill="none" points="749.71,439.41,742.501,439.2363,739.5679,445.8239,746.7769,445.9976,749.71,439.41" style="stroke:#181818;stroke-width:1;"/></g><!--reverse link RunParameters to GeneticProbabilities--><g class="link" data-entity-1="ent0007" data-entity-2="ent0014" data-link-type="aggregation" data-source-line="60" id="lnk15"><path codeLine="60" d="M792.6732,459.6177 C765.7932,493.6577 744.58,520.54 723.19,547.63" fill="none" id="RunParameters-backto-GeneticProbabilities" style="stroke:#181818;stroke-width:1;"/><polygon fill="none" points="800.11,450.2,793.2523,452.4299,792.6732,459.6177,799.5308,457.3878,800.11,450.2" style="stroke:#181818;stroke-width:1;"/></g><!--reverse link RunParameters to AlleleParamteres--><g class="link" data-entity-1="ent0007" data-entity-2="ent0016" data-link-type="aggregation" data-source-line="66" id="lnk17"><path codeLine="66" d="M878.62,462.2 C878.62,492.39 878.62,512.35 878.62,538.09" fill="none" id="RunParameters-backto-AlleleParamteres" style="stroke:#181818;stroke-width:1;"/><polygon fill="none" points="878.62,450.2,874.62,456.2,878.62,462.2,882.62,456.2,878.62,450.2" style="stroke:#181818;stroke-width:1;"/></g><!--reverse link RunParameters to EnergyParameters--><g class="link" data-entity-1="ent0007" data-entity-2="ent0018" data-link-type="aggregation" data-source-line="73" id="lnk19"><path codeLine="73" d="M967.2088,459.5038 C988.8688,486.0938 1004.07,504.76 1023.52,528.64" fill="none" id="RunParameters-backto-EnergyParameters" style="stroke:#181818;stroke-width:1;"/><polygon fill="none" points="959.63,450.2,960.3181,457.3782,967.2088,459.5038,966.5207,452.3256,959.63,450.2" style="stroke:#181818;stroke-width:1;"/></g><!--link Simulator to RunParameters--><g class="link" data-entity-1="ent0002" data-entity-2="ent0007" data-link-type="dependency" data-source-line="74" id="lnk20"><path codeLine="74" d="M1345.61,156.72 C1243.52,198.7 1112.1793,252.7084 1013.0193,293.4784" fill="none" id="Simulator-to-RunParameters" style="stroke:#181818;stroke-width:1;"/><polygon fill="#181818" points="1007.47,295.76,1017.315,296.0371,1012.0944,293.8587,1014.2728,288.6381,1007.47,295.76" style="stroke:#181818;stroke-width:1;"/></g><!--reverse link RunStates to State--><g class="link" data-entity-1="ent0023" data-entity-2="ent0021" data-link-type="aggregation" data-source-line="83" id="lnk24"><path codeLine="83" d="M1350.5042,385.2457 C1335.0442,423.0157 1308.75,487.23 1287.9,538.17" fill="none" id="RunStates-backto-State" style="stroke:#181818;stroke-width:1;"/><polygon fill="none" points="1355.05,374.14,1349.0752,378.1776,1350.5042,385.2457,1356.479,381.2081,1355.05,374.14" style="stroke:#181818;stroke-width:1;"/></g><!--link RunStates to vector<State>--><g class="link" data-entity-1="ent0023" data-entity-2="ent0022" data-link-type="extension" data-source-line="84" id="lnk25"><path codeLine="84" d="M1363.97,374.23 C1363.82,404 1365.85,456.57 1379.62,499.02 C1387.64,523.74 1392.8675,534.2507 1405.0175,551.9107" fill="none" id="RunStates-to-vector&lt;State&gt;" style="stroke:#181818;stroke-width:1;"/><polygon fill="none" points="1415.22,566.74,1409.9606,548.5098,1400.0744,555.3115,1415.22,566.74" style="stroke:#181818;stroke-width:1;"/><text fill="#000000" font-family="sans-serif" font-size="13" lengthAdjust="spacing" textLength="59.683" x="1380.62" y="494.917">&#171;typedef&#187;</text></g><!--link Simulator to RunStates--><g class="link" data-entity-1="ent0002" data-entity-2="ent0023" data-link-type="dependency" data-source-line="85" id="lnk26"><path codeLine="85" d="M1442.75,188.64 C1418.91,237.5 1393.9012,288.7477 1378.7212,319.8577" fill="none" id="Simulator-to-RunStates" style="stroke:#181818;stroke-width:1;"/><polygon fill="#181818" points="1376.09,325.25,1383.6316,318.9156,1378.2826,320.7564,1376.4419,315.4074,1376.09,325.25" style="stroke:#181818;stroke-width:1;"/></g><!--link ISelection to ISimilarity--><g class="link" data-entity-1="ent0028" data-entity-2="ent0027" data-link-type="dependency" data-source-line="95" id="lnk29"><path codeLine="95" d="M1735.77,383.53 C1752.87,426.18 1780.5372,495.1809 1799.3572,542.1209" fill="none" id="ISelection-to-ISimilarity" style="stroke:#181818;stroke-width:1;"/><polygon fill="#181818" points="1801.59,547.69,1801.9534,537.8479,1799.7293,543.0491,1794.528,540.825,1801.59,547.69" style="stroke:#181818;stroke-width:1;"/></g><!--reverse link Simulator to ISimilarity--><g class="link" data-entity-1="ent0002" data-entity-2="ent0027" data-link-type="aggregation" data-source-line="111" id="lnk34"><path codeLine="111" d="M1464.0799,200.5902 C1451.9199,276.8302 1449.6,373.75 1501.62,450.02 C1508.27,459.76 1625.62,510.11 1715.62,547.69" fill="none" id="Simulator-backto-ISimilarity" style="stroke:#181818;stroke-width:1;"/><polygon fill="none" points="1465.97,188.74,1461.0749,194.0351,1464.0799,200.5902,1468.975,195.2951,1465.97,188.74" style="stroke:#181818;stroke-width:1;"/></g><!--reverse link Simulator to ISelection--><g class="link" data-entity-1="ent0002" data-entity-2="ent0028" data-link-type="aggregation" data-source-line="112" id="lnk35"><path codeLine="112" d="M1579.7272,197.3663 C1621.4872,241.6063 1661.03,283.5 1691.49,315.77" fill="none" id="Simulator-backto-ISelection" style="stroke:#181818;stroke-width:1;"/><polygon fill="none" points="1571.49,188.64,1572.6998,195.7489,1579.7272,197.3663,1578.5174,190.2575,1571.49,188.64" style="stroke:#181818;stroke-width:1;"/></g><!--reverse link Simulator to IReproduction--><g class="link" data-entity-1="ent0002" data-entity-2="ent0030" data-link-type="aggregation" data-source-line="113" id="lnk36"><path codeLine="113" d="M1639.6837,105.5347 C1814.4637,117.1347 2106.54,150.28 2346.62,249.48 C2385.4,265.5 2424.08,293.54 2451.26,315.74" fill="none" id="Simulator-backto-IReproduction" style="stroke:#181818;stroke-width:1;"/><polygon fill="none" points="1627.71,104.74,1633.4319,109.1286,1639.6837,105.5347,1633.9617,101.1461,1627.71,104.74" style="stroke:#181818;stroke-width:1;"/></g><!--reverse link Simulator to IValidator--><g class="link" data-entity-1="ent0002" data-entity-2="ent0031" data-link-type="aggregation" data-source-line="114" id="lnk37"><path codeLine="114" d="M1639.6916,110.3091 C1903.6016,131.4691 2449.61,181.79 2630.62,249.48 C2671.72,264.84 2712.89,293.24 2741.67,315.74" fill="none" id="Simulator-backto-IValidator" style="stroke:#181818;stroke-width:1;"/><polygon fill="none" points="1627.73,109.35,1633.3911,113.8167,1639.6916,110.3091,1634.0305,105.8423,1627.73,109.35" style="stroke:#181818;stroke-width:1;"/></g><!--reverse link Simulator to IAlleleAdder--><g class="link" data-entity-1="ent0002" data-entity-2="ent0032" data-link-type="aggregation" data-source-line="115" id="lnk38"><path codeLine="115" d="M1639.835,108.1939 C1953.345,128.4539 2686.83,181.54 2929.62,249.48 C2984.38,264.8 3042.52,293.36 3083.71,315.92" fill="none" id="Simulator-backto-IAlleleAdder" style="stroke:#181818;stroke-width:1;"/><polygon fill="none" points="1627.86,107.42,1633.5896,111.7986,1639.835,108.1939,1634.1055,103.8153,1627.86,107.42" style="stroke:#181818;stroke-width:1;"/></g><!--reverse link Simulator to ISpeciesCounter--><g class="link" data-entity-1="ent0002" data-entity-2="ent0033" data-link-type="aggregation" data-source-line="116" id="lnk39"><path codeLine="116" d="M1639.1976,143.1722 C1730.4676,171.0222 1839.73,206.93 1943.62,249.48 C1991.7,269.17 2044.3,295.32 2083.62,315.83" fill="none" id="Simulator-backto-ISpeciesCounter" style="stroke:#181818;stroke-width:1;"/><polygon fill="none" points="1627.72,139.67,1632.2914,145.247,1639.1976,143.1722,1634.6262,137.5953,1627.72,139.67" style="stroke:#181818;stroke-width:1;"/></g><!--reverse link IReproduction to GeneticReproduction--><g class="link" data-entity-1="ent0030" data-entity-2="ent0040" data-link-type="extension" data-source-line="122" id="lnk41"><path codeLine="122" d="M2514.828,399.3762 C2537.808,442.0262 2569.45,500.75 2594.74,547.69" fill="none" id="IReproduction-backto-GeneticReproduction" style="stroke:#181818;stroke-width:1;stroke-dasharray:7,7;"/><polygon fill="none" points="2506.29,383.53,2509.5459,402.2222,2520.1101,396.5302,2506.29,383.53" style="stroke:#181818;stroke-width:1;"/></g><!--reverse link GeneticReproduction to IMutation--><g class="link" data-entity-1="ent0040" data-entity-2="ent0042" data-link-type="aggregation" data-source-line="128" id="lnk43"><path codeLine="128" d="M2585.7241,644.7286 C2564.2641,680.0886 2540.32,719.55 2520.62,752" fill="none" id="GeneticReproduction-backto-IMutation" style="stroke:#181818;stroke-width:1;"/><polygon fill="none" points="2591.95,634.47,2585.4175,637.524,2585.7241,644.7286,2592.2566,641.6746,2591.95,634.47" style="stroke:#181818;stroke-width:1;"/></g><!--reverse link GeneticReproduction to ICrossover--><g class="link" data-entity-1="ent0040" data-entity-2="ent0044" data-link-type="aggregation" data-source-line="134" id="lnk45"><path codeLine="134" d="M2695.7718,641.0766 C2752.2818,676.4466 2821.38,719.7 2873.11,752.09" fill="none" id="GeneticReproduction-backto-ICrossover" style="stroke:#181818;stroke-width:1;"/><polygon fill="none" points="2685.6,634.71,2688.5637,641.2839,2695.7718,641.0766,2692.8081,634.5027,2685.6,634.71" style="stroke:#181818;stroke-width:1;"/></g><!--reverse link IMutation to MutationImpl--><g class="link" data-entity-1="ent0042" data-entity-2="ent0046" data-link-type="extension" data-source-line="139" id="lnk47"><path codeLine="139" d="M2500.62,837.76 C2500.62,867.38 2500.62,892.22 2500.62,918.42" fill="none" id="IMutation-backto-MutationImpl" style="stroke:#181818;stroke-width:1;stroke-dasharray:7,7;"/><polygon fill="none" points="2500.62,819.76,2494.62,837.76,2506.62,837.76,2500.62,819.76" style="stroke:#181818;stroke-width:1;"/></g><!--reverse link ICrossover to CrossoverImpl--><g class="link" data-entity-1="ent0044" data-entity-2="ent0048" data-link-type="extension" data-source-line="144" id="lnk49"><path codeLine="144" d="M2925.62,837.76 C2925.62,867.38 2925.62,892.22 2925.62,918.42" fill="none" id="ICrossover-backto-CrossoverImpl" style="stroke:#181818;stroke-width:1;stroke-dasharray:7,7;"/><polygon fill="none" points="2925.62,819.76,2919.62,837.76,2931.62,837.76,2925.62,819.76" style="stroke:#181818;stroke-width:1;"/></g><!--reverse link ISimilarity to SimilarityImpl--><g class="link" data-entity-1="ent0027" data-entity-2="ent0050" data-link-type="extension" data-source-line="149" id="lnk51"><path codeLine="149" d="M1818.62,652.47 C1818.62,691.49 1818.62,729.99 1818.62,761.49" fill="none" id="ISimilarity-backto-SimilarityImpl" style="stroke:#181818;stroke-width:1;stroke-dasharray:7,7;"/><polygon fill="none" points="1818.62,634.47,1812.62,652.47,1824.62,652.47,1818.62,634.47" style="stroke:#181818;stroke-width:1;"/></g><!--reverse link ISelection to SelectionImpl--><g class="link" data-entity-1="ent0028" data-entity-2="ent0052" data-link-type="extension" data-source-line="154" id="lnk53"><path codeLine="154" d="M1695.6684,399.2648 C1668.4184,448.3148 1626.45,523.87 1602.62,566.76" fill="none" id="ISelection-backto-SelectionImpl" style="stroke:#181818;stroke-width:1;stroke-dasharray:7,7;"/><polygon fill="none" points="1704.41,383.53,1690.4235,396.351,1700.9134,402.1787,1704.41,383.53" style="stroke:#181818;stroke-width:1;"/></g><!--link SelectionImpl to ReservoirSampling--><g class="link" data-entity-1="ent0052" data-entity-2="ent0054" data-link-type="association" data-source-line="163" id="lnk55"><path codeLine="163" d="M1589.62,615.41 C1589.62,639.75 1589.62,679.18 1589.62,713.89" fill="none" id="SelectionImpl-ReservoirSampling" style="stroke:#181818;stroke-width:1;"/></g><!--reverse link IValidator to ValidatorImpl--><g class="link" data-entity-1="ent0031" data-entity-2="ent0056" data-link-type="extension" data-source-line="168" id="lnk57"><path codeLine="168" d="M2787.8088,401.3515 C2794.7688,450.4015 2805.21,523.87 2811.3,566.76" fill="none" id="IValidator-backto-ValidatorImpl" style="stroke:#181818;stroke-width:1;stroke-dasharray:7,7;"/><polygon fill="none" points="2785.28,383.53,2781.8683,402.1944,2793.7493,400.5085,2785.28,383.53" style="stroke:#181818;stroke-width:1;"/></g><!--reverse link IAlleleAdder to RandomAlleleAdder--><g class="link" data-entity-1="ent0032" data-entity-2="ent0058" data-link-type="extension" data-source-line="173" id="lnk59"><path codeLine="173" d="M3127.6503,401.0404 C3115.9703,450.0904 3098.4,523.87 3088.19,566.76" fill="none" id="IAlleleAdder-backto-RandomAlleleAdder" style="stroke:#181818;stroke-width:1;"/><polygon fill="none" points="3131.82,383.53,3121.8135,399.6505,3133.4871,402.4303,3131.82,383.53" style="stroke:#181818;stroke-width:1;"/></g><!--reverse link IAlleleAdder to StretchAlleleAdder--><g class="link" data-entity-1="ent0032" data-entity-2="ent0060" data-link-type="extension" data-source-line="178" id="lnk61"><path codeLine="178" d="M3167.3204,399.1527 C3195.3904,448.2027 3238.69,523.87 3263.23,566.76" fill="none" id="IAlleleAdder-backto-StretchAlleleAdder" style="stroke:#181818;stroke-width:1;"/><polygon fill="none" points="3158.38,383.53,3162.1129,402.1328,3172.528,396.1725,3158.38,383.53" style="stroke:#181818;stroke-width:1;"/></g><!--reverse link ISpeciesCounter to DepthFirstSearchSpeciesCounter--><g class="link" data-entity-1="ent0033" data-entity-2="ent0062" data-link-type="extension" data-source-line="183" id="lnk63"><path codeLine="183" d="M2137.4376,401.351 C2130.4676,450.401 2120.04,523.87 2113.94,566.76" fill="none" id="ISpeciesCounter-backto-DepthFirstSearchSpeciesCounter" style="stroke:#181818;stroke-width:1;stroke-dasharray:7,7;"/><polygon fill="none" points="2139.97,383.53,2131.4973,400.5069,2143.378,402.1951,2139.97,383.53" style="stroke:#181818;stroke-width:1;"/></g><!--reverse link ISpeciesCounter to DisjointSetsSpeciesCounter--><g class="link" data-entity-1="ent0033" data-entity-2="ent0064" data-link-type="extension" data-source-line="187" id="lnk65"><path codeLine="187" d="M2188.7574,396.4843 C2236.0774,445.5343 2311.66,523.87 2353.04,566.76" fill="none" id="ISpeciesCounter-backto-DisjointSetsSpeciesCounter" style="stroke:#181818;stroke-width:1;stroke-dasharray:7,7;"/><polygon fill="none" points="2176.26,383.53,2184.4393,400.6501,2193.0755,392.3185,2176.26,383.53" style="stroke:#181818;stroke-width:1;"/></g><!--link ISpeciesCounter to ISimilarity--><g class="link" data-entity-1="ent0033" data-entity-2="ent0027" data-link-type="dependency" data-source-line="188" id="lnk66"><path codeLine="188" d="M2099.98,383.53 C2041.91,426.18 1945.1958,497.1982 1881.2858,544.1382" fill="none" id="ISpeciesCounter-to-ISimilarity" style="stroke:#181818;stroke-width:1;"/><polygon fill="#181818" points="1876.45,547.69,1886.0715,545.5862,1880.4798,544.7302,1881.3359,539.1385,1876.45,547.69" style="stroke:#181818;stroke-width:1;"/></g><?plantuml-src ZLRDZjiu3BxdAOGUPXmqwGCiWXH5VnO5Te5YKlHgA3QJgBKjGvA33ZBpxgKaIw9iJp4dYnH_FzAagePhpGwY7Hfkf6At5MDRLibE6_OLsQBXIfX7fkCn4u06AYDantGuqUi7w9Mi1o-X2465Vl16rCxtDPpezOUcGTCVwXeKu-vSSajaOVHG2T0VvT0P5DEUB2jFe-HRzZ1q1yCDQAQ6hhXJtNd3UgvugzUhvzLA6uMHiS-TiSdUd8he3EDdY6VeG9qV7ValTD8yzi3Eum5j90ots_reQRMg7BuFlAjbEuBRYxPlV52ENMY0UkqOLobgPib2UyPHoePL5zvLKFJh68hoYgteDgpblwdoPJYT6YZkhb2DRAoBL3jKsuzwfUXgKO4k743hMUm-h0WAGlVD8WM8fIROs3WJOQ3NZleFEyLerhYFJvDK_fkIHtuKZJ32rgB4c-E2LFA78gvC0NSmeigDd8aHtorE7RNnabFrpww2n3Y4s-UGx1Xzol9Q8igKuhyZrPOkIzJECPBRxMWeOlWY1DvJBOTZ0wmleQDT6zcs1SwmwEX5quk-bmff6mApIAJxhGYj6zc_mdcy2fuNopL9k59IQz6TSsuxuCzg1yMIqoMpmUMi0LAQNPxcDJb9BBG2fheikfsQJaDZqbLPXe1UAmLSGywr60zj7_qJSSD_JOHheLrRBCOrzJ_zcwb2_AdTC2JWW9jNVcIcwUVdRSxCfYi6v2VSct7CEBlxD-p6masQl9QNA1kwEnBUTlkqdvdwX-rsTiRMSDhlvybvrTLAsB_cn2l8zjQDZ57PzbXlHBJmmsd3-8OTronlTtawwLvXH_eC5sMVCszn2KOutu_xS5mqmKHQefiHS5n2ihVve7eoVaziae4yuP8qi-ophNiR1v_RQs45Gs6J2N4j9fMsCa5mND09lx3-5atGpNrB6mgtT-aRQuAE7yKRTZUtUfyP8v3GCkIFWDJQhepbsBR5KYsMQa0QpNOg1Njw4vy-amjQYEbTn7TwGHATESeo36-BSHhEgXvVH_-FOuwHUHSlFzhnAwy8M1LEc7pUGxkdT--Mt8G8aWTIPkSib3WDz0sPko-KEbeZTLvAqc4IX6CiAI4IJCmjnXFMZl-lCH8v61f4ClEQAA9q22E4zHMVUXY8XJIcvU2a0a4fMY5QAGwdbea4lTIQH97CGAUP2qNLqBjKCquPhqX5mam73GgHLGUEJ8HnzttlyBQTzVqzgmQbmEqCot3BrvtVuWZIO8hrIA7ecP1XFenLSa_J-valPjyTlY1v-EuzCX4EYSR_ZIIQPfnBD1F9N-xvABEwbBDxYX7HlpT0x9yKhp0nbmmsFa5lBb-4qkO0N5MNsQnpTSkPBgU_AmRhGl-KMAG36FrwooygpUGdo-eF?></g></svg>