<?plantuml 1.2026.2?><svg xmlns="http://www.w3.org/2000/svg" xmlns:xlink="http://www.w3.org/1999/xlink" contentStyleType="text/css" data-diagram-type="STATE" height="984px" preserveAspectRatio="none" style="width:360px;height:984px;background:#FFFFFF;" version="1.1" viewBox="0 0 360 984" width="360px" zoomAndPan="magnify"><defs/><g><g class="start_entity" data-qualified-name=".start." data-source-line="3" id="ent0002"><ellipse cx="109.63" cy="16" fill="#222222" rx="10" ry="10" style="stroke:#222222;stroke-width:1;"/></g><rect fill="#F1F1F1" height="40" rx="12.5" ry="12.5" style="stroke:#181818;stroke-width:0.5;" width="50" x="84.63" y="105"/><text fill="#000000" font-family="sans-serif" font-size="14" lengthAdjust="spacing" textLength="29.3579" x="94.9511" y="130.432">argv</text><rect fill="#F1F1F1" height="40" rx="12.5" ry="12.5" style="stroke:#181818;stroke-width:0.5;" width="205.2573" x="7" y="224"/><text fill="#000000" font-family="sans-serif" font-size="14" lengthAdjust="spacing" textLength="195.2573" x="12" y="249.432">ExperimentSweepParameters</text><rect fill="#F1F1F1" height="40" rx="12.5" ry="12.5" style="stroke:#181818;stroke-width:0.5;" width="162.1654" x="28.55" y="343"/><text fill="#000000" font-family="sans-serif" font-size="14" lengthAdjust="spacing" textLength="152.1654" x="33.55" y="368.432">ExperimentParameters</text><rect fill="#F1F1F1" height="40" rx="12.5" ry="12.5" style="stroke:#181818;stroke-width:0.5;" width="112.3956" x="53.43" y="462"/><text fill="#000000" font-family="sans-serif" font-size="14" lengthAdjust="spacing" textLength="102.3956" x="58.43" y="487.432">RunParameters</text><rect fill="#F1F1F1" height="40" rx="12.5" ry="12.5" style="stroke:#181818;stroke-width:0.5;" width="76.2617" x="71.5" y="581"/><text fill="#000000" font-family="sans-serif" font-size="14" lengthAdjust="spacing" textLength="66.2617" x="76.5" y="606.432">RunStates</text><rect fill="#F1F1F1" height="40" rx="12.5" ry="12.5" style="stroke:#181818;stroke-width:0.5;" width="133.1155" x="43.07" y="700"/><text fill="#000000" font-family="sans-serif" font-size="14" lengthAdjust="spacing" textLength="123.1155" x="48.07" y="725.432">ExperimentResults</text><rect fill="#F1F1F1" height="40" rx="12.5" ry="12.5" style="stroke:#181818;stroke-width:0.5;" width="176.2074" x="21.52" y="819"/><text fill="#000000" font-family="sans-serif" font-size="14" lengthAdjust="spacing" textLength="166.2074" x="26.52" y="844.432">ExperimentSweepResults</text><rect fill="#F1F1F1" height="40" rx="12.5" ry="12.5" style="stroke:#181818;stroke-width:0.5;" width="50" x="84.63" y="938"/><text fill="#000000" font-family="sans-serif" font-size="14" lengthAdjust="spacing" textLength="19.8939" x="99.683" y="963.432">f&#225;jl</text><!--link *start* to argv--><g class="link" data-entity-1="ent0002" data-entity-2="ent0003" data-link-type="dependency" data-source-line="3" id="lnk4"><path d="M109.63,26.5 C109.63,43.99 109.63,75.62 109.63,98.68" fill="none" id="*start*-to-argv" style="stroke:#181818;stroke-width:1;"/><polygon fill="#181818" points="109.63,104.68,113.63,95.68,109.63,99.68,105.63,95.68,109.63,104.68" style="stroke:#181818;stroke-width:1;"/><text fill="#000000" font-family="sans-serif" font-size="13" lengthAdjust="spacing" textLength="38.636" x="110.63" y="70.897">main()</text></g><!--link argv to ExperimentSweepParameters--><g class="link" data-entity-1="ent0003" data-entity-2="ent0005" data-link-type="dependency" data-source-line="4" id="lnk6"><path d="M109.63,145.32 C109.63,167 109.63,195.96 109.63,217.65" fill="none" id="argv-to-ExperimentSweepParameters" style="stroke:#181818;stroke-width:1;"/><polygon fill="#181818" points="109.63,223.65,113.63,214.65,109.63,218.65,105.63,214.65,109.63,223.65" style="stroke:#181818;stroke-width:1;"/><text fill="#000000" font-family="sans-serif" font-size="13" lengthAdjust="spacing" textLength="74.6721" x="110.63" y="189.897">parse_args()</text></g><!--link ExperimentSweepParameters to ExperimentParameters--><g class="link" data-entity-1="ent0005" data-entity-2="ent0007" data-link-type="dependency" data-source-line="5" id="lnk8"><path d="M109.63,264.32 C109.63,286 109.63,314.96 109.63,336.65" fill="none" id="ExperimentSweepParameters-to-ExperimentParameters" style="stroke:#181818;stroke-width:1;"/><polygon fill="#181818" points="109.63,342.65,113.63,333.65,109.63,337.65,105.63,333.65,109.63,342.65" style="stroke:#181818;stroke-width:1;"/><text fill="#000000" font-family="sans-serif" font-size="13" lengthAdjust="spacing" textLength="241.6052" x="110.63" y="308.897">ExperimentSweepParameters::expand()</text></g><!--link ExperimentParameters to RunParameters--><g class="link" data-entity-1="ent0007" data-entity-2="ent0009" data-link-type="dependency" data-source-line="6" id="lnk10"><path d="M109.63,383.32 C109.63,405 109.63,433.96 109.63,455.65" fill="none" id="ExperimentParameters-to-RunParameters" style="stroke:#181818;stroke-width:1;"/><polygon fill="#181818" points="109.63,461.65,113.63,452.65,109.63,456.65,105.63,452.65,109.63,461.65" style="stroke:#181818;stroke-width:1;"/><text fill="#000000" font-family="sans-serif" font-size="13" lengthAdjust="spacing" textLength="201.5912" x="110.63" y="427.897">ExperimentParameters::expand()</text></g><!--link RunParameters to RunStates--><g class="link" data-entity-1="ent0009" data-entity-2="ent0011" data-link-type="dependency" data-source-line="7" id="lnk12"><path d="M109.63,502.32 C109.63,524 109.63,552.96 109.63,574.65" fill="none" id="RunParameters-to-RunStates" style="stroke:#181818;stroke-width:1;"/><polygon fill="#181818" points="109.63,580.65,113.63,571.65,109.63,575.65,105.63,571.65,109.63,580.65" style="stroke:#181818;stroke-width:1;"/><text fill="#000000" font-family="sans-serif" font-size="13" lengthAdjust="spacing" textLength="95.4591" x="110.63" y="546.897">Simulator::run()</text></g><!--link RunStates to ExperimentResults--><g class="link" data-entity-1="ent0011" data-entity-2="ent0013" data-link-type="dependency" data-source-line="8" id="lnk14"><path d="M109.63,621.32 C109.63,643 109.63,671.96 109.63,693.65" fill="none" id="RunStates-to-ExperimentResults" style="stroke:#181818;stroke-width:1;"/><polygon fill="#181818" points="109.63,699.65,113.63,690.65,109.63,694.65,105.63,690.65,109.63,699.65" style="stroke:#181818;stroke-width:1;"/><text fill="#000000" font-family="sans-serif" font-size="13" lengthAdjust="spacing" textLength="61.5421" x="110.63" y="665.897">measure()</text></g><!--link ExperimentResults to ExperimentSweepResults--><g class="link" data-entity-1="ent0013" data-entity-2="ent0015" data-link-type="dependency" data-source-line="9" id="lnk16"><path d="M109.63,740.32 C109.63,762 109.63,790.96 109.63,812.65" fill="none" id="ExperimentResults-to-ExperimentSweepResults" style="stroke:#181818;stroke-width:1;"/><polygon fill="#181818" points="109.63,818.65,113.63,809.65,109.63,813.65,105.63,809.65,109.63,818.65" style="stroke:#181818;stroke-width:1;"/><text fill="#000000" font-family="sans-serif" font-size="13" lengthAdjust="spacing" textLength="61.5421" x="110.63" y="784.897">measure()</text></g><!--link ExperimentSweepResults to f?jl--><g class="link" data-entity-1="ent0015" data-entity-2="ent0017" data-link-type="dependency" data-source-line="10" id="lnk18"><path d="M109.63,859.32 C109.63,881 109.63,909.96 109.63,931.65" fill="none" id="ExperimentSweepResults-to-f&#225;jl" style="stroke:#181818;stroke-width:1;"/><polygon fill="#181818" points="109.63,937.65,113.63,928.65,109.63,932.65,105.63,928.65,109.63,937.65" style="stroke:#181818;stroke-width:1;"/><text fill="#000000" font-family="sans-serif" font-size="13" lengthAdjust="spacing" textLength="142.1032" x="110.63" y="903.897">IOOutputWriter::write()</text></g><?plantuml-src VP2n3i8W443tVWMZDUaFCBWvEDMqWuCnvc9FnHGans7hv_Wj_fYWTS2qJWJklPSBPzMWG6tvBXfq1rAMrTLasNQ-4qMn442dcv12WpApF7lVulEojqXAe-6wGxHh8D38I2wm5iZXFg0k6DDWcaaAavAKs5imJHB-QLRUJCH6Eoa-16e6nYZNIliM-4fIaZSVV1Yc-rVeVCjHqGZE4oOhVgSZN_TVJ91e7v-FInlWLLbwjfutfCBYKdRndEKl?></g></svg>