<?plantuml 1.2026.2?><svg xmlns="http://www.w3.org/2000/svg" xmlns:xlink="http://www.w3.org/1999/xlink" contentStyleType="text/css" data-diagram-type="CLASS" height="672px" preserveAspectRatio="none" style="width:606px;height:672px;background:#FFFFFF;" version="1.1" viewBox="0 0 606 672" width="606px" zoomAndPan="magnify"><defs/><g><!--class Simulator--><g class="entity" data-qualified-name="Simulator" data-source-line="1" id="ent0002"><rect fill="#F1F1F1" height="181.4754" rx="2.5" ry="2.5" style="stroke:#181818;stroke-width:0.5;" width="281.695" x="181.09" y="7"/><ellipse cx="285.7816" cy="23" fill="#ADD1B2" rx="11" ry="11" style="stroke:#181818;stroke-width:1;"/><path d="M285.2504,29.9219 Q283.5004,29.9219 282.3597,29.1875 Q281.2347,28.4375 280.6722,27.0938 Q280.1254,25.7344 280.1254,23.9375 Q280.1254,21.9063 280.7816,20.4531 Q281.4379,19 282.7191,18.2188 Q284.0004,17.4375 285.8754,17.4375 Q286.766,17.4375 287.4379,17.625 Q288.1097,17.7969 288.7972,18.1406 L287.9847,20.1563 Q287.3597,19.8438 286.8129,19.7188 Q286.2816,19.5938 285.7972,19.5938 Q284.6254,19.5938 283.9222,20.125 Q283.2191,20.6563 282.9222,21.6094 Q282.6254,22.5625 282.6254,23.8281 Q282.6254,25.8438 283.3441,26.8125 Q284.0629,27.7656 285.6566,27.7656 Q286.2504,27.7656 286.8754,27.6094 Q287.5004,27.4531 288.3285,27.0781 L288.3285,29.2969 Q287.5941,29.6094 286.7972,29.7656 Q286.016,29.9219 285.2504,29.9219 Z " fill="#000000"/><text fill="#000000" font-family="sans-serif" font-size="14" lengthAdjust="spacing" textLength="63.8118" x="306.2816" y="28.432">Simulator</text><line style="stroke:#181818;stroke-width:0.5;" x1="182.09" x2="461.785" y1="39" y2="39"/><g data-visibility-modifier="PRIVATE_FIELD"><rect fill="none" height="6" style="stroke:#C82930;stroke-width:1;" width="6" x="189.09" y="51.034"/></g><text fill="#000000" font-family="sans-serif" font-size="14" lengthAdjust="spacing" textLength="168.7554" x="201.09" y="57.9659">const ISimilarity similarity</text><g data-visibility-modifier="PRIVATE_FIELD"><rect fill="none" height="6" style="stroke:#C82930;stroke-width:1;" width="6" x="189.09" y="70.1019"/></g><text fill="#000000" font-family="sans-serif" font-size="14" lengthAdjust="spacing" textLength="165.8434" x="201.09" y="77.0339">const ISelection selection</text><g data-visibility-modifier="PRIVATE_FIELD"><rect fill="none" height="6" style="stroke:#C82930;stroke-width:1;" width="6" x="189.09" y="89.1698"/></g><text fill="#000000" font-family="sans-serif" font-size="14" lengthAdjust="spacing" textLength="223.1732" x="201.09" y="96.1018">const IReproduction reproduction</text><g data-visibility-modifier="PRIVATE_FIELD"><rect fill="none" height="6" style="stroke:#C82930;stroke-width:1;" width="6" x="189.09" y="108.2377"/></g><text fill="#000000" font-family="sans-serif" font-size="14" lengthAdjust="spacing" textLength="200.1292" x="201.09" y="115.1697">const IGeneAdder gene_adder</text><g data-visibility-modifier="PRIVATE_FIELD"><rect fill="none" height="6" style="stroke:#C82930;stroke-width:1;" width="6" x="189.09" y="127.3056"/></g><text fill="#000000" font-family="sans-serif" font-size="14" lengthAdjust="spacing" textLength="255.695" x="201.09" y="134.2376">const ISpeciesCounter species_counter</text><g data-visibility-modifier="PRIVATE_FIELD"><rect fill="none" height="6" style="stroke:#C82930;stroke-width:1;" width="6" x="189.09" y="146.3735"/></g><text fill="#000000" font-family="sans-serif" font-size="14" lengthAdjust="spacing" textLength="221.8012" x="201.09" y="153.3055">const RunParameters parameters</text><line style="stroke:#181818;stroke-width:0.5;" x1="182.09" x2="461.785" y1="161.4075" y2="161.4075"/><g data-visibility-modifier="PUBLIC_METHOD"><ellipse cx="192.09" cy="176.4415" fill="#84BE84" rx="3" ry="3" style="stroke:#038048;stroke-width:1;"/></g><text fill="#000000" font-family="sans-serif" font-size="14" lengthAdjust="spacing" textLength="134.6795" x="201.09" y="180.3734">RunStates run(&amp;rng)</text></g><!--class Entity--><g class="entity" data-qualified-name="Entity" data-source-line="11" id="ent0003"><rect fill="#F1F1F1" height="105.2038" rx="2.5" ry="2.5" style="stroke:#181818;stroke-width:0.5;" width="155.8775" x="7" y="249.47"/><ellipse cx="62.0408" cy="265.47" fill="#F1F1F1" rx="11" ry="11" style="stroke:#181818;stroke-width:1;"/><path d="M61.7127,272.1419 Q60.7908,272.1419 59.9002,271.97 Q59.0096,271.7825 58.2283,271.4075 L58.2283,269.1575 Q59.1814,269.6419 60.0564,269.8762 Q60.9471,270.095 61.7908,270.095 Q62.6658,270.095 63.2283,269.7981 Q63.7908,269.5012 63.7908,268.72 Q63.7908,268.1731 63.4939,267.8762 Q63.1971,267.5637 62.6346,267.2825 Q62.0721,267.0012 61.2908,266.595 Q60.5096,266.1731 59.8533,265.6887 Q59.2127,265.1887 58.8377,264.5169 Q58.4627,263.845 58.4627,262.8919 Q58.4627,261.2669 59.5564,260.47 Q60.6658,259.6575 62.4471,259.6575 Q63.1658,259.6575 64.1502,259.8294 Q65.1346,259.9856 66.0877,260.4387 L65.3064,262.3606 Q64.4627,262.0012 63.7752,261.8606 Q63.1033,261.7044 62.5877,261.7044 Q61.7439,261.7044 61.3533,262.0481 Q60.9783,262.3762 60.9783,263.0169 Q60.9783,263.5012 61.2127,263.8137 Q61.4627,264.1106 61.9314,264.3606 Q62.4158,264.6106 63.1502,264.9856 Q64.1502,265.47 64.8533,265.9387 Q65.5564,266.4075 65.9314,267.0325 Q66.3064,267.6419 66.3064,268.5794 Q66.3064,269.7669 65.7283,270.5637 Q65.1658,271.345 64.1189,271.7512 Q63.0877,272.1419 61.7127,272.1419 Z " fill="#000000"/><text fill="#000000" font-family="sans-serif" font-size="14" lengthAdjust="spacing" textLength="37.2959" x="82.5408" y="270.902">Entity</text><line style="stroke:#181818;stroke-width:0.5;" x1="8" x2="161.8775" y1="281.47" y2="281.47"/><g data-visibility-modifier="PUBLIC_FIELD"><ellipse cx="18" cy="296.504" fill="none" rx="3" ry="3" style="stroke:#038048;stroke-width:1;"/></g><text fill="#000000" font-family="sans-serif" font-size="14" lengthAdjust="spacing" textLength="45.3178" x="27" y="300.4359">int age</text><g data-visibility-modifier="PUBLIC_FIELD"><ellipse cx="18" cy="315.5719" fill="none" rx="3" ry="3" style="stroke:#038048;stroke-width:1;"/></g><text fill="#000000" font-family="sans-serif" font-size="14" lengthAdjust="spacing" textLength="95.4656" x="27" y="319.5039">double energy</text><g data-visibility-modifier="PUBLIC_FIELD"><ellipse cx="18" cy="334.6398" fill="none" rx="3" ry="3" style="stroke:#038048;stroke-width:1;"/></g><text fill="#000000" font-family="sans-serif" font-size="14" lengthAdjust="spacing" textLength="129.8775" x="27" y="338.5718">Genotype genotype</text><line style="stroke:#181818;stroke-width:0.5;" x1="8" x2="161.8775" y1="346.6738" y2="346.6738"/></g><!--class vector<int>--><g class="entity" data-qualified-name="vector.int." data-source-line="17" id="ent0004"><rect fill="#F1F1F1" height="48" rx="2.5" ry="2.5" style="stroke:#181818;stroke-width:0.5;" width="106.3677" x="31.75" y="589.28"/><ellipse cx="46.75" cy="605.28" fill="#ADD1B2" rx="11" ry="11" style="stroke:#181818;stroke-width:1;"/><path d="M46.2188,612.2019 Q44.4688,612.2019 43.3281,611.4675 Q42.2031,610.7175 41.6406,609.3738 Q41.0938,608.0144 41.0938,606.2175 Q41.0938,604.1863 41.75,602.7331 Q42.4063,601.28 43.6875,600.4988 Q44.9688,599.7175 46.8438,599.7175 Q47.7344,599.7175 48.4063,599.905 Q49.0781,600.0769 49.7656,600.4206 L48.9531,602.4363 Q48.3281,602.1238 47.7813,601.9988 Q47.25,601.8738 46.7656,601.8738 Q45.5938,601.8738 44.8906,602.405 Q44.1875,602.9363 43.8906,603.8894 Q43.5938,604.8425 43.5938,606.1081 Q43.5938,608.1238 44.3125,609.0925 Q45.0313,610.0456 46.625,610.0456 Q47.2188,610.0456 47.8438,609.8894 Q48.4688,609.7331 49.2969,609.3581 L49.2969,611.5769 Q48.5625,611.8894 47.7656,612.0456 Q46.9844,612.2019 46.2188,612.2019 Z " fill="#000000"/><text fill="#000000" font-family="sans-serif" font-size="14" lengthAdjust="spacing" textLength="74.3677" x="60.75" y="610.712">vector&lt;int&gt;</text><line style="stroke:#181818;stroke-width:0.5;" x1="32.75" x2="137.1177" y1="621.28" y2="621.28"/><line style="stroke:#181818;stroke-width:0.5;" x1="32.75" x2="137.1177" y1="629.28" y2="629.28"/></g><!--class Genotype--><g class="entity" data-qualified-name="Genotype" data-source-line="18" id="ent0005"><rect fill="#F1F1F1" height="48" rx="2.5" ry="2.5" style="stroke:#181818;stroke-width:0.5;" width="95.9097" x="36.98" y="433.68"/><ellipse cx="51.98" cy="449.68" fill="#ADD1B2" rx="11" ry="11" style="stroke:#181818;stroke-width:1;"/><path d="M51.4488,456.6019 Q49.6988,456.6019 48.5581,455.8675 Q47.4331,455.1175 46.8706,453.7738 Q46.3238,452.4144 46.3238,450.6175 Q46.3238,448.5863 46.98,447.1331 Q47.6363,445.68 48.9175,444.8988 Q50.1988,444.1175 52.0738,444.1175 Q52.9644,444.1175 53.6363,444.305 Q54.3081,444.4769 54.9956,444.8206 L54.1831,446.8363 Q53.5581,446.5238 53.0113,446.3988 Q52.48,446.2738 51.9956,446.2738 Q50.8238,446.2738 50.1206,446.805 Q49.4175,447.3363 49.1206,448.2894 Q48.8238,449.2425 48.8238,450.5081 Q48.8238,452.5238 49.5425,453.4925 Q50.2613,454.4456 51.855,454.4456 Q52.4488,454.4456 53.0738,454.2894 Q53.6988,454.1331 54.5269,453.7581 L54.5269,455.9769 Q53.7925,456.2894 52.9956,456.4456 Q52.2144,456.6019 51.4488,456.6019 Z " fill="#000000"/><text fill="#000000" font-family="sans-serif" font-size="14" lengthAdjust="spacing" textLength="63.9097" x="65.98" y="455.112">Genotype</text><line style="stroke:#181818;stroke-width:0.5;" x1="37.98" x2="131.8897" y1="465.68" y2="465.68"/><line style="stroke:#181818;stroke-width:0.5;" x1="37.98" x2="131.8897" y1="473.68" y2="473.68"/></g><!--class Environment--><g class="entity" data-qualified-name="Environment" data-source-line="21" id="ent0007"><rect fill="#F1F1F1" height="105.2038" rx="2.5" ry="2.5" style="stroke:#181818;stroke-width:0.5;" width="247.9971" x="197.94" y="249.47"/><ellipse cx="275.3107" cy="265.47" fill="#ADD1B2" rx="11" ry="11" style="stroke:#181818;stroke-width:1;"/><path d="M274.7795,272.3919 Q273.0295,272.3919 271.8889,271.6575 Q270.7639,270.9075 270.2014,269.5637 Q269.6545,268.2044 269.6545,266.4075 Q269.6545,264.3762 270.3107,262.9231 Q270.967,261.47 272.2482,260.6887 Q273.5295,259.9075 275.4045,259.9075 Q276.2951,259.9075 276.967,260.095 Q277.6389,260.2669 278.3264,260.6106 L277.5139,262.6262 Q276.8889,262.3137 276.342,262.1887 Q275.8107,262.0637 275.3264,262.0637 Q274.1545,262.0637 273.4514,262.595 Q272.7482,263.1262 272.4514,264.0794 Q272.1545,265.0325 272.1545,266.2981 Q272.1545,268.3137 272.8732,269.2825 Q273.592,270.2356 275.1857,270.2356 Q275.7795,270.2356 276.4045,270.0794 Q277.0295,269.9231 277.8576,269.5481 L277.8576,271.7669 Q277.1232,272.0794 276.3264,272.2356 Q275.5451,272.3919 274.7795,272.3919 Z " fill="#000000"/><text fill="#000000" font-family="sans-serif" font-size="14" lengthAdjust="spacing" textLength="84.7557" x="295.8107" y="270.902">Environment</text><line style="stroke:#181818;stroke-width:0.5;" x1="198.94" x2="444.9371" y1="281.47" y2="281.47"/><g data-visibility-modifier="PRIVATE_FIELD"><rect fill="none" height="6" style="stroke:#C82930;stroke-width:1;" width="6" x="205.94" y="293.504"/></g><text fill="#000000" font-family="sans-serif" font-size="14" lengthAdjust="spacing" textLength="95.4656" x="217.94" y="300.4359">double energy</text><line style="stroke:#181818;stroke-width:0.5;" x1="198.94" x2="444.9371" y1="308.5379" y2="308.5379"/><g data-visibility-modifier="PUBLIC_METHOD"><ellipse cx="208.94" cy="323.5719" fill="#84BE84" rx="3" ry="3" style="stroke:#038048;stroke-width:1;"/></g><text fill="#000000" font-family="sans-serif" font-size="14" lengthAdjust="spacing" textLength="221.9971" x="217.94" y="327.5039">double take(double max_amount)</text><g data-visibility-modifier="PUBLIC_METHOD"><ellipse cx="208.94" cy="342.6398" fill="#84BE84" rx="3" ry="3" style="stroke:#038048;stroke-width:1;"/></g><text fill="#000000" font-family="sans-serif" font-size="14" lengthAdjust="spacing" textLength="202.5232" x="217.94" y="346.5718">void replenish(double amount)</text></g><!--class State--><g class="entity" data-qualified-name="State" data-source-line="27" id="ent0008"><rect fill="#F1F1F1" height="105.2038" rx="2.5" ry="2.5" style="stroke:#181818;stroke-width:0.5;" width="138.8676" x="460.5" y="560.68"/><ellipse cx="508.9118" cy="576.68" fill="#F1F1F1" rx="11" ry="11" style="stroke:#181818;stroke-width:1;"/><path d="M508.5837,583.3519 Q507.6618,583.3519 506.7712,583.18 Q505.8806,582.9925 505.0993,582.6175 L505.0993,580.3675 Q506.0525,580.8519 506.9275,581.0863 Q507.8181,581.305 508.6618,581.305 Q509.5368,581.305 510.0993,581.0081 Q510.6618,580.7113 510.6618,579.93 Q510.6618,579.3831 510.365,579.0863 Q510.0681,578.7738 509.5056,578.4925 Q508.9431,578.2113 508.1618,577.805 Q507.3806,577.3831 506.7243,576.8988 Q506.0837,576.3988 505.7087,575.7269 Q505.3337,575.055 505.3337,574.1019 Q505.3337,572.4769 506.4275,571.68 Q507.5368,570.8675 509.3181,570.8675 Q510.0368,570.8675 511.0212,571.0394 Q512.0056,571.1956 512.9587,571.6488 L512.1775,573.5706 Q511.3337,573.2113 510.6462,573.0706 Q509.9743,572.9144 509.4587,572.9144 Q508.615,572.9144 508.2243,573.2581 Q507.8493,573.5863 507.8493,574.2269 Q507.8493,574.7113 508.0837,575.0238 Q508.3337,575.3206 508.8025,575.5706 Q509.2868,575.8206 510.0212,576.1956 Q511.0212,576.68 511.7243,577.1488 Q512.4275,577.6175 512.8025,578.2425 Q513.1775,578.8519 513.1775,579.7894 Q513.1775,580.9769 512.5993,581.7738 Q512.0368,582.555 510.99,582.9613 Q509.9587,583.3519 508.5837,583.3519 Z " fill="#000000"/><text fill="#000000" font-family="sans-serif" font-size="14" lengthAdjust="spacing" textLength="33.5439" x="529.4118" y="582.112">State</text><line style="stroke:#181818;stroke-width:0.5;" x1="461.5" x2="598.3676" y1="592.68" y2="592.68"/><g data-visibility-modifier="PUBLIC_FIELD"><ellipse cx="471.5" cy="607.714" fill="none" rx="3" ry="3" style="stroke:#038048;stroke-width:1;"/></g><text fill="#000000" font-family="sans-serif" font-size="14" lengthAdjust="spacing" textLength="102.1296" x="480.5" y="611.6459">int entity_count</text><g data-visibility-modifier="PUBLIC_FIELD"><ellipse cx="471.5" cy="626.7819" fill="none" rx="3" ry="3" style="stroke:#038048;stroke-width:1;"/></g><text fill="#000000" font-family="sans-serif" font-size="14" lengthAdjust="spacing" textLength="97.7756" x="480.5" y="630.7139">int gene_count</text><g data-visibility-modifier="PUBLIC_FIELD"><ellipse cx="471.5" cy="645.8498" fill="none" rx="3" ry="3" style="stroke:#038048;stroke-width:1;"/></g><text fill="#000000" font-family="sans-serif" font-size="14" lengthAdjust="spacing" textLength="112.8676" x="480.5" y="649.7818">int species_count</text><line style="stroke:#181818;stroke-width:0.5;" x1="461.5" x2="598.3676" y1="657.8838" y2="657.8838"/></g><!--class vector<State>--><g class="entity" data-qualified-name="vector.State." data-source-line="33" id="ent0009"><rect fill="#F1F1F1" height="48" rx="2.5" ry="2.5" style="stroke:#181818;stroke-width:0.5;" width="122.5937" x="468.64" y="433.68"/><ellipse cx="483.64" cy="449.68" fill="#ADD1B2" rx="11" ry="11" style="stroke:#181818;stroke-width:1;"/><path d="M483.1088,456.6019 Q481.3588,456.6019 480.2181,455.8675 Q479.0931,455.1175 478.5306,453.7738 Q477.9838,452.4144 477.9838,450.6175 Q477.9838,448.5863 478.64,447.1331 Q479.2963,445.68 480.5775,444.8988 Q481.8588,444.1175 483.7338,444.1175 Q484.6244,444.1175 485.2963,444.305 Q485.9681,444.4769 486.6556,444.8206 L485.8431,446.8363 Q485.2181,446.5238 484.6713,446.3988 Q484.14,446.2738 483.6556,446.2738 Q482.4838,446.2738 481.7806,446.805 Q481.0775,447.3363 480.7806,448.2894 Q480.4838,449.2425 480.4838,450.5081 Q480.4838,452.5238 481.2025,453.4925 Q481.9213,454.4456 483.515,454.4456 Q484.1088,454.4456 484.7338,454.2894 Q485.3588,454.1331 486.1869,453.7581 L486.1869,455.9769 Q485.4525,456.2894 484.6556,456.4456 Q483.8744,456.6019 483.1088,456.6019 Z " fill="#000000"/><text fill="#000000" font-family="sans-serif" font-size="14" lengthAdjust="spacing" textLength="90.5937" x="497.64" y="455.112">vector&lt;State&gt;</text><line style="stroke:#181818;stroke-width:0.5;" x1="469.64" x2="590.2337" y1="465.68" y2="465.68"/><line style="stroke:#181818;stroke-width:0.5;" x1="469.64" x2="590.2337" y1="473.68" y2="473.68"/></g><!--class RunStates--><g class="entity" data-qualified-name="RunStates" data-source-line="34" id="ent0010"><rect fill="#F1F1F1" height="48" rx="2.5" ry="2.5" style="stroke:#181818;stroke-width:0.5;" width="98.2617" x="480.81" y="278.07"/><ellipse cx="495.81" cy="294.07" fill="#ADD1B2" rx="11" ry="11" style="stroke:#181818;stroke-width:1;"/><path d="M495.2788,300.9919 Q493.5288,300.9919 492.3881,300.2575 Q491.2631,299.5075 490.7006,298.1638 Q490.1538,296.8044 490.1538,295.0075 Q490.1538,292.9763 490.81,291.5231 Q491.4663,290.07 492.7475,289.2888 Q494.0288,288.5075 495.9038,288.5075 Q496.7944,288.5075 497.4663,288.695 Q498.1381,288.8669 498.8256,289.2106 L498.0131,291.2263 Q497.3881,290.9138 496.8413,290.7888 Q496.31,290.6638 495.8256,290.6638 Q494.6538,290.6638 493.9506,291.195 Q493.2475,291.7263 492.9506,292.6794 Q492.6538,293.6325 492.6538,294.8981 Q492.6538,296.9138 493.3725,297.8825 Q494.0913,298.8356 495.685,298.8356 Q496.2788,298.8356 496.9038,298.6794 Q497.5288,298.5231 498.3569,298.1481 L498.3569,300.3669 Q497.6225,300.6794 496.8256,300.8356 Q496.0444,300.9919 495.2788,300.9919 Z " fill="#000000"/><text fill="#000000" font-family="sans-serif" font-size="14" lengthAdjust="spacing" textLength="66.2617" x="509.81" y="299.502">RunStates</text><line style="stroke:#181818;stroke-width:0.5;" x1="481.81" x2="578.0717" y1="310.07" y2="310.07"/><line style="stroke:#181818;stroke-width:0.5;" x1="481.81" x2="578.0717" y1="318.07" y2="318.07"/></g><!--link Genotype to vector<int>--><g class="link" data-entity-1="ent0005" data-entity-2="ent0004" data-link-type="extension" data-source-line="19" id="lnk6"><path codeLine="19" d="M84.94,482.01 C84.94,511.04 84.94,542.33 84.94,571.23" fill="none" id="Genotype-to-vector&lt;int&gt;" style="stroke:#181818;stroke-width:1;"/><polygon fill="none" points="84.94,589.23,90.94,571.23,78.94,571.23,84.94,589.23" style="stroke:#181818;stroke-width:1;"/><text fill="#000000" font-family="sans-serif" font-size="13" lengthAdjust="spacing" textLength="59.683" x="85.94" y="526.577">&#171;typedef&#187;</text></g><!--link RunStates to vector<State>--><g class="link" data-entity-1="ent0010" data-entity-2="ent0009" data-link-type="extension" data-source-line="35" id="lnk11"><path codeLine="35" d="M529.94,326.4 C529.94,355.44 529.94,386.73 529.94,415.63" fill="none" id="RunStates-to-vector&lt;State&gt;" style="stroke:#181818;stroke-width:1;"/><polygon fill="none" points="529.94,433.63,535.94,415.63,523.94,415.63,529.94,433.63" style="stroke:#181818;stroke-width:1;"/><text fill="#000000" font-family="sans-serif" font-size="13" lengthAdjust="spacing" textLength="59.683" x="530.94" y="399.577">&#171;typedef&#187;</text></g><!--link Simulator to Entity--><g class="link" data-entity-1="ent0002" data-entity-2="ent0003" data-link-type="dependency" data-source-line="37" id="lnk12"><path codeLine="37" d="M216.26,188.96 C192.19,209.51 171.9742,226.7754 150.5042,245.0954" fill="none" id="Simulator-to-Entity" style="stroke:#181818;stroke-width:1;"/><polygon fill="#181818" points="145.94,248.99,155.3827,246.1909,149.7435,245.7445,150.19,240.1053,145.94,248.99" style="stroke:#181818;stroke-width:1;"/></g><!--link Simulator to Environment--><g class="link" data-entity-1="ent0002" data-entity-2="ent0007" data-link-type="dependency" data-source-line="38" id="lnk13"><path codeLine="38" d="M321.94,188.96 C321.94,209.51 321.94,224.67 321.94,242.99" fill="none" id="Simulator-to-Environment" style="stroke:#181818;stroke-width:1;"/><polygon fill="#181818" points="321.94,248.99,325.94,239.99,321.94,243.99,317.94,239.99,321.94,248.99" style="stroke:#181818;stroke-width:1;"/></g><!--link Simulator to RunStates--><g class="link" data-entity-1="ent0002" data-entity-2="ent0010" data-link-type="dependency" data-source-line="39" id="lnk14"><path codeLine="39" d="M414.68,188.96 C448.27,221.63 479.1395,251.656 501.6595,273.566" fill="none" id="Simulator-to-RunStates" style="stroke:#181818;stroke-width:1;"/><polygon fill="#181818" points="505.96,277.75,502.2986,268.607,502.3763,274.2633,496.7199,274.341,505.96,277.75" style="stroke:#181818;stroke-width:1;"/></g><!--reverse link vector<State> to State--><g class="link" data-entity-1="ent0009" data-entity-2="ent0008" data-link-type="composition" data-source-line="41" id="lnk15"><path codeLine="41" d="M529.94,494.01 C529.94,514.73 529.94,533.78 529.94,560.37" fill="none" id="vector&lt;State&gt;-backto-State" style="stroke:#181818;stroke-width:1;"/><polygon fill="#181818" points="529.94,482.01,525.94,488.01,529.94,494.01,533.94,488.01,529.94,482.01" style="stroke:#181818;stroke-width:1;"/></g><!--reverse link Entity to Genotype--><g class="link" data-entity-1="ent0003" data-entity-2="ent0005" data-link-type="composition" data-source-line="43" id="lnk16"><path codeLine="43" d="M84.94,367.08 C84.94,393.71 84.94,412.8 84.94,433.5" fill="none" id="Entity-backto-Genotype" style="stroke:#181818;stroke-width:1;"/><polygon fill="#181818" points="84.94,355.08,80.94,361.08,84.94,367.08,88.94,361.08,84.94,355.08" style="stroke:#181818;stroke-width:1;"/></g><?plantuml-src PPBTReGW48NlUOh9NZIxRNY1nfWqpQRfNRFx08Rgr98Y641JO_VT2oZuitTdpXnW_CPIC6FWofjECAiqZ0I0GgcaiV3kR2wOvdO0a-GcW09BovK44zMwVS5MgwgR4dfLh4DlAF6bgb13xLJ1lDoyqMB9qRogJbeNCbDPb5EzIbuw-S4qQz3P1jeaNUJ9Dw-MMJIWEtbyqB8-aHiXncet4PobzHyvXYYN5bYDGLUg-nG8RZ1T3y5nuoexjEYd3S9VKmQAXzuXK3fp5-G766-pdKuu9sbA__BTWMV8Cj-hy2lFuvrdsNEjP8Dkg6atzoFDZcK_U9nrmtuBrdX4fn3f5Q_y1WHARhvZAYOM487HYWC6C1FiP8OzRQtDLkw9X6iz4uXGbdruRwasNEAn7PdbRwKqdtTtPoPikqvwYf3zCu-KJW08cNy8xyIL_GC0?></g></svg>