<?plantuml 1.2026.2?><svg xmlns="http://www.w3.org/2000/svg" xmlns:xlink="http://www.w3.org/1999/xlink" contentStyleType="text/css" data-diagram-type="CLASS" height="1165px" preserveAspectRatio="none" style="width:898px;height:1165px;background:#FFFFFF;" version="1.1" viewBox="0 0 898 1165" width="898px" zoomAndPan="magnify"><defs/><g><!--class RunParameters--><g class="entity" data-qualified-name="RunParameters" data-source-line="2" id="ent0002"><rect fill="#F1F1F1" height="67.0679" rx="2.5" ry="2.5" style="stroke:#181818;stroke-width:0.5;" width="134.3956" x="7" y="537.02"/><ellipse cx="22" cy="553.02" fill="#F1F1F1" rx="11" ry="11" style="stroke:#181818;stroke-width:1;"/><path d="M21.6719,559.6919 Q20.75,559.6919 19.8594,559.52 Q18.9688,559.3325 18.1875,558.9575 L18.1875,556.7075 Q19.1406,557.1919 20.0156,557.4262 Q20.9063,557.645 21.75,557.645 Q22.625,557.645 23.1875,557.3481 Q23.75,557.0512 23.75,556.27 Q23.75,555.7231 23.4531,555.4262 Q23.1563,555.1137 22.5938,554.8325 Q22.0313,554.5512 21.25,554.145 Q20.4688,553.7231 19.8125,553.2387 Q19.1719,552.7387 18.7969,552.0669 Q18.4219,551.395 18.4219,550.4419 Q18.4219,548.8169 19.5156,548.02 Q20.625,547.2075 22.4063,547.2075 Q23.125,547.2075 24.1094,547.3794 Q25.0938,547.5356 26.0469,547.9887 L25.2656,549.9106 Q24.4219,549.5512 23.7344,549.4106 Q23.0625,549.2544 22.5469,549.2544 Q21.7031,549.2544 21.3125,549.5981 Q20.9375,549.9262 20.9375,550.5669 Q20.9375,551.0512 21.1719,551.3637 Q21.4219,551.6606 21.8906,551.9106 Q22.375,552.1606 23.1094,552.5356 Q24.1094,553.02 24.8125,553.4887 Q25.5156,553.9575 25.8906,554.5825 Q26.2656,555.1919 26.2656,556.1294 Q26.2656,557.3169 25.6875,558.1137 Q25.125,558.895 24.0781,559.3012 Q23.0469,559.6919 21.6719,559.6919 Z " fill="#000000"/><text fill="#000000" font-family="sans-serif" font-size="14" lengthAdjust="spacing" textLength="102.3956" x="36" y="558.452">RunParameters</text><line style="stroke:#181818;stroke-width:0.5;" x1="8" x2="140.3956" y1="569.02" y2="569.02"/><text fill="#000000" font-family="sans-serif" font-size="14" lengthAdjust="spacing" textLength="11.256" x="13" y="587.9859">...</text><line style="stroke:#181818;stroke-width:0.5;" x1="8" x2="140.3956" y1="596.0879" y2="596.0879"/></g><g class="entity" data-qualified-name="GMN3" data-source-line="5" id="ent0004"><path d="M176.71,556.71 L176.71,566.56 L141.72,570.56 L176.71,574.56 L176.71,584.416 A0,0 0 0 0 176.71,584.416 L385.6772,584.416 A0,0 0 0 0 385.6772,584.416 L385.6772,566.71 L375.6772,556.71 L176.71,556.71 A0,0 0 0 0 176.71,556.71" fill="#FEFFDD" style="stroke:#181818;stroke-width:0.5;"/><path d="M375.6772,556.71 L375.6772,566.71 L385.6772,566.71 L375.6772,556.71" fill="#FEFFDD" style="stroke:#181818;stroke-width:0.5;"/><text fill="#000000" font-family="sans-serif" font-size="13" lengthAdjust="spacing" textLength="187.9672" x="182.71" y="575.607">L&#225;sd Simulator oszt&#225;lydiagram</text></g><!--class ExperimentParameters--><g class="entity" data-qualified-name="ExperimentParameters" data-source-line="7" id="ent0006"><rect fill="#F1F1F1" height="105.2038" rx="2.5" ry="2.5" style="stroke:#181818;stroke-width:0.5;" width="246.5132" x="109.94" y="370.82"/><ellipse cx="152.9965" cy="386.82" fill="#F1F1F1" rx="11" ry="11" style="stroke:#181818;stroke-width:1;"/><path d="M152.6683,393.4919 Q151.7465,393.4919 150.8558,393.32 Q149.9652,393.1325 149.184,392.7575 L149.184,390.5075 Q150.1371,390.9919 151.0121,391.2262 Q151.9027,391.445 152.7465,391.445 Q153.6215,391.445 154.184,391.1481 Q154.7465,390.8512 154.7465,390.07 Q154.7465,389.5231 154.4496,389.2262 Q154.1527,388.9137 153.5902,388.6325 Q153.0277,388.3512 152.2465,387.945 Q151.4652,387.5231 150.809,387.0387 Q150.1683,386.5387 149.7933,385.8669 Q149.4183,385.195 149.4183,384.2419 Q149.4183,382.6169 150.5121,381.82 Q151.6215,381.0075 153.4027,381.0075 Q154.1215,381.0075 155.1058,381.1794 Q156.0902,381.3356 157.0433,381.7887 L156.2621,383.7106 Q155.4183,383.3512 154.7308,383.2106 Q154.059,383.0544 153.5433,383.0544 Q152.6996,383.0544 152.309,383.3981 Q151.934,383.7262 151.934,384.3669 Q151.934,384.8512 152.1683,385.1637 Q152.4183,385.4606 152.8871,385.7106 Q153.3715,385.9606 154.1058,386.3356 Q155.1058,386.82 155.809,387.2887 Q156.5121,387.7575 156.8871,388.3825 Q157.2621,388.9919 157.2621,389.9294 Q157.2621,391.1169 156.684,391.9137 Q156.1215,392.695 155.0746,393.1012 Q154.0433,393.4919 152.6683,393.4919 Z " fill="#000000"/><text fill="#000000" font-family="sans-serif" font-size="14" lengthAdjust="spacing" textLength="152.1654" x="173.2312" y="392.252">ExperimentParameters</text><line style="stroke:#181818;stroke-width:0.5;" x1="110.94" x2="355.4532" y1="402.82" y2="402.82"/><g data-visibility-modifier="PUBLIC_FIELD"><ellipse cx="120.94" cy="417.854" fill="none" rx="3" ry="3" style="stroke:#038048;stroke-width:1;"/></g><text fill="#000000" font-family="sans-serif" font-size="14" lengthAdjust="spacing" textLength="211.8612" x="129.94" y="421.7859">RunParameters run_parameters</text><g data-visibility-modifier="PUBLIC_FIELD"><ellipse cx="120.94" cy="436.9219" fill="none" rx="3" ry="3" style="stroke:#038048;stroke-width:1;"/></g><text fill="#000000" font-family="sans-serif" font-size="14" lengthAdjust="spacing" textLength="50.7498" x="129.94" y="440.8539">int runs</text><line style="stroke:#181818;stroke-width:0.5;" x1="110.94" x2="355.4532" y1="448.9558" y2="448.9558"/><g data-visibility-modifier="PUBLIC_METHOD"><ellipse cx="120.94" cy="463.9898" fill="#84BE84" rx="3" ry="3" style="stroke:#038048;stroke-width:1;"/></g><text fill="#000000" font-family="sans-serif" font-size="14" lengthAdjust="spacing" textLength="220.5132" x="129.94" y="467.9218">vector&lt;RunParameters&gt; expand()</text></g><!--class ExperimentSweepParameters--><g class="entity" data-qualified-name="ExperimentSweepParameters" data-source-line="14" id="ent0008"><rect fill="#F1F1F1" height="105.2038" rx="2.5" ry="2.5" style="stroke:#181818;stroke-width:0.5;" width="307.973" x="71.21" y="186.62"/><ellipse cx="123.3178" cy="202.62" fill="#F1F1F1" rx="11" ry="11" style="stroke:#181818;stroke-width:1;"/><path d="M122.9897,209.2919 Q122.0678,209.2919 121.1772,209.12 Q120.2866,208.9325 119.5053,208.5575 L119.5053,206.3075 Q120.4585,206.7919 121.3335,207.0262 Q122.2241,207.245 123.0678,207.245 Q123.9428,207.245 124.5053,206.9481 Q125.0678,206.6512 125.0678,205.87 Q125.0678,205.3231 124.771,205.0262 Q124.4741,204.7137 123.9116,204.4325 Q123.3491,204.1512 122.5678,203.745 Q121.7866,203.3231 121.1303,202.8387 Q120.4897,202.3387 120.1147,201.6669 Q119.7397,200.995 119.7397,200.0419 Q119.7397,198.4169 120.8335,197.62 Q121.9428,196.8075 123.7241,196.8075 Q124.4428,196.8075 125.4272,196.9794 Q126.4116,197.1356 127.3647,197.5887 L126.5835,199.5106 Q125.7397,199.1512 125.0522,199.0106 Q124.3803,198.8544 123.8647,198.8544 Q123.021,198.8544 122.6303,199.1981 Q122.2553,199.5262 122.2553,200.1669 Q122.2553,200.6512 122.4897,200.9637 Q122.7397,201.2606 123.2085,201.5106 Q123.6928,201.7606 124.4272,202.1356 Q125.4272,202.62 126.1303,203.0887 Q126.8335,203.5575 127.2085,204.1825 Q127.5835,204.7919 127.5835,205.7294 Q127.5835,206.9169 127.0053,207.7137 Q126.4428,208.495 125.396,208.9012 Q124.3647,209.2919 122.9897,209.2919 Z " fill="#000000"/><text fill="#000000" font-family="sans-serif" font-size="14" lengthAdjust="spacing" textLength="195.2573" x="143.8178" y="208.052">ExperimentSweepParameters</text><line style="stroke:#181818;stroke-width:0.5;" x1="72.21" x2="378.183" y1="218.62" y2="218.62"/><g data-visibility-modifier="PUBLIC_FIELD"><ellipse cx="82.21" cy="233.654" fill="none" rx="3" ry="3" style="stroke:#038048;stroke-width:1;"/></g><text fill="#000000" font-family="sans-serif" font-size="14" lengthAdjust="spacing" textLength="281.973" x="91.21" y="237.5859">ExperimentParamteres starting_paramters</text><g data-visibility-modifier="PUBLIC_FIELD"><ellipse cx="82.21" cy="252.7219" fill="none" rx="3" ry="3" style="stroke:#038048;stroke-width:1;"/></g><text fill="#000000" font-family="sans-serif" font-size="14" lengthAdjust="spacing" textLength="139.0615" x="91.21" y="256.6539">RunParameters delta</text><line style="stroke:#181818;stroke-width:0.5;" x1="72.21" x2="378.183" y1="264.7558" y2="264.7558"/><g data-visibility-modifier="PUBLIC_METHOD"><ellipse cx="82.21" cy="279.7898" fill="#84BE84" rx="3" ry="3" style="stroke:#038048;stroke-width:1;"/></g><text fill="#000000" font-family="sans-serif" font-size="14" lengthAdjust="spacing" textLength="220.5132" x="91.21" y="283.7218">vector&lt;RunParameters&gt; expand()</text></g><!--class RunStates--><g class="entity" data-qualified-name="RunStates" data-source-line="22" id="ent0011"><rect fill="#F1F1F1" height="67.0679" rx="2.5" ry="2.5" style="stroke:#181818;stroke-width:0.5;" width="98.2617" x="270.07" y="839.76"/><ellipse cx="285.07" cy="855.76" fill="#ADD1B2" rx="11" ry="11" style="stroke:#181818;stroke-width:1;"/><path d="M284.5388,862.6819 Q282.7888,862.6819 281.6481,861.9475 Q280.5231,861.1975 279.9606,859.8538 Q279.4138,858.4944 279.4138,856.6975 Q279.4138,854.6663 280.07,853.2131 Q280.7263,851.76 282.0075,850.9788 Q283.2888,850.1975 285.1638,850.1975 Q286.0544,850.1975 286.7263,850.385 Q287.3981,850.5569 288.0856,850.9006 L287.2731,852.9163 Q286.6481,852.6038 286.1013,852.4788 Q285.57,852.3538 285.0856,852.3538 Q283.9138,852.3538 283.2106,852.885 Q282.5075,853.4163 282.2106,854.3694 Q281.9138,855.3225 281.9138,856.5881 Q281.9138,858.6038 282.6325,859.5725 Q283.3513,860.5256 284.945,860.5256 Q285.5388,860.5256 286.1638,860.3694 Q286.7888,860.2131 287.6169,859.8381 L287.6169,862.0569 Q286.8825,862.3694 286.0856,862.5256 Q285.3044,862.6819 284.5388,862.6819 Z " fill="#000000"/><text fill="#000000" font-family="sans-serif" font-size="14" lengthAdjust="spacing" textLength="66.2617" x="299.07" y="861.192">RunStates</text><line style="stroke:#181818;stroke-width:0.5;" x1="271.07" x2="367.3317" y1="871.76" y2="871.76"/><text fill="#000000" font-family="sans-serif" font-size="14" lengthAdjust="spacing" textLength="11.256" x="276.07" y="890.7259">...</text><line style="stroke:#181818;stroke-width:0.5;" x1="271.07" x2="367.3317" y1="898.8279" y2="898.8279"/></g><g class="entity" data-qualified-name="GMN12" data-source-line="25" id="ent0013"><path d="M403.71,859.44 L403.71,869.3 L368.66,873.3 L403.71,877.3 L403.71,887.146 A0,0 0 0 0 403.71,887.146 L612.6772,887.146 A0,0 0 0 0 612.6772,887.146 L612.6772,869.44 L602.6772,859.44 L403.71,859.44 A0,0 0 0 0 403.71,859.44" fill="#FEFFDD" style="stroke:#181818;stroke-width:0.5;"/><path d="M602.6772,859.44 L602.6772,869.44 L612.6772,869.44 L602.6772,859.44" fill="#FEFFDD" style="stroke:#181818;stroke-width:0.5;"/><text fill="#000000" font-family="sans-serif" font-size="13" lengthAdjust="spacing" textLength="187.9672" x="409.71" y="878.337">L&#225;sd Simulator oszt&#225;lydiagram</text></g><!--class vector<RunStates>--><g class="entity" data-qualified-name="vector.RunStates." data-source-line="27" id="ent0015"><rect fill="#F1F1F1" height="48" rx="2.5" ry="2.5" style="stroke:#181818;stroke-width:0.5;" width="155.3115" x="395.54" y="683.09"/><ellipse cx="410.54" cy="699.09" fill="#ADD1B2" rx="11" ry="11" style="stroke:#181818;stroke-width:1;"/><path d="M410.0088,706.0119 Q408.2588,706.0119 407.1181,705.2775 Q405.9931,704.5275 405.4306,703.1837 Q404.8838,701.8244 404.8838,700.0275 Q404.8838,697.9962 405.54,696.5431 Q406.1963,695.09 407.4775,694.3087 Q408.7588,693.5275 410.6338,693.5275 Q411.5244,693.5275 412.1963,693.715 Q412.8681,693.8869 413.5556,694.2306 L412.7431,696.2462 Q412.1181,695.9337 411.5713,695.8087 Q411.04,695.6837 410.5556,695.6837 Q409.3838,695.6837 408.6806,696.215 Q407.9775,696.7462 407.6806,697.6994 Q407.3838,698.6525 407.3838,699.9181 Q407.3838,701.9337 408.1025,702.9025 Q408.8213,703.8556 410.415,703.8556 Q411.0088,703.8556 411.6338,703.6994 Q412.2588,703.5431 413.0869,703.1681 L413.0869,705.3869 Q412.3525,705.6994 411.5556,705.8556 Q410.7744,706.0119 410.0088,706.0119 Z " fill="#000000"/><text fill="#000000" font-family="sans-serif" font-size="14" lengthAdjust="spacing" textLength="123.3115" x="424.54" y="704.522">vector&lt;RunStates&gt;</text><line style="stroke:#181818;stroke-width:0.5;" x1="396.54" x2="549.8515" y1="715.09" y2="715.09"/><line style="stroke:#181818;stroke-width:0.5;" x1="396.54" x2="549.8515" y1="723.09" y2="723.09"/></g><!--class ExperimentStates--><g class="entity" data-qualified-name="ExperimentStates" data-source-line="29" id="ent0017"><rect fill="#F1F1F1" height="48" rx="2.5" ry="2.5" style="stroke:#181818;stroke-width:0.5;" width="148.0316" x="425.18" y="546.56"/><ellipse cx="440.18" cy="562.56" fill="#ADD1B2" rx="11" ry="11" style="stroke:#181818;stroke-width:1;"/><path d="M439.6488,569.4819 Q437.8988,569.4819 436.7581,568.7475 Q435.6331,567.9975 435.0706,566.6538 Q434.5238,565.2944 434.5238,563.4975 Q434.5238,561.4663 435.18,560.0131 Q435.8363,558.56 437.1175,557.7788 Q438.3988,556.9975 440.2738,556.9975 Q441.1644,556.9975 441.8363,557.185 Q442.5081,557.3569 443.1956,557.7006 L442.3831,559.7163 Q441.7581,559.4038 441.2113,559.2788 Q440.68,559.1538 440.1956,559.1538 Q439.0238,559.1538 438.3206,559.685 Q437.6175,560.2163 437.3206,561.1694 Q437.0238,562.1225 437.0238,563.3881 Q437.0238,565.4038 437.7425,566.3725 Q438.4613,567.3256 440.055,567.3256 Q440.6488,567.3256 441.2738,567.1694 Q441.8988,567.0131 442.7269,566.6381 L442.7269,568.8569 Q441.9925,569.1694 441.1956,569.3256 Q440.4144,569.4819 439.6488,569.4819 Z " fill="#000000"/><text fill="#000000" font-family="sans-serif" font-size="14" lengthAdjust="spacing" textLength="116.0316" x="454.18" y="567.992">ExperimentStates</text><line style="stroke:#181818;stroke-width:0.5;" x1="426.18" x2="572.2116" y1="578.56" y2="578.56"/><line style="stroke:#181818;stroke-width:0.5;" x1="426.18" x2="572.2116" y1="586.56" y2="586.56"/></g><!--class vector<ExperimentStates>--><g class="entity" data-qualified-name="vector.ExperimentStates." data-source-line="32" id="ent0019"><rect fill="#F1F1F1" height="48" rx="2.5" ry="2.5" style="stroke:#181818;stroke-width:0.5;" width="205.0813" x="403.66" y="399.42"/><ellipse cx="418.66" cy="415.42" fill="#ADD1B2" rx="11" ry="11" style="stroke:#181818;stroke-width:1;"/><path d="M418.1288,422.3419 Q416.3788,422.3419 415.2381,421.6075 Q414.1131,420.8575 413.5506,419.5137 Q413.0038,418.1544 413.0038,416.3575 Q413.0038,414.3262 413.66,412.8731 Q414.3163,411.42 415.5975,410.6387 Q416.8788,409.8575 418.7538,409.8575 Q419.6444,409.8575 420.3163,410.045 Q420.9881,410.2169 421.6756,410.5606 L420.8631,412.5762 Q420.2381,412.2637 419.6913,412.1387 Q419.16,412.0137 418.6756,412.0137 Q417.5038,412.0137 416.8006,412.545 Q416.0975,413.0762 415.8006,414.0294 Q415.5038,414.9825 415.5038,416.2481 Q415.5038,418.2637 416.2225,419.2325 Q416.9413,420.1856 418.535,420.1856 Q419.1288,420.1856 419.7538,420.0294 Q420.3788,419.8731 421.2069,419.4981 L421.2069,421.7169 Q420.4725,422.0294 419.6756,422.1856 Q418.8944,422.3419 418.1288,422.3419 Z " fill="#000000"/><text fill="#000000" font-family="sans-serif" font-size="14" lengthAdjust="spacing" textLength="173.0813" x="432.66" y="420.852">vector&lt;ExperimentStates&gt;</text><line style="stroke:#181818;stroke-width:0.5;" x1="404.66" x2="607.7413" y1="431.42" y2="431.42"/><line style="stroke:#181818;stroke-width:0.5;" x1="404.66" x2="607.7413" y1="439.42" y2="439.42"/></g><!--class ExperimentSweepStates--><g class="entity" data-qualified-name="ExperimentSweepStates" data-source-line="34" id="ent0021"><rect fill="#F1F1F1" height="48" rx="2.5" ry="2.5" style="stroke:#181818;stroke-width:0.5;" width="191.1234" x="414.64" y="215.22"/><ellipse cx="429.64" cy="231.22" fill="#ADD1B2" rx="11" ry="11" style="stroke:#181818;stroke-width:1;"/><path d="M429.1088,238.1419 Q427.3588,238.1419 426.2181,237.4075 Q425.0931,236.6575 424.5306,235.3137 Q423.9838,233.9544 423.9838,232.1575 Q423.9838,230.1262 424.64,228.6731 Q425.2963,227.22 426.5775,226.4387 Q427.8588,225.6575 429.7338,225.6575 Q430.6244,225.6575 431.2963,225.845 Q431.9681,226.0169 432.6556,226.3606 L431.8431,228.3762 Q431.2181,228.0637 430.6713,227.9387 Q430.14,227.8137 429.6556,227.8137 Q428.4838,227.8137 427.7806,228.345 Q427.0775,228.8762 426.7806,229.8294 Q426.4838,230.7825 426.4838,232.0481 Q426.4838,234.0637 427.2025,235.0325 Q427.9213,235.9856 429.515,235.9856 Q430.1088,235.9856 430.7338,235.8294 Q431.3588,235.6731 432.1869,235.2981 L432.1869,237.5169 Q431.4525,237.8294 430.6556,237.9856 Q429.8744,238.1419 429.1088,238.1419 Z " fill="#000000"/><text fill="#000000" font-family="sans-serif" font-size="14" lengthAdjust="spacing" textLength="159.1234" x="443.64" y="236.652">ExperimentSweepStates</text><line style="stroke:#181818;stroke-width:0.5;" x1="415.64" x2="604.7634" y1="247.22" y2="247.22"/><line style="stroke:#181818;stroke-width:0.5;" x1="415.64" x2="604.7634" y1="255.22" y2="255.22"/></g><!--class Measurement--><g class="entity" data-qualified-name="Measurement" data-source-line="37" id="ent0023"><rect fill="#F1F1F1" height="143.3396" rx="2.5" ry="2.5" style="stroke:#181818;stroke-width:0.5;" width="124.1756" x="707.11" y="1015.5"/><ellipse cx="722.11" cy="1031.5" fill="#F1F1F1" rx="11" ry="11" style="stroke:#181818;stroke-width:1;"/><path d="M721.7819,1038.1719 Q720.86,1038.1719 719.9694,1038 Q719.0788,1037.8125 718.2975,1037.4375 L718.2975,1035.1875 Q719.2506,1035.6719 720.1256,1035.9063 Q721.0163,1036.125 721.86,1036.125 Q722.735,1036.125 723.2975,1035.8281 Q723.86,1035.5313 723.86,1034.75 Q723.86,1034.2031 723.5631,1033.9063 Q723.2663,1033.5938 722.7038,1033.3125 Q722.1413,1033.0313 721.36,1032.625 Q720.5788,1032.2031 719.9225,1031.7188 Q719.2819,1031.2188 718.9069,1030.5469 Q718.5319,1029.875 718.5319,1028.9219 Q718.5319,1027.2969 719.6256,1026.5 Q720.735,1025.6875 722.5163,1025.6875 Q723.235,1025.6875 724.2194,1025.8594 Q725.2038,1026.0156 726.1569,1026.4688 L725.3756,1028.3906 Q724.5319,1028.0313 723.8444,1027.8906 Q723.1725,1027.7344 722.6569,1027.7344 Q721.8131,1027.7344 721.4225,1028.0781 Q721.0475,1028.4063 721.0475,1029.0469 Q721.0475,1029.5313 721.2819,1029.8438 Q721.5319,1030.1406 722.0006,1030.3906 Q722.485,1030.6406 723.2194,1031.0156 Q724.2194,1031.5 724.9225,1031.9688 Q725.6256,1032.4375 726.0006,1033.0625 Q726.3756,1033.6719 726.3756,1034.6094 Q726.3756,1035.7969 725.7975,1036.5938 Q725.235,1037.375 724.1881,1037.7813 Q723.1569,1038.1719 721.7819,1038.1719 Z " fill="#000000"/><text fill="#000000" font-family="sans-serif" font-size="14" lengthAdjust="spacing" textLength="92.1756" x="736.11" y="1036.932">Measurement</text><line style="stroke:#181818;stroke-width:0.5;" x1="708.11" x2="830.2856" y1="1047.5" y2="1047.5"/><g data-visibility-modifier="PUBLIC_FIELD"><ellipse cx="718.11" cy="1062.534" fill="none" rx="3" ry="3" style="stroke:#038048;stroke-width:1;"/></g><text fill="#000000" font-family="sans-serif" font-size="14" lengthAdjust="spacing" textLength="74.8437" x="727.11" y="1066.4659">double min</text><g data-visibility-modifier="PUBLIC_FIELD"><ellipse cx="718.11" cy="1081.6019" fill="none" rx="3" ry="3" style="stroke:#038048;stroke-width:1;"/></g><text fill="#000000" font-family="sans-serif" font-size="14" lengthAdjust="spacing" textLength="77.8397" x="727.11" y="1085.5339">double max</text><g data-visibility-modifier="PUBLIC_FIELD"><ellipse cx="718.11" cy="1100.6698" fill="none" rx="3" ry="3" style="stroke:#038048;stroke-width:1;"/></g><text fill="#000000" font-family="sans-serif" font-size="14" lengthAdjust="spacing" textLength="73.0657" x="727.11" y="1104.6018">double avg</text><g data-visibility-modifier="PUBLIC_FIELD"><ellipse cx="718.11" cy="1119.7377" fill="none" rx="3" ry="3" style="stroke:#038048;stroke-width:1;"/></g><text fill="#000000" font-family="sans-serif" font-size="14" lengthAdjust="spacing" textLength="69.8597" x="727.11" y="1123.6697">double std</text><g data-visibility-modifier="PUBLIC_FIELD"><ellipse cx="718.11" cy="1138.8056" fill="none" rx="3" ry="3" style="stroke:#038048;stroke-width:1;"/></g><text fill="#000000" font-family="sans-serif" font-size="14" lengthAdjust="spacing" textLength="68.9497" x="727.11" y="1142.7376">double err</text><line style="stroke:#181818;stroke-width:0.5;" x1="708.11" x2="830.2856" y1="1150.8396" y2="1150.8396"/></g><!--class Statistics--><g class="entity" data-qualified-name="Statistics" data-source-line="44" id="ent0024"><rect fill="#F1F1F1" height="162.4075" rx="2.5" ry="2.5" style="stroke:#181818;stroke-width:0.5;" width="243.9651" x="647.22" y="792.09"/><ellipse cx="735.9237" cy="808.09" fill="#F1F1F1" rx="11" ry="11" style="stroke:#181818;stroke-width:1;"/><path d="M735.5955,814.7619 Q734.6737,814.7619 733.783,814.59 Q732.8924,814.4025 732.1112,814.0275 L732.1112,811.7775 Q733.0643,812.2619 733.9393,812.4962 Q734.8299,812.715 735.6737,812.715 Q736.5487,812.715 737.1112,812.4181 Q737.6737,812.1212 737.6737,811.34 Q737.6737,810.7931 737.3768,810.4962 Q737.0799,810.1837 736.5174,809.9025 Q735.9549,809.6212 735.1737,809.215 Q734.3924,808.7931 733.7362,808.3087 Q733.0955,807.8087 732.7205,807.1369 Q732.3455,806.465 732.3455,805.5119 Q732.3455,803.8869 733.4393,803.09 Q734.5487,802.2775 736.3299,802.2775 Q737.0487,802.2775 738.033,802.4494 Q739.0174,802.6056 739.9705,803.0587 L739.1893,804.9806 Q738.3455,804.6212 737.658,804.4806 Q736.9862,804.3244 736.4705,804.3244 Q735.6268,804.3244 735.2362,804.6681 Q734.8612,804.9962 734.8612,805.6369 Q734.8612,806.1212 735.0955,806.4337 Q735.3455,806.7306 735.8143,806.9806 Q736.2987,807.2306 737.033,807.6056 Q738.033,808.09 738.7362,808.5587 Q739.4393,809.0275 739.8143,809.6525 Q740.1893,810.2619 740.1893,811.1994 Q740.1893,812.3869 739.6112,813.1837 Q739.0487,813.965 738.0018,814.3712 Q736.9705,814.7619 735.5955,814.7619 Z " fill="#000000"/><text fill="#000000" font-family="sans-serif" font-size="14" lengthAdjust="spacing" textLength="58.0578" x="756.4237" y="813.522">Statistics</text><line style="stroke:#181818;stroke-width:0.5;" x1="648.22" x2="890.1851" y1="824.09" y2="824.09"/><g data-visibility-modifier="PUBLIC_FIELD"><ellipse cx="658.22" cy="839.124" fill="none" rx="3" ry="3" style="stroke:#038048;stroke-width:1;"/></g><text fill="#000000" font-family="sans-serif" font-size="14" lengthAdjust="spacing" textLength="207.2272" x="667.22" y="843.0559">vector&lt;int&gt; entity_count_values</text><g data-visibility-modifier="PUBLIC_FIELD"><ellipse cx="658.22" cy="858.1919" fill="none" rx="3" ry="3" style="stroke:#038048;stroke-width:1;"/></g><text fill="#000000" font-family="sans-serif" font-size="14" lengthAdjust="spacing" textLength="176.9873" x="667.22" y="862.1239">Measurement entity_count</text><g data-visibility-modifier="PUBLIC_FIELD"><ellipse cx="658.22" cy="877.2598" fill="none" rx="3" ry="3" style="stroke:#038048;stroke-width:1;"/></g><text fill="#000000" font-family="sans-serif" font-size="14" lengthAdjust="spacing" textLength="204.3012" x="667.22" y="881.1918">vector&lt;int&gt; allele_count_values</text><g data-visibility-modifier="PUBLIC_FIELD"><ellipse cx="658.22" cy="896.3277" fill="none" rx="3" ry="3" style="stroke:#038048;stroke-width:1;"/></g><text fill="#000000" font-family="sans-serif" font-size="14" lengthAdjust="spacing" textLength="174.0613" x="667.22" y="900.2597">Measurement allele_count</text><g data-visibility-modifier="PUBLIC_FIELD"><ellipse cx="658.22" cy="915.3956" fill="none" rx="3" ry="3" style="stroke:#038048;stroke-width:1;"/></g><text fill="#000000" font-family="sans-serif" font-size="14" lengthAdjust="spacing" textLength="217.9651" x="667.22" y="919.3276">vector&lt;int&gt; species_count_values</text><g data-visibility-modifier="PUBLIC_FIELD"><ellipse cx="658.22" cy="934.4635" fill="none" rx="3" ry="3" style="stroke:#038048;stroke-width:1;"/></g><text fill="#000000" font-family="sans-serif" font-size="14" lengthAdjust="spacing" textLength="187.7253" x="667.22" y="938.3955">Measurement species_count</text><line style="stroke:#181818;stroke-width:0.5;" x1="648.22" x2="890.1851" y1="946.4975" y2="946.4975"/></g><!--class vector<Statistics>--><g class="entity" data-qualified-name="vector.Statistics." data-source-line="54" id="ent0026"><rect fill="#F1F1F1" height="48" rx="2.5" ry="2.5" style="stroke:#181818;stroke-width:0.5;" width="147.1076" x="694.64" y="683.09"/><ellipse cx="709.64" cy="699.09" fill="#ADD1B2" rx="11" ry="11" style="stroke:#181818;stroke-width:1;"/><path d="M709.1088,706.0119 Q707.3588,706.0119 706.2181,705.2775 Q705.0931,704.5275 704.5306,703.1837 Q703.9838,701.8244 703.9838,700.0275 Q703.9838,697.9962 704.64,696.5431 Q705.2963,695.09 706.5775,694.3087 Q707.8588,693.5275 709.7338,693.5275 Q710.6244,693.5275 711.2963,693.715 Q711.9681,693.8869 712.6556,694.2306 L711.8431,696.2462 Q711.2181,695.9337 710.6713,695.8087 Q710.14,695.6837 709.6556,695.6837 Q708.4838,695.6837 707.7806,696.215 Q707.0775,696.7462 706.7806,697.6994 Q706.4838,698.6525 706.4838,699.9181 Q706.4838,701.9337 707.2025,702.9025 Q707.9213,703.8556 709.515,703.8556 Q710.1088,703.8556 710.7338,703.6994 Q711.3588,703.5431 712.1869,703.1681 L712.1869,705.3869 Q711.4525,705.6994 710.6556,705.8556 Q709.8744,706.0119 709.1088,706.0119 Z " fill="#000000"/><text fill="#000000" font-family="sans-serif" font-size="14" lengthAdjust="spacing" textLength="115.1076" x="723.64" y="704.522">vector&lt;Statistics&gt;</text><line style="stroke:#181818;stroke-width:0.5;" x1="695.64" x2="840.7476" y1="715.09" y2="715.09"/><line style="stroke:#181818;stroke-width:0.5;" x1="695.64" x2="840.7476" y1="723.09" y2="723.09"/></g><!--class ExperimentResults--><g class="entity" data-qualified-name="ExperimentResults" data-source-line="56" id="ent0028"><rect fill="#F1F1F1" height="48" rx="2.5" ry="2.5" style="stroke:#181818;stroke-width:0.5;" width="155.1155" x="677.64" y="546.56"/><ellipse cx="692.64" cy="562.56" fill="#ADD1B2" rx="11" ry="11" style="stroke:#181818;stroke-width:1;"/><path d="M692.1088,569.4819 Q690.3588,569.4819 689.2181,568.7475 Q688.0931,567.9975 687.5306,566.6538 Q686.9838,565.2944 686.9838,563.4975 Q686.9838,561.4663 687.64,560.0131 Q688.2963,558.56 689.5775,557.7788 Q690.8588,556.9975 692.7338,556.9975 Q693.6244,556.9975 694.2963,557.185 Q694.9681,557.3569 695.6556,557.7006 L694.8431,559.7163 Q694.2181,559.4038 693.6713,559.2788 Q693.14,559.1538 692.6556,559.1538 Q691.4838,559.1538 690.7806,559.685 Q690.0775,560.2163 689.7806,561.1694 Q689.4838,562.1225 689.4838,563.3881 Q689.4838,565.4038 690.2025,566.3725 Q690.9213,567.3256 692.515,567.3256 Q693.1088,567.3256 693.7338,567.1694 Q694.3588,567.0131 695.1869,566.6381 L695.1869,568.8569 Q694.4525,569.1694 693.6556,569.3256 Q692.8744,569.4819 692.1088,569.4819 Z " fill="#000000"/><text fill="#000000" font-family="sans-serif" font-size="14" lengthAdjust="spacing" textLength="123.1155" x="706.64" y="567.992">ExperimentResults</text><line style="stroke:#181818;stroke-width:0.5;" x1="678.64" x2="831.7555" y1="578.56" y2="578.56"/><line style="stroke:#181818;stroke-width:0.5;" x1="678.64" x2="831.7555" y1="586.56" y2="586.56"/></g><!--class vector<ExperimentResults>--><g class="entity" data-qualified-name="vector.ExperimentResults." data-source-line="59" id="ent0030"><rect fill="#F1F1F1" height="48" rx="2.5" ry="2.5" style="stroke:#181818;stroke-width:0.5;" width="212.1653" x="646.12" y="399.42"/><ellipse cx="661.12" cy="415.42" fill="#ADD1B2" rx="11" ry="11" style="stroke:#181818;stroke-width:1;"/><path d="M660.5888,422.3419 Q658.8388,422.3419 657.6981,421.6075 Q656.5731,420.8575 656.0106,419.5137 Q655.4638,418.1544 655.4638,416.3575 Q655.4638,414.3262 656.12,412.8731 Q656.7763,411.42 658.0575,410.6387 Q659.3388,409.8575 661.2138,409.8575 Q662.1044,409.8575 662.7763,410.045 Q663.4481,410.2169 664.1356,410.5606 L663.3231,412.5762 Q662.6981,412.2637 662.1513,412.1387 Q661.62,412.0137 661.1356,412.0137 Q659.9638,412.0137 659.2606,412.545 Q658.5575,413.0762 658.2606,414.0294 Q657.9638,414.9825 657.9638,416.2481 Q657.9638,418.2637 658.6825,419.2325 Q659.4013,420.1856 660.995,420.1856 Q661.5888,420.1856 662.2138,420.0294 Q662.8388,419.8731 663.6669,419.4981 L663.6669,421.7169 Q662.9325,422.0294 662.1356,422.1856 Q661.3544,422.3419 660.5888,422.3419 Z " fill="#000000"/><text fill="#000000" font-family="sans-serif" font-size="14" lengthAdjust="spacing" textLength="180.1653" x="675.12" y="420.852">vector&lt;ExperimentResults&gt;</text><line style="stroke:#181818;stroke-width:0.5;" x1="647.12" x2="857.2853" y1="431.42" y2="431.42"/><line style="stroke:#181818;stroke-width:0.5;" x1="647.12" x2="857.2853" y1="439.42" y2="439.42"/></g><!--class ExperimentSweepResults--><g class="entity" data-qualified-name="ExperimentSweepResults" data-source-line="61" id="ent0032"><rect fill="#F1F1F1" height="48" rx="2.5" ry="2.5" style="stroke:#181818;stroke-width:0.5;" width="198.2074" x="647.09" y="215.22"/><ellipse cx="662.09" cy="231.22" fill="#ADD1B2" rx="11" ry="11" style="stroke:#181818;stroke-width:1;"/><path d="M661.5588,238.1419 Q659.8088,238.1419 658.6681,237.4075 Q657.5431,236.6575 656.9806,235.3137 Q656.4338,233.9544 656.4338,232.1575 Q656.4338,230.1262 657.09,228.6731 Q657.7463,227.22 659.0275,226.4387 Q660.3088,225.6575 662.1838,225.6575 Q663.0744,225.6575 663.7463,225.845 Q664.4181,226.0169 665.1056,226.3606 L664.2931,228.3762 Q663.6681,228.0637 663.1213,227.9387 Q662.59,227.8137 662.1056,227.8137 Q660.9338,227.8137 660.2306,228.345 Q659.5275,228.8762 659.2306,229.8294 Q658.9338,230.7825 658.9338,232.0481 Q658.9338,234.0637 659.6525,235.0325 Q660.3713,235.9856 661.965,235.9856 Q662.5588,235.9856 663.1838,235.8294 Q663.8088,235.6731 664.6369,235.2981 L664.6369,237.5169 Q663.9025,237.8294 663.1056,237.9856 Q662.3244,238.1419 661.5588,238.1419 Z " fill="#000000"/><text fill="#000000" font-family="sans-serif" font-size="14" lengthAdjust="spacing" textLength="166.2074" x="676.09" y="236.652">ExperimentSweepResults</text><line style="stroke:#181818;stroke-width:0.5;" x1="648.09" x2="844.2974" y1="247.22" y2="247.22"/><line style="stroke:#181818;stroke-width:0.5;" x1="648.09" x2="844.2974" y1="255.22" y2="255.22"/></g><!--class math--><g class="entity" data-qualified-name="math" data-source-line="64" id="ent0034"><rect fill="#F1F1F1" height="118.6158" rx="2.5" ry="2.5" style="stroke:#181818;stroke-width:0.5;" width="624.1199" x="198.14" y="7"/><ellipse cx="471.9137" cy="29.706" fill="#ADD1B2" rx="11" ry="11" style="stroke:#181818;stroke-width:1;"/><path d="M471.3824,36.6279 Q469.6324,36.6279 468.4918,35.8935 Q467.3668,35.1435 466.8043,33.7998 Q466.2574,32.4404 466.2574,30.6435 Q466.2574,28.6123 466.9137,27.1591 Q467.5699,25.706 468.8512,24.9248 Q470.1324,24.1435 472.0074,24.1435 Q472.8981,24.1435 473.5699,24.331 Q474.2418,24.5029 474.9293,24.8466 L474.1168,26.8623 Q473.4918,26.5498 472.9449,26.4248 Q472.4137,26.2998 471.9293,26.2998 Q470.7574,26.2998 470.0543,26.831 Q469.3512,27.3623 469.0543,28.3154 Q468.7574,29.2685 468.7574,30.5341 Q468.7574,32.5498 469.4762,33.5185 Q470.1949,34.4716 471.7887,34.4716 Q472.3824,34.4716 473.0074,34.3154 Q473.6324,34.1591 474.4606,33.7841 L474.4606,36.0029 Q473.7262,36.3154 472.9293,36.4716 Q472.1481,36.6279 471.3824,36.6279 Z " fill="#000000"/><text fill="#000000" font-family="sans-serif" font-size="12" font-style="italic" lengthAdjust="spacing" textLength="72.0725" x="490.4137" y="24.8281">&#171;namespace&#187;</text><text fill="#000000" font-family="sans-serif" font-size="14" lengthAdjust="spacing" textLength="34.6499" x="509.125" y="43.31">math</text><line style="stroke:#181818;stroke-width:0.5;" x1="199.14" x2="821.2599" y1="52.412" y2="52.412"/><line style="stroke:#181818;stroke-width:0.5;" x1="199.14" x2="821.2599" y1="60.412" y2="60.412"/><g data-visibility-modifier="PUBLIC_METHOD"><ellipse cx="209.14" cy="75.446" fill="#84BE84" rx="3" ry="3" style="stroke:#038048;stroke-width:1;"/></g><text fill="#000000" font-family="sans-serif" font-size="14" lengthAdjust="spacing" textLength="203.9232" x="218.14" y="79.378">Measurement measure(values)</text><g data-visibility-modifier="PUBLIC_METHOD"><ellipse cx="209.14" cy="94.5139" fill="#84BE84" rx="3" ry="3" style="stroke:#038048;stroke-width:1;"/></g><text fill="#000000" font-family="sans-serif" font-size="14" lengthAdjust="spacing" textLength="468.8442" x="218.14" y="98.4459">ExperimentResults measure(experimentParameters, experimentStates)</text><g data-visibility-modifier="PUBLIC_METHOD"><ellipse cx="209.14" cy="113.5818" fill="#84BE84" rx="3" ry="3" style="stroke:#038048;stroke-width:1;"/></g><text fill="#000000" font-family="sans-serif" font-size="14" lengthAdjust="spacing" textLength="598.1199" x="218.14" y="117.5138">ExperimentSweepResults measure(experimentSweepParameters, experimentSweepStates)</text></g><!--reverse link ExperimentParameters to RunParameters--><g class="link" data-entity-1="ent0006" data-entity-2="ent0002" data-link-type="aggregation" data-source-line="12" id="lnk7"><path codeLine="12" d="M167.3783,484.5014 C145.2883,504.6714 129.51,519.07 109.99,536.89" fill="none" id="ExperimentParameters-backto-RunParameters" style="stroke:#181818;stroke-width:1;"/><polygon fill="none" points="176.24,476.41,169.112,477.5018,167.3783,484.5014,174.5063,483.4096,176.24,476.41" style="stroke:#181818;stroke-width:1;"/></g><!--reverse link ExperimentSweepParameters to ExperimentParameters--><g class="link" data-entity-1="ent0008" data-entity-2="ent0006" data-link-type="aggregation" data-source-line="19" id="lnk9"><path codeLine="19" d="M227.9959,303.9285 C229.0759,328.5485 229.84,345.93 230.92,370.57" fill="none" id="ExperimentSweepParameters-backto-ExperimentParameters" style="stroke:#181818;stroke-width:1;"/><polygon fill="none" points="227.47,291.94,223.7368,298.1095,227.9959,303.9285,231.7291,297.7589,227.47,291.94" style="stroke:#181818;stroke-width:1;"/></g><!--reverse link ExperimentSweepParameters to RunParameters--><g class="link" data-entity-1="ent0008" data-entity-2="ent0002" data-link-type="aggregation" data-source-line="20" id="lnk10"><path codeLine="20" d="M145.826,300.1526 C121.866,321.6926 106.47,340.7 92.2,370.82 C66.69,424.67 67.33,495.87 70.5,536.8" fill="none" id="ExperimentSweepParameters-backto-RunParameters" style="stroke:#181818;stroke-width:1;"/><polygon fill="none" points="154.75,292.13,147.6138,293.1667,145.826,300.1526,152.9622,299.116,154.75,292.13" style="stroke:#181818;stroke-width:1;"/></g><!--reverse link vector<RunStates> to RunStates--><g class="link" data-entity-1="ent0015" data-entity-2="ent0011" data-link-type="aggregation" data-source-line="28" id="lnk16"><path codeLine="28" d="M438.9655,739.4751 C421.2355,755.9751 406.08,770.73 386.2,792.09 C372.11,807.23 357.28,824.8 345.17,839.62" fill="none" id="vector&lt;RunStates&gt;-backto-RunStates" style="stroke:#181818;stroke-width:1;"/><polygon fill="none" points="447.75,731.3,440.6327,732.4594,438.9655,739.4751,446.0828,738.3157,447.75,731.3" style="stroke:#181818;stroke-width:1;"/></g><!--link ExperimentStates to vector<RunStates>--><g class="link" data-entity-1="ent0017" data-entity-2="ent0015" data-link-type="extension" data-source-line="30" id="lnk18"><path codeLine="30" d="M494.67,594.99 C489.9,619.69 485.8508,640.668 481.0908,665.258" fill="none" id="ExperimentStates-to-vector&lt;RunStates&gt;" style="stroke:#181818;stroke-width:1;"/><polygon fill="none" points="477.67,682.93,486.9815,666.3983,475.2002,664.1178,477.67,682.93" style="stroke:#181818;stroke-width:1;"/><text fill="#000000" font-family="sans-serif" font-size="13" lengthAdjust="spacing" textLength="59.683" x="487.98" y="648.987">&#171;typedef&#187;</text></g><!--reverse link vector<ExperimentStates> to ExperimentStates--><g class="link" data-entity-1="ent0019" data-entity-2="ent0017" data-link-type="aggregation" data-source-line="33" id="lnk20"><path codeLine="33" d="M504.4948,459.7262 C503.1948,486.8162 501.62,519.24 500.32,546.3" fill="none" id="vector&lt;ExperimentStates&gt;-backto-ExperimentStates" style="stroke:#181818;stroke-width:1;"/><polygon fill="none" points="505.07,447.74,500.787,453.5414,504.4948,459.7262,508.7778,453.9248,505.07,447.74" style="stroke:#181818;stroke-width:1;"/></g><!--link ExperimentSweepStates to vector<ExperimentStates>--><g class="link" data-entity-1="ent0021" data-entity-2="ent0019" data-link-type="extension" data-source-line="35" id="lnk22"><path codeLine="35" d="M509.68,263.67 C508.92,298.65 507.8766,346.1344 507.1066,381.0744" fill="none" id="ExperimentSweepStates-to-vector&lt;ExperimentStates&gt;" style="stroke:#181818;stroke-width:1;"/><polygon fill="none" points="506.71,399.07,513.1051,381.2066,501.108,380.9422,506.71,399.07" style="stroke:#181818;stroke-width:1;"/><text fill="#000000" font-family="sans-serif" font-size="13" lengthAdjust="spacing" textLength="59.683" x="509.32" y="336.717">&#171;typedef&#187;</text></g><!--reverse link Statistics to Measurement--><g class="link" data-entity-1="ent0024" data-entity-2="ent0023" data-link-type="aggregation" data-source-line="52" id="lnk25"><path codeLine="52" d="M769.2,966.7 C769.2,986.6 769.2,995.78 769.2,1015.19" fill="none" id="Statistics-backto-Measurement" style="stroke:#181818;stroke-width:1;"/><polygon fill="none" points="769.2,954.7,765.2,960.7,769.2,966.7,773.2,960.7,769.2,954.7" style="stroke:#181818;stroke-width:1;"/></g><!--reverse link vector<Statistics> to Statistics--><g class="link" data-entity-1="ent0026" data-entity-2="ent0024" data-link-type="aggregation" data-source-line="55" id="lnk27"><path codeLine="55" d="M768.415,743.2698 C768.515,759.2698 768.57,769.58 768.71,791.75" fill="none" id="vector&lt;Statistics&gt;-backto-Statistics" style="stroke:#181818;stroke-width:1;"/><polygon fill="none" points="768.34,731.27,764.3776,737.2949,768.415,743.2698,772.3774,737.2449,768.34,731.27" style="stroke:#181818;stroke-width:1;"/></g><!--link ExperimentResults to vector<Statistics>--><g class="link" data-entity-1="ent0028" data-entity-2="ent0026" data-link-type="extension" data-source-line="57" id="lnk29"><path codeLine="57" d="M757.46,594.99 C759.85,619.69 761.8459,640.4237 764.2259,665.0137" fill="none" id="ExperimentResults-to-vector&lt;Statistics&gt;" style="stroke:#181818;stroke-width:1;"/><polygon fill="none" points="765.96,682.93,770.198,664.4357,758.2538,665.5917,765.96,682.93" style="stroke:#181818;stroke-width:1;"/><text fill="#000000" font-family="sans-serif" font-size="13" lengthAdjust="spacing" textLength="59.683" x="763.86" y="648.987">&#171;typedef&#187;</text></g><!--reverse link vector<ExperimentResults> to ExperimentResults--><g class="link" data-entity-1="ent0030" data-entity-2="ent0028" data-link-type="aggregation" data-source-line="60" id="lnk31"><path codeLine="60" d="M752.928,459.7374 C753.488,486.8274 754.16,519.24 754.72,546.3" fill="none" id="vector&lt;ExperimentResults&gt;-backto-ExperimentResults" style="stroke:#181818;stroke-width:1;"/><polygon fill="none" points="752.68,447.74,748.8049,453.8214,752.928,459.7374,756.8032,453.656,752.68,447.74" style="stroke:#181818;stroke-width:1;"/></g><!--link ExperimentSweepResults to vector<ExperimentResults>--><g class="link" data-entity-1="ent0032" data-entity-2="ent0030" data-link-type="extension" data-source-line="62" id="lnk33"><path codeLine="62" d="M746.97,263.67 C748.12,298.65 749.6879,346.1397 750.8379,381.0797" fill="none" id="ExperimentSweepResults-to-vector&lt;ExperimentResults&gt;" style="stroke:#181818;stroke-width:1;"/><polygon fill="none" points="751.43,399.07,756.8346,380.8824,744.8411,381.2771,751.43,399.07" style="stroke:#181818;stroke-width:1;"/><text fill="#000000" font-family="sans-serif" font-size="13" lengthAdjust="spacing" textLength="59.683" x="750.38" y="336.717">&#171;typedef&#187;</text></g><!--link math to ExperimentSweepParameters--><g class="link" data-entity-1="ent0034" data-entity-2="ent0008" data-link-type="dependency" data-source-line="69" id="lnk35"><path codeLine="69" d="M412.52,125.89 C379.81,145.5 348.7354,164.1337 316.9254,183.2137" fill="none" id="math-to-ExperimentSweepParameters" style="stroke:#181818;stroke-width:1;"/><polygon fill="#181818" points="311.78,186.3,321.5556,185.1009,316.0678,183.7281,317.4406,178.2404,311.78,186.3" style="stroke:#181818;stroke-width:1;"/></g><!--link math to ExperimentSweepStates--><g class="link" data-entity-1="ent0034" data-entity-2="ent0021" data-link-type="dependency" data-source-line="70" id="lnk36"><path codeLine="70" d="M510.2,125.65 C510.2,156.21 510.2,185.93 510.2,208.79" fill="none" id="math-to-ExperimentSweepStates" style="stroke:#181818;stroke-width:1;"/><polygon fill="#181818" points="510.2,214.79,514.2,205.79,510.2,209.79,506.2,205.79,510.2,214.79" style="stroke:#181818;stroke-width:1;"/></g><!--link math to ExperimentSweepResults--><g class="link" data-entity-1="ent0034" data-entity-2="ent0032" data-link-type="dependency" data-source-line="71" id="lnk37"><path codeLine="71" d="M591.09,125.89 C633.25,156.42 677.5896,188.542 709.0896,211.342" fill="none" id="math-to-ExperimentSweepResults" style="stroke:#181818;stroke-width:1;"/><polygon fill="#181818" points="713.95,214.86,709.0047,206.3427,709.8997,211.9283,704.314,212.8233,713.95,214.86" style="stroke:#181818;stroke-width:1;"/></g><?plantuml-src dLLBJiCm4Dtd51Oh4AG7G5Lsx412xG4gamp5akD4zhYqb1w6it0nREmGst7uxJ8VltdZUPuebBf6ijBYdahQ0e9Kv5WGibWiYbCXEWGYsVO9hydj-vjgo9grcbFi9EdK2xw_yKF3wDOSBGhbi6xsFKZMWi04yZ8f8xNOz5_cPm8JQDtEs45jwYoZGnM1VKz5StvXs6KhTMKPryaGMpy3z1Ds2Po9W28AgKGcjexf5z6uamOuqhzoJabOuhcEVZYIz5fpgfHrhf4Y_7kM3kPiRCV1LMVaI4v5pk-vEDkV3vXxDYIw0USiozSgM-gQB9TuwA61nwfAEQKm2RLCEBxWEQBsYlDiWqX4ELCgOUu5U0TKQGasqqkkwVG31z8o4Pbq7vfqjmrDXKreWfHckBw29S0KidhGjATetfLHeK26XqtTQO6R7UKQd9P3Mc7E181o3Xo-1mXp9W2gXvg1-XuXIZAj1JtP2GQfgIJ6p4GCKS22Z8w905QWDCTq-8Ct6dm4-qknUg1PjOxnMAxUdzThddCKcb7iM2xBlwNuPFp2h1VLqnggokig75Zhli_TF2-INJeG6B8Wi-Ak22HlA4M9Ufb29OinmXkVhTs_dnsLPJN_DvXDyHjZBZnCw0C0?></g></svg>