<?plantuml 1.2026.2?><svg xmlns="http://www.w3.org/2000/svg" xmlns:xlink="http://www.w3.org/1999/xlink" contentStyleType="text/css" data-diagram-type="CLASS" height="1293px" preserveAspectRatio="none" style="width:1330px;height:1293px;background:#FFFFFF;" version="1.1" viewBox="0 0 1330 1293" width="1330px" zoomAndPan="magnify"><defs/><g><!--class RunParameters--><g class="entity" data-qualified-name="RunParameters" data-source-line="2" id="ent0002"><rect fill="#F1F1F1" height="67.0679" rx="2.5" ry="2.5" style="stroke:#181818;stroke-width:0.5;" width="134.3956" x="513.22" y="665.09"/><ellipse cx="528.22" cy="681.09" fill="#F1F1F1" rx="11" ry="11" style="stroke:#181818;stroke-width:1;"/><path d="M527.8919,687.7619 Q526.97,687.7619 526.0794,687.59 Q525.1888,687.4025 524.4075,687.0275 L524.4075,684.7775 Q525.3606,685.2619 526.2356,685.4963 Q527.1263,685.715 527.97,685.715 Q528.845,685.715 529.4075,685.4181 Q529.97,685.1213 529.97,684.34 Q529.97,683.7931 529.6731,683.4963 Q529.3763,683.1838 528.8138,682.9025 Q528.2513,682.6213 527.47,682.215 Q526.6888,681.7931 526.0325,681.3088 Q525.3919,680.8088 525.0169,680.1369 Q524.6419,679.465 524.6419,678.5119 Q524.6419,676.8869 525.7356,676.09 Q526.845,675.2775 528.6263,675.2775 Q529.345,675.2775 530.3294,675.4494 Q531.3138,675.6056 532.2669,676.0588 L531.4856,677.9806 Q530.6419,677.6213 529.9544,677.4806 Q529.2825,677.3244 528.7669,677.3244 Q527.9231,677.3244 527.5325,677.6681 Q527.1575,677.9963 527.1575,678.6369 Q527.1575,679.1213 527.3919,679.4338 Q527.6419,679.7306 528.1106,679.9806 Q528.595,680.2306 529.3294,680.6056 Q530.3294,681.09 531.0325,681.5588 Q531.7356,682.0275 532.1106,682.6525 Q532.4856,683.2619 532.4856,684.1994 Q532.4856,685.3869 531.9075,686.1838 Q531.345,686.965 530.2981,687.3713 Q529.2669,687.7619 527.8919,687.7619 Z " fill="#000000"/><text fill="#000000" font-family="sans-serif" font-size="14" lengthAdjust="spacing" textLength="102.3956" x="542.22" y="686.522">RunParameters</text><line style="stroke:#181818;stroke-width:0.5;" x1="514.22" x2="646.6156" y1="697.09" y2="697.09"/><text fill="#000000" font-family="sans-serif" font-size="14" lengthAdjust="spacing" textLength="11.256" x="519.22" y="716.0559">...</text><line style="stroke:#181818;stroke-width:0.5;" x1="514.22" x2="646.6156" y1="724.1579" y2="724.1579"/></g><g class="entity" data-qualified-name="GMN3" data-source-line="5" id="ent0004"><path d="M475.94,821.31 L475.94,849.016 A0,0 0 0 0 475.94,849.016 L684.9072,849.016 A0,0 0 0 0 684.9072,849.016 L684.9072,831.31 L674.9072,821.31 L584.42,821.31 L580.42,732.54 L576.42,821.31 L475.94,821.31 A0,0 0 0 0 475.94,821.31" fill="#FEFFDD" style="stroke:#181818;stroke-width:0.5;"/><path d="M674.9072,821.31 L674.9072,831.31 L684.9072,831.31 L674.9072,821.31" fill="#FEFFDD" style="stroke:#181818;stroke-width:0.5;"/><text fill="#000000" font-family="sans-serif" font-size="13" lengthAdjust="spacing" textLength="187.9672" x="481.94" y="840.207">L&#225;sd Simulator oszt&#225;lydiagram</text></g><!--class ExperimentParameters--><g class="entity" data-qualified-name="ExperimentParameters" data-source-line="7" id="ent0006"><rect fill="#F1F1F1" height="105.2038" rx="2.5" ry="2.5" style="stroke:#181818;stroke-width:0.5;" width="246.5132" x="562.17" y="498.89"/><ellipse cx="605.2265" cy="514.89" fill="#F1F1F1" rx="11" ry="11" style="stroke:#181818;stroke-width:1;"/><path d="M604.8983,521.5619 Q603.9765,521.5619 603.0858,521.39 Q602.1952,521.2025 601.414,520.8275 L601.414,518.5775 Q602.3671,519.0619 603.2421,519.2963 Q604.1327,519.515 604.9765,519.515 Q605.8515,519.515 606.414,519.2181 Q606.9765,518.9213 606.9765,518.14 Q606.9765,517.5931 606.6796,517.2963 Q606.3827,516.9838 605.8202,516.7025 Q605.2577,516.4213 604.4765,516.015 Q603.6952,515.5931 603.039,515.1088 Q602.3983,514.6088 602.0233,513.9369 Q601.6483,513.265 601.6483,512.3119 Q601.6483,510.6869 602.7421,509.89 Q603.8515,509.0775 605.6327,509.0775 Q606.3515,509.0775 607.3358,509.2494 Q608.3202,509.4056 609.2733,509.8588 L608.4921,511.7806 Q607.6483,511.4213 606.9608,511.2806 Q606.289,511.1244 605.7733,511.1244 Q604.9296,511.1244 604.539,511.4681 Q604.164,511.7963 604.164,512.4369 Q604.164,512.9213 604.3983,513.2338 Q604.6483,513.5306 605.1171,513.7806 Q605.6015,514.0306 606.3358,514.4056 Q607.3358,514.89 608.039,515.3588 Q608.7421,515.8275 609.1171,516.4525 Q609.4921,517.0619 609.4921,517.9994 Q609.4921,519.1869 608.914,519.9838 Q608.3515,520.765 607.3046,521.1713 Q606.2733,521.5619 604.8983,521.5619 Z " fill="#000000"/><text fill="#000000" font-family="sans-serif" font-size="14" lengthAdjust="spacing" textLength="152.1654" x="625.4612" y="520.322">ExperimentParameters</text><line style="stroke:#181818;stroke-width:0.5;" x1="563.17" x2="807.6832" y1="530.89" y2="530.89"/><g data-visibility-modifier="PUBLIC_FIELD"><ellipse cx="573.17" cy="545.924" fill="none" rx="3" ry="3" style="stroke:#038048;stroke-width:1;"/></g><text fill="#000000" font-family="sans-serif" font-size="14" lengthAdjust="spacing" textLength="211.8612" x="582.17" y="549.8559">RunParameters run_parameters</text><g data-visibility-modifier="PUBLIC_FIELD"><ellipse cx="573.17" cy="564.9919" fill="none" rx="3" ry="3" style="stroke:#038048;stroke-width:1;"/></g><text fill="#000000" font-family="sans-serif" font-size="14" lengthAdjust="spacing" textLength="50.7498" x="582.17" y="568.9239">int runs</text><line style="stroke:#181818;stroke-width:0.5;" x1="563.17" x2="807.6832" y1="577.0258" y2="577.0258"/><g data-visibility-modifier="PUBLIC_METHOD"><ellipse cx="573.17" cy="592.0598" fill="#84BE84" rx="3" ry="3" style="stroke:#038048;stroke-width:1;"/></g><text fill="#000000" font-family="sans-serif" font-size="14" lengthAdjust="spacing" textLength="220.5132" x="582.17" y="595.9918">vector&lt;RunParameters&gt; expand()</text></g><!--class ExperimentSweepParameters--><g class="entity" data-qualified-name="ExperimentSweepParameters" data-source-line="14" id="ent0008"><rect fill="#F1F1F1" height="105.2038" rx="2.5" ry="2.5" style="stroke:#181818;stroke-width:0.5;" width="315.869" x="513.49" y="314.69"/><ellipse cx="569.5458" cy="330.69" fill="#F1F1F1" rx="11" ry="11" style="stroke:#181818;stroke-width:1;"/><path d="M569.2177,337.3619 Q568.2958,337.3619 567.4052,337.19 Q566.5146,337.0025 565.7333,336.6275 L565.7333,334.3775 Q566.6865,334.8619 567.5615,335.0963 Q568.4521,335.315 569.2958,335.315 Q570.1708,335.315 570.7333,335.0181 Q571.2958,334.7213 571.2958,333.94 Q571.2958,333.3931 570.999,333.0963 Q570.7021,332.7838 570.1396,332.5025 Q569.5771,332.2213 568.7958,331.815 Q568.0146,331.3931 567.3583,330.9088 Q566.7177,330.4088 566.3427,329.7369 Q565.9677,329.065 565.9677,328.1119 Q565.9677,326.4869 567.0615,325.69 Q568.1708,324.8775 569.9521,324.8775 Q570.6708,324.8775 571.6552,325.0494 Q572.6396,325.2056 573.5927,325.6588 L572.8115,327.5806 Q571.9677,327.2213 571.2802,327.0806 Q570.6083,326.9244 570.0927,326.9244 Q569.249,326.9244 568.8583,327.2681 Q568.4833,327.5963 568.4833,328.2369 Q568.4833,328.7213 568.7177,329.0338 Q568.9677,329.3306 569.4365,329.5806 Q569.9208,329.8306 570.6552,330.2056 Q571.6552,330.69 572.3583,331.1588 Q573.0615,331.6275 573.4365,332.2525 Q573.8115,332.8619 573.8115,333.7994 Q573.8115,334.9869 573.2333,335.7838 Q572.6708,336.565 571.624,336.9713 Q570.5927,337.3619 569.2177,337.3619 Z " fill="#000000"/><text fill="#000000" font-family="sans-serif" font-size="14" lengthAdjust="spacing" textLength="195.2573" x="590.0458" y="336.122">ExperimentSweepParameters</text><line style="stroke:#181818;stroke-width:0.5;" x1="514.49" x2="828.359" y1="346.69" y2="346.69"/><g data-visibility-modifier="PUBLIC_FIELD"><ellipse cx="524.49" cy="361.724" fill="none" rx="3" ry="3" style="stroke:#038048;stroke-width:1;"/></g><text fill="#000000" font-family="sans-serif" font-size="14" lengthAdjust="spacing" textLength="289.869" x="533.49" y="365.6559">ExperimentParameters starting_parameters</text><g data-visibility-modifier="PUBLIC_FIELD"><ellipse cx="524.49" cy="380.7919" fill="none" rx="3" ry="3" style="stroke:#038048;stroke-width:1;"/></g><text fill="#000000" font-family="sans-serif" font-size="14" lengthAdjust="spacing" textLength="139.0615" x="533.49" y="384.7239">RunParameters delta</text><line style="stroke:#181818;stroke-width:0.5;" x1="514.49" x2="828.359" y1="392.8258" y2="392.8258"/><g data-visibility-modifier="PUBLIC_METHOD"><ellipse cx="524.49" cy="407.8598" fill="#84BE84" rx="3" ry="3" style="stroke:#038048;stroke-width:1;"/></g><text fill="#000000" font-family="sans-serif" font-size="14" lengthAdjust="spacing" textLength="220.5132" x="533.49" y="411.7918">vector&lt;RunParameters&gt; expand()</text></g><!--class RunStates--><g class="entity" data-qualified-name="RunStates" data-source-line="22" id="ent0011"><rect fill="#F1F1F1" height="67.0679" rx="2.5" ry="2.5" style="stroke:#181818;stroke-width:0.5;" width="98.2617" x="275.29" y="967.83"/><ellipse cx="290.29" cy="983.83" fill="#ADD1B2" rx="11" ry="11" style="stroke:#181818;stroke-width:1;"/><path d="M289.7588,990.7519 Q288.0088,990.7519 286.8681,990.0175 Q285.7431,989.2675 285.1806,987.9238 Q284.6338,986.5644 284.6338,984.7675 Q284.6338,982.7363 285.29,981.2831 Q285.9463,979.83 287.2275,979.0488 Q288.5088,978.2675 290.3838,978.2675 Q291.2744,978.2675 291.9463,978.455 Q292.6181,978.6269 293.3056,978.9706 L292.4931,980.9863 Q291.8681,980.6738 291.3213,980.5488 Q290.79,980.4238 290.3056,980.4238 Q289.1338,980.4238 288.4306,980.955 Q287.7275,981.4863 287.4306,982.4394 Q287.1338,983.3925 287.1338,984.6581 Q287.1338,986.6738 287.8525,987.6425 Q288.5713,988.5956 290.165,988.5956 Q290.7588,988.5956 291.3838,988.4394 Q292.0088,988.2831 292.8369,987.9081 L292.8369,990.1269 Q292.1025,990.4394 291.3056,990.5956 Q290.5244,990.7519 289.7588,990.7519 Z " fill="#000000"/><text fill="#000000" font-family="sans-serif" font-size="14" lengthAdjust="spacing" textLength="66.2617" x="304.29" y="989.262">RunStates</text><line style="stroke:#181818;stroke-width:0.5;" x1="276.29" x2="372.5517" y1="999.83" y2="999.83"/><text fill="#000000" font-family="sans-serif" font-size="14" lengthAdjust="spacing" textLength="11.256" x="281.29" y="1018.7959">...</text><line style="stroke:#181818;stroke-width:0.5;" x1="276.29" x2="372.5517" y1="1026.8979" y2="1026.8979"/></g><g class="entity" data-qualified-name="GMN12" data-source-line="25" id="ent0013"><path d="M219.94,1201.39 L219.94,1229.096 A0,0 0 0 0 219.94,1229.096 L428.9072,1229.096 A0,0 0 0 0 428.9072,1229.096 L428.9072,1211.39 L418.9072,1201.39 L328.42,1201.39 L324.42,1035.01 L320.42,1201.39 L219.94,1201.39 A0,0 0 0 0 219.94,1201.39" fill="#FEFFDD" style="stroke:#181818;stroke-width:0.5;"/><path d="M418.9072,1201.39 L418.9072,1211.39 L428.9072,1211.39 L418.9072,1201.39" fill="#FEFFDD" style="stroke:#181818;stroke-width:0.5;"/><text fill="#000000" font-family="sans-serif" font-size="13" lengthAdjust="spacing" textLength="187.9672" x="225.94" y="1220.287">L&#225;sd Simulator oszt&#225;lydiagram</text></g><!--class vector<RunStates>--><g class="entity" data-qualified-name="vector.RunStates." data-source-line="27" id="ent0015"><rect fill="#F1F1F1" height="48" rx="2.5" ry="2.5" style="stroke:#181818;stroke-width:0.5;" width="155.3115" x="246.77" y="811.16"/><ellipse cx="261.77" cy="827.16" fill="#ADD1B2" rx="11" ry="11" style="stroke:#181818;stroke-width:1;"/><path d="M261.2388,834.0819 Q259.4888,834.0819 258.3481,833.3475 Q257.2231,832.5975 256.6606,831.2538 Q256.1138,829.8944 256.1138,828.0975 Q256.1138,826.0663 256.77,824.6131 Q257.4263,823.16 258.7075,822.3788 Q259.9888,821.5975 261.8638,821.5975 Q262.7544,821.5975 263.4263,821.785 Q264.0981,821.9569 264.7856,822.3006 L263.9731,824.3163 Q263.3481,824.0038 262.8013,823.8788 Q262.27,823.7538 261.7856,823.7538 Q260.6138,823.7538 259.9106,824.285 Q259.2075,824.8163 258.9106,825.7694 Q258.6138,826.7225 258.6138,827.9881 Q258.6138,830.0038 259.3325,830.9725 Q260.0513,831.9256 261.645,831.9256 Q262.2388,831.9256 262.8638,831.7694 Q263.4888,831.6131 264.3169,831.2381 L264.3169,833.4569 Q263.5825,833.7694 262.7856,833.9256 Q262.0044,834.0819 261.2388,834.0819 Z " fill="#000000"/><text fill="#000000" font-family="sans-serif" font-size="14" lengthAdjust="spacing" textLength="123.3115" x="275.77" y="832.592">vector&lt;RunStates&gt;</text><line style="stroke:#181818;stroke-width:0.5;" x1="247.77" x2="401.0815" y1="843.16" y2="843.16"/><line style="stroke:#181818;stroke-width:0.5;" x1="247.77" x2="401.0815" y1="851.16" y2="851.16"/></g><!--class ExperimentStates--><g class="entity" data-qualified-name="ExperimentStates" data-source-line="29" id="ent0017"><rect fill="#F1F1F1" height="48" rx="2.5" ry="2.5" style="stroke:#181818;stroke-width:0.5;" width="148.0316" x="250.41" y="674.63"/><ellipse cx="265.41" cy="690.63" fill="#ADD1B2" rx="11" ry="11" style="stroke:#181818;stroke-width:1;"/><path d="M264.8787,697.5519 Q263.1287,697.5519 261.9881,696.8175 Q260.8631,696.0675 260.3006,694.7238 Q259.7537,693.3644 259.7537,691.5675 Q259.7537,689.5363 260.41,688.0831 Q261.0662,686.63 262.3475,685.8488 Q263.6287,685.0675 265.5037,685.0675 Q266.3944,685.0675 267.0662,685.255 Q267.7381,685.4269 268.4256,685.7706 L267.6131,687.7863 Q266.9881,687.4738 266.4412,687.3488 Q265.91,687.2238 265.4256,687.2238 Q264.2537,687.2238 263.5506,687.755 Q262.8475,688.2863 262.5506,689.2394 Q262.2537,690.1925 262.2537,691.4581 Q262.2537,693.4738 262.9725,694.4425 Q263.6912,695.3956 265.285,695.3956 Q265.8787,695.3956 266.5037,695.2394 Q267.1287,695.0831 267.9569,694.7081 L267.9569,696.9269 Q267.2225,697.2394 266.4256,697.3956 Q265.6444,697.5519 264.8787,697.5519 Z " fill="#000000"/><text fill="#000000" font-family="sans-serif" font-size="14" lengthAdjust="spacing" textLength="116.0316" x="279.41" y="696.062">ExperimentStates</text><line style="stroke:#181818;stroke-width:0.5;" x1="251.41" x2="397.4416" y1="706.63" y2="706.63"/><line style="stroke:#181818;stroke-width:0.5;" x1="251.41" x2="397.4416" y1="714.63" y2="714.63"/></g><!--class vector<ExperimentStates>--><g class="entity" data-qualified-name="vector.ExperimentStates." data-source-line="32" id="ent0019"><rect fill="#F1F1F1" height="48" rx="2.5" ry="2.5" style="stroke:#181818;stroke-width:0.5;" width="205.0813" x="221.88" y="527.49"/><ellipse cx="236.88" cy="543.49" fill="#ADD1B2" rx="11" ry="11" style="stroke:#181818;stroke-width:1;"/><path d="M236.3488,550.4119 Q234.5988,550.4119 233.4581,549.6775 Q232.3331,548.9275 231.7706,547.5838 Q231.2238,546.2244 231.2238,544.4275 Q231.2238,542.3963 231.88,540.9431 Q232.5363,539.49 233.8175,538.7088 Q235.0988,537.9275 236.9738,537.9275 Q237.8644,537.9275 238.5363,538.115 Q239.2081,538.2869 239.8956,538.6306 L239.0831,540.6463 Q238.4581,540.3338 237.9113,540.2088 Q237.38,540.0838 236.8956,540.0838 Q235.7238,540.0838 235.0206,540.615 Q234.3175,541.1463 234.0206,542.0994 Q233.7238,543.0525 233.7238,544.3181 Q233.7238,546.3338 234.4425,547.3025 Q235.1613,548.2556 236.755,548.2556 Q237.3488,548.2556 237.9738,548.0994 Q238.5988,547.9431 239.4269,547.5681 L239.4269,549.7869 Q238.6925,550.0994 237.8956,550.2556 Q237.1144,550.4119 236.3488,550.4119 Z " fill="#000000"/><text fill="#000000" font-family="sans-serif" font-size="14" lengthAdjust="spacing" textLength="173.0813" x="250.88" y="548.922">vector&lt;ExperimentStates&gt;</text><line style="stroke:#181818;stroke-width:0.5;" x1="222.88" x2="425.9613" y1="559.49" y2="559.49"/><line style="stroke:#181818;stroke-width:0.5;" x1="222.88" x2="425.9613" y1="567.49" y2="567.49"/></g><!--class ExperimentSweepStates--><g class="entity" data-qualified-name="ExperimentSweepStates" data-source-line="34" id="ent0021"><rect fill="#F1F1F1" height="48" rx="2.5" ry="2.5" style="stroke:#181818;stroke-width:0.5;" width="191.1234" x="228.86" y="343.29"/><ellipse cx="243.86" cy="359.29" fill="#ADD1B2" rx="11" ry="11" style="stroke:#181818;stroke-width:1;"/><path d="M243.3288,366.2119 Q241.5788,366.2119 240.4381,365.4775 Q239.3131,364.7275 238.7506,363.3838 Q238.2038,362.0244 238.2038,360.2275 Q238.2038,358.1963 238.86,356.7431 Q239.5163,355.29 240.7975,354.5088 Q242.0788,353.7275 243.9538,353.7275 Q244.8444,353.7275 245.5163,353.915 Q246.1881,354.0869 246.8756,354.4306 L246.0631,356.4463 Q245.4381,356.1338 244.8913,356.0088 Q244.36,355.8838 243.8756,355.8838 Q242.7038,355.8838 242.0006,356.415 Q241.2975,356.9463 241.0006,357.8994 Q240.7038,358.8525 240.7038,360.1181 Q240.7038,362.1338 241.4225,363.1025 Q242.1413,364.0556 243.735,364.0556 Q244.3288,364.0556 244.9538,363.8994 Q245.5788,363.7431 246.4069,363.3681 L246.4069,365.5869 Q245.6725,365.8994 244.8756,366.0556 Q244.0944,366.2119 243.3288,366.2119 Z " fill="#000000"/><text fill="#000000" font-family="sans-serif" font-size="14" lengthAdjust="spacing" textLength="159.1234" x="257.86" y="364.722">ExperimentSweepStates</text><line style="stroke:#181818;stroke-width:0.5;" x1="229.86" x2="418.9834" y1="375.29" y2="375.29"/><line style="stroke:#181818;stroke-width:0.5;" x1="229.86" x2="418.9834" y1="383.29" y2="383.29"/></g><!--class Measurement--><g class="entity" data-qualified-name="Measurement" data-source-line="37" id="ent0023"><rect fill="#F1F1F1" height="143.3396" rx="2.5" ry="2.5" style="stroke:#181818;stroke-width:0.5;" width="124.1756" x="906.33" y="1143.57"/><ellipse cx="921.33" cy="1159.57" fill="#F1F1F1" rx="11" ry="11" style="stroke:#181818;stroke-width:1;"/><path d="M921.0019,1166.2419 Q920.08,1166.2419 919.1894,1166.07 Q918.2988,1165.8825 917.5175,1165.5075 L917.5175,1163.2575 Q918.4706,1163.7419 919.3456,1163.9763 Q920.2363,1164.195 921.08,1164.195 Q921.955,1164.195 922.5175,1163.8981 Q923.08,1163.6013 923.08,1162.82 Q923.08,1162.2731 922.7831,1161.9763 Q922.4863,1161.6638 921.9238,1161.3825 Q921.3613,1161.1013 920.58,1160.695 Q919.7988,1160.2731 919.1425,1159.7888 Q918.5019,1159.2888 918.1269,1158.6169 Q917.7519,1157.945 917.7519,1156.9919 Q917.7519,1155.3669 918.8456,1154.57 Q919.955,1153.7575 921.7363,1153.7575 Q922.455,1153.7575 923.4394,1153.9294 Q924.4238,1154.0856 925.3769,1154.5388 L924.5956,1156.4606 Q923.7519,1156.1013 923.0644,1155.9606 Q922.3925,1155.8044 921.8769,1155.8044 Q921.0331,1155.8044 920.6425,1156.1481 Q920.2675,1156.4763 920.2675,1157.1169 Q920.2675,1157.6013 920.5019,1157.9138 Q920.7519,1158.2106 921.2206,1158.4606 Q921.705,1158.7106 922.4394,1159.0856 Q923.4394,1159.57 924.1425,1160.0388 Q924.8456,1160.5075 925.2206,1161.1325 Q925.5956,1161.7419 925.5956,1162.6794 Q925.5956,1163.8669 925.0175,1164.6638 Q924.455,1165.445 923.4081,1165.8513 Q922.3769,1166.2419 921.0019,1166.2419 Z " fill="#000000"/><text fill="#000000" font-family="sans-serif" font-size="14" lengthAdjust="spacing" textLength="92.1756" x="935.33" y="1165.002">Measurement</text><line style="stroke:#181818;stroke-width:0.5;" x1="907.33" x2="1029.5056" y1="1175.57" y2="1175.57"/><g data-visibility-modifier="PUBLIC_FIELD"><ellipse cx="917.33" cy="1190.604" fill="none" rx="3" ry="3" style="stroke:#038048;stroke-width:1;"/></g><text fill="#000000" font-family="sans-serif" font-size="14" lengthAdjust="spacing" textLength="74.8437" x="926.33" y="1194.5359">double min</text><g data-visibility-modifier="PUBLIC_FIELD"><ellipse cx="917.33" cy="1209.6719" fill="none" rx="3" ry="3" style="stroke:#038048;stroke-width:1;"/></g><text fill="#000000" font-family="sans-serif" font-size="14" lengthAdjust="spacing" textLength="77.8397" x="926.33" y="1213.6039">double max</text><g data-visibility-modifier="PUBLIC_FIELD"><ellipse cx="917.33" cy="1228.7398" fill="none" rx="3" ry="3" style="stroke:#038048;stroke-width:1;"/></g><text fill="#000000" font-family="sans-serif" font-size="14" lengthAdjust="spacing" textLength="73.0657" x="926.33" y="1232.6718">double avg</text><g data-visibility-modifier="PUBLIC_FIELD"><ellipse cx="917.33" cy="1247.8077" fill="none" rx="3" ry="3" style="stroke:#038048;stroke-width:1;"/></g><text fill="#000000" font-family="sans-serif" font-size="14" lengthAdjust="spacing" textLength="69.8597" x="926.33" y="1251.7397">double std</text><g data-visibility-modifier="PUBLIC_FIELD"><ellipse cx="917.33" cy="1266.8756" fill="none" rx="3" ry="3" style="stroke:#038048;stroke-width:1;"/></g><text fill="#000000" font-family="sans-serif" font-size="14" lengthAdjust="spacing" textLength="68.9497" x="926.33" y="1270.8076">double err</text><line style="stroke:#181818;stroke-width:0.5;" x1="907.33" x2="1029.5056" y1="1278.9096" y2="1278.9096"/></g><!--class Statistics--><g class="entity" data-qualified-name="Statistics" data-source-line="44" id="ent0024"><rect fill="#F1F1F1" height="162.4075" rx="2.5" ry="2.5" style="stroke:#181818;stroke-width:0.5;" width="243.9651" x="846.44" y="920.16"/><ellipse cx="935.1437" cy="936.16" fill="#F1F1F1" rx="11" ry="11" style="stroke:#181818;stroke-width:1;"/><path d="M934.8155,942.8319 Q933.8937,942.8319 933.003,942.66 Q932.1124,942.4725 931.3312,942.0975 L931.3312,939.8475 Q932.2843,940.3319 933.1593,940.5663 Q934.0499,940.785 934.8937,940.785 Q935.7687,940.785 936.3312,940.4881 Q936.8937,940.1913 936.8937,939.41 Q936.8937,938.8631 936.5968,938.5663 Q936.2999,938.2538 935.7374,937.9725 Q935.1749,937.6913 934.3937,937.285 Q933.6124,936.8631 932.9562,936.3788 Q932.3155,935.8788 931.9405,935.2069 Q931.5655,934.535 931.5655,933.5819 Q931.5655,931.9569 932.6593,931.16 Q933.7687,930.3475 935.5499,930.3475 Q936.2687,930.3475 937.253,930.5194 Q938.2374,930.6756 939.1905,931.1288 L938.4093,933.0506 Q937.5655,932.6913 936.878,932.5506 Q936.2062,932.3944 935.6905,932.3944 Q934.8468,932.3944 934.4562,932.7381 Q934.0812,933.0663 934.0812,933.7069 Q934.0812,934.1913 934.3155,934.5038 Q934.5655,934.8006 935.0343,935.0506 Q935.5187,935.3006 936.253,935.6756 Q937.253,936.16 937.9562,936.6288 Q938.6593,937.0975 939.0343,937.7225 Q939.4093,938.3319 939.4093,939.2694 Q939.4093,940.4569 938.8312,941.2538 Q938.2687,942.035 937.2218,942.4413 Q936.1905,942.8319 934.8155,942.8319 Z " fill="#000000"/><text fill="#000000" font-family="sans-serif" font-size="14" lengthAdjust="spacing" textLength="58.0578" x="955.6437" y="941.592">Statistics</text><line style="stroke:#181818;stroke-width:0.5;" x1="847.44" x2="1089.4051" y1="952.16" y2="952.16"/><g data-visibility-modifier="PUBLIC_FIELD"><ellipse cx="857.44" cy="967.194" fill="none" rx="3" ry="3" style="stroke:#038048;stroke-width:1;"/></g><text fill="#000000" font-family="sans-serif" font-size="14" lengthAdjust="spacing" textLength="207.2272" x="866.44" y="971.1259">vector&lt;int&gt; entity_count_values</text><g data-visibility-modifier="PUBLIC_FIELD"><ellipse cx="857.44" cy="986.2619" fill="none" rx="3" ry="3" style="stroke:#038048;stroke-width:1;"/></g><text fill="#000000" font-family="sans-serif" font-size="14" lengthAdjust="spacing" textLength="176.9873" x="866.44" y="990.1939">Measurement entity_count</text><g data-visibility-modifier="PUBLIC_FIELD"><ellipse cx="857.44" cy="1005.3298" fill="none" rx="3" ry="3" style="stroke:#038048;stroke-width:1;"/></g><text fill="#000000" font-family="sans-serif" font-size="14" lengthAdjust="spacing" textLength="202.8732" x="866.44" y="1009.2618">vector&lt;int&gt; gene_count_values</text><g data-visibility-modifier="PUBLIC_FIELD"><ellipse cx="857.44" cy="1024.3977" fill="none" rx="3" ry="3" style="stroke:#038048;stroke-width:1;"/></g><text fill="#000000" font-family="sans-serif" font-size="14" lengthAdjust="spacing" textLength="172.6333" x="866.44" y="1028.3297">Measurement gene_count</text><g data-visibility-modifier="PUBLIC_FIELD"><ellipse cx="857.44" cy="1043.4656" fill="none" rx="3" ry="3" style="stroke:#038048;stroke-width:1;"/></g><text fill="#000000" font-family="sans-serif" font-size="14" lengthAdjust="spacing" textLength="217.9651" x="866.44" y="1047.3976">vector&lt;int&gt; species_count_values</text><g data-visibility-modifier="PUBLIC_FIELD"><ellipse cx="857.44" cy="1062.5335" fill="none" rx="3" ry="3" style="stroke:#038048;stroke-width:1;"/></g><text fill="#000000" font-family="sans-serif" font-size="14" lengthAdjust="spacing" textLength="187.7253" x="866.44" y="1066.4655">Measurement species_count</text><line style="stroke:#181818;stroke-width:0.5;" x1="847.44" x2="1089.4051" y1="1074.5675" y2="1074.5675"/></g><!--class vector<Statistics>--><g class="entity" data-qualified-name="vector.Statistics." data-source-line="54" id="ent0026"><rect fill="#F1F1F1" height="48" rx="2.5" ry="2.5" style="stroke:#181818;stroke-width:0.5;" width="147.1076" x="894.87" y="811.16"/><ellipse cx="909.87" cy="827.16" fill="#ADD1B2" rx="11" ry="11" style="stroke:#181818;stroke-width:1;"/><path d="M909.3388,834.0819 Q907.5888,834.0819 906.4481,833.3475 Q905.3231,832.5975 904.7606,831.2538 Q904.2138,829.8944 904.2138,828.0975 Q904.2138,826.0663 904.87,824.6131 Q905.5263,823.16 906.8075,822.3788 Q908.0888,821.5975 909.9638,821.5975 Q910.8544,821.5975 911.5263,821.785 Q912.1981,821.9569 912.8856,822.3006 L912.0731,824.3163 Q911.4481,824.0038 910.9013,823.8788 Q910.37,823.7538 909.8856,823.7538 Q908.7138,823.7538 908.0106,824.285 Q907.3075,824.8163 907.0106,825.7694 Q906.7138,826.7225 906.7138,827.9881 Q906.7138,830.0038 907.4325,830.9725 Q908.1513,831.9256 909.745,831.9256 Q910.3388,831.9256 910.9638,831.7694 Q911.5888,831.6131 912.4169,831.2381 L912.4169,833.4569 Q911.6825,833.7694 910.8856,833.9256 Q910.1044,834.0819 909.3388,834.0819 Z " fill="#000000"/><text fill="#000000" font-family="sans-serif" font-size="14" lengthAdjust="spacing" textLength="115.1076" x="923.87" y="832.592">vector&lt;Statistics&gt;</text><line style="stroke:#181818;stroke-width:0.5;" x1="895.87" x2="1040.9776" y1="843.16" y2="843.16"/><line style="stroke:#181818;stroke-width:0.5;" x1="895.87" x2="1040.9776" y1="851.16" y2="851.16"/></g><!--class ExperimentStatistics--><g class="entity" data-qualified-name="ExperimentStatistics" data-source-line="56" id="ent0028"><rect fill="#F1F1F1" height="48" rx="2.5" ry="2.5" style="stroke:#181818;stroke-width:0.5;" width="165.8395" x="885.5" y="674.63"/><ellipse cx="900.5" cy="690.63" fill="#ADD1B2" rx="11" ry="11" style="stroke:#181818;stroke-width:1;"/><path d="M899.9688,697.5519 Q898.2188,697.5519 897.0781,696.8175 Q895.9531,696.0675 895.3906,694.7238 Q894.8438,693.3644 894.8438,691.5675 Q894.8438,689.5363 895.5,688.0831 Q896.1563,686.63 897.4375,685.8488 Q898.7188,685.0675 900.5938,685.0675 Q901.4844,685.0675 902.1563,685.255 Q902.8281,685.4269 903.5156,685.7706 L902.7031,687.7863 Q902.0781,687.4738 901.5313,687.3488 Q901,687.2238 900.5156,687.2238 Q899.3438,687.2238 898.6406,687.755 Q897.9375,688.2863 897.6406,689.2394 Q897.3438,690.1925 897.3438,691.4581 Q897.3438,693.4738 898.0625,694.4425 Q898.7813,695.3956 900.375,695.3956 Q900.9688,695.3956 901.5938,695.2394 Q902.2188,695.0831 903.0469,694.7081 L903.0469,696.9269 Q902.3125,697.2394 901.5156,697.3956 Q900.7344,697.5519 899.9688,697.5519 Z " fill="#000000"/><text fill="#000000" font-family="sans-serif" font-size="14" lengthAdjust="spacing" textLength="133.8395" x="914.5" y="696.062">ExperimentStatistics</text><line style="stroke:#181818;stroke-width:0.5;" x1="886.5" x2="1050.3395" y1="706.63" y2="706.63"/><line style="stroke:#181818;stroke-width:0.5;" x1="886.5" x2="1050.3395" y1="714.63" y2="714.63"/></g><!--class vector<ExperimentStatistics>--><g class="entity" data-qualified-name="vector.ExperimentStatistics." data-source-line="59" id="ent0030"><rect fill="#F1F1F1" height="48" rx="2.5" ry="2.5" style="stroke:#181818;stroke-width:0.5;" width="222.8893" x="856.98" y="527.49"/><ellipse cx="871.98" cy="543.49" fill="#ADD1B2" rx="11" ry="11" style="stroke:#181818;stroke-width:1;"/><path d="M871.4488,550.4119 Q869.6988,550.4119 868.5581,549.6775 Q867.4331,548.9275 866.8706,547.5838 Q866.3238,546.2244 866.3238,544.4275 Q866.3238,542.3963 866.98,540.9431 Q867.6363,539.49 868.9175,538.7088 Q870.1988,537.9275 872.0738,537.9275 Q872.9644,537.9275 873.6363,538.115 Q874.3081,538.2869 874.9956,538.6306 L874.1831,540.6463 Q873.5581,540.3338 873.0113,540.2088 Q872.48,540.0838 871.9956,540.0838 Q870.8238,540.0838 870.1206,540.615 Q869.4175,541.1463 869.1206,542.0994 Q868.8238,543.0525 868.8238,544.3181 Q868.8238,546.3338 869.5425,547.3025 Q870.2613,548.2556 871.855,548.2556 Q872.4488,548.2556 873.0738,548.0994 Q873.6988,547.9431 874.5269,547.5681 L874.5269,549.7869 Q873.7925,550.0994 872.9956,550.2556 Q872.2144,550.4119 871.4488,550.4119 Z " fill="#000000"/><text fill="#000000" font-family="sans-serif" font-size="14" lengthAdjust="spacing" textLength="190.8893" x="885.98" y="548.922">vector&lt;ExperimentStatistics&gt;</text><line style="stroke:#181818;stroke-width:0.5;" x1="857.98" x2="1078.8693" y1="559.49" y2="559.49"/><line style="stroke:#181818;stroke-width:0.5;" x1="857.98" x2="1078.8693" y1="567.49" y2="567.49"/></g><!--class ExperimentSweepStatistics--><g class="entity" data-qualified-name="ExperimentSweepStatistics" data-source-line="61" id="ent0032"><rect fill="#F1F1F1" height="48" rx="2.5" ry="2.5" style="stroke:#181818;stroke-width:0.5;" width="208.9313" x="863.96" y="343.29"/><ellipse cx="878.96" cy="359.29" fill="#ADD1B2" rx="11" ry="11" style="stroke:#181818;stroke-width:1;"/><path d="M878.4288,366.2119 Q876.6788,366.2119 875.5381,365.4775 Q874.4131,364.7275 873.8506,363.3838 Q873.3038,362.0244 873.3038,360.2275 Q873.3038,358.1963 873.96,356.7431 Q874.6163,355.29 875.8975,354.5088 Q877.1788,353.7275 879.0538,353.7275 Q879.9444,353.7275 880.6163,353.915 Q881.2881,354.0869 881.9756,354.4306 L881.1631,356.4463 Q880.5381,356.1338 879.9913,356.0088 Q879.46,355.8838 878.9756,355.8838 Q877.8038,355.8838 877.1006,356.415 Q876.3975,356.9463 876.1006,357.8994 Q875.8038,358.8525 875.8038,360.1181 Q875.8038,362.1338 876.5225,363.1025 Q877.2413,364.0556 878.835,364.0556 Q879.4288,364.0556 880.0538,363.8994 Q880.6788,363.7431 881.5069,363.3681 L881.5069,365.5869 Q880.7725,365.8994 879.9756,366.0556 Q879.1944,366.2119 878.4288,366.2119 Z " fill="#000000"/><text fill="#000000" font-family="sans-serif" font-size="14" lengthAdjust="spacing" textLength="176.9313" x="892.96" y="364.722">ExperimentSweepStatistics</text><line style="stroke:#181818;stroke-width:0.5;" x1="864.96" x2="1071.8913" y1="375.29" y2="375.29"/><line style="stroke:#181818;stroke-width:0.5;" x1="864.96" x2="1071.8913" y1="383.29" y2="383.29"/></g><!--class math--><g class="entity" data-qualified-name="math" data-source-line="64" id="ent0034"><rect fill="#F1F1F1" height="118.6158" rx="2.5" ry="2.5" style="stroke:#181818;stroke-width:0.5;" width="634.8439" x="7" y="135.07"/><ellipse cx="286.1357" cy="157.776" fill="#ADD1B2" rx="11" ry="11" style="stroke:#181818;stroke-width:1;"/><path d="M285.6044,164.6979 Q283.8544,164.6979 282.7138,163.9635 Q281.5888,163.2135 281.0263,161.8698 Q280.4794,160.5104 280.4794,158.7135 Q280.4794,156.6823 281.1357,155.2291 Q281.7919,153.776 283.0732,152.9948 Q284.3544,152.2135 286.2294,152.2135 Q287.1201,152.2135 287.7919,152.401 Q288.4638,152.5729 289.1513,152.9166 L288.3388,154.9323 Q287.7138,154.6198 287.1669,154.4948 Q286.6357,154.3698 286.1513,154.3698 Q284.9794,154.3698 284.2763,154.901 Q283.5732,155.4323 283.2763,156.3854 Q282.9794,157.3385 282.9794,158.6041 Q282.9794,160.6198 283.6982,161.5885 Q284.4169,162.5416 286.0107,162.5416 Q286.6044,162.5416 287.2294,162.3854 Q287.8544,162.2291 288.6826,161.8541 L288.6826,164.0729 Q287.9482,164.3854 287.1513,164.5416 Q286.3701,164.6979 285.6044,164.6979 Z " fill="#000000"/><text fill="#000000" font-family="sans-serif" font-size="12" font-style="italic" lengthAdjust="spacing" textLength="72.0725" x="304.6357" y="152.8981">&#171;namespace&#187;</text><text fill="#000000" font-family="sans-serif" font-size="14" lengthAdjust="spacing" textLength="34.6499" x="323.347" y="171.38">math</text><line style="stroke:#181818;stroke-width:0.5;" x1="8" x2="640.8439" y1="180.482" y2="180.482"/><line style="stroke:#181818;stroke-width:0.5;" x1="8" x2="640.8439" y1="188.482" y2="188.482"/><g data-visibility-modifier="PUBLIC_METHOD"><ellipse cx="18" cy="203.516" fill="#84BE84" rx="3" ry="3" style="stroke:#038048;stroke-width:1;"/></g><text fill="#000000" font-family="sans-serif" font-size="14" lengthAdjust="spacing" textLength="203.9232" x="27" y="207.448">Measurement measure(values)</text><g data-visibility-modifier="PUBLIC_METHOD"><ellipse cx="18" cy="222.5839" fill="#84BE84" rx="3" ry="3" style="stroke:#038048;stroke-width:1;"/></g><text fill="#000000" font-family="sans-serif" font-size="14" lengthAdjust="spacing" textLength="479.5681" x="27" y="226.5159">ExperimentStatistics measure(experimentParameters, experimentStates)</text><g data-visibility-modifier="PUBLIC_METHOD"><ellipse cx="18" cy="241.6518" fill="#84BE84" rx="3" ry="3" style="stroke:#038048;stroke-width:1;"/></g><text fill="#000000" font-family="sans-serif" font-size="14" lengthAdjust="spacing" textLength="608.8439" x="27" y="245.5838">ExperimentSweepStatistics measure(experimentSweepParameters, experimentSweepStates)</text></g><!--class IOOutputWriter--><g class="entity" data-qualified-name="IOOutputWriter" data-source-line="73" id="ent0038"><rect fill="#F1F1F1" height="67.0679" rx="2.5" ry="2.5" style="stroke:#181818;stroke-width:0.5;" width="305.971" x="846.44" y="7"/><ellipse cx="946.8197" cy="23" fill="#B4A7E5" rx="11" ry="11" style="stroke:#181818;stroke-width:1;"/><path d="M942.8509,29.5 L942.8509,27.7969 L945.2103,27.5313 L945.2103,19.3281 L942.8509,19.0625 L942.8509,17.3594 L949.9916,17.3594 L949.9916,19.0625 L947.5697,19.3281 L947.5697,27.5313 L949.9916,27.7969 L949.9916,29.5 L942.8509,29.5 Z " fill="#000000"/><text fill="#000000" font-family="sans-serif" font-size="14" font-style="italic" lengthAdjust="spacing" textLength="96.7116" x="967.3197" y="28.432">IOOutputWriter</text><line style="stroke:#181818;stroke-width:0.5;" x1="847.44" x2="1151.411" y1="39" y2="39"/><line style="stroke:#181818;stroke-width:0.5;" x1="847.44" x2="1151.411" y1="47" y2="47"/><g data-visibility-modifier="PUBLIC_METHOD"><ellipse cx="857.44" cy="62.034" fill="#84BE84" rx="3" ry="3" style="stroke:#038048;stroke-width:1;"/></g><text fill="#000000" font-family="sans-serif" font-size="14" lengthAdjust="spacing" textLength="279.971" x="866.44" y="65.9659">void write(params, statistics, &amp;out_stream)</text></g><!--class CSVWriter--><g class="entity" data-qualified-name="CSVWriter" data-source-line="76" id="ent0039"><rect fill="#F1F1F1" height="67.0679" rx="2.5" ry="2.5" style="stroke:#181818;stroke-width:0.5;" width="305.971" x="676.44" y="160.85"/><ellipse cx="792.1356" cy="176.85" fill="#ADD1B2" rx="11" ry="11" style="stroke:#181818;stroke-width:1;"/><path d="M791.6044,183.7719 Q789.8544,183.7719 788.7137,183.0375 Q787.5887,182.2875 787.0262,180.9438 Q786.4794,179.5844 786.4794,177.7875 Q786.4794,175.7563 787.1356,174.3031 Q787.7919,172.85 789.0731,172.0688 Q790.3544,171.2875 792.2294,171.2875 Q793.12,171.2875 793.7919,171.475 Q794.4637,171.6469 795.1512,171.9906 L794.3387,174.0063 Q793.7137,173.6938 793.1669,173.5688 Q792.6356,173.4438 792.1512,173.4438 Q790.9794,173.4438 790.2762,173.975 Q789.5731,174.5063 789.2762,175.4594 Q788.9794,176.4125 788.9794,177.6781 Q788.9794,179.6938 789.6981,180.6625 Q790.4169,181.6156 792.0106,181.6156 Q792.6044,181.6156 793.2294,181.4594 Q793.8544,181.3031 794.6825,180.9281 L794.6825,183.1469 Q793.9481,183.4594 793.1512,183.6156 Q792.37,183.7719 791.6044,183.7719 Z " fill="#000000"/><text fill="#000000" font-family="sans-serif" font-size="14" lengthAdjust="spacing" textLength="66.0797" x="812.6356" y="182.282">CSVWriter</text><line style="stroke:#181818;stroke-width:0.5;" x1="677.44" x2="981.411" y1="192.85" y2="192.85"/><line style="stroke:#181818;stroke-width:0.5;" x1="677.44" x2="981.411" y1="200.85" y2="200.85"/><g data-visibility-modifier="PUBLIC_METHOD"><ellipse cx="687.44" cy="215.884" fill="#84BE84" rx="3" ry="3" style="stroke:#038048;stroke-width:1;"/></g><text fill="#000000" font-family="sans-serif" font-size="14" lengthAdjust="spacing" textLength="279.971" x="696.44" y="219.8159">void write(params, statistics, &amp;out_stream)</text></g><!--class SVGWriter--><g class="entity" data-qualified-name="SVGWriter" data-source-line="79" id="ent0040"><rect fill="#F1F1F1" height="67.0679" rx="2.5" ry="2.5" style="stroke:#181818;stroke-width:0.5;" width="305.971" x="1017.44" y="160.85"/><ellipse cx="1132.4636" cy="176.85" fill="#ADD1B2" rx="11" ry="11" style="stroke:#181818;stroke-width:1;"/><path d="M1131.9324,183.7719 Q1130.1824,183.7719 1129.0417,183.0375 Q1127.9167,182.2875 1127.3542,180.9438 Q1126.8074,179.5844 1126.8074,177.7875 Q1126.8074,175.7563 1127.4636,174.3031 Q1128.1199,172.85 1129.4011,172.0688 Q1130.6824,171.2875 1132.5574,171.2875 Q1133.448,171.2875 1134.1199,171.475 Q1134.7917,171.6469 1135.4792,171.9906 L1134.6667,174.0063 Q1134.0417,173.6938 1133.4949,173.5688 Q1132.9636,173.4438 1132.4792,173.4438 Q1131.3074,173.4438 1130.6042,173.975 Q1129.9011,174.5063 1129.6042,175.4594 Q1129.3074,176.4125 1129.3074,177.6781 Q1129.3074,179.6938 1130.0261,180.6625 Q1130.7449,181.6156 1132.3386,181.6156 Q1132.9324,181.6156 1133.5574,181.4594 Q1134.1824,181.3031 1135.0105,180.9281 L1135.0105,183.1469 Q1134.2761,183.4594 1133.4792,183.6156 Q1132.698,183.7719 1131.9324,183.7719 Z " fill="#000000"/><text fill="#000000" font-family="sans-serif" font-size="14" lengthAdjust="spacing" textLength="67.4237" x="1152.9636" y="182.282">SVGWriter</text><line style="stroke:#181818;stroke-width:0.5;" x1="1018.44" x2="1322.411" y1="192.85" y2="192.85"/><line style="stroke:#181818;stroke-width:0.5;" x1="1018.44" x2="1322.411" y1="200.85" y2="200.85"/><g data-visibility-modifier="PUBLIC_METHOD"><ellipse cx="1028.44" cy="215.884" fill="#84BE84" rx="3" ry="3" style="stroke:#038048;stroke-width:1;"/></g><text fill="#000000" font-family="sans-serif" font-size="14" lengthAdjust="spacing" textLength="279.971" x="1037.44" y="219.8159">void write(params, statistics, &amp;out_stream)</text></g><!--reverse link ExperimentParameters to RunParameters--><g class="link" data-entity-1="ent0006" data-entity-2="ent0002" data-link-type="aggregation" data-source-line="12" id="lnk7"><path codeLine="12" d="M640.7769,614.2029 C626.1869,634.3729 616.95,647.14 604.06,664.96" fill="none" id="ExperimentParameters-backto-RunParameters" style="stroke:#181818;stroke-width:1;"/><polygon fill="none" points="647.81,604.48,641.0525,606.9971,640.7769,614.2029,647.5344,611.6858,647.81,604.48" style="stroke:#181818;stroke-width:1;"/></g><!--reverse link ExperimentSweepParameters to ExperimentParameters--><g class="link" data-entity-1="ent0008" data-entity-2="ent0006" data-link-type="aggregation" data-source-line="19" id="lnk9"><path codeLine="19" d="M676.3185,431.9748 C678.2085,456.5948 679.54,474 681.44,498.64" fill="none" id="ExperimentSweepParameters-backto-ExperimentParameters" style="stroke:#181818;stroke-width:1;"/><polygon fill="none" points="675.4,420.01,671.871,426.2986,676.3185,431.9748,679.8475,425.6862,675.4,420.01" style="stroke:#181818;stroke-width:1;"/></g><!--reverse link ExperimentSweepParameters to RunParameters--><g class="link" data-entity-1="ent0008" data-entity-2="ent0002" data-link-type="aggregation" data-source-line="20" id="lnk10"><path codeLine="20" d="M593.9187,428.3293 C570.8587,449.8593 556.68,468.71 544.42,498.89 C521.86,554.45 545.5,624.46 563.69,664.82" fill="none" id="ExperimentSweepParameters-backto-RunParameters" style="stroke:#181818;stroke-width:1;"/><polygon fill="none" points="602.69,420.14,595.5746,421.3109,593.9187,428.3293,601.0341,427.1584,602.69,420.14" style="stroke:#181818;stroke-width:1;"/></g><!--reverse link vector<RunStates> to RunStates--><g class="link" data-entity-1="ent0015" data-entity-2="ent0011" data-link-type="aggregation" data-source-line="28" id="lnk16"><path codeLine="28" d="M324.42,871.34 C324.42,899.54 324.42,935.35 324.42,967.38" fill="none" id="vector&lt;RunStates&gt;-backto-RunStates" style="stroke:#181818;stroke-width:1;"/><polygon fill="none" points="324.42,859.34,320.42,865.34,324.42,871.34,328.42,865.34,324.42,859.34" style="stroke:#181818;stroke-width:1;"/></g><!--link ExperimentStates to vector<RunStates>--><g class="link" data-entity-1="ent0017" data-entity-2="ent0015" data-link-type="extension" data-source-line="30" id="lnk18"><path codeLine="30" d="M324.42,723.06 C324.42,747.76 324.42,768.41 324.42,793" fill="none" id="ExperimentStates-to-vector&lt;RunStates&gt;" style="stroke:#181818;stroke-width:1;"/><polygon fill="none" points="324.42,811,330.42,793,318.42,793,324.42,811" style="stroke:#181818;stroke-width:1;"/><text fill="#000000" font-family="sans-serif" font-size="13" lengthAdjust="spacing" textLength="59.683" x="325.42" y="777.057">&#171;typedef&#187;</text></g><!--reverse link vector<ExperimentStates> to ExperimentStates--><g class="link" data-entity-1="ent0019" data-entity-2="ent0017" data-link-type="aggregation" data-source-line="33" id="lnk20"><path codeLine="33" d="M324.42,587.81 C324.42,614.9 324.42,647.31 324.42,674.37" fill="none" id="vector&lt;ExperimentStates&gt;-backto-ExperimentStates" style="stroke:#181818;stroke-width:1;"/><polygon fill="none" points="324.42,575.81,320.42,581.81,324.42,587.81,328.42,581.81,324.42,575.81" style="stroke:#181818;stroke-width:1;"/></g><!--link ExperimentSweepStates to vector<ExperimentStates>--><g class="link" data-entity-1="ent0021" data-entity-2="ent0019" data-link-type="extension" data-source-line="35" id="lnk22"><path codeLine="35" d="M324.42,391.74 C324.42,426.72 324.42,474.2 324.42,509.14" fill="none" id="ExperimentSweepStates-to-vector&lt;ExperimentStates&gt;" style="stroke:#181818;stroke-width:1;"/><polygon fill="none" points="324.42,527.14,330.42,509.14,318.42,509.14,324.42,527.14" style="stroke:#181818;stroke-width:1;"/><text fill="#000000" font-family="sans-serif" font-size="13" lengthAdjust="spacing" textLength="59.683" x="325.42" y="464.787">&#171;typedef&#187;</text></g><!--reverse link Statistics to Measurement--><g class="link" data-entity-1="ent0024" data-entity-2="ent0023" data-link-type="aggregation" data-source-line="52" id="lnk25"><path codeLine="52" d="M968.42,1094.77 C968.42,1114.67 968.42,1123.85 968.42,1143.26" fill="none" id="Statistics-backto-Measurement" style="stroke:#181818;stroke-width:1;"/><polygon fill="none" points="968.42,1082.77,964.42,1088.77,968.42,1094.77,972.42,1088.77,968.42,1082.77" style="stroke:#181818;stroke-width:1;"/></g><!--reverse link vector<Statistics> to Statistics--><g class="link" data-entity-1="ent0026" data-entity-2="ent0024" data-link-type="aggregation" data-source-line="55" id="lnk27"><path codeLine="55" d="M968.42,871.34 C968.42,887.34 968.42,897.65 968.42,919.82" fill="none" id="vector&lt;Statistics&gt;-backto-Statistics" style="stroke:#181818;stroke-width:1;"/><polygon fill="none" points="968.42,859.34,964.42,865.34,968.42,871.34,972.42,865.34,968.42,859.34" style="stroke:#181818;stroke-width:1;"/></g><!--link ExperimentStatistics to vector<Statistics>--><g class="link" data-entity-1="ent0028" data-entity-2="ent0026" data-link-type="extension" data-source-line="57" id="lnk29"><path codeLine="57" d="M968.42,723.06 C968.42,747.76 968.42,768.41 968.42,793" fill="none" id="ExperimentStatistics-to-vector&lt;Statistics&gt;" style="stroke:#181818;stroke-width:1;"/><polygon fill="none" points="968.42,811,974.42,793,962.42,793,968.42,811" style="stroke:#181818;stroke-width:1;"/><text fill="#000000" font-family="sans-serif" font-size="13" lengthAdjust="spacing" textLength="59.683" x="969.42" y="777.057">&#171;typedef&#187;</text></g><!--reverse link vector<ExperimentStatistics> to ExperimentStatistics--><g class="link" data-entity-1="ent0030" data-entity-2="ent0028" data-link-type="aggregation" data-source-line="60" id="lnk31"><path codeLine="60" d="M968.42,587.81 C968.42,614.9 968.42,647.31 968.42,674.37" fill="none" id="vector&lt;ExperimentStatistics&gt;-backto-ExperimentStatistics" style="stroke:#181818;stroke-width:1;"/><polygon fill="none" points="968.42,575.81,964.42,581.81,968.42,587.81,972.42,581.81,968.42,575.81" style="stroke:#181818;stroke-width:1;"/></g><!--link ExperimentSweepStatistics to vector<ExperimentStatistics>--><g class="link" data-entity-1="ent0032" data-entity-2="ent0030" data-link-type="extension" data-source-line="62" id="lnk33"><path codeLine="62" d="M968.42,391.74 C968.42,426.72 968.42,474.2 968.42,509.14" fill="none" id="ExperimentSweepStatistics-to-vector&lt;ExperimentStatistics&gt;" style="stroke:#181818;stroke-width:1;"/><polygon fill="none" points="968.42,527.14,974.42,509.14,962.42,509.14,968.42,527.14" style="stroke:#181818;stroke-width:1;"/><text fill="#000000" font-family="sans-serif" font-size="13" lengthAdjust="spacing" textLength="59.683" x="969.42" y="464.787">&#171;typedef&#187;</text></g><!--link math to ExperimentSweepParameters--><g class="link" data-entity-1="ent0034" data-entity-2="ent0008" data-link-type="dependency" data-source-line="69" id="lnk35"><path codeLine="69" d="M443.35,253.96 C483.08,273.53 521.6771,292.5396 560.3271,311.5696" fill="none" id="math-to-ExperimentSweepParameters" style="stroke:#181818;stroke-width:1;"/><polygon fill="#181818" points="565.71,314.22,559.4026,306.6559,561.2243,312.0114,555.8687,313.8331,565.71,314.22" style="stroke:#181818;stroke-width:1;"/></g><!--link math to ExperimentSweepStates--><g class="link" data-entity-1="ent0034" data-entity-2="ent0021" data-link-type="dependency" data-source-line="70" id="lnk36"><path codeLine="70" d="M324.42,253.72 C324.42,284.28 324.42,314 324.42,336.86" fill="none" id="math-to-ExperimentSweepStates" style="stroke:#181818;stroke-width:1;"/><polygon fill="#181818" points="324.42,342.86,328.42,333.86,324.42,337.86,320.42,333.86,324.42,342.86" style="stroke:#181818;stroke-width:1;"/></g><!--link math to ExperimentSweepStatistics--><g class="link" data-entity-1="ent0034" data-entity-2="ent0032" data-link-type="dependency" data-source-line="71" id="lnk37"><path codeLine="71" d="M622.95,254.13 C696.68,271.23 774.99,291.61 846.42,314.69 C870.6,322.5 891.1515,330.7558 912.9315,340.3758" fill="none" id="math-to-ExperimentSweepStatistics" style="stroke:#181818;stroke-width:1;"/><polygon fill="#181818" points="918.42,342.8,911.8034,335.5047,913.8463,340.7798,908.5712,342.8227,918.42,342.8" style="stroke:#181818;stroke-width:1;"/></g><!--reverse link IOOutputWriter to CSVWriter--><g class="link" data-entity-1="ent0038" data-entity-2="ent0039" data-link-type="extension" data-source-line="83" id="lnk41"><path codeLine="83" d="M949.1042,86.4795 C920.5942,111.9395 894.73,135.04 866.24,160.5" fill="none" id="IOOutputWriter-backto-CSVWriter" style="stroke:#181818;stroke-width:1;"/><polygon fill="none" points="962.53,74.49,945.1077,82.0042,953.1007,90.9548,962.53,74.49" style="stroke:#181818;stroke-width:1;"/></g><!--reverse link IOOutputWriter to SVGWriter--><g class="link" data-entity-1="ent0038" data-entity-2="ent0040" data-link-type="extension" data-source-line="84" id="lnk42"><path codeLine="84" d="M1049.9911,86.4398 C1078.6711,111.8998 1104.73,135.04 1133.39,160.5" fill="none" id="IOOutputWriter-backto-SVGWriter" style="stroke:#181818;stroke-width:1;"/><polygon fill="none" points="1036.53,74.49,1046.0079,90.9269,1053.9744,81.9528,1036.53,74.49" style="stroke:#181818;stroke-width:1;"/></g><!--link CSVWriter to ExperimentSweepParameters--><g class="link" data-entity-1="ent0039" data-entity-2="ent0008" data-link-type="dependency" data-source-line="86" id="lnk43"><path codeLine="86" d="M798.96,228.33 C776.45,252.68 749.4331,281.9044 723.5831,309.8644" fill="none" id="CSVWriter-to-ExperimentSweepParameters" style="stroke:#181818;stroke-width:1;"/><polygon fill="#181818" points="719.51,314.27,728.5568,310.377,722.9043,310.5987,722.6826,304.9461,719.51,314.27" style="stroke:#181818;stroke-width:1;"/></g><!--link CSVWriter to ExperimentSweepStatistics--><g class="link" data-entity-1="ent0039" data-entity-2="ent0032" data-link-type="dependency" data-source-line="87" id="lnk44"><path codeLine="87" d="M856.22,228.33 C883.6,261.99 921.6148,308.7347 945.7148,338.3747" fill="none" id="CSVWriter-to-ExperimentSweepStatistics" style="stroke:#181818;stroke-width:1;"/><polygon fill="#181818" points="949.5,343.03,946.9257,333.5235,946.3457,339.1506,940.7186,338.5705,949.5,343.03" style="stroke:#181818;stroke-width:1;"/></g><!--link SVGWriter to ExperimentSweepParameters--><g class="link" data-entity-1="ent0040" data-entity-2="ent0008" data-link-type="dependency" data-source-line="89" id="lnk45"><path codeLine="89" d="M1074.21,228.33 C1003.12,252.68 910.6063,284.3658 828.9763,312.3258" fill="none" id="SVGWriter-to-ExperimentSweepParameters" style="stroke:#181818;stroke-width:1;"/><polygon fill="#181818" points="823.3,314.27,833.1106,315.1378,828.0302,312.6498,830.5182,307.5695,823.3,314.27" style="stroke:#181818;stroke-width:1;"/></g><!--link SVGWriter to ExperimentSweepStatistics--><g class="link" data-entity-1="ent0040" data-entity-2="ent0032" data-link-type="dependency" data-source-line="90" id="lnk46"><path codeLine="90" d="M1131.47,228.33 C1091.69,261.99 1035.5204,309.5144 1000.4904,339.1544" fill="none" id="SVGWriter-to-ExperimentSweepStatistics" style="stroke:#181818;stroke-width:1;"/><polygon fill="#181818" points="995.91,343.03,1005.3643,340.2702,999.727,339.8003,1000.1968,334.163,995.91,343.03" style="stroke:#181818;stroke-width:1;"/></g><?plantuml-src fLLBRjim4Dth54GMXOD6Fa1WQ5CKHO4MAIeWNHgCD749IAH03XsxIGwJi-HY9ItA8YbAHPgTvlVc3UUHKYXrXUIdvZ-ef2qWI4KUCqBMwtNsd761GEu4ecYloRVN5rMJahMweIWa4UeFlhuqnvhHdQdDCjM3VJvq85aB72FCZr4VgVcsEvkd1CRHkdjZ3vNfimcA2WA7Zl9wTMde9Jk9F0_x98YL3m3TX5qIJY6LoFWkPXgEKaE3zAsaOnQMUOh3FqgYOQk6AcMT9LA4_zzcZtCnpjFZ5HVaaJndARyZqzkktgFkw93W27fddZyLoLRNPBF1OmSrt1T5p2c6YQWbmk49pn6rPvncwqK2oebM4NCdmUz0bPPWCvteQg7l6Y0juu593xv9zplVL5Zx9aXfjkiwM09C8Qi6LJkAvcOP6N9aUDnMGdFSxccZeHUpJylFcG3iWCDo-PWnALOTL0pKSdsGPCRovh7Ryr9ZEOoPaH22W0KP7KcL3iStKQeB1AiFmDyWroJJcPIfREVO3m9DZn155oIyF55ByRVnS_Fcg8vMK1HEQ_uYs_vxrU_vCdfXFHf38YIUlYi2qTMQ04L3JT6YDpE072-qVPfFS-LvCV-dc4rnRybIsEqiCtS1vBqvDlBrvaPZf_6NPCOrt5V1Ql9WFQlJBySGLkVgA_91QDoQkmwqjPJxXNmgRz-DKTv-UGT65isoUJAQFTDAHiyDispaltpwYtd-6O_3B0Ckvdc0Vm40?></g></svg>