<?plantuml 1.2026.2?><svg xmlns="http://www.w3.org/2000/svg" xmlns:xlink="http://www.w3.org/1999/xlink" contentStyleType="text/css" data-diagram-type="DESCRIPTION" height="883px" preserveAspectRatio="none" style="width:1380px;height:883px;background:#FFFFFF;" version="1.1" viewBox="0 0 1380 883" width="1380px" zoomAndPan="magnify"><defs/><g><!--cluster NetLogo UI--><g class="cluster" data-qualified-name="NetLogo UI" data-source-line="5" id="ent0003"><path d="M611.2,6.602 L691.8597,6.602 A3.75,3.75 0 0 1 694.3597,9.102 L701.3597,31.6699 L1371.34,31.6699 A2.5,2.5 0 0 1 1373.84,34.1699 L1373.84,408.102 A2.5,2.5 0 0 1 1371.34,410.602 L611.2,410.602 A2.5,2.5 0 0 1 608.7,408.102 L608.7,9.102 A2.5,2.5 0 0 1 611.2,6.602" fill="none" style="stroke:#000000;stroke-width:1.5;"/><line style="stroke:#000000;stroke-width:1.5;" x1="608.7" x2="701.3597" y1="31.6699" y2="31.6699"/><text fill="#000000" font-family="sans-serif" font-size="14" font-weight="bold" lengthAdjust="spacing" textLength="79.6597" x="612.7" y="23.5679">NetLogo UI</text></g><!--cluster BehaviorSpace--><g class="cluster" data-qualified-name="BehaviorSpace" data-source-line="19" id="ent0012"><path d="M8.5,644.602 L112.3716,644.602 A3.75,3.75 0 0 1 114.8716,647.102 L121.8716,669.6699 L831.98,669.6699 A2.5,2.5 0 0 1 834.48,672.1699 L834.48,874.102 A2.5,2.5 0 0 1 831.98,876.602 L8.5,876.602 A2.5,2.5 0 0 1 6,874.102 L6,647.102 A2.5,2.5 0 0 1 8.5,644.602" fill="none" style="stroke:#000000;stroke-width:1.5;"/><line style="stroke:#000000;stroke-width:1.5;" x1="6" x2="121.8716" y1="669.6699" y2="669.6699"/><text fill="#000000" font-family="sans-serif" font-size="14" font-weight="bold" lengthAdjust="spacing" textLength="102.8716" x="10" y="661.5679">BehaviorSpace</text></g><!--entity reset--><g class="entity" data-qualified-name="NetLogo UI.reset" data-source-line="7" id="ent0004"><ellipse cx="729.5253" cy="67.597" fill="#F1F1F1" rx="104.8253" ry="23.3651" style="stroke:#181818;stroke-width:0.5;"/><text fill="#000000" font-family="sans-serif" font-size="14" lengthAdjust="spacing" textLength="179.9553" x="639.5476" y="73.631">Param&#233;terek alaphelyzetbe</text></g><!--entity configure--><g class="entity" data-qualified-name="NetLogo UI.configure" data-source-line="8" id="ent0005"><ellipse cx="729.53" cy="149.604" fill="#F1F1F1" rx="104.51" ry="23.302" style="stroke:#181818;stroke-width:0.5;"/><text fill="#000000" font-family="sans-serif" font-size="14" lengthAdjust="spacing" textLength="179.2413" x="639.9093" y="155.6379">Param&#233;terek testreszab&#225;sa</text></g><!--entity setup--><g class="entity" data-qualified-name="NetLogo UI.setup" data-source-line="9" id="ent0006"><ellipse cx="729.5308" cy="229.6041" fill="#F1F1F1" rx="98.4108" ry="22.0822" style="stroke:#181818;stroke-width:0.5;"/><text fill="#000000" font-family="sans-serif" font-size="14" lengthAdjust="spacing" textLength="165.2974" x="646.8821" y="235.6381">Szimul&#225;tor alaphelyzetbe</text></g><!--entity step--><g class="entity" data-qualified-name="NetLogo UI.step" data-source-line="11" id="ent0007"><ellipse cx="1015.3703" cy="359.605" fill="#F1F1F1" rx="26.6003" ry="16.4831" style="stroke:#181818;stroke-width:0.5;"/><text fill="#000000" font-family="sans-serif" font-size="14" lengthAdjust="spacing" textLength="33.3759" x="998.6824" y="365.639">1 k&#246;r</text></g><!--entity 500_step--><g class="entity" data-qualified-name="NetLogo UI.500_step" data-source-line="12" id="ent0008"><ellipse cx="729.5253" cy="303.605" fill="#F1F1F1" rx="37.9253" ry="16.4831" style="stroke:#181818;stroke-width:0.5;"/><text fill="#000000" font-family="sans-serif" font-size="14" lengthAdjust="spacing" textLength="49.3918" x="704.8294" y="309.639">500 k&#246;r</text></g><!--entity go--><g class="entity" data-qualified-name="NetLogo UI.go" data-source-line="13" id="ent0009"><ellipse cx="729.5267" cy="374.5973" fill="#F1F1F1" rx="87.7767" ry="19.9553" style="stroke:#181818;stroke-width:0.5;"/><text fill="#000000" font-family="sans-serif" font-size="14" lengthAdjust="spacing" textLength="140.2095" x="659.4219" y="380.6313">Folymatos szimul&#225;ci&#243;</text></g><!--entity halt--><g class="entity" data-qualified-name="NetLogo UI.halt" data-source-line="14" id="ent0010"><ellipse cx="1015.3725" cy="291.605" fill="#F1F1F1" rx="50.0125" ry="16.4831" style="stroke:#181818;stroke-width:0.5;"/><text fill="#000000" font-family="sans-serif" font-size="14" lengthAdjust="spacing" textLength="66.4857" x="982.1296" y="297.639">Megszak&#237;t</text></g><!--entity update_plots--><g class="entity" data-qualified-name="NetLogo UI.update_plots" data-source-line="16" id="ent0011"><ellipse cx="1272.1078" cy="359.5975" fill="#F1F1F1" rx="85.7278" ry="19.5456" style="stroke:#181818;stroke-width:0.5;"/><text fill="#000000" font-family="sans-serif" font-size="14" lengthAdjust="spacing" textLength="135.2255" x="1204.4951" y="365.6315">Grafikonok friss&#237;t&#233;se</text></g><!--entity create_experiment--><g class="entity" data-qualified-name="BehaviorSpace.create_experiment" data-source-line="21" id="ent0013"><ellipse cx="105.2922" cy="737.6004" fill="#F1F1F1" rx="83.2922" ry="19.0584" style="stroke:#181818;stroke-width:0.5;"/><text fill="#000000" font-family="sans-serif" font-size="14" lengthAdjust="spacing" textLength="129.2195" x="40.6824" y="743.6344">K&#237;s&#233;rlet l&#233;trehoz&#225;sa</text></g><!--entity edit_experiment--><g class="entity" data-qualified-name="BehaviorSpace.edit_experiment" data-source-line="22" id="ent0014"><ellipse cx="405.64" cy="772.604" fill="#F1F1F1" rx="86.06" ry="19.612" style="stroke:#181818;stroke-width:0.5;"/><text fill="#000000" font-family="sans-serif" font-size="14" lengthAdjust="spacing" textLength="136.0375" x="337.6212" y="778.6379">K&#237;s&#233;rlet szerkeszt&#233;se</text></g><!--entity delete_experiment--><g class="entity" data-qualified-name="BehaviorSpace.delete_experiment" data-source-line="23" id="ent0015"><ellipse cx="405.6426" cy="843.6045" fill="#F1F1F1" rx="71.4626" ry="16.6925" style="stroke:#181818;stroke-width:0.5;"/><text fill="#000000" font-family="sans-serif" font-size="14" lengthAdjust="spacing" textLength="98.2796" x="356.5028" y="849.6385">K&#237;s&#233;rlet t&#246;rl&#233;se</text></g><!--entity run_experiment--><g class="entity" data-qualified-name="BehaviorSpace.run_experiment" data-source-line="25" id="ent0016"><ellipse cx="405.6412" cy="700.6022" fill="#F1F1F1" rx="76.4512" ry="17.6902" style="stroke:#181818;stroke-width:0.5;"/><text fill="#000000" font-family="sans-serif" font-size="14" lengthAdjust="spacing" textLength="111.7616" x="349.7604" y="706.6362">K&#237;s&#233;rlet futtat&#225;sa</text></g><!--entity abort_experiment--><g class="entity" data-qualified-name="BehaviorSpace.abort_experiment" data-source-line="28" id="ent0017"><ellipse cx="729.533" cy="702.5986" fill="#F1F1F1" rx="88.583" ry="20.1166" style="stroke:#181818;stroke-width:0.5;"/><text fill="#000000" font-family="sans-serif" font-size="14" lengthAdjust="spacing" textLength="142.1555" x="658.4553" y="708.6325">K&#237;s&#233;rlet megszak&#237;t&#225;sa</text></g><!--entity export_results--><g class="entity" data-qualified-name="BehaviorSpace.export_results" data-source-line="29" id="ent0018"><ellipse cx="729.5254" cy="777.6031" fill="#F1F1F1" rx="88.9554" ry="20.1911" style="stroke:#181818;stroke-width:0.5;"/><text fill="#000000" font-family="sans-serif" font-size="14" lengthAdjust="spacing" textLength="143.0514" x="657.9997" y="783.637">Eredm&#233;nyek ment&#233;se</text></g><!--entity user--><g class="entity" data-qualified-name="user" data-source-line="3" id="ent0002"><ellipse cx="105.2969" cy="442.572" fill="#F1F1F1" rx="8" ry="8" style="stroke:#181818;stroke-width:0.5;"/><path d="M105.2969,450.572 L105.2969,477.572 M92.2969,458.572 L118.2969,458.572 M105.2969,477.572 L92.2969,492.572 M105.2969,477.572 L118.2969,492.572" fill="none" style="stroke:#181818;stroke-width:0.5;"/><text fill="#000000" font-family="sans-serif" font-size="14" lengthAdjust="spacing" textLength="77.1537" x="66.72" y="509.0379">Felhaszn&#225;l&#243;</text></g><!--link user to reset--><g class="link" data-entity-1="ent0002" data-entity-2="ent0004" data-link-type="association" data-source-line="34" id="lnk19"><path d="M119.53,433.642 C136.79,385.832 170.55,305.182 218.58,248.602 C321.57,127.302 511.5,87.282 628.25,74.082" fill="none" id="user-reset" style="stroke:#181818;stroke-width:1;"/></g><!--link user to setup--><g class="link" data-entity-1="ent0002" data-entity-2="ent0006" data-link-type="association" data-source-line="35" id="lnk20"><path d="M133.92,433.762 C154.62,406.292 185.06,370.562 218.58,346.602 C341.82,258.542 520.87,235.562 630.74,230.242" fill="none" id="user-setup" style="stroke:#181818;stroke-width:1;"/></g><!--link user to configure--><g class="link" data-entity-1="ent0002" data-entity-2="ent0005" data-link-type="association" data-source-line="36" id="lnk21"><path d="M125.19,433.702 C144.57,395.922 177.64,339.382 218.58,300.602 C330.21,194.892 512.35,162.812 626.05,153.302" fill="none" id="user-configure" style="stroke:#181818;stroke-width:1;"/></g><!--link user to step--><g class="link" data-entity-1="ent0002" data-entity-2="ent0007" data-link-type="association" data-source-line="37" id="lnk22"><path d="M144.24,479.712 C217.14,491.112 381.94,515.222 521.7,523.602 C706.56,534.682 777.95,571.152 935.35,473.602 C973.22,450.132 997.62,401.052 1008.24,375.632" fill="none" id="user-step" style="stroke:#181818;stroke-width:1;"/></g><!--link user to 500_step--><g class="link" data-entity-1="ent0002" data-entity-2="ent0008" data-link-type="association" data-source-line="38" id="lnk23"><path d="M144.26,437.072 C164.8,419.152 191.47,398.662 218.58,385.602 C381.56,307.072 604.37,301.392 691.49,302.512" fill="none" id="user-500_step" style="stroke:#181818;stroke-width:1;"/></g><!--link user to go--><g class="link" data-entity-1="ent0002" data-entity-2="ent0009" data-link-type="association" data-source-line="39" id="lnk24"><path d="M144.18,451.142 C165.35,439.702 192.61,426.742 218.58,419.602 C363.2,379.872 538.74,372.962 641.6,372.872" fill="none" id="user-go" style="stroke:#181818;stroke-width:1;"/></g><!--link user to halt--><g class="link" data-entity-1="ent0002" data-entity-2="ent0010" data-link-type="association" data-source-line="40" id="lnk25"><path d="M144.27,471.882 C275.25,465.732 707.5,443.432 842.48,411.602 C885.73,401.402 901.38,403.232 935.35,374.602 C954.88,358.142 947.82,344.162 965.35,325.602 C972.32,318.222 981.14,311.512 989.37,306.042" fill="none" id="user-halt" style="stroke:#181818;stroke-width:1;"/></g><!--link user to create_experiment--><g class="link" data-entity-1="ent0002" data-entity-2="ent0013" data-link-type="association" data-source-line="42" id="lnk26"><path d="M105.29,513.262 C105.29,581.602 105.29,649.932 105.29,718.262" fill="none" id="user-create_experiment" style="stroke:#181818;stroke-width:1;"/></g><!--link user to edit_experiment--><g class="link" data-entity-1="ent0002" data-entity-2="ent0014" data-link-type="association" data-source-line="43" id="lnk27"><path d="M135.74,513.352 C156.96,540.392 187.25,575.962 218.58,602.602 C246.87,626.652 266.51,617.512 289.58,646.602 C315.52,679.302 291.35,704.852 319.58,735.602 C328.08,744.852 339.3,751.902 350.78,757.232" fill="none" id="user-edit_experiment" style="stroke:#181818;stroke-width:1;"/></g><!--link user to delete_experiment--><g class="link" data-entity-1="ent0002" data-entity-2="ent0015" data-link-type="association" data-source-line="44" id="lnk28"><path d="M126.28,513.462 C146.12,550.282 179.2,604.952 218.58,643.602 C245.25,669.772 267.74,658.292 289.58,688.602 C321.98,733.552 283.18,767.832 319.58,809.602 C328.47,819.792 340.83,826.962 353.38,832.002" fill="none" id="user-delete_experiment" style="stroke:#181818;stroke-width:1;"/></g><!--link user to run_experiment--><g class="link" data-entity-1="ent0002" data-entity-2="ent0016" data-link-type="association" data-source-line="45" id="lnk29"><path d="M144.22,505.012 C165.62,522.302 193.1,543.802 218.58,561.602 C249.02,582.862 259.42,583.952 289.58,605.602 C324.73,630.822 362.99,663.572 385.34,683.282" fill="none" id="user-run_experiment" style="stroke:#181818;stroke-width:1;"/></g><!--link user to abort_experiment--><g class="link" data-entity-1="ent0002" data-entity-2="ent0017" data-link-type="association" data-source-line="48" id="lnk30"><path d="M144.29,490.102 C165.94,499.352 193.66,510.942 218.58,520.602 C385.78,585.372 586.94,654.672 678.62,685.782" fill="none" id="user-abort_experiment" style="stroke:#181818;stroke-width:1;"/></g><!--link 500_step to step--><g class="link" data-entity-1="ent0008" data-entity-2="ent0007" data-link-type="dependency" data-source-line="50" id="lnk31"><path d="M763.13,295.482 C813.21,283.742 906.33,265.072 935.35,280.602 C956.55,291.942 948.52,308.452 965.35,325.602 C974.06,334.472 980.2937,339.2934 989.8637,345.3234" fill="none" id="500_step-to-step" style="stroke:#181818;stroke-width:1;stroke-dasharray:7,7;"/><polygon fill="#181818" points="994.94,348.522,989.4579,340.3399,990.7097,345.8565,985.1931,347.1084,994.94,348.522" style="stroke:#181818;stroke-width:1;"/><text fill="#000000" font-family="sans-serif" font-size="13" lengthAdjust="spacing" textLength="63.8041" x="868.35" y="270.589">&#171;includes&#187;</text></g><!--link go to step--><g class="link" data-entity-1="ent0009" data-entity-2="ent0007" data-link-type="dependency" data-source-line="51" id="lnk32"><path d="M815.31,370.122 C874.6,366.992 943.8884,363.3286 982.6784,361.2786" fill="none" id="go-to-step" style="stroke:#181818;stroke-width:1;stroke-dasharray:7,7;"/><polygon fill="#181818" points="988.67,360.962,979.4714,357.4425,983.677,361.2259,979.8936,365.4314,988.67,360.962" style="stroke:#181818;stroke-width:1;"/><text fill="#000000" font-family="sans-serif" font-size="13" lengthAdjust="spacing" textLength="63.8041" x="868.35" y="359.929">&#171;includes&#187;</text></g><!--link step to update_plots--><g class="link" data-entity-1="ent0007" data-entity-2="ent0011" data-link-type="dependency" data-source-line="52" id="lnk33"><path d="M1042.2,359.602 C1075.71,359.602 1129.86,359.602 1180.09,359.602" fill="none" id="step-to-update_plots" style="stroke:#181818;stroke-width:1;stroke-dasharray:7,7;"/><polygon fill="#181818" points="1186.09,359.602,1177.09,355.602,1181.09,359.602,1177.09,363.602,1186.09,359.602" style="stroke:#181818;stroke-width:1;"/><text fill="#000000" font-family="sans-serif" font-size="13" lengthAdjust="spacing" textLength="59.592" x="1096.38" y="355.499">&#171;invokes&#187;</text></g><!--link 500_step to halt--><g class="link" data-entity-1="ent0008" data-entity-2="ent0010" data-link-type="dependency" data-source-line="54" id="lnk34"><path d="M767.04,300.272 C790.95,296.382 821.55,287.932 842.48,269.602 C860.12,254.162 844.64,234.282 864.35,221.602 C890.89,204.532 905.85,210.412 935.35,221.602 C963.63,232.322 984.4899,253.6506 998.4399,270.7706" fill="none" id="500_step-to-halt" style="stroke:#181818;stroke-width:1;stroke-dasharray:7,7;"/><polygon fill="#181818" points="1002.23,275.422,999.6458,265.9182,999.0716,271.5458,993.4439,270.9717,1002.23,275.422" style="stroke:#181818;stroke-width:1;"/><text fill="#000000" font-family="sans-serif" font-size="13" lengthAdjust="spacing" textLength="69.056" x="865.35" y="206.789">&#171;precedes&#187;</text></g><!--link go to halt--><g class="link" data-entity-1="ent0009" data-entity-2="ent0010" data-link-type="dependency" data-source-line="55" id="lnk35"><path d="M784.92,358.692 C841.26,342.222 922.0314,318.6067 971.1514,304.2367" fill="none" id="go-to-halt" style="stroke:#181818;stroke-width:1;stroke-dasharray:7,7;"/><polygon fill="#181818" points="976.91,302.552,967.1489,301.2399,972.1111,303.9559,969.3952,308.9181,976.91,302.552" style="stroke:#181818;stroke-width:1;"/><text fill="#000000" font-family="sans-serif" font-size="13" lengthAdjust="spacing" textLength="69.056" x="865.35" y="312.029">&#171;precedes&#187;</text></g><!--link create_experiment to edit_experiment--><g class="link" data-entity-1="ent0013" data-entity-2="ent0014" data-link-type="dependency" data-source-line="57" id="lnk36"><path d="M152.41,753.682 C172.47,759.912 196.43,766.322 218.58,769.602 C251.66,774.492 282.41,775.9295 314.44,775.8895" fill="none" id="create_experiment-to-edit_experiment" style="stroke:#181818;stroke-width:1;stroke-dasharray:7,7;"/><polygon fill="#181818" points="320.44,775.882,311.435,771.8932,315.44,775.8882,311.445,779.8932,320.44,775.882" style="stroke:#181818;stroke-width:1;"/><text fill="#000000" font-family="sans-serif" font-size="13" lengthAdjust="spacing" textLength="69.056" x="219.58" y="765.499">&#171;precedes&#187;</text></g><!--link create_experiment to delete_experiment--><g class="link" data-entity-1="ent0013" data-entity-2="ent0015" data-link-type="dependency" data-source-line="58" id="lnk37"><path d="M132.35,755.802 C154.39,770.412 187.3,790.442 218.58,802.602 C258.97,818.302 300.8271,827.6532 337.8571,834.0332" fill="none" id="create_experiment-to-delete_experiment" style="stroke:#181818;stroke-width:1;stroke-dasharray:7,7;"/><polygon fill="#181818" points="343.77,835.052,335.5798,829.5819,338.8426,834.203,334.2215,837.4658,343.77,835.052" style="stroke:#181818;stroke-width:1;"/><text fill="#000000" font-family="sans-serif" font-size="13" lengthAdjust="spacing" textLength="69.056" x="219.58" y="798.499">&#171;precedes&#187;</text></g><!--link create_experiment to run_experiment--><g class="link" data-entity-1="ent0013" data-entity-2="ent0016" data-link-type="dependency" data-source-line="59" id="lnk38"><path d="M179.28,728.552 C227.58,722.562 284.4955,715.4996 331.5555,709.6696" fill="none" id="create_experiment-to-run_experiment" style="stroke:#181818;stroke-width:1;stroke-dasharray:7,7;"/><polygon fill="#181818" points="337.51,708.932,328.0865,706.0688,332.5479,709.5467,329.0701,714.0081,337.51,708.932" style="stroke:#181818;stroke-width:1;"/><text fill="#000000" font-family="sans-serif" font-size="13" lengthAdjust="spacing" textLength="69.056" x="219.58" y="711.689">&#171;precedes&#187;</text></g><!--link run_experiment to export_results--><g class="link" data-entity-1="ent0016" data-entity-2="ent0018" data-link-type="dependency" data-source-line="60" id="lnk39"><path d="M459.61,713.562 C479.13,718.322 501.41,723.732 521.7,728.602 C570.32,740.272 619.5802,751.9448 660.6702,761.6348" fill="none" id="run_experiment-to-export_results" style="stroke:#181818;stroke-width:1;stroke-dasharray:7,7;"/><polygon fill="#181818" points="666.51,763.012,658.6684,757.053,661.6435,761.8643,656.8322,764.8394,666.51,763.012" style="stroke:#181818;stroke-width:1;"/><text fill="#000000" font-family="sans-serif" font-size="13" lengthAdjust="spacing" textLength="59.592" x="527.7" y="724.499">&#171;invokes&#187;</text></g><!--link run_experiment to go--><g class="link" data-entity-1="ent0016" data-entity-2="ent0009" data-link-type="dependency" data-source-line="61" id="lnk40"><path d="M423.95,683.072 C479.19,627.132 646.8343,457.3414 704.9143,398.5214" fill="none" id="run_experiment-to-go" style="stroke:#181818;stroke-width:1;stroke-dasharray:7,7;"/><polygon fill="#181818" points="709.13,394.252,699.9602,397.8456,705.6169,397.8098,705.6527,403.4666,709.13,394.252" style="stroke:#181818;stroke-width:1;"/><text fill="#000000" font-family="sans-serif" font-size="13" lengthAdjust="spacing" textLength="63.8041" x="525.7" y="513.979">&#171;includes&#187;</text></g><!--link run_experiment to abort_experiment--><g class="link" data-entity-1="ent0016" data-entity-2="ent0017" data-link-type="dependency" data-source-line="63" id="lnk41"><path d="M482.52,701.072 C529.91,701.372 585.1201,701.7156 634.6301,702.0156" fill="none" id="run_experiment-to-abort_experiment" style="stroke:#181818;stroke-width:1;stroke-dasharray:7,7;"/><polygon fill="#181818" points="640.63,702.052,631.6544,697.9975,635.6301,702.0217,631.6059,705.9974,640.63,702.052" style="stroke:#181818;stroke-width:1;"/><text fill="#000000" font-family="sans-serif" font-size="13" lengthAdjust="spacing" textLength="69.056" x="522.7" y="697.259">&#171;precedes&#187;</text></g><?plantuml-src ZLInRjim4Dtv5OGNjqE2TEXI11uA94MGjYWGT0vewIGHeaI1F0MnYdwCHm-P0dJgnX_hIRRaa9GBUpBllSUxUtUKWWmvQcvaNY1FfO44fQuP4mbgmnUte0fXkzfjbNjTS65vQy4mreYa53dmnNV0hphN_EVTWlzYZDEF68cmmD_z44PKReTWeEH2YQO0jUa0r_2-lyc01VoF0i4YSJgnTbih1acYwqpchG5Vzj39gbLksvSSvw4iRHEKze6Nxe_PmmYD3twykZh2T7YCARTQRIg1ckI7t8bqhuCWrpxr6-JKG-bUS80BeJ0eveiHcInrhKkU6MajKTtExejlcrGWF3PAesNizsJyPoZ4azJcWG8GEN_lNgpR6GN85TbfeD3TqKG3_PNmt82H5THuKcixC2LDu5WEf1BFKIBPfoPL2XJpCfuKPYsYmAbMqzPXkkMi35Jc_kQvLsmZY7gUdCRffGNRLcTPL4tJdSHYhSrfasuCfBJYzOOsl4UFrZutlQvFhVQpPgn_RFpYul1KnjD-eSVJyKrCUB-kus7Qtp50-pd-tU_YT56q5oCIJdsCntET2lRdjXpZqKYMRreCB1-Ho4ysziGlBrT3j_mJlxwMTQBQ5EngnUY3T0gQT6zVre7qfCk1uoVeNHe83NqTmKim1x78nu4QU1YgvaMHmUV9VFT3JO0EnNcx5xWnmwVs0rldME7WmaAMCvfmGI9DH1WQ3fSdaFq3?></g></svg>